<svg xmlns="http://www.w3.org/2000/svg" width="856.36" height="157.29" viewBox="0 0 856.36 157.29"><g id="Layer_2" data-name="Layer 2"><g id="Layer_1-2" data-name="Layer 1"><path d="M715.05,14.45a25.22,25.22,0,0,0-45.39,7,60.6,60.6,0,0,0,30.56,116.29,25.22,25.22,0,0,0,41.68-19.07c0-.25,0-.49,0-.72H836.2a20.17,20.17,0,0,0,0-40.34H769.45a25.24,25.24,0,0,0-14.61-34.9,25.23,25.23,0,0,0-39.79-28.3Z" style="fill:#e88b6b;fill-rule:evenodd"/><path d="M855.79,97.06a20.16,20.16,0,0,1-20.16,20.17H767.88c0-.63,0-1.26,0-1.9a83,83,0,0,0-128-69.74,60.77,60.77,0,0,1,29.18-24.85,25.22,25.22,0,0,1,45.4-7A25.23,25.23,0,0,1,754.27,42a25.23,25.23,0,0,1,14.61,34.89h66.75A20.16,20.16,0,0,1,855.79,97.06Z" style="fill:#f4b586;fill-rule:evenodd"/><path d="M644.27,12.78l7.54-4.35a5.37,5.37,0,0,1,7.33,2,14.17,14.17,0,0,1,1.54,10.18,8,8,0,0,1,9.59,4.3A21.22,21.22,0,0,1,659.84,53l-.34.16a21.2,21.2,0,0,1,15.57,17.5,8,8,0,0,1-6.8,9l-5.07.71a19.17,19.17,0,0,1,.24,15.11l-2.06,5.07,11.6,2.77a7.28,7.28,0,0,1,5.38,8.79,19.41,19.41,0,0,1-22.77,14.42,14.32,14.32,0,0,1,1.66,15.81,5.38,5.38,0,0,1-7.27,2.28l-17.75-9.42-1.4,4A14.25,14.25,0,0,1,612.68,148a5.33,5.33,0,0,1-3.28-6.89l2.62-7.46H291.86L293.8,137a14.27,14.27,0,0,1-5.13,19.54,5.42,5.42,0,0,1-7.39-1.9L276.82,147l-3,2.45a14.26,14.26,0,0,1-20-2.15,5.37,5.37,0,0,1,.83-7.59l7.5-6.07H0V21H193a14.31,14.31,0,0,1,3.4-16.76,5.4,5.4,0,0,1,7.59.44l5.81,6.55,2.53-3.07a14.32,14.32,0,0,1,20.1-1.9,5.4,5.4,0,0,1,.69,7.59L227.18,21H436a14.28,14.28,0,0,1,4.73-9.61,5.4,5.4,0,0,1,7.59.44l5.83,6.62,2.64-3.14a14.24,14.24,0,0,1,20.1-1.77,5.4,5.4,0,0,1,.79,7.46H626.32l-5-13a5.39,5.39,0,0,1,3.1-7,14.29,14.29,0,0,1,18.45,8.16Z" style="fill:#efc46f;fill-rule:evenodd"/><path d="M671.71,38.22c-88.52,32.69-216.56,53.23-359,53.23C193.49,91.45,84.33,77.05,0,53.18V21H193a14.31,14.31,0,0,1,3.4-16.76,5.38,5.38,0,0,1,7.58.44l5.81,6.55,2.54-3.07a14.32,14.32,0,0,1,20.1-1.9,5.41,5.41,0,0,1,.69,7.59L227.17,21H436a14.28,14.28,0,0,1,4.73-9.61,5.4,5.4,0,0,1,7.59.44l5.83,6.62,2.64-3.14a14.24,14.24,0,0,1,20.1-1.77,5.4,5.4,0,0,1,.79,7.46H626.32l-5-13A5.36,5.36,0,0,1,624.38,1a14.27,14.27,0,0,1,18.45,8.15l1.44,3.66,7.54-4.35a5.37,5.37,0,0,1,7.33,2,14.17,14.17,0,0,1,1.54,10.18,8,8,0,0,1,9.59,4.3A21.06,21.06,0,0,1,671.71,38.22Z" style="fill:#fade7e;fill-rule:evenodd"/></g></g></svg>