<svg width="84" height="84" viewBox="0 0 84 84" fill="none" xmlns="http://www.w3.org/2000/svg">
<g filter="url(#filter0_d_702_1088)">
<circle cx="38" cy="38" r="38" fill="white"/>
</g>
<path d="M65.1143 24.7748C68.2602 31.3543 68.8574 38.866 66.7906 45.8599C64.7239 52.8539 60.1397 58.8344 53.9228 62.6472C47.7059 66.46 40.2971 67.8348 33.1261 66.5063C25.9552 65.1778 19.5306 61.2401 15.0922 55.4533C10.6538 49.6664 8.51627 42.4406 9.09217 35.1704C9.66808 27.9003 12.9166 21.1011 18.2107 16.0852C23.5048 11.0693 30.4693 8.19225 37.76 8.00929C45.0506 7.82634 52.1506 10.3505 57.6897 15.0945L64.1139 8.66743C64.5393 8.24204 65.1163 8.00306 65.7179 8.00306C66.3195 8.00306 66.8964 8.24204 67.3218 8.66743C67.7472 9.09282 67.9862 9.66977 67.9862 10.2714C67.9862 10.873 67.7472 11.4499 67.3218 11.8753L49.7352 29.4648L39.0489 40.1511L32.2619 46.938C34.0165 48.0986 36.0595 48.7479 38.1622 48.8134C40.2649 48.8789 42.3444 48.358 44.1678 47.3089C45.9913 46.2598 47.4868 44.724 48.4871 42.8733C49.4874 41.0226 49.9529 38.93 49.8315 36.8298C49.7977 36.2286 50.0041 35.6385 50.4054 35.1894C50.8066 34.7404 51.3698 34.4691 51.971 34.4353C52.5723 34.4014 53.1624 34.6079 53.6114 35.0091C54.0605 35.4103 54.3318 35.9735 54.3656 36.5748C54.5485 39.7849 53.7519 42.9749 52.0813 45.7222C50.4108 48.4695 47.9451 50.6446 45.0108 51.9593C42.0766 53.2741 38.8121 53.6665 35.6499 53.0845C32.4876 52.5026 29.5767 50.9738 27.3027 48.7007C24.4745 45.8619 22.825 42.0582 22.6853 38.0535C22.5456 34.0487 23.9262 30.1394 26.5497 27.1105C29.1733 24.0815 32.8456 22.1573 36.8292 21.724C40.8129 21.2908 44.8131 22.3806 48.0264 24.7748L54.4676 18.3222C49.7431 14.3996 43.7359 12.3609 37.5998 12.5976C31.4637 12.8342 25.6314 15.3296 21.223 19.6044C16.8147 23.8792 14.1411 29.6321 13.7159 35.758C13.2906 41.8839 15.1436 47.9509 18.9191 52.7939C22.6945 57.6368 28.1261 60.9141 34.1706 61.9963C40.2152 63.0785 46.4464 61.8894 51.6676 58.6572C56.8888 55.4251 60.7318 50.3778 62.4584 44.4849C64.185 38.592 63.6736 32.2689 61.0222 26.7301C60.7629 26.1875 60.7298 25.5641 60.9302 24.997C61.1305 24.43 61.5479 23.9657 62.0906 23.7065C62.6332 23.4472 63.2566 23.4141 63.8237 23.6144C64.3907 23.8148 64.855 24.2322 65.1143 24.7748Z" fill="url(#paint0_linear_702_1088)"/>
<defs>
<filter id="filter0_d_702_1088" x="0" y="0" width="84" height="84" filterUnits="userSpaceOnUse" color-interpolation-filters="sRGB">
<feFlood flood-opacity="0" result="BackgroundImageFix"/>
<feColorMatrix in="SourceAlpha" type="matrix" values="0 0 0 0 0 0 0 0 0 0 0 0 0 0 0 0 0 0 127 0" result="hardAlpha"/>
<feOffset dx="4" dy="4"/>
<feGaussianBlur stdDeviation="2"/>
<feComposite in2="hardAlpha" operator="out"/>
<feColorMatrix type="matrix" values="0 0 0 0 0 0 0 0 0 0 0 0 0 0 0 0 0 0 0.25 0"/>
<feBlend mode="normal" in2="BackgroundImageFix" result="effect1_dropShadow_702_1088"/>
<feBlend mode="normal" in="SourceGraphic" in2="effect1_dropShadow_702_1088" result="shape"/>
</filter>
<linearGradient id="paint0_linear_702_1088" x1="38.5" y1="8" x2="38.5" y2="67" gradientUnits="userSpaceOnUse">
<stop stop-color="#FE9494"/>
<stop offset="1" stop-color="#FB1985"/>
</linearGradient>
</defs>
</svg>
