<svg width="76" height="76" viewBox="0 0 76 76" fill="none" xmlns="http://www.w3.org/2000/svg">
<rect x="9" y="15" width="56" height="43" fill="white"/>
<path d="M37.3053 45.8197C37.0847 45.5989 36.8228 45.4237 36.5345 45.3042C36.2461 45.1846 35.9371 45.1231 35.625 45.1231C35.3129 45.1231 35.0038 45.1846 34.7155 45.3042C34.4272 45.4237 34.1652 45.5989 33.9447 45.8197L19 60.7673L13.5553 55.3197C13.3346 55.099 13.0727 54.924 12.7844 54.8046C12.496 54.6851 12.187 54.6237 11.875 54.6237C11.5629 54.6237 11.2539 54.6851 10.9656 54.8046C10.6773 54.924 10.4153 55.099 10.1947 55.3197C9.974 55.5403 9.79897 55.8023 9.67954 56.0906C9.56012 56.3789 9.49866 56.6879 9.49866 57C9.49866 57.3121 9.56012 57.6211 9.67954 57.9094C9.79897 58.1977 9.974 58.4597 10.1947 58.6803L17.3197 65.8053C17.5402 66.0261 17.8022 66.2013 18.0905 66.3208C18.3788 66.4404 18.6879 66.5019 19 66.5019C19.3121 66.5019 19.6211 66.4404 19.9095 66.3208C20.1978 66.2013 20.4597 66.0261 20.6803 65.8053L37.3053 49.1803C37.5261 48.9597 37.7013 48.6978 37.8208 48.4095C37.9403 48.1212 38.0018 47.8121 38.0018 47.5C38.0018 47.1879 37.9403 46.8788 37.8208 46.5905C37.7013 46.3022 37.5261 46.0403 37.3053 45.8197Z" fill="black"/>
<path d="M61.75 61.75H40.375C39.7451 61.75 39.141 62.0002 38.6956 62.4456C38.2502 62.891 38 63.4951 38 64.125C38 64.7549 38.2502 65.359 38.6956 65.8044C39.141 66.2498 39.7451 66.5 40.375 66.5H61.75C63.0098 66.5 64.2179 65.9996 65.1087 65.1088C65.9995 64.218 66.5 63.0098 66.5 61.75V14.25C66.5 12.9902 65.9995 11.782 65.1087 10.8912C64.2179 10.0004 63.0098 9.5 61.75 9.5H14.25C12.9902 9.5 11.782 10.0004 10.8912 10.8912C10.0004 11.782 9.49998 12.9902 9.49998 14.25V42.75C9.49998 43.3799 9.7502 43.984 10.1956 44.4294C10.641 44.8748 11.2451 45.125 11.875 45.125C12.5049 45.125 13.109 44.8748 13.5544 44.4294M37.3053 45.8197C37.0847 45.5989 36.8228 45.4237 36.5345 45.3042C36.2461 45.1846 35.9371 45.1231 35.625 45.1231C35.3129 45.1231 35.0038 45.1846 34.7155 45.3042C34.4272 45.4237 34.1652 45.5989 33.9447 45.8197L19 60.7673L13.5553 55.3197C13.3346 55.099 13.0727 54.924 12.7844 54.8046C12.496 54.6851 12.187 54.6237 11.875 54.6237C11.5629 54.6237 11.2539 54.6851 10.9656 54.8046C10.6773 54.924 10.4153 55.099 10.1947 55.3197C9.974 55.5403 9.79897 55.8023 9.67954 56.0906C9.56012 56.3789 9.49866 56.6879 9.49866 57C9.49866 57.3121 9.56012 57.6211 9.67954 57.9094C9.79897 58.1977 9.974 58.4597 10.1947 58.6803L17.3197 65.8053C17.5402 66.0261 17.8022 66.2013 18.0905 66.3208C18.3788 66.4404 18.6879 66.5019 19 66.5019C19.3121 66.5019 19.6211 66.4404 19.9095 66.3208C20.1978 66.2013 20.4597 66.0261 20.6803 65.8053L37.3053 49.1803C37.5261 48.9597 37.7013 48.6978 37.8208 48.4095C37.9403 48.1212 38.0018 47.8121 38.0018 47.5C38.0018 47.1879 37.9403 46.8788 37.8208 46.5905C37.7013 46.3022 37.5261 46.0403 37.3053 45.8197Z" stroke="white" stroke-width="12"/>
<path d="M66.5 14.25V61.75C66.5 63.0098 65.9995 64.218 65.1087 65.1088C64.2179 65.9996 63.0098 66.5 61.75 66.5H40.375C39.7451 66.5 39.141 66.2498 38.6956 65.8044C38.2502 65.359 38 64.7549 38 64.125C38 63.4951 38.2502 62.891 38.6956 62.4456C39.141 62.0002 39.7451 61.75 40.375 61.75H61.75V14.25H14.25V42.75C14.25 43.3799 13.9998 43.984 13.5544 44.4294C13.109 44.8748 12.5049 45.125 11.875 45.125C11.2451 45.125 10.641 44.8748 10.1956 44.4294C9.7502 43.984 9.49998 43.3799 9.49998 42.75V14.25C9.49998 12.9902 10.0004 11.782 10.8912 10.8912C11.782 10.0004 12.9902 9.5 14.25 9.5H61.75C63.0098 9.5 64.2179 10.0004 65.1087 10.8912C65.9995 11.782 66.5 12.9902 66.5 14.25ZM37.3053 45.8197C37.0847 45.5989 36.8228 45.4237 36.5345 45.3042C36.2461 45.1846 35.9371 45.1231 35.625 45.1231C35.3129 45.1231 35.0038 45.1846 34.7155 45.3042C34.4272 45.4237 34.1652 45.5989 33.9447 45.8197L19 60.7673L13.5553 55.3197C13.3346 55.099 13.0727 54.924 12.7844 54.8046C12.496 54.6851 12.187 54.6237 11.875 54.6237C11.5629 54.6237 11.2539 54.6851 10.9656 54.8046C10.6773 54.924 10.4153 55.099 10.1947 55.3197C9.974 55.5403 9.79897 55.8023 9.67954 56.0906C9.56012 56.3789 9.49866 56.6879 9.49866 57C9.49866 57.3121 9.56012 57.6211 9.67954 57.9094C9.79897 58.1977 9.974 58.4597 10.1947 58.6803L17.3197 65.8053C17.5402 66.0261 17.8022 66.2013 18.0905 66.3208C18.3788 66.4404 18.6879 66.5019 19 66.5019C19.3121 66.5019 19.6211 66.4404 19.9095 66.3208C20.1978 66.2013 20.4597 66.0261 20.6803 65.8053L37.3053 49.1803C37.5261 48.9597 37.7013 48.6978 37.8208 48.4095C37.9403 48.1212 38.0018 47.8121 38.0018 47.5C38.0018 47.1879 37.9403 46.8788 37.8208 46.5905C37.7013 46.3022 37.5261 46.0403 37.3053 45.8197Z" fill="url(#paint0_linear_727_138)"/>
<defs>
<linearGradient id="paint0_linear_727_138" x1="9" y1="14" x2="66" y2="67" gradientUnits="userSpaceOnUse">
<stop stop-color="#FADE7E"/>
<stop offset="1" stop-color="#FFB931"/>
</linearGradient>
</defs>
</svg>
