<svg width="151" height="30" viewBox="0 0 151 30" fill="none" xmlns="http://www.w3.org/2000/svg">
<path d="M48.504 24.192C47.368 24.192 46.36 23.968 45.48 23.52C44.616 23.072 43.944 22.432 43.464 21.6C43 20.768 42.768 19.808 42.768 18.72V12.432C42.768 11.344 43 10.392 43.464 9.576C43.944 8.76 44.616 8.128 45.48 7.68C46.36 7.232 47.368 7.008 48.504 7.008C49.64 7.008 50.64 7.224 51.504 7.656C52.384 8.088 53.056 8.704 53.52 9.504C54 10.304 54.24 11.232 54.24 12.288V12.384C54.24 12.464 54.208 12.536 54.144 12.6C54.096 12.664 54.032 12.696 53.952 12.696L50.544 12.84C50.352 12.84 50.256 12.752 50.256 12.576V12.24C50.256 11.696 50.096 11.256 49.776 10.92C49.456 10.584 49.032 10.416 48.504 10.416C47.976 10.416 47.552 10.584 47.232 10.92C46.912 11.256 46.752 11.696 46.752 12.24V18.96C46.752 19.504 46.912 19.944 47.232 20.28C47.552 20.616 47.976 20.784 48.504 20.784C49.032 20.784 49.456 20.616 49.776 20.28C50.096 19.944 50.256 19.504 50.256 18.96V18.624C50.256 18.448 50.352 18.36 50.544 18.36L53.952 18.504C54.032 18.504 54.096 18.536 54.144 18.6C54.208 18.664 54.24 18.736 54.24 18.816V18.864C54.24 19.92 54 20.856 53.52 21.672C53.056 22.472 52.384 23.096 51.504 23.544C50.64 23.976 49.64 24.192 48.504 24.192ZM63.2655 7.488C63.2655 7.408 63.2895 7.344 63.3375 7.296C63.4015 7.232 63.4735 7.2 63.5535 7.2H66.9615C67.0415 7.2 67.1055 7.232 67.1535 7.296C67.2175 7.344 67.2495 7.408 67.2495 7.488V23.712C67.2495 23.792 67.2175 23.864 67.1535 23.928C67.1055 23.976 67.0415 24 66.9615 24H63.5535C63.4735 24 63.4015 23.976 63.3375 23.928C63.2895 23.864 63.2655 23.792 63.2655 23.712V17.376C63.2655 17.296 63.2255 17.256 63.1455 17.256H60.0495C59.9695 17.256 59.9295 17.296 59.9295 17.376V23.712C59.9295 23.792 59.8975 23.864 59.8335 23.928C59.7855 23.976 59.7215 24 59.6415 24H56.2335C56.1535 24 56.0815 23.976 56.0175 23.928C55.9695 23.864 55.9455 23.792 55.9455 23.712V7.488C55.9455 7.408 55.9695 7.344 56.0175 7.296C56.0815 7.232 56.1535 7.2 56.2335 7.2H59.6415C59.7215 7.2 59.7855 7.232 59.8335 7.296C59.8975 7.344 59.9295 7.408 59.9295 7.488V13.728C59.9295 13.808 59.9695 13.848 60.0495 13.848H63.1455C63.2255 13.848 63.2655 13.808 63.2655 13.728V7.488ZM69.4523 24C69.3723 24 69.3003 23.976 69.2363 23.928C69.1883 23.864 69.1643 23.792 69.1643 23.712V7.488C69.1643 7.408 69.1883 7.344 69.2363 7.296C69.3003 7.232 69.3723 7.2 69.4523 7.2H72.8603C72.9403 7.2 73.0043 7.232 73.0523 7.296C73.1163 7.344 73.1483 7.408 73.1483 7.488V23.712C73.1483 23.792 73.1163 23.864 73.0523 23.928C73.0043 23.976 72.9403 24 72.8603 24H69.4523ZM84.4523 7.392C84.5163 7.264 84.6283 7.2 84.7883 7.2H88.1723C88.2523 7.2 88.3163 7.232 88.3643 7.296C88.4283 7.344 88.4603 7.408 88.4603 7.488V23.712C88.4603 23.792 88.4283 23.864 88.3643 23.928C88.3163 23.976 88.2523 24 88.1723 24H84.7643C84.6843 24 84.6123 23.976 84.5483 23.928C84.5003 23.864 84.4763 23.792 84.4763 23.712V13.752C84.4763 13.688 84.4603 13.656 84.4283 13.656C84.3963 13.64 84.3643 13.656 84.3323 13.704L82.4603 16.824C82.3963 16.952 82.2843 17.016 82.1243 17.016H81.4523C81.2923 17.016 81.1803 16.952 81.1163 16.824L79.2443 13.704C79.2123 13.656 79.1803 13.64 79.1483 13.656C79.1163 13.656 79.1003 13.688 79.1003 13.752V23.712C79.1003 23.792 79.0683 23.864 79.0043 23.928C78.9563 23.976 78.8923 24 78.8123 24H75.4043C75.3243 24 75.2523 23.976 75.1883 23.928C75.1403 23.864 75.1163 23.792 75.1163 23.712V7.488C75.1163 7.408 75.1403 7.344 75.1883 7.296C75.2523 7.232 75.3243 7.2 75.4043 7.2H78.7883C78.9483 7.2 79.0603 7.264 79.1243 7.392L81.7163 11.76C81.7643 11.856 81.8123 11.856 81.8603 11.76L84.4523 7.392ZM96.7101 7.2C97.7181 7.2 98.6061 7.424 99.3741 7.872C100.158 8.304 100.758 8.928 101.174 9.744C101.606 10.544 101.822 11.464 101.822 12.504C101.822 13.528 101.606 14.432 101.174 15.216C100.758 16 100.158 16.608 99.3741 17.04C98.6061 17.456 97.7181 17.664 96.7101 17.664H94.4541C94.3741 17.664 94.3341 17.704 94.3341 17.784V23.712C94.3341 23.792 94.3021 23.864 94.2381 23.928C94.1901 23.976 94.1261 24 94.0461 24H90.6381C90.5581 24 90.4861 23.976 90.4221 23.928C90.3741 23.864 90.3501 23.792 90.3501 23.712V7.488C90.3501 7.408 90.3741 7.344 90.4221 7.296C90.4861 7.232 90.5581 7.2 90.6381 7.2H96.7101ZM96.0381 14.52C96.5821 14.52 97.0221 14.352 97.3581 14.016C97.6941 13.664 97.8621 13.192 97.8621 12.6C97.8621 11.992 97.6941 11.512 97.3581 11.16C97.0221 10.792 96.5821 10.608 96.0381 10.608H94.4541C94.3741 10.608 94.3341 10.648 94.3341 10.728V14.4C94.3341 14.48 94.3741 14.52 94.4541 14.52H96.0381ZM114.377 7.2C114.457 7.2 114.521 7.232 114.569 7.296C114.633 7.344 114.665 7.408 114.665 7.488V10.344C114.665 10.424 114.633 10.496 114.569 10.56C114.521 10.608 114.457 10.632 114.377 10.632H110.777C110.697 10.632 110.657 10.672 110.657 10.752V23.712C110.657 23.792 110.625 23.864 110.561 23.928C110.513 23.976 110.449 24 110.369 24H106.961C106.881 24 106.809 23.976 106.745 23.928C106.697 23.864 106.673 23.792 106.673 23.712V10.752C106.673 10.672 106.633 10.632 106.553 10.632H103.097C103.017 10.632 102.945 10.608 102.881 10.56C102.833 10.496 102.809 10.424 102.809 10.344V7.488C102.809 7.408 102.833 7.344 102.881 7.296C102.945 7.232 103.017 7.2 103.097 7.2H114.377ZM121.35 24.24C120.198 24.24 119.182 24.008 118.302 23.544C117.422 23.08 116.734 22.424 116.238 21.576C115.758 20.728 115.518 19.744 115.518 18.624V12.576C115.518 11.472 115.758 10.504 116.238 9.672C116.734 8.824 117.422 8.168 118.302 7.704C119.182 7.24 120.198 7.008 121.35 7.008C122.502 7.008 123.518 7.24 124.398 7.704C125.278 8.168 125.958 8.824 126.438 9.672C126.934 10.504 127.182 11.472 127.182 12.576V18.624C127.182 19.744 126.934 20.728 126.438 21.576C125.958 22.424 125.278 23.08 124.398 23.544C123.518 24.008 122.502 24.24 121.35 24.24ZM121.35 20.808C121.91 20.808 122.358 20.624 122.694 20.256C123.03 19.872 123.198 19.376 123.198 18.768V12.48C123.198 11.872 123.022 11.376 122.67 10.992C122.334 10.608 121.894 10.416 121.35 10.416C120.79 10.416 120.342 10.608 120.006 10.992C119.67 11.36 119.502 11.856 119.502 12.48V18.768C119.502 19.376 119.67 19.872 120.006 20.256C120.342 20.624 120.79 20.808 121.35 20.808ZM129.241 24C129.161 24 129.089 23.976 129.025 23.928C128.977 23.864 128.953 23.792 128.953 23.712V7.488C128.953 7.408 128.977 7.344 129.025 7.296C129.089 7.232 129.161 7.2 129.241 7.2H132.649C132.729 7.2 132.793 7.232 132.841 7.296C132.905 7.344 132.937 7.408 132.937 7.488V13.32C132.937 13.384 132.953 13.424 132.985 13.44C133.017 13.44 133.049 13.416 133.081 13.368L136.753 7.392C136.817 7.264 136.929 7.2 137.089 7.2H140.833C140.945 7.2 141.017 7.232 141.049 7.296C141.097 7.344 141.089 7.424 141.025 7.536L136.705 14.544C136.689 14.592 136.689 14.648 136.705 14.712L141.241 23.664C141.273 23.728 141.289 23.776 141.289 23.808C141.289 23.936 141.201 24 141.025 24H137.305C137.161 24 137.049 23.928 136.969 23.784L133.969 17.784C133.905 17.688 133.849 17.688 133.801 17.784L132.985 19.08C132.953 19.144 132.937 19.192 132.937 19.224V23.712C132.937 23.792 132.905 23.864 132.841 23.928C132.793 23.976 132.729 24 132.649 24H129.241Z" fill="#302D27"/>
<g clip-path="url(#clip0_605_352)">
<path d="M31.9447 14.8392L28.4545 27.58C28.3437 27.9766 28.0769 28.3142 27.7125 28.5189C27.348 28.7237 26.9156 28.779 26.5096 28.6729L17.2185 26.2376C16.8111 26.1307 16.4639 25.8699 16.2531 25.5125C16.0423 25.1552 15.9851 24.7306 16.0943 24.3321L16.7648 21.8815L18.6077 22.3641C18.8599 22.4306 19.123 22.4477 19.3819 22.4144C19.6408 22.3812 19.8905 22.2983 20.1166 22.1705C20.3428 22.0427 20.5409 21.8725 20.6996 21.6697C20.8584 21.4668 20.9747 21.2353 21.0418 20.9884L23.7565 11.0753L30.8191 12.9267C31.0217 12.9795 31.2116 13.0709 31.378 13.1957C31.5443 13.3205 31.6838 13.4763 31.7884 13.654C31.893 13.8317 31.9607 14.0279 31.9875 14.2313C32.0143 14.4347 31.9998 14.6413 31.9447 14.8392Z" fill="#302D27"/>
<path d="M10.9157 2.32712L3.71277 28.6298C3.64854 28.8642 3.53775 29.0839 3.38672 29.2764C3.2357 29.4689 3.04739 29.6305 2.83256 29.7518C2.61772 29.8731 2.38057 29.9518 2.13463 29.9835C1.8887 30.0151 1.6388 29.999 1.39921 29.9362C1.15961 29.8734 0.935014 29.765 0.738237 29.6173C0.541459 29.4695 0.376355 29.2853 0.252352 29.0751C0.128348 28.865 0.0478736 28.633 0.0155228 28.3924C-0.016828 28.1518 -0.000421632 27.9073 0.0638053 27.6729L7.26817 1.37021C7.40109 0.900547 7.71834 0.501302 8.15081 0.259438C8.58328 0.0175747 9.09592 -0.0473109 9.57707 0.0789159C10.0582 0.205143 10.4689 0.512254 10.7196 0.933352C10.9703 1.35445 11.0408 1.85542 10.9157 2.32712Z" fill="#302D27"/>
<path d="M23.6941 6.78304L22.6011 10.773L19.885 20.6861C19.8583 20.785 19.8119 20.8779 19.7485 20.9594C19.6851 21.0408 19.6059 21.1093 19.5155 21.1608C19.4251 21.2123 19.3251 21.2459 19.2214 21.2596C19.1177 21.2733 19.0123 21.2669 18.9111 21.2408L17.0682 20.7582L8.73254 18.5684C8.63125 18.5424 8.53619 18.4971 8.45283 18.4352C8.36946 18.3732 8.29943 18.2957 8.24674 18.2072C8.19406 18.1187 8.15976 18.0208 8.14582 17.9193C8.13187 17.8178 8.13856 17.7146 8.16549 17.6156L12.39 2.20926C12.4159 2.10978 12.4617 2.01633 12.5249 1.93439C12.5881 1.85244 12.6673 1.78363 12.758 1.73198C12.8487 1.68034 12.9489 1.64689 13.053 1.63359C13.157 1.62029 13.2627 1.62741 13.3639 1.65452L22.0114 3.91922C22.6226 4.08095 23.1431 4.47343 23.4587 5.01042C23.7742 5.54741 23.8589 6.18499 23.6941 6.78304Z" fill="#302D27"/>
<path d="M23.6941 6.78304L22.6011 10.773L19.885 20.6861C19.8583 20.785 19.8119 20.8779 19.7485 20.9594C19.6851 21.0408 19.6059 21.1093 19.5155 21.1608C19.4251 21.2123 19.3251 21.2459 19.2214 21.2596C19.1177 21.2733 19.0123 21.2669 18.9111 21.2408L17.0682 20.7582L8.73254 18.5684C8.63125 18.5424 8.53619 18.4971 8.45283 18.4352C8.36946 18.3732 8.29943 18.2957 8.24674 18.2072C8.19406 18.1187 8.15976 18.0208 8.14582 17.9193C8.13187 17.8178 8.13856 17.7146 8.16549 17.6156L12.39 2.20926C12.4159 2.10978 12.4617 2.01633 12.5249 1.93439C12.5881 1.85244 12.6673 1.78363 12.758 1.73198C12.8487 1.68034 12.9489 1.64689 13.053 1.63359C13.157 1.62029 13.2627 1.62741 13.3639 1.65452L22.0114 3.91922C22.6226 4.08095 23.1431 4.47343 23.4587 5.01042C23.7742 5.54741 23.8589 6.18499 23.6941 6.78304Z" fill="#302D27"/>
</g>
<defs>
<clipPath id="clip0_605_352">
<rect width="32" height="30" fill="white"/>
</clipPath>
</defs>
</svg>
