<svg width="640" height="486" viewBox="0 0 640 486" fill="none" xmlns="http://www.w3.org/2000/svg">
<path d="M7.92 143C7.15 143 6.545 142.78 6.105 142.34C5.665 141.9 5.445 141.295 5.445 140.525V29.975C5.445 29.205 5.665 28.6 6.105 28.16C6.545 27.72 7.15 27.5 7.92 27.5H33.99C34.76 27.5 35.365 27.72 35.805 28.16C36.245 28.6 36.465 29.205 36.465 29.975V140.525C36.465 141.295 36.245 141.9 35.805 142.34C35.365 142.78 34.76 143 33.99 143H7.92ZM126.543 27.5C127.313 27.5 127.918 27.72 128.358 28.16C128.798 28.6 129.018 29.205 129.018 29.975V51.59C129.018 52.36 128.798 52.965 128.358 53.405C127.918 53.845 127.313 54.065 126.543 54.065H103.113C102.453 54.065 102.123 54.395 102.123 55.055V140.525C102.123 141.295 101.903 141.9 101.463 142.34C101.023 142.78 100.418 143 99.6484 143H73.5784C72.8084 143 72.2034 142.78 71.7634 142.34C71.3234 141.9 71.1034 141.295 71.1034 140.525V55.055C71.1034 54.395 70.7734 54.065 70.1134 54.065H47.1784C46.4084 54.065 45.8034 53.845 45.3634 53.405C44.9234 52.965 44.7034 52.36 44.7034 51.59V29.975C44.7034 29.205 44.9234 28.6 45.3634 28.16C45.8034 27.72 46.4084 27.5 47.1784 27.5H126.543ZM168.268 27.5C169.148 27.5 169.753 27.775 170.083 28.325C170.523 28.765 170.578 29.425 170.248 30.305L157.048 65.12C156.608 66.44 155.673 67.1 154.243 67.1H134.773C132.903 67.1 132.133 66.22 132.463 64.46L139.723 29.645C140.053 28.215 140.988 27.5 142.528 27.5H168.268ZM215.995 144.32C207.855 144.32 200.705 142.89 194.545 140.03C188.495 137.17 183.765 133.21 180.355 128.15C177.055 122.98 175.405 117.04 175.405 110.33V106.535C175.405 105.765 175.625 105.16 176.065 104.72C176.505 104.28 177.11 104.06 177.88 104.06H203.455C204.225 104.06 204.83 104.28 205.27 104.72C205.71 105.16 205.93 105.765 205.93 106.535V108.845C205.93 111.265 206.92 113.355 208.9 115.115C210.99 116.875 213.74 117.755 217.15 117.755C219.9 117.755 221.935 117.095 223.255 115.775C224.575 114.345 225.235 112.75 225.235 110.99C225.235 108.9 224.3 107.195 222.43 105.875C220.67 104.445 217.26 102.575 212.2 100.265L208.24 98.285C202.08 95.315 196.745 92.345 192.235 89.375C187.725 86.405 183.82 82.5 180.52 77.66C177.22 72.71 175.57 66.825 175.57 60.005C175.57 53.295 177.22 47.41 180.52 42.35C183.93 37.18 188.55 33.22 194.38 30.47C200.32 27.61 207.085 26.18 214.675 26.18C222.485 26.18 229.47 27.665 235.63 30.635C241.79 33.605 246.575 37.785 249.985 43.175C253.505 48.565 255.265 54.725 255.265 61.655V64.295C255.265 65.065 255.045 65.67 254.605 66.11C254.165 66.55 253.56 66.77 252.79 66.77H227.215C226.445 66.77 225.84 66.55 225.4 66.11C224.96 65.67 224.74 65.065 224.74 64.295V61.985C224.74 59.565 223.75 57.42 221.77 55.55C219.9 53.68 217.37 52.745 214.18 52.745C211.76 52.745 209.78 53.405 208.24 54.725C206.81 55.935 206.095 57.64 206.095 59.84C206.095 62.26 207.305 64.46 209.725 66.44C212.255 68.31 217.15 70.95 224.41 74.36C225.51 75.02 227.16 75.9 229.36 77C235.19 80.19 239.865 83.05 243.385 85.58C246.905 88 249.875 91.245 252.295 95.315C254.715 99.275 255.925 104.17 255.925 110C255.925 120.56 252.24 128.92 244.87 135.08C237.61 141.24 227.985 144.32 215.995 144.32ZM377.266 27.5C378.036 27.5 378.641 27.72 379.081 28.16C379.521 28.6 379.741 29.205 379.741 29.975V51.59C379.741 52.36 379.521 52.965 379.081 53.405C378.641 53.845 378.036 54.065 377.266 54.065H353.836C353.176 54.065 352.846 54.395 352.846 55.055V140.525C352.846 141.295 352.626 141.9 352.186 142.34C351.746 142.78 351.141 143 350.371 143H324.301C323.531 143 322.926 142.78 322.486 142.34C322.046 141.9 321.826 141.295 321.826 140.525V55.055C321.826 54.395 321.496 54.065 320.836 54.065H297.901C297.131 54.065 296.526 53.845 296.086 53.405C295.646 52.965 295.426 52.36 295.426 51.59V29.975C295.426 29.205 295.646 28.6 296.086 28.16C296.526 27.72 297.131 27.5 297.901 27.5H377.266ZM390.61 143C389.84 143 389.235 142.78 388.795 142.34C388.355 141.9 388.135 141.295 388.135 140.525V29.975C388.135 29.205 388.355 28.6 388.795 28.16C389.235 27.72 389.84 27.5 390.61 27.5H416.68C417.45 27.5 418.055 27.72 418.495 28.16C418.935 28.6 419.155 29.205 419.155 29.975V140.525C419.155 141.295 418.935 141.9 418.495 142.34C418.055 142.78 417.45 143 416.68 143H390.61ZM493.889 29.15C494.439 28.05 495.429 27.5 496.859 27.5H522.599C523.369 27.5 523.974 27.72 524.414 28.16C524.854 28.6 525.074 29.205 525.074 29.975V140.525C525.074 141.295 524.854 141.9 524.414 142.34C523.974 142.78 523.369 143 522.599 143H496.529C495.759 143 495.154 142.78 494.714 142.34C494.274 141.9 494.054 141.295 494.054 140.525V77.165C494.054 76.725 493.889 76.45 493.559 76.34C493.339 76.23 493.119 76.395 492.899 76.835L482.339 94.325C481.679 95.425 480.689 95.975 479.369 95.975H475.079C473.759 95.975 472.769 95.425 472.109 94.325L461.549 76.67C461.329 76.23 461.054 76.065 460.724 76.175C460.504 76.285 460.394 76.56 460.394 77V140.525C460.394 141.295 460.174 141.9 459.734 142.34C459.294 142.78 458.689 143 457.919 143H431.849C431.079 143 430.474 142.78 430.034 142.34C429.594 141.9 429.374 141.295 429.374 140.525V29.975C429.374 29.205 429.594 28.6 430.034 28.16C430.474 27.72 431.079 27.5 431.849 27.5H457.589C458.909 27.5 459.899 28.05 460.559 29.15L476.729 56.54C476.949 56.87 477.169 57.035 477.389 57.035C477.719 57.035 477.939 56.87 478.049 56.54L493.889 29.15ZM610.156 51.59C610.156 52.36 609.936 52.965 609.496 53.405C609.056 53.845 608.451 54.065 607.681 54.065H567.421C566.761 54.065 566.431 54.395 566.431 55.055V70.565C566.431 71.225 566.761 71.555 567.421 71.555H590.686C591.456 71.555 592.061 71.775 592.501 72.215C592.941 72.655 593.161 73.26 593.161 74.03V95.48C593.161 96.25 592.941 96.855 592.501 97.295C592.061 97.735 591.456 97.955 590.686 97.955H567.421C566.761 97.955 566.431 98.285 566.431 98.945V115.445C566.431 116.105 566.761 116.435 567.421 116.435H607.681C608.451 116.435 609.056 116.655 609.496 117.095C609.936 117.535 610.156 118.14 610.156 118.91V140.525C610.156 141.295 609.936 141.9 609.496 142.34C609.056 142.78 608.451 143 607.681 143H537.886C537.116 143 536.511 142.78 536.071 142.34C535.631 141.9 535.411 141.295 535.411 140.525V29.975C535.411 29.205 535.631 28.6 536.071 28.16C536.511 27.72 537.116 27.5 537.886 27.5H607.681C608.451 27.5 609.056 27.72 609.496 28.16C609.936 28.6 610.156 29.205 610.156 29.975V51.59Z" fill="url(#paint0_linear_1125_584)"/>
<path d="M54.914 175.3C55.3853 175.3 55.7557 175.435 56.025 175.704C56.2943 175.973 56.429 176.344 56.429 176.815V190.046C56.429 190.517 56.2943 190.888 56.025 191.157C55.7557 191.426 55.3853 191.561 54.914 191.561H40.572C40.168 191.561 39.966 191.763 39.966 192.167V244.485C39.966 244.956 39.8313 245.327 39.562 245.596C39.2927 245.865 38.9223 246 38.451 246H22.493C22.0217 246 21.6513 245.865 21.382 245.596C21.1127 245.327 20.978 244.956 20.978 244.485V192.167C20.978 191.763 20.776 191.561 20.372 191.561H6.333C5.86167 191.561 5.49133 191.426 5.222 191.157C4.95267 190.888 4.818 190.517 4.818 190.046V176.815C4.818 176.344 4.95267 175.973 5.222 175.704C5.49133 175.435 5.86167 175.3 6.333 175.3H54.914ZM84.8282 247.01C79.7781 247.01 75.3341 246 71.4961 243.98C67.6581 241.96 64.6955 239.132 62.6081 235.496C60.5208 231.793 59.4771 227.517 59.4771 222.669V198.631C59.4771 193.783 60.5208 189.541 62.6081 185.905C64.6955 182.269 67.6581 179.475 71.4961 177.522C75.3341 175.502 79.7781 174.492 84.8282 174.492C89.8781 174.492 94.3221 175.502 98.1602 177.522C102.065 179.475 105.062 182.269 107.149 185.905C109.236 189.541 110.28 193.783 110.28 198.631V222.669C110.28 227.517 109.203 231.793 107.048 235.496C104.961 239.132 101.998 241.96 98.1602 243.98C94.3221 246 89.8781 247.01 84.8282 247.01ZM84.8282 230.749C86.7808 230.749 88.3295 230.076 89.4742 228.729C90.6861 227.382 91.2921 225.598 91.2921 223.376V198.126C91.2921 195.904 90.6861 194.12 89.4742 192.773C88.3295 191.426 86.7808 190.753 84.8282 190.753C82.9428 190.753 81.3941 191.426 80.1821 192.773C79.0375 194.12 78.4651 195.904 78.4651 198.126V223.376C78.4651 225.598 79.0375 227.382 80.1821 228.729C81.3941 230.076 82.9428 230.749 84.8282 230.749ZM160.571 246.808C155.588 246.808 151.212 245.832 147.441 243.879C143.67 241.926 140.741 239.166 138.654 235.597C136.567 232.028 135.523 227.887 135.523 223.174V198.025C135.523 193.312 136.567 189.204 138.654 185.703C140.741 182.134 143.67 179.374 147.441 177.421C151.212 175.468 155.588 174.492 160.571 174.492C165.486 174.492 169.829 175.468 173.6 177.421C177.371 179.306 180.3 181.932 182.387 185.299C184.474 188.666 185.518 192.47 185.518 196.712V198.429C185.518 198.9 185.383 199.271 185.114 199.54C184.845 199.809 184.474 199.944 184.003 199.944H168.045C167.574 199.944 167.203 199.809 166.934 199.54C166.665 199.271 166.53 198.9 166.53 198.429V196.914C166.53 195.163 165.991 193.716 164.914 192.571C163.837 191.359 162.389 190.753 160.571 190.753C158.753 190.753 157.272 191.393 156.127 192.672C155.05 193.951 154.511 195.635 154.511 197.722V223.477C154.511 225.564 155.117 227.281 156.329 228.628C157.608 229.907 159.157 230.547 160.975 230.547C162.658 230.547 164.039 230.008 165.116 228.931C166.193 227.854 166.732 226.372 166.732 224.487V221.457C166.732 221.053 166.53 220.851 166.126 220.851H161.379C160.908 220.851 160.537 220.716 160.268 220.447C159.999 220.178 159.864 219.807 159.864 219.336V207.418C159.864 206.947 159.999 206.576 160.268 206.307C160.537 206.038 160.908 205.903 161.379 205.903H184.003C184.474 205.903 184.845 206.038 185.114 206.307C185.383 206.576 185.518 206.947 185.518 207.418V223.679C185.518 228.258 184.474 232.298 182.387 235.799C180.3 239.3 177.371 242.027 173.6 243.98C169.829 245.865 165.486 246.808 160.571 246.808ZM237.121 190.046C237.121 190.517 236.986 190.888 236.717 191.157C236.448 191.426 236.077 191.561 235.606 191.561H210.962C210.558 191.561 210.356 191.763 210.356 192.167V201.661C210.356 202.065 210.558 202.267 210.962 202.267H225.203C225.674 202.267 226.045 202.402 226.314 202.671C226.583 202.94 226.718 203.311 226.718 203.782V216.912C226.718 217.383 226.583 217.754 226.314 218.023C226.045 218.292 225.674 218.427 225.203 218.427H210.962C210.558 218.427 210.356 218.629 210.356 219.033V229.133C210.356 229.537 210.558 229.739 210.962 229.739H235.606C236.077 229.739 236.448 229.874 236.717 230.143C236.986 230.412 237.121 230.783 237.121 231.254V244.485C237.121 244.956 236.986 245.327 236.717 245.596C236.448 245.865 236.077 246 235.606 246H192.883C192.412 246 192.041 245.865 191.772 245.596C191.503 245.327 191.368 244.956 191.368 244.485V176.815C191.368 176.344 191.503 175.973 191.772 175.704C192.041 175.435 192.412 175.3 192.883 175.3H235.606C236.077 175.3 236.448 175.435 236.717 175.704C236.986 175.973 237.121 176.344 237.121 176.815V190.046ZM291.14 175.3C291.611 175.3 291.981 175.435 292.251 175.704C292.52 175.973 292.655 176.344 292.655 176.815V190.046C292.655 190.517 292.52 190.888 292.251 191.157C291.981 191.426 291.611 191.561 291.14 191.561H276.798C276.394 191.561 276.192 191.763 276.192 192.167V244.485C276.192 244.956 276.057 245.327 275.788 245.596C275.518 245.865 275.148 246 274.677 246H258.719C258.247 246 257.877 245.865 257.608 245.596C257.338 245.327 257.204 244.956 257.204 244.485V192.167C257.204 191.763 257.002 191.561 256.598 191.561H242.559C242.087 191.561 241.717 191.426 241.448 191.157C241.178 190.888 241.044 190.517 241.044 190.046V176.815C241.044 176.344 241.178 175.973 241.448 175.704C241.717 175.435 242.087 175.3 242.559 175.3H291.14ZM366.594 175.3C367.065 175.3 367.435 175.435 367.705 175.704C367.974 175.973 368.109 176.344 368.109 176.815V190.046C368.109 190.517 367.974 190.888 367.705 191.157C367.435 191.426 367.065 191.561 366.594 191.561H352.252C351.848 191.561 351.646 191.763 351.646 192.167V244.485C351.646 244.956 351.511 245.327 351.242 245.596C350.972 245.865 350.602 246 350.131 246H334.173C333.701 246 333.331 245.865 333.062 245.596C332.792 245.327 332.658 244.956 332.658 244.485V192.167C332.658 191.763 332.456 191.561 332.052 191.561H318.013C317.541 191.561 317.171 191.426 316.902 191.157C316.632 190.888 316.498 190.517 316.498 190.046V176.815C316.498 176.344 316.632 175.973 316.902 175.704C317.171 175.435 317.541 175.3 318.013 175.3H366.594ZM403.547 176.815C403.547 176.344 403.682 175.973 403.951 175.704C404.22 175.435 404.591 175.3 405.062 175.3H421.02C421.491 175.3 421.862 175.435 422.131 175.704C422.4 175.973 422.535 176.344 422.535 176.815V244.485C422.535 244.956 422.4 245.327 422.131 245.596C421.862 245.865 421.491 246 421.02 246H405.062C404.591 246 404.22 245.865 403.951 245.596C403.682 245.327 403.547 244.956 403.547 244.485V219.134C403.547 218.73 403.345 218.528 402.941 218.528H392.841C392.437 218.528 392.235 218.73 392.235 219.134V244.485C392.235 244.956 392.1 245.327 391.831 245.596C391.562 245.865 391.191 246 390.72 246H374.762C374.291 246 373.92 245.865 373.651 245.596C373.382 245.327 373.247 244.956 373.247 244.485V176.815C373.247 176.344 373.382 175.973 373.651 175.704C373.92 175.435 374.291 175.3 374.762 175.3H390.72C391.191 175.3 391.562 175.435 391.831 175.704C392.1 175.973 392.235 176.344 392.235 176.815V201.661C392.235 202.065 392.437 202.267 392.841 202.267H402.941C403.345 202.267 403.547 202.065 403.547 201.661V176.815ZM430.194 246C429.722 246 429.352 245.865 429.083 245.596C428.813 245.327 428.679 244.956 428.679 244.485V176.815C428.679 176.344 428.813 175.973 429.083 175.704C429.352 175.435 429.722 175.3 430.194 175.3H446.152C446.623 175.3 446.993 175.435 447.263 175.704C447.532 175.973 447.667 176.344 447.667 176.815V244.485C447.667 244.956 447.532 245.327 447.263 245.596C446.993 245.865 446.623 246 446.152 246H430.194ZM488.666 176.815C488.666 176.344 488.8 175.973 489.07 175.704C489.339 175.435 489.709 175.3 490.181 175.3H506.038C506.509 175.3 506.879 175.435 507.149 175.704C507.418 175.973 507.553 176.344 507.553 176.815V244.485C507.553 244.956 507.418 245.327 507.149 245.596C506.879 245.865 506.509 246 506.038 246H489.373C488.497 246 487.925 245.63 487.656 244.889L473.617 211.963C473.549 211.694 473.415 211.559 473.213 211.559C473.011 211.559 472.91 211.727 472.91 212.064L473.112 244.485C473.112 244.956 472.977 245.327 472.708 245.596C472.438 245.865 472.068 246 471.597 246H455.74C455.268 246 454.898 245.865 454.629 245.596C454.359 245.327 454.225 244.956 454.225 244.485V176.815C454.225 176.344 454.359 175.973 454.629 175.704C454.898 175.435 455.268 175.3 455.74 175.3H472.304C473.179 175.3 473.751 175.67 474.021 176.411L488.06 209.337C488.127 209.606 488.262 209.741 488.464 209.741C488.666 209.674 488.767 209.472 488.767 209.135L488.666 176.815ZM538.335 246.808C533.352 246.808 528.975 245.832 525.205 243.879C521.434 241.926 518.505 239.166 516.418 235.597C514.33 232.028 513.287 227.887 513.287 223.174V198.025C513.287 193.312 514.33 189.204 516.418 185.703C518.505 182.134 521.434 179.374 525.205 177.421C528.975 175.468 533.352 174.492 538.335 174.492C543.25 174.492 547.593 175.468 551.364 177.421C555.134 179.306 558.063 181.932 560.151 185.299C562.238 188.666 563.282 192.47 563.282 196.712V198.429C563.282 198.9 563.147 199.271 562.878 199.54C562.608 199.809 562.238 199.944 561.767 199.944H545.809C545.337 199.944 544.967 199.809 544.698 199.54C544.428 199.271 544.294 198.9 544.294 198.429V196.914C544.294 195.163 543.755 193.716 542.678 192.571C541.6 191.359 540.153 190.753 538.335 190.753C536.517 190.753 535.035 191.393 533.891 192.672C532.813 193.951 532.275 195.635 532.275 197.722V223.477C532.275 225.564 532.881 227.281 534.093 228.628C535.372 229.907 536.921 230.547 538.739 230.547C540.422 230.547 541.802 230.008 542.88 228.931C543.957 227.854 544.496 226.372 544.496 224.487V221.457C544.496 221.053 544.294 220.851 543.89 220.851H539.143C538.671 220.851 538.301 220.716 538.032 220.447C537.762 220.178 537.628 219.807 537.628 219.336V207.418C537.628 206.947 537.762 206.576 538.032 206.307C538.301 206.038 538.671 205.903 539.143 205.903H561.767C562.238 205.903 562.608 206.038 562.878 206.307C563.147 206.576 563.282 206.947 563.282 207.418V223.679C563.282 228.258 562.238 232.298 560.151 235.799C558.063 239.3 555.134 242.027 551.364 243.98C547.593 245.865 543.25 246.808 538.335 246.808ZM593.069 246.808C588.086 246.808 583.709 245.933 579.939 244.182C576.235 242.431 573.34 240.007 571.253 236.91C569.233 233.745 568.223 230.109 568.223 226.002V223.679C568.223 223.208 568.357 222.837 568.627 222.568C568.896 222.299 569.266 222.164 569.738 222.164H585.393C585.864 222.164 586.234 222.299 586.504 222.568C586.773 222.837 586.908 223.208 586.908 223.679V225.093C586.908 226.574 587.514 227.854 588.726 228.931C590.005 230.008 591.688 230.547 593.776 230.547C595.459 230.547 596.705 230.143 597.513 229.335C598.321 228.46 598.725 227.483 598.725 226.406C598.725 225.127 598.152 224.083 597.008 223.275C595.93 222.4 593.843 221.255 590.746 219.841L588.322 218.629C584.551 216.811 581.285 214.993 578.525 213.175C575.764 211.357 573.374 208.967 571.354 206.004C569.334 202.974 568.324 199.372 568.324 195.197C568.324 191.09 569.334 187.487 571.354 184.39C573.441 181.225 576.269 178.801 579.838 177.118C583.474 175.367 587.615 174.492 592.261 174.492C597.041 174.492 601.317 175.401 605.088 177.219C608.858 179.037 611.787 181.596 613.875 184.895C616.029 188.194 617.107 191.965 617.107 196.207V197.823C617.107 198.294 616.972 198.665 616.703 198.934C616.433 199.203 616.063 199.338 615.592 199.338H599.937C599.465 199.338 599.095 199.203 598.826 198.934C598.556 198.665 598.422 198.294 598.422 197.823V196.409C598.422 194.928 597.816 193.615 596.604 192.47C595.459 191.325 593.91 190.753 591.958 190.753C590.476 190.753 589.264 191.157 588.322 191.965C587.446 192.706 587.009 193.749 587.009 195.096C587.009 196.577 587.749 197.924 589.231 199.136C590.779 200.281 593.776 201.897 598.22 203.984C598.893 204.388 599.903 204.927 601.25 205.6C604.818 207.553 607.68 209.303 609.835 210.852C611.989 212.333 613.807 214.32 615.289 216.811C616.77 219.235 617.511 222.231 617.511 225.8C617.511 232.264 615.255 237.381 610.744 241.152C606.3 244.923 600.408 246.808 593.069 246.808Z" fill="url(#paint1_linear_1125_584)"/>
<path d="M16.2 468C14.9167 468 13.9083 467.633 13.175 466.9C12.4417 466.167 12.075 465.158 12.075 463.875V279.625C12.075 278.342 12.4417 277.333 13.175 276.6C13.9083 275.867 14.9167 275.5 16.2 275.5H78.625C92.1917 275.5 104.108 277.975 114.375 282.925C124.642 287.692 132.617 294.475 138.3 303.275C143.983 312.075 146.825 322.25 146.825 333.8V409.425C146.825 420.975 143.983 431.242 138.3 440.225C132.617 449.025 124.642 455.9 114.375 460.85C104.108 465.617 92.1917 468 78.625 468H16.2ZM63.775 422.075C63.775 423.175 64.325 423.725 65.425 423.725L78.9 423.45C83.4833 423.45 87.2417 421.617 90.175 417.95C93.2917 414.283 94.9417 409.425 95.125 403.375V339.85C95.125 333.8 93.5667 328.942 90.45 325.275C87.5167 321.608 83.575 319.775 78.625 319.775H65.425C64.325 319.775 63.775 320.325 63.775 321.425V422.075ZM230.365 470.75C216.615 470.75 204.515 468 194.065 462.5C183.615 457 175.548 449.3 169.865 439.4C164.182 429.317 161.34 417.675 161.34 404.475V339.025C161.34 325.825 164.182 314.275 169.865 304.375C175.548 294.475 183.615 286.867 194.065 281.55C204.515 276.05 216.615 273.3 230.365 273.3C244.115 273.3 256.215 276.05 266.665 281.55C277.298 286.867 285.457 294.475 291.14 304.375C296.823 314.275 299.665 325.825 299.665 339.025V404.475C299.665 417.675 296.732 429.317 290.865 439.4C285.182 449.3 277.115 457 266.665 462.5C256.215 468 244.115 470.75 230.365 470.75ZM230.365 426.475C235.682 426.475 239.898 424.642 243.015 420.975C246.315 417.308 247.965 412.45 247.965 406.4V337.65C247.965 331.6 246.315 326.742 243.015 323.075C239.898 319.408 235.682 317.575 230.365 317.575C225.232 317.575 221.015 319.408 217.715 323.075C214.598 326.742 213.04 331.6 213.04 337.65V406.4C213.04 412.45 214.598 417.308 217.715 420.975C221.015 424.642 225.232 426.475 230.365 426.475ZM409.317 279.625C409.317 278.342 409.683 277.333 410.417 276.6C411.15 275.867 412.158 275.5 413.442 275.5H456.617C457.9 275.5 458.908 275.867 459.642 276.6C460.375 277.333 460.742 278.342 460.742 279.625V463.875C460.742 465.158 460.375 466.167 459.642 466.9C458.908 467.633 457.9 468 456.617 468H411.242C408.858 468 407.3 466.992 406.567 464.975L368.342 375.325C368.158 374.592 367.792 374.225 367.242 374.225C366.692 374.225 366.417 374.683 366.417 375.6L366.967 463.875C366.967 465.158 366.6 466.167 365.867 466.9C365.133 467.633 364.125 468 362.842 468H319.667C318.383 468 317.375 467.633 316.642 466.9C315.908 466.167 315.542 465.158 315.542 463.875V279.625C315.542 278.342 315.908 277.333 316.642 276.6C317.375 275.867 318.383 275.5 319.667 275.5H364.767C367.15 275.5 368.708 276.508 369.442 278.525L407.667 368.175C407.85 368.908 408.217 369.275 408.767 369.275C409.317 369.092 409.592 368.542 409.592 367.625L409.317 279.625ZM603.13 315.65C603.13 316.933 602.763 317.942 602.029 318.675C601.296 319.408 600.288 319.775 599.004 319.775H531.904C530.804 319.775 530.254 320.325 530.254 321.425V347.275C530.254 348.375 530.804 348.925 531.904 348.925H570.68C571.963 348.925 572.971 349.292 573.704 350.025C574.438 350.758 574.804 351.767 574.804 353.05V388.8C574.804 390.083 574.438 391.092 573.704 391.825C572.971 392.558 571.963 392.925 570.68 392.925H531.904C530.804 392.925 530.254 393.475 530.254 394.575V422.075C530.254 423.175 530.804 423.725 531.904 423.725H599.004C600.288 423.725 601.296 424.092 602.029 424.825C602.763 425.558 603.13 426.567 603.13 427.85V463.875C603.13 465.158 602.763 466.167 602.029 466.9C601.296 467.633 600.288 468 599.004 468H482.679C481.396 468 480.388 467.633 479.654 466.9C478.921 466.167 478.554 465.158 478.554 463.875V279.625C478.554 278.342 478.921 277.333 479.654 276.6C480.388 275.867 481.396 275.5 482.679 275.5H599.004C600.288 275.5 601.296 275.867 602.029 276.6C602.763 277.333 603.13 278.342 603.13 279.625V315.65Z" fill="url(#paint2_linear_1125_584)"/>
<g filter="url(#filter0_d_1125_584)">
<path d="M285 83.5714C277.484 83.5714 270.137 85.7833 263.888 89.9274C257.639 94.0715 252.769 99.9617 249.893 106.853C247.016 113.744 246.264 121.328 247.73 128.643C249.196 135.959 252.816 142.679 258.13 147.954C263.444 153.228 270.215 156.82 277.587 158.275C284.958 159.731 292.598 158.984 299.542 156.129C306.486 153.275 312.42 148.441 316.596 142.239C320.771 136.037 323 128.745 323 121.286C322.988 111.287 318.981 101.701 311.857 94.6303C304.733 87.56 295.075 83.5829 285 83.5714ZM303.074 107.795L287.24 123.509C286.946 123.801 286.597 124.033 286.213 124.191C285.828 124.349 285.416 124.43 285 124.43C284.584 124.43 284.172 124.349 283.788 124.191C283.403 124.033 283.054 123.801 282.76 123.509C282.465 123.217 282.232 122.871 282.073 122.489C281.914 122.108 281.832 121.699 281.832 121.286C281.832 120.873 281.914 120.464 282.073 120.082C282.232 119.701 282.465 119.354 282.76 119.062L298.593 103.348C298.887 103.056 299.236 102.824 299.621 102.666C300.005 102.508 300.417 102.427 300.833 102.427C301.249 102.427 301.661 102.508 302.046 102.666C302.43 102.824 302.78 103.056 303.074 103.348C303.368 103.64 303.601 103.987 303.761 104.368C303.92 104.75 304.002 105.158 304.002 105.571C304.002 105.984 303.92 106.393 303.761 106.775C303.601 107.156 303.368 107.503 303.074 107.795ZM272.333 74.1429C272.333 73.3093 272.667 72.5099 273.261 71.9205C273.855 71.3311 274.66 71 275.5 71H294.5C295.34 71 296.145 71.3311 296.739 71.9205C297.333 72.5099 297.667 73.3093 297.667 74.1429C297.667 74.9764 297.333 75.7758 296.739 76.3652C296.145 76.9546 295.34 77.2857 294.5 77.2857H275.5C274.66 77.2857 273.855 76.9546 273.261 76.3652C272.667 75.7758 272.333 74.9764 272.333 74.1429Z" fill="url(#paint3_linear_1125_584)"/>
<path d="M285.003 80.5714H285C276.896 80.5714 268.972 82.9564 262.23 87.4272C255.488 91.8983 250.23 98.2555 247.124 105.698C244.018 113.14 243.205 121.331 244.789 129.233C246.372 137.135 250.281 144.391 256.017 150.083C261.752 155.775 269.057 159.649 277.006 161.219C284.954 162.788 293.194 161.983 300.683 158.904C308.172 155.825 314.577 150.61 319.084 143.914C323.592 137.218 326 129.343 326 121.286V121.282C325.988 110.482 321.659 100.131 313.971 92.501C306.283 84.8714 295.865 80.5838 285.003 80.5714ZM300.96 105.666L285.127 121.38C285.113 121.394 285.094 121.407 285.072 121.416C285.05 121.425 285.025 121.43 285 121.43C284.975 121.43 284.95 121.425 284.928 121.416C284.906 121.407 284.888 121.394 284.873 121.38C284.858 121.366 284.848 121.35 284.841 121.334C284.835 121.318 284.832 121.302 284.832 121.286C284.832 121.27 284.835 121.254 284.841 121.238C284.848 121.222 284.858 121.206 284.873 121.191L300.706 105.477C300.721 105.463 300.739 105.45 300.762 105.441C300.784 105.432 300.808 105.427 300.833 105.427C300.859 105.427 300.883 105.432 300.905 105.441C300.927 105.45 300.946 105.463 300.96 105.477C300.975 105.492 300.985 105.508 300.992 105.523C300.999 105.539 301.002 105.556 301.002 105.571C301.002 105.587 300.999 105.603 300.992 105.619C300.985 105.635 300.975 105.651 300.96 105.666ZM271.148 69.7912C269.989 70.9414 269.333 72.5063 269.333 74.1429C269.333 75.7794 269.989 77.3443 271.148 78.4945C272.306 79.644 273.872 80.2857 275.5 80.2857H294.5C296.128 80.2857 297.694 79.644 298.852 78.4945C300.011 77.3443 300.667 75.7794 300.667 74.1429C300.667 72.5063 300.011 70.9414 298.852 69.7912C297.694 68.6417 296.128 68 294.5 68H275.5C273.872 68 272.306 68.6417 271.148 69.7912Z" stroke="white" stroke-width="6"/>
</g>
<g filter="url(#filter1_d_1125_584)">
<g clip-path="url(#clip0_1125_584)">
<g filter="url(#filter2_d_1125_584)">
<path d="M622.198 253.236C620.703 251.564 619.157 249.841 618.605 248.356C618.095 246.996 618.145 244.775 618.193 242.624C618.282 238.625 618.386 234.093 615.332 230.825C612.278 227.557 607.718 227.319 603.694 227.106C601.529 226.992 599.294 226.875 597.966 226.267C596.52 225.61 594.901 223.95 593.334 222.345C590.589 219.523 587.47 216.326 583.163 216.164C578.856 216.001 575.51 218.955 572.557 221.563C570.874 223.045 569.139 224.579 567.643 225.126C566.281 225.632 564.036 225.581 561.869 225.532C557.84 225.442 553.275 225.336 549.984 228.365C546.692 231.395 546.477 235.922 546.244 239.916C546.13 242.064 546.013 244.283 545.402 245.6C544.74 247.036 543.069 248.642 541.453 250.197C538.611 252.919 535.392 256.013 535.231 260.288C535.07 264.563 538.048 267.886 540.676 270.819C542.171 272.491 543.717 274.214 544.269 275.699C544.779 277.059 544.729 279.28 544.681 281.431C544.592 285.43 544.488 289.961 547.542 293.23C550.596 296.498 555.156 296.735 559.181 296.948C561.345 297.063 563.58 297.18 564.908 297.787C566.354 298.445 567.973 300.105 569.541 301.71C572.285 304.532 575.404 307.729 579.711 307.891C584.018 308.053 587.364 305.1 590.317 302.492C592 301.009 593.735 299.475 595.231 298.929C596.601 298.423 598.838 298.474 601.005 298.523C605.034 298.613 609.599 298.719 612.89 295.69C616.182 292.66 616.418 288.133 616.63 284.139C616.744 281.99 616.861 279.772 617.472 278.454C618.134 277.019 619.805 275.413 621.421 273.858C624.263 271.136 627.482 268.042 627.643 263.767C627.804 259.491 624.826 256.168 622.198 253.236Z" fill="white"/>
<g filter="url(#filter3_d_1125_584)">
<path d="M616.09 254.376C614.826 252.951 613.518 251.482 613.051 250.217C612.62 249.057 612.663 247.164 612.704 245.33C612.78 241.921 612.869 238.057 610.286 235.272C607.702 232.486 603.843 232.285 600.438 232.104C598.606 232.007 596.715 231.908 595.591 231.39C594.367 230.83 592.998 229.415 591.672 228.047C589.35 225.642 586.712 222.917 583.067 222.78C579.422 222.643 576.59 225.162 574.091 227.386C572.666 228.65 571.197 229.958 569.931 230.424C568.779 230.857 566.878 230.813 565.045 230.772C561.635 230.696 557.772 230.607 554.986 233.19C552.201 235.774 552.017 239.634 551.819 243.038C551.722 244.87 551.623 246.761 551.105 247.885C550.545 249.108 549.13 250.478 547.762 251.804C545.357 254.126 542.632 256.764 542.495 260.409C542.357 264.054 544.876 266.886 547.1 269.385C548.365 270.81 549.673 272.279 550.139 273.545C550.571 274.704 550.528 276.597 550.486 278.431C550.411 281.841 550.321 285.704 552.905 288.49C555.488 291.275 559.347 291.476 562.753 291.657C564.585 291.754 566.476 291.853 567.599 292.371C568.823 292.931 570.193 294.346 571.519 295.714C573.84 298.119 576.479 300.844 580.123 300.981C583.768 301.118 586.6 298.6 589.1 296.376C590.525 295.111 591.994 293.803 593.259 293.337C594.419 292.905 596.312 292.948 598.146 292.989C601.555 293.065 605.418 293.155 608.204 290.571C610.99 287.988 611.191 284.128 611.372 280.723C611.469 278.891 611.568 277 612.086 275.876C612.645 274.653 614.061 273.283 615.428 271.957C617.834 269.636 620.559 266.997 620.696 263.352C620.833 259.708 618.314 256.876 616.09 254.376ZM597.777 256.078L577.491 274.892C577.221 275.142 576.906 275.337 576.561 275.464C576.217 275.592 575.851 275.651 575.484 275.637C575.117 275.623 574.756 275.537 574.422 275.384C574.088 275.231 573.788 275.013 573.539 274.744L565.475 266.049C564.971 265.506 564.703 264.784 564.731 264.043C564.759 263.302 565.08 262.602 565.624 262.098C566.168 261.593 566.89 261.326 567.631 261.353C568.372 261.381 569.072 261.703 569.576 262.246L575.738 268.894L593.974 251.977C594.243 251.728 594.559 251.533 594.903 251.406C595.247 251.278 595.613 251.219 595.98 251.233C596.347 251.247 596.708 251.333 597.042 251.486C597.375 251.639 597.676 251.857 597.925 252.126C598.175 252.395 598.369 252.711 598.497 253.055C598.625 253.4 598.683 253.766 598.67 254.133C598.656 254.5 598.57 254.86 598.417 255.194C598.263 255.528 598.046 255.828 597.777 256.078Z" fill="url(#paint4_linear_1125_584)"/>
</g>
</g>
</g>
</g>
<defs>
<filter id="filter0_d_1125_584" x="241" y="65" width="96" height="108" filterUnits="userSpaceOnUse" color-interpolation-filters="sRGB">
<feFlood flood-opacity="0" result="BackgroundImageFix"/>
<feColorMatrix in="SourceAlpha" type="matrix" values="0 0 0 0 0 0 0 0 0 0 0 0 0 0 0 0 0 0 127 0" result="hardAlpha"/>
<feOffset dx="4" dy="4"/>
<feGaussianBlur stdDeviation="2"/>
<feComposite in2="hardAlpha" operator="out"/>
<feColorMatrix type="matrix" values="0 0 0 0 0 0 0 0 0 0 0 0 0 0 0 0 0 0 0.25 0"/>
<feBlend mode="normal" in2="BackgroundImageFix" result="effect1_dropShadow_1125_584"/>
<feBlend mode="normal" in="SourceGraphic" in2="effect1_dropShadow_1125_584" result="shape"/>
</filter>
<filter id="filter1_d_1125_584" x="529.505" y="214.424" width="110.495" height="109.529" filterUnits="userSpaceOnUse" color-interpolation-filters="sRGB">
<feFlood flood-opacity="0" result="BackgroundImageFix"/>
<feColorMatrix in="SourceAlpha" type="matrix" values="0 0 0 0 0 0 0 0 0 0 0 0 0 0 0 0 0 0 127 0" result="hardAlpha"/>
<feOffset dy="4"/>
<feGaussianBlur stdDeviation="2"/>
<feComposite in2="hardAlpha" operator="out"/>
<feColorMatrix type="matrix" values="0 0 0 0 0 0 0 0 0 0 0 0 0 0 0 0 0 0 0.25 0"/>
<feBlend mode="normal" in2="BackgroundImageFix" result="effect1_dropShadow_1125_584"/>
<feBlend mode="normal" in="SourceGraphic" in2="effect1_dropShadow_1125_584" result="shape"/>
</filter>
<filter id="filter2_d_1125_584" x="535.225" y="216.157" width="100.425" height="99.7404" filterUnits="userSpaceOnUse" color-interpolation-filters="sRGB">
<feFlood flood-opacity="0" result="BackgroundImageFix"/>
<feColorMatrix in="SourceAlpha" type="matrix" values="0 0 0 0 0 0 0 0 0 0 0 0 0 0 0 0 0 0 127 0" result="hardAlpha"/>
<feOffset dx="4" dy="4"/>
<feGaussianBlur stdDeviation="2"/>
<feComposite in2="hardAlpha" operator="out"/>
<feColorMatrix type="matrix" values="0 0 0 0 0 0 0 0 0 0 0 0 0 0 0 0 0 0 0.25 0"/>
<feBlend mode="normal" in2="BackgroundImageFix" result="effect1_dropShadow_1125_584"/>
<feBlend mode="normal" in="SourceGraphic" in2="effect1_dropShadow_1125_584" result="shape"/>
</filter>
<filter id="filter3_d_1125_584" x="538.489" y="222.775" width="86.2119" height="86.2119" filterUnits="userSpaceOnUse" color-interpolation-filters="sRGB">
<feFlood flood-opacity="0" result="BackgroundImageFix"/>
<feColorMatrix in="SourceAlpha" type="matrix" values="0 0 0 0 0 0 0 0 0 0 0 0 0 0 0 0 0 0 127 0" result="hardAlpha"/>
<feOffset dy="4"/>
<feGaussianBlur stdDeviation="2"/>
<feComposite in2="hardAlpha" operator="out"/>
<feColorMatrix type="matrix" values="0 0 0 0 0 0 0 0 0 0 0 0 0 0 0 0 0 0 0.1 0"/>
<feBlend mode="normal" in2="BackgroundImageFix" result="effect1_dropShadow_1125_584"/>
<feBlend mode="normal" in="SourceGraphic" in2="effect1_dropShadow_1125_584" result="shape"/>
</filter>
<linearGradient id="paint0_linear_1125_584" x1="15" y1="14.2437" x2="151.296" y2="335.845" gradientUnits="userSpaceOnUse">
<stop stop-color="#0C0C0C"/>
<stop offset="1" stop-color="#120D06"/>
</linearGradient>
<linearGradient id="paint1_linear_1125_584" x1="18.0733" y1="167.751" x2="74.6656" y2="386.161" gradientUnits="userSpaceOnUse">
<stop stop-color="#0C0C0C"/>
<stop offset="1" stop-color="#120D06"/>
</linearGradient>
<linearGradient id="paint2_linear_1125_584" x1="17.8046" y1="253.833" x2="318.591" y2="672.48" gradientUnits="userSpaceOnUse">
<stop stop-color="#0C0C0C"/>
<stop offset="1" stop-color="#120D06"/>
</linearGradient>
<linearGradient id="paint3_linear_1125_584" x1="316.5" y1="140" x2="257" y2="99.5" gradientUnits="userSpaceOnUse">
<stop stop-color="#C0DE6C"/>
<stop offset="1" stop-color="#11C579"/>
</linearGradient>
<linearGradient id="paint4_linear_1125_584" x1="550.426" y1="235.697" x2="617.628" y2="278.242" gradientUnits="userSpaceOnUse">
<stop stop-color="#86D3FF"/>
<stop offset="1" stop-color="#1C67D9"/>
</linearGradient>
<clipPath id="clip0_1125_584">
<rect width="102.495" height="101.529" fill="white" transform="translate(533.505 214.424)"/>
</clipPath>
</defs>
</svg>
