<svg width="222" height="199" viewBox="0 0 222 199" fill="none" xmlns="http://www.w3.org/2000/svg">
<g filter="url(#filter0_d_873_2200)">
<path d="M203.275 20.6216L160.717 109.587C160.673 109.694 160.623 109.8 160.568 109.902L128.661 176.603C128.255 177.507 127.671 178.322 126.944 178.998C126.217 179.675 125.362 180.2 124.428 180.542C123.494 180.885 122.501 181.038 121.507 180.992C120.513 180.947 119.538 180.704 118.639 180.278C117.741 179.852 116.937 179.251 116.276 178.511C115.614 177.771 115.108 176.907 114.787 175.969C114.465 175.032 114.336 174.039 114.406 173.051C114.476 172.063 114.743 171.099 115.193 170.215L142.091 113.988H17.4673C15.9907 113.989 14.547 113.554 13.3189 112.738C12.0908 111.921 11.1335 110.761 10.5683 109.403C10.0031 108.045 9.85531 106.551 10.1437 105.109C10.4321 103.668 11.1437 102.344 12.1883 101.305L51.6872 61.9938L12.1883 22.6828C11.1437 21.644 10.4321 20.32 10.1437 18.8784C9.85531 17.4368 10.0031 15.9424 10.5683 14.5844C11.1335 13.2265 12.0908 12.066 13.3189 11.2499C14.547 10.4338 15.9907 9.99885 17.4673 10H196.541C197.801 10.0004 199.04 10.3182 200.142 10.9238C201.245 11.5294 202.176 12.4031 202.848 13.4634C203.521 14.5237 203.912 15.7362 203.987 16.9879C204.061 18.2395 203.817 19.4896 203.275 20.6216Z" fill="url(#paint0_linear_873_2200)"/>
<path d="M196.541 5H196.543C198.642 5.00069 200.708 5.53035 202.549 6.54109C204.39 7.5519 205.946 9.0116 207.071 10.7862C208.196 12.5609 208.853 14.5921 208.978 16.6905C209.103 18.7887 208.692 20.8835 207.785 22.7793C207.785 22.7793 207.785 22.7794 207.785 22.7795L165.276 111.643C165.202 111.813 165.123 111.98 165.038 112.145L133.194 178.712C132.516 180.202 131.549 181.543 130.351 182.658C129.136 183.789 127.707 184.665 126.149 185.236C124.592 185.808 122.936 186.063 121.279 185.987C119.622 185.911 117.996 185.506 116.497 184.795C114.998 184.084 113.655 183.081 112.549 181.844C111.442 180.607 110.594 179.16 110.056 177.589C109.518 176.018 109.301 174.355 109.418 172.699C109.534 171.065 109.971 169.472 110.706 168.009L134.157 118.988L17.4712 118.987M17.4712 118.987L17.4673 118.988C17.4686 118.988 17.4699 118.987 17.4712 118.987Z" stroke="white" stroke-width="10"/>
</g>
<defs>
<filter id="filter0_d_873_2200" x="0" y="0" width="222" height="199" filterUnits="userSpaceOnUse" color-interpolation-filters="sRGB">
<feFlood flood-opacity="0" result="BackgroundImageFix"/>
<feColorMatrix in="SourceAlpha" type="matrix" values="0 0 0 0 0 0 0 0 0 0 0 0 0 0 0 0 0 0 127 0" result="hardAlpha"/>
<feOffset dx="4" dy="4"/>
<feGaussianBlur stdDeviation="2"/>
<feComposite in2="hardAlpha" operator="out"/>
<feColorMatrix type="matrix" values="0 0 0 0 0 0 0 0 0 0 0 0 0 0 0 0 0 0 0.25 0"/>
<feBlend mode="normal" in2="BackgroundImageFix" result="effect1_dropShadow_873_2200"/>
<feBlend mode="normal" in="SourceGraphic" in2="effect1_dropShadow_873_2200" result="shape"/>
</filter>
<linearGradient id="paint0_linear_873_2200" x1="107" y1="10" x2="107" y2="181" gradientUnits="userSpaceOnUse">
<stop stop-color="#2773DC"/>
<stop offset="1" stop-color="#5FFBF1"/>
</linearGradient>
</defs>
</svg>
