<svg width="106" height="105" viewBox="0 0 106 105" fill="none" xmlns="http://www.w3.org/2000/svg">
<g filter="url(#filter0_d_595_298)">
<path d="M91.7258 40.1387C90.1801 38.4095 88.5808 36.6275 88.0105 35.092C87.4824 33.6853 87.5347 31.3886 87.5842 29.164C87.6758 25.0282 87.7839 20.3417 84.6254 16.9615C81.467 13.5813 76.7507 13.3359 72.5889 13.1156C70.3502 12.9974 68.0389 12.8765 66.6654 12.248C65.17 11.5683 63.4956 9.8513 61.8747 8.19143C59.0364 5.27281 55.8111 1.96642 51.3568 1.79875C46.9025 1.63108 43.442 4.68581 40.3881 7.38264C38.6469 8.91596 36.8525 10.5024 35.3059 11.0676C33.8976 11.5914 31.5753 11.5379 29.334 11.4874C25.1674 11.3942 20.446 11.2844 17.0424 14.4176C13.6388 17.5508 13.4156 22.2329 13.1747 26.3631C13.0568 28.5852 12.9363 30.8792 12.3039 32.2422C11.62 33.7263 9.89112 35.3873 8.2198 36.9954C5.28105 39.811 1.95185 43.0106 1.78542 47.432C1.619 51.8533 4.69839 55.2899 7.417 58.3228C8.9627 60.0519 10.562 61.834 11.1322 63.3695C11.6604 64.7762 11.6081 67.0728 11.5585 69.2975C11.4669 73.4333 11.3589 78.1197 14.5173 81.5C17.6758 84.8802 22.3921 85.1256 26.5539 85.3458C28.7926 85.464 31.1038 85.585 32.4773 86.2134C33.9728 86.8932 35.6471 88.6102 37.2681 90.27C40.1063 93.1887 43.3316 96.495 47.786 96.6627C52.2403 96.8304 55.7008 93.7757 58.7547 91.0788C60.4958 89.5455 62.2902 87.9591 63.8368 87.3939C65.2537 86.8704 67.5675 86.9236 69.8087 86.974C73.9753 87.0672 78.6967 87.1771 82.1003 84.0439C85.5039 80.9107 85.7485 76.2293 85.9681 72.0984C86.0859 69.8763 86.2065 67.5822 86.8388 66.2192C87.5228 64.7352 89.2516 63.0742 90.923 61.4661C93.8617 58.6504 97.1909 55.4508 97.3573 51.0295C97.5238 46.6081 94.4444 43.1715 91.7258 40.1387Z" fill="white"/>
<g filter="url(#filter1_d_595_298)">
<path d="M85.4094 41.3178C84.1018 39.844 82.7489 38.3252 82.2667 37.0162C81.8201 35.8171 81.8649 33.8591 81.9073 31.9626C81.9858 28.4367 82.0784 24.4413 79.4064 21.5603C76.7345 18.6793 72.7434 18.4713 69.2216 18.2845C67.3272 18.1842 65.3714 18.0817 64.2093 17.5462C62.9439 16.9671 61.5274 15.5037 60.1561 14.089C57.755 11.6014 55.0264 8.78341 51.2571 8.64152C47.4877 8.49964 44.5586 11.1047 41.9737 13.4046C40.4999 14.7122 38.981 16.0651 37.6721 16.5473C36.4802 16.9942 34.515 16.9491 32.6184 16.9066C29.0926 16.8282 25.0972 16.7356 22.2162 19.4076C19.3352 22.0795 19.1452 26.0712 18.9403 29.5924C18.8401 31.4868 18.7376 33.4426 18.2021 34.6047C17.623 35.8701 16.1596 37.2866 14.7449 38.6579C12.2573 41.059 9.43929 43.7876 9.29741 47.5569C9.15552 51.3263 11.7606 54.2553 14.0604 56.8403C15.368 58.3141 16.721 59.8329 17.2032 61.1419C17.6498 62.341 17.605 64.2989 17.5625 66.1955C17.484 69.7214 17.3915 73.7168 20.0635 76.5978C22.7354 79.4788 26.7264 79.6868 30.2482 79.8736C32.1427 79.9739 34.0985 80.0764 35.2606 80.6119C36.526 81.191 37.9424 82.6544 39.3137 84.0691C41.7149 86.5567 44.4434 89.3747 48.2128 89.5166C51.9822 89.6585 54.9112 87.0534 57.4962 84.7536C58.97 83.4459 60.4888 82.093 61.7977 81.6108C62.9969 81.1642 64.9548 81.209 66.8514 81.2515C70.3773 81.3299 74.3727 81.4225 77.2537 78.7505C80.1347 76.0786 80.3427 72.0875 80.5295 68.5657C80.6298 66.6713 80.7323 64.7155 81.2678 63.5534C81.8469 62.288 83.3103 60.8715 84.725 59.5002C87.2125 57.0991 90.0306 54.3705 90.1725 50.6012C90.3143 46.8318 87.7093 43.9028 85.4094 41.3178ZM66.4697 43.0779L45.4899 62.5356C45.2115 62.7941 44.8849 62.9952 44.5288 63.1273C44.1727 63.2595 43.794 63.3201 43.4144 63.3058C43.0349 63.2916 42.6618 63.2026 42.3166 63.044C41.9715 62.8855 41.6609 62.6605 41.4028 62.3818L33.0638 53.3904C32.5422 52.8281 32.2654 52.0815 32.2942 51.315C32.3231 50.5486 32.6552 49.8249 33.2176 49.3034C33.78 48.7818 34.5265 48.505 35.293 48.5338C36.0595 48.5627 36.7831 48.8948 37.3047 49.4572L43.677 56.3317L62.5365 38.837C62.8149 38.5788 63.1415 38.3779 63.4976 38.2458C63.8537 38.1138 64.2323 38.0532 64.6119 38.0675C64.9914 38.0818 65.3644 38.1707 65.7095 38.3291C66.0547 38.4875 66.3653 38.7124 66.6235 38.9909C66.8818 39.2693 67.0827 39.5959 67.2147 39.952C67.3468 40.3081 67.4074 40.6868 67.3931 41.0663C67.3788 41.4458 67.2899 41.8188 67.1315 42.164C66.973 42.5091 66.7482 42.8197 66.4697 43.0779Z" fill="url(#paint0_linear_595_298)"/>
</g>
</g>
<defs>
<filter id="filter0_d_595_298" x="1.77896" y="1.79211" width="103.585" height="102.877" filterUnits="userSpaceOnUse" color-interpolation-filters="sRGB">
<feFlood flood-opacity="0" result="BackgroundImageFix"/>
<feColorMatrix in="SourceAlpha" type="matrix" values="0 0 0 0 0 0 0 0 0 0 0 0 0 0 0 0 0 0 127 0" result="hardAlpha"/>
<feOffset dx="4" dy="4"/>
<feGaussianBlur stdDeviation="2"/>
<feComposite in2="hardAlpha" operator="out"/>
<feColorMatrix type="matrix" values="0 0 0 0 0 0 0 0 0 0 0 0 0 0 0 0 0 0 0.25 0"/>
<feBlend mode="normal" in2="BackgroundImageFix" result="effect1_dropShadow_595_298"/>
<feBlend mode="normal" in="SourceGraphic" in2="effect1_dropShadow_595_298" result="shape"/>
</filter>
<filter id="filter1_d_595_298" x="5.29185" y="8.63599" width="88.8862" height="88.8862" filterUnits="userSpaceOnUse" color-interpolation-filters="sRGB">
<feFlood flood-opacity="0" result="BackgroundImageFix"/>
<feColorMatrix in="SourceAlpha" type="matrix" values="0 0 0 0 0 0 0 0 0 0 0 0 0 0 0 0 0 0 127 0" result="hardAlpha"/>
<feOffset dy="4"/>
<feGaussianBlur stdDeviation="2"/>
<feComposite in2="hardAlpha" operator="out"/>
<feColorMatrix type="matrix" values="0 0 0 0 0 0 0 0 0 0 0 0 0 0 0 0 0 0 0.1 0"/>
<feBlend mode="normal" in2="BackgroundImageFix" result="effect1_dropShadow_595_298"/>
<feBlend mode="normal" in="SourceGraphic" in2="effect1_dropShadow_595_298" result="shape"/>
</filter>
<linearGradient id="paint0_linear_595_298" x1="17.5" y1="22" x2="87" y2="66" gradientUnits="userSpaceOnUse">
<stop stop-color="#86D3FF"/>
<stop offset="1" stop-color="#1C67D9"/>
</linearGradient>
</defs>
</svg>
