<svg xmlns="http://www.w3.org/2000/svg" xmlns:xlink="http://www.w3.org/1999/xlink" width="2216.14" height="888.96" viewBox="0 0 2216.14 888.96"><defs><clipPath id="clip-path" transform="translate(222.96 314.58)"><rect y="1" width="1087" height="366" style="fill:none"/></clipPath></defs><g id="Layer_2" data-name="Layer 2"><g id="Layer_1-2" data-name="Layer 1"><rect x="222.96" y="314.58" width="1090" height="369"/><g style="clip-path:url(#clip-path)"><path d="M1657.76-72.82c-35.11,24.18-57.27,20-65.62,17.42-23.61-7.23-42-33.48-62.81-63.26-10.79-15.42-13.29-21.77-23.56-28.81-9.25-6.35-18-8.55-53.08-14.28-43-7-43.19-5.87-47.93-8.88-24.78-15.72-29.18-53.2-30.75-66.56-3-25.92,4-30.38-1.8-42.89-11.56-24.92-58.54-48.21-93.52-24.85-28.07,18.74-26.4,62.83-19.73,87.12,7.37,26.81,28,50.29,69.17,97.26,9.09,10.36,21.26,23.68,27.21,45,2.37,8.49,7.1,26.39-.14,46-8.52,23.08-28.4,34.2-36,38.29-24.09,13-46,10.65-89,6.94C1124.5,6.55,1114.39,8.56,1103.88,14c-34,17.54-58.83,64-46,93,14.7,33.18,76.82,39.53,117.12,24.78,8.26-3,7.09-3.82,13.18-5.6,40.86-12,70.59,30.56,123.6,53.5,36.47,15.79,101.24,29.79,139.4,1.38,31-23.1,14.67-52,45.4-95.53,37.79-53.47,117.95-88.08,170.16-65.91,34.89,14.81,26.47,41.87,75.66,85.3,20.82,18.38,71.89,63.48,133.18,55.27,59.85-8,94-62.09,96.58-66.38,50.16-82.24,4.23-207.77-73.29-266.93-15.26-11.64-70.13-53.51-125.22-37.38-49.67,14.54-81.3,70.88-99,102.35A308.43,308.43,0,0,0,1657.76-72.82Z" transform="translate(222.96 314.58)" style="fill:#fff;opacity:0.02"/><rect x="222.96" y="316.58" width="1087" height="366" style="fill:none;opacity:0.3"/><path d="M450-215c-39.2-.17-86.11,18.3-105,55-15.94,31,4,44-9,82-19,55.61-71.3,56.29-76,97-4.11,35.61,30.75,79.94,65,84,31,3.68,41.8-28,103-40,37.3-7.32,52.15.73,56,3,27.82,16.4,30.7,55.05,31,60,1.64,27.16-11.19,31.12-15,63-5.14,43,16.58,49.27,10,81-8.44,40.67-47.36,46-52,82-4.06,31.54,20.59,57.31,25,62,42.5,45.2,130.62,43.16,154,7,10.69-16.54,8.24-40.83,8-43-2.57-23-14.69-28.72-16-49-1.27-19.61,9.38-25,16-47,12.87-42.68-8.49-84.59-15-96-18.47-32.39-34.45-24.72-62-57-4.45-5.21-55.18-66.59-39-142,8.54-39.79,37-38.84,42-76,4.92-36.44-14.61-72.88-39-95C500.47-212.6,463.38-214.94,450-215Z" transform="translate(222.96 314.58)" style="fill:#fff;opacity:0.3"/><path d="M22-9c12.4,30.91,5.38,47.08,2,53C14.43,60.75-8.72,70.24-35,81c-13.6,5.57-18.87,6.39-26,13-6.43,6-9.6,12.22-20,38-12.72,31.55-11.89,31.9-15,35-16.23,16.18-45.55,13.1-56,12-20.28-2.13-22.47-8.27-33-6-21,4.53-46.79,36.33-35,67,9.46,24.61,43.34,30.92,63,30,21.7-1,43.13-12.67,86-36,9.46-5.15,21.7-12.13,39-13,6.88-.34,21.33-.87,35,8,16.12,10.46,21.18,27.52,23,34,5.78,20.59.21,36.88-10,69C-9.12,411-9.33,419.06-7,428c7.53,28.89,38.65,55.82,63,51,27.81-5.51,43.32-51.75,39-85-.88-6.81-1.69-6.06-2-11-2.09-33.2,35.41-48.55,62-85,18.3-25.08,40.09-72,25-106-12.27-27.61-37.14-20.12-65-51C80.74,103,68.14,36,94,0c17.28-24,36.46-13,78-43,17.59-12.71,60.72-43.88,65-92,4.17-47-31.18-82.27-34-85C149-272.35,45.4-258.91-13-210c-11.5,9.63-52.83,44.25-50,89,2.55,40.35,40.05,74.13,61,93A241.67,241.67,0,0,0,22-9Z" transform="translate(222.96 314.58)" style="fill:#fff;opacity:0.3"/><path d="M315,177c-5.78-.22-42-1.57-65,23s-20.62,61.66-17,120c2.95,47.57,10.1,54,2,70-15.81,31.27-51.16,22.93-74,58-12.17,18.68-18.27,45.82-10,69,16.51,46.28,82.4,54.65,93,56,53.69,6.82,117.48-11.75,142-55,4-7.09,12.45-22,10-40-3.42-25.13-24.44-30.36-33-53-9.06-24,6.82-38.48,20-84,10.59-36.6,27.18-93.91,0-131C360.51,179.31,318.82,177.14,315,177Z" transform="translate(222.96 314.58)" style="fill:#fff;opacity:0.3"/><path d="M808-89c-7.55-21-51.82-28.66-86-23-42.65,7.06-88.64,38-89,69-.13,11.21,5.81,12.38,9,34,3,20.1-.8,28.45-1,51-.21,23.26-.35,39.13,6,51,16.62,31.08,82.91,44.47,131,23,37.51-16.75,42.26-45,100-71,11.48-5.17,21.51-9.59,36-12,40.22-6.68,56,12,83,7,30.75-5.65,61-39.07,62-73,1.51-53.32-69.8-94.88-109-83-29,8.78-25.37,42.18-64,57-29.13,11.17-67.46,6.1-76-11C806.39-77.22,810.83-81.12,808-89Z" transform="translate(222.96 314.58)" style="fill:#fff;opacity:0.3"/><path d="M994,87c-8.93-4.21-36.13-17-64-8-44.15,14.31-36.49,66.12-88,100-39.61,26.06-70.55,12.79-89,41-12,18.4-14.77,44.72-5,64,15.26,30.12,61.89,45.27,96,39,10.53-1.93,19.42-5.83,29-1,13.53,6.81,21.63,27.57,16,42-4.6,11.8-14.75,10-24,22-12.72,16.47-12.69,44.68-1,63,17.54,27.48,57.21,26.27,66,26,60.94-1.87,114.2-62.47,137-117C1109.15,257.21,1070,122.84,994,87Z" transform="translate(222.96 314.58)" style="fill:#fff;opacity:0.3"/></g></g></g></svg>