<svg width="76" height="81" viewBox="0 0 76 81" fill="none" xmlns="http://www.w3.org/2000/svg">
<g filter="url(#filter0_d_702_1090)">
<path fill-rule="evenodd" clip-rule="evenodd" d="M14.299 4.89175C14.299 2.19011 16.4891 0 19.1907 0C21.8924 0 24.0825 2.19011 24.0825 4.89175L24.0825 6.02062L44.4021 6.02062V4.89175C44.4021 2.19011 46.5922 0 49.2938 0C51.9955 0 54.1856 2.19011 54.1856 4.89175L54.1856 6.02062L60.732 6.02062C64.5979 6.02062 67.7319 9.15462 67.7319 13.0206V66C67.7319 69.866 64.5979 73 60.732 73L7 73C3.13401 73 0 69.866 0 66L0 13.0206C0 9.15462 3.13401 6.02062 7 6.02062H14.299L14.299 4.89175Z" fill="white"/>
</g>
<path d="M57.6976 10.8255L50.5481 10.8255V8.42309C50.5481 7.78592 50.2971 7.17484 49.8501 6.72429C49.4032 6.27375 48.797 6.02063 48.165 6.02063C47.5329 6.02063 46.9267 6.27375 46.4798 6.72429C46.0329 7.17484 45.7818 7.78592 45.7818 8.42309V10.8255H21.9502V8.42309C21.9502 7.78592 21.6991 7.17484 21.2522 6.72429C20.8053 6.27375 20.1991 6.02063 19.567 6.02063C18.935 6.02063 18.3288 6.27375 17.8819 6.72429C17.435 7.17484 17.1839 7.78592 17.1839 8.42309V10.8255H10.0344C8.77028 10.8255 7.55795 11.3318 6.66409 12.2329C5.77023 13.134 5.26807 14.3561 5.26807 15.6305L5.26807 63.6796C5.26807 64.954 5.77023 66.1761 6.66409 67.0772C7.55795 67.9783 8.77028 68.4845 10.0344 68.4845H57.6976C58.9617 68.4845 60.1741 67.9783 61.0679 67.0772C61.9618 66.1761 62.4639 64.954 62.4639 63.6796V15.6305C62.4639 14.3561 61.9618 13.134 61.0679 12.2329C60.1741 11.3318 58.9617 10.8255 57.6976 10.8255ZM20.7586 56.4723C20.0516 56.4723 19.3605 56.2609 18.7726 55.8649C18.1847 55.4689 17.7265 54.9061 17.456 54.2476C17.1854 53.5891 17.1146 52.8646 17.2526 52.1655C17.3905 51.4665 17.731 50.8244 18.2309 50.3204C18.7308 49.8164 19.3678 49.4732 20.0612 49.3341C20.7546 49.1951 21.4734 49.2664 22.1266 49.5392C22.7798 49.8119 23.3381 50.2738 23.7309 50.8665C24.1237 51.4591 24.3334 52.1558 24.3334 52.8686C24.3334 53.8243 23.9567 54.7409 23.2863 55.4168C22.6159 56.0926 21.7067 56.4723 20.7586 56.4723ZM33.866 56.4723C33.159 56.4723 32.4678 56.2609 31.88 55.8649C31.2921 55.4689 30.8339 54.9061 30.5634 54.2476C30.2928 53.5891 30.222 52.8646 30.3599 52.1655C30.4979 51.4665 30.8383 50.8244 31.3383 50.3204C31.8382 49.8164 32.4752 49.4732 33.1686 49.3341C33.862 49.1951 34.5808 49.2664 35.234 49.5392C35.8872 49.8119 36.4455 50.2738 36.8383 50.8665C37.2311 51.4591 37.4407 52.1558 37.4407 52.8686C37.4407 53.8243 37.0641 54.7409 36.3937 55.4168C35.7233 56.0926 34.8141 56.4723 33.866 56.4723ZM33.866 44.46C33.159 44.46 32.4678 44.2486 31.88 43.8526C31.2921 43.4567 30.8339 42.8938 30.5634 42.2353C30.2928 41.5769 30.222 40.8523 30.3599 40.1532C30.4979 39.4542 30.8383 38.8121 31.3383 38.3081C31.8382 37.8041 32.4752 37.4609 33.1686 37.3218C33.862 37.1828 34.5808 37.2541 35.234 37.5269C35.8872 37.7997 36.4455 38.2616 36.8383 38.8542C37.2311 39.4468 37.4407 40.1435 37.4407 40.8563C37.4407 41.812 37.0641 42.7286 36.3937 43.4045C35.7233 44.0803 34.8141 44.46 33.866 44.46ZM46.9734 56.4723C46.2664 56.4723 45.5752 56.2609 44.9874 55.8649C44.3995 55.4689 43.9413 54.9061 43.6708 54.2476C43.4002 53.5891 43.3294 52.8646 43.4673 52.1655C43.6053 51.4665 43.9457 50.8244 44.4457 50.3204C44.9456 49.8164 45.5826 49.4732 46.276 49.3341C46.9694 49.1951 47.6882 49.2664 48.3414 49.5392C48.9946 49.8119 49.5529 50.2738 49.9457 50.8665C50.3385 51.4591 50.5481 52.1558 50.5481 52.8686C50.5481 53.8243 50.1715 54.7409 49.5011 55.4168C48.8307 56.0926 47.9215 56.4723 46.9734 56.4723ZM46.9734 44.46C46.2664 44.46 45.5752 44.2486 44.9874 43.8526C44.3995 43.4567 43.9413 42.8938 43.6708 42.2353C43.4002 41.5769 43.3294 40.8523 43.4673 40.1532C43.6053 39.4542 43.9457 38.8121 44.4457 38.3081C44.9456 37.8041 45.5826 37.4609 46.276 37.3218C46.9694 37.1828 47.6882 37.2541 48.3414 37.5269C48.9946 37.7997 49.5529 38.2616 49.9457 38.8542C50.3385 39.4468 50.5481 40.1435 50.5481 40.8563C50.5481 41.812 50.1715 42.7286 49.5011 43.4045C48.8307 44.0803 47.9215 44.46 46.9734 44.46ZM57.6976 25.2403H10.0344V15.6305H17.1839V18.0329C17.1839 18.6701 17.435 19.2812 17.8819 19.7317C18.3288 20.1823 18.935 20.4354 19.567 20.4354C20.1991 20.4354 20.8053 20.1823 21.2522 19.7317C21.6991 19.2812 21.9502 18.6701 21.9502 18.0329V15.6305L45.7818 15.6305V18.0329C45.7818 18.6701 46.0329 19.2812 46.4798 19.7317C46.9267 20.1823 47.5329 20.4354 48.165 20.4354C48.797 20.4354 49.4032 20.1823 49.8501 19.7317C50.2971 19.2812 50.5481 18.6701 50.5481 18.0329V15.6305H57.6976V25.2403Z" fill="url(#paint0_linear_702_1090)"/>
<defs>
<filter id="filter0_d_702_1090" x="0" y="0" width="75.7319" height="81" filterUnits="userSpaceOnUse" color-interpolation-filters="sRGB">
<feFlood flood-opacity="0" result="BackgroundImageFix"/>
<feColorMatrix in="SourceAlpha" type="matrix" values="0 0 0 0 0 0 0 0 0 0 0 0 0 0 0 0 0 0 127 0" result="hardAlpha"/>
<feOffset dx="4" dy="4"/>
<feGaussianBlur stdDeviation="2"/>
<feComposite in2="hardAlpha" operator="out"/>
<feColorMatrix type="matrix" values="0 0 0 0 0 0 0 0 0 0 0 0 0 0 0 0 0 0 0.25 0"/>
<feBlend mode="normal" in2="BackgroundImageFix" result="effect1_dropShadow_702_1090"/>
<feBlend mode="normal" in="SourceGraphic" in2="effect1_dropShadow_702_1090" result="shape"/>
</filter>
<linearGradient id="paint0_linear_702_1090" x1="7.5258" y1="13.1701" x2="60.5825" y2="63.9691" gradientUnits="userSpaceOnUse">
<stop stop-color="#BB6DEB"/>
<stop offset="1" stop-color="#AC89F7"/>
</linearGradient>
</defs>
</svg>
