<svg width="83" height="90" viewBox="0 0 83 90" fill="none" xmlns="http://www.w3.org/2000/svg">
<g filter="url(#filter0_d_598_299)">
<path fill-rule="evenodd" clip-rule="evenodd" d="M22.6648 1C19.251 1 16.4835 3.76747 16.4835 7.18132C16.4835 9.0504 17.3131 10.7257 18.6241 11.8592C7.4848 18.3608 0 30.4409 0 44.2692C0 64.9799 16.7893 81.7692 37.5 81.7692C58.2107 81.7692 75 64.9799 75 44.2692C75 30.2313 67.2865 17.9949 55.8667 11.5673C56.9942 10.4475 57.6923 8.89595 57.6923 7.18132C57.6923 3.76747 54.9248 1 51.511 1H22.6648Z" fill="white"/>
</g>
<path d="M38 11C31.671 11 25.4841 12.9354 20.2218 16.5615C14.9594 20.1876 10.8579 25.3415 8.43587 31.3714C6.01387 37.4014 5.38016 44.0366 6.61489 50.438C7.84961 56.8393 10.8973 62.7194 15.3726 67.3345C19.8479 71.9497 25.5497 75.0926 31.7571 76.3659C37.9645 77.6392 44.3986 76.9857 50.2459 74.488C56.0931 71.9903 61.0908 67.7606 64.607 62.3338C68.1232 56.907 70 50.5268 70 44C69.9903 35.2509 66.6158 26.8631 60.6167 20.6765C54.6176 14.49 46.484 11.01 38 11ZM53.22 32.1956L39.8867 45.9456C39.6389 46.2011 39.3448 46.4038 39.0211 46.5421C38.6974 46.6804 38.3504 46.7515 38 46.7515C37.6496 46.7515 37.3027 46.6804 36.979 46.5421C36.6552 46.4038 36.3611 46.2011 36.1133 45.9456C35.8656 45.6901 35.669 45.3868 35.535 45.053C35.4009 44.7191 35.3319 44.3613 35.3319 44C35.3319 43.6387 35.4009 43.2809 35.535 42.947C35.669 42.6132 35.8656 42.3099 36.1133 42.0544L49.4467 28.3044C49.6944 28.0489 49.9886 27.8462 50.3123 27.7079C50.636 27.5696 50.983 27.4985 51.3333 27.4985C51.6837 27.4985 52.0307 27.5696 52.3544 27.7079C52.6781 27.8462 52.9722 28.0489 53.22 28.3044C53.4678 28.5599 53.6643 28.8632 53.7984 29.197C53.9325 29.5309 54.0015 29.8887 54.0015 30.25C54.0015 30.6113 53.9325 30.9691 53.7984 31.303C53.6643 31.6368 53.4678 31.9401 53.22 32.1956ZM27.3333 2.75C27.3333 2.02065 27.6143 1.32118 28.1144 0.805456C28.6145 0.289731 29.2928 0 30 0H46C46.7073 0 47.3855 0.289731 47.8856 0.805456C48.3857 1.32118 48.6667 2.02065 48.6667 2.75C48.6667 3.47935 48.3857 4.17882 47.8856 4.69454C47.3855 5.21027 46.7073 5.5 46 5.5H30C29.2928 5.5 28.6145 5.21027 28.1144 4.69454C27.6143 4.17882 27.3333 3.47935 27.3333 2.75Z" fill="url(#paint0_linear_598_299)"/>
<defs>
<filter id="filter0_d_598_299" x="0" y="1" width="83" height="88.7692" filterUnits="userSpaceOnUse" color-interpolation-filters="sRGB">
<feFlood flood-opacity="0" result="BackgroundImageFix"/>
<feColorMatrix in="SourceAlpha" type="matrix" values="0 0 0 0 0 0 0 0 0 0 0 0 0 0 0 0 0 0 127 0" result="hardAlpha"/>
<feOffset dx="4" dy="4"/>
<feGaussianBlur stdDeviation="2"/>
<feComposite in2="hardAlpha" operator="out"/>
<feColorMatrix type="matrix" values="0 0 0 0 0 0 0 0 0 0 0 0 0 0 0 0 0 0 0.25 0"/>
<feBlend mode="normal" in2="BackgroundImageFix" result="effect1_dropShadow_598_299"/>
<feBlend mode="normal" in="SourceGraphic" in2="effect1_dropShadow_598_299" result="shape"/>
</filter>
<linearGradient id="paint0_linear_598_299" x1="64.5263" y1="14.4375" x2="10.0705" y2="62.2341" gradientUnits="userSpaceOnUse">
<stop stop-color="#C0DE6C"/>
<stop offset="1" stop-color="#11C579"/>
</linearGradient>
</defs>
</svg>
