<svg xmlns="http://www.w3.org/2000/svg" xmlns:xlink="http://www.w3.org/1999/xlink" width="2421" height="831" viewBox="0 0 2421 831"><defs><mask id="mask" x="0" y="-231" width="2591" height="2592" maskUnits="userSpaceOnUse"><g id="mask0_869_2170" data-name="mask0 869 2170"><path d="M2588.88,1336.79c-108.79-42.52-127.71-47.66-237.43-139.75-190.25-161.87-49.42-107.15-335-309.75-101.79-72.52-113.49-98-139.58-125.59-32.51-35.27-139-114-174.4-151.52-50.21-54.34-93.13-86.58-269.18-160.46-27.7-12-36.06-.69-87.89-35.52,89.86.67,71.12,1,122.47,15.17,56.89,16.89,98.78,18.95,136.22,30.09,24.1,6.64,36,14.52,84.47,29.4,219,66.31,185.34,49,306.22,138.56,73.27,56.21,88.27,52.94,119.79,73.05,140.17,85.62,271,331,367.06,441.91,29.41,34,65.83,63,108.16,78.95,1.54-9.55,1-92.85.95-94.23,1.55-16-94.28-65.79-129.48-89.67-43.28-30.57-82.06-86.26-100.62-120.18C2318,841.41,2339.91,810.65,2250.73,704c-95.58-112.86-213.85-152.3-215.93-153.25,34.65,2.15,66.76,1.09,89,20.79,7.84,6.64,13.69,20.45,39.19,28,65.32,18.63,155.75,57.48,204.16,111.18,58.57,65.41,53.72,196.28,136.05,210.34,27.66,4.5,28.53,14.73,86.48,58.78,1.69-9.27,2.17-166-.77-178.72-17.11-68.28-88.12-134.75-147.64-171.74-106.42-65-152.67-61.09-218-115.52-100.78-85.77-27-25.2-118.3-93-45.53-34-57.21-60.53-66.58-72.46-80.65-107.42-249.22-88.93-346.47-150.8-66.48-41-66.72-77.43-96.72-107.75,10.79,2.91,41.07,51.19,166.71,64.5,53.13,6.12,118.95,1.47,198.66,12.4C2083,185.2,2081,213.51,2164.38,248.66c100,41.26,102.59-57.91,304.95,98.84,65.67,51.56,64.82,43,120.21,117.22,2.15-12.09,1.46-101.56.54-109.73.17-2.66-2.72-3.62-4.27-5.15-20.9-15.9-38.33-36.49-61.85-48.78-32.57-17.53-44.83-32-58.13-40.32-35-23-52.45-13.87-91.92-32.47-31.67-15.54-100.54-36.76-156.51-60-47.2-19.54-87.47-40.86-152.9-41.77-106,1.93-147.1,3.09-207-17.81,0,0,17.72.09,78.6-7.39,65.37-9,165.7,11.42,345.89-79.49,114.27-57.65,114.18-58.9,128.66-73.61,16-13.7,37.8-15.75,56.68-23.41,34.45-13.42,46.52-29.49,73.19-43.11,15.49-8.19,32.59-12.51,49-18.51,1.78-7.93,1-85.21.78-93.43-4,0-164.91-.42-164.91-.42-9.89.28-77.63,57.81-142,108.43C2148.57-16.14,2144.43,13,2015.79,11.52c-15.57-.68-294.58-18.93-379.11-41.79-173.43-45.7-213.85-105-285-99.54,47-15.17,89.55,14.72,134.39,17.08,31.77.89,61.58,14.47,93.34,15.25,63.89,2.47,131.08-11.3,209.73-4.89,61.78,5,158.36,44,286,20.93,63.67-13.8,68.65-89.22,108.54-148.65-6.1-.37-244.38-.16-245.75-.16,23.26,35,65.72,52.8,69.7,86.13-47-14.66-61-9.54-110.77-10.78l-155.47-6.39c-106.24-1-149.63,2.66-208.11-5.36-41.87-6.31-132-29.65-176.91-56.22-17.68-9.72,6.72-8.41-125.39-7.53,2.46,60.7,42.53,60.8,50,95.19-48.52-6.11-108.38-53.72-142.59-88.58-2.65-2.75-5.31-6.12-9.34-6.7-1.35-.2-103-.3-106.55.58,71.38,99.71,155.45,138.4,478.7,310.31-16.87,3.14-75.29,2.18-129-13.19C1248.05,32,1255.8,14.57,1165.68-28c-46.89-21.94-104.76-48.29-133-73.75-4.43-3.7-21.79-24.45-40.13-22.52-32.62,3.38-89.4-69.76-104-101.15-3.17-5.91,4.19-5.81-58.24-4.9,5,48.46,22.73,79,30.75,87.73.29.69.9,2.08,1.21,2.77a35.45,35.45,0,0,1-3.26-3.9l-.35.38a734.19,734.19,0,0,1-68.08-81c-5.48-7-5.9-6.94-22.48-6.17-21.52.34-43.08-.27-64.6.3,20.05,52.81,68.29,59.6,84.76,94.77-38-9.22-67-49.06-112.14-46.56-27.22,3.13-35.3.61-51.38-12.24-52.16-42.69-35.45-35.9-64.78-36.3-91.81.91-91.29-2.13-86.38,3.45,39.29,42,39.21,29.63,112.29,96.21,51.9,46.87,117.75,3.11,209.44,8.91,27.89,1.08,54.59,10.19,80.95,18.59,24.66,7.74,45.14,24,66.86,37.38,39.05,24.14,50.78,40.69,73.65,67.57,52,57,244.61,111.29,270.22,126.55,69.38,40.91,102.58,35.81,150.86,70.64,39.52,29.44,48.66,31.25,77.77,39,181.53,46.35,188.86,1.63,260.86,25.5,51,17.18,75.6,61.69,108.72,99.27,46.76,55,76.73,61.59,135.49,86.63,6.52,2.34,12.39,6.28,19,8.27l-.53,1.47,3.08-.88.09,1.9,2.7-.4.27,1.76,2.46-.43,0,1.15c3.79,1.5,7.73,3.08,10.67,6.06-3.56-1.67-6.95-3.69-10.75-4.7l-.24-1.15-2.61.46.06-1.84-2.74.61-.09-1.71h-3.94l.25-1.84-3,.93.61-1.52c-6.19-.37-11.78-3.38-17.67-5-34.15-11-69.71-16.27-105-22.13-108.73-18.33-65.7-17.8-173.11-43.68-68-16.43-90-29.53-155.51-53.27-126.22-46.32-151.66-22.72-247.49-37.33-66-11-46.07-22.19-68-48.71-16.08-21.78-40.38-21.69-53.57-54.72-9.26-23.19-37.74-39.15-63.13-51.87-73.63-35-77.7-43.76-101.42-57.84-70.83-42.46-66.95-30.8-98.25-40.82C895.45,25.05,881.52-9.78,840.85-16.24c-63.16-8-196.26,71.58-293.86,36.67-48.62-17-79.09-71.81-124.5-111C359.5-143.76,286-218.08,280.43-225.81a9.93,9.93,0,0,0-8.49-4.93c-17.49.57-35,0-52.51.37,9.17,30.94,62.16,45.33,87.82,102.31-104.87-66.28-145.24-41.72-213-98-2.87-2.49-6.18-5-10.19-4.75-12.86.76-25.75-.1-38.61.53,3.11,4.19,7.79,6.8,11.42,10.48,19.59,18.25,32.32,42.32,51,61.43,45.56,50.95,58-15.85,175.85,79.25C366.81-12,406.22-13.85,493.06,36.52c135.17,79.31,171,46.8,296.66,44.68,97.3-2.52,102.89-24.82,174.42-1.69,67.66,22.14,110,69,118.31,94.11-48.41-19.6-86.61-72.52-197-49.26-180.13,38.39-348,5.84-402.66,1-61.19-6-75.38-69.9-119.49-86.17-23.32-8.25-48.87-2.6-72.45-9.56C268.41,23,220.27-21.67,198.13-41.6c-78-72-135.42-45.92-197.44-75.15C-.5-108.12.12-13.12.54-4.18c29.16,1.48,46.79.51,117,30.74,85,36.19,92.62,70,144.9,92.78,22.35,9.16,32.12,7.8,86.52,7.53,43.07-.34,19.09,11.13,167.67,38.31,103.58,20,179.83,20.41,202.74,18.84,85.6-4,197.38-71.36,409.38,45.38C1210.12,275.47,1231.12,332.7,1314,373c-15.24,9.87-38.34,5.87-55.72.23-66.74-21.84-99-63.35-203.74-101.8-195.58-73.51-337.06,1.82-496.11-33-120.17-27.19-145.65-48.11-179.85-45.23-10.2.78-17.58,11.5-16.38,21.29,5.43,30,105.6,48.26,135.45,50.58,67.6,4.87,99.63-18.55,201.4,4.34,84.56,18.81,70.75,16.32,192.25,26.22,183.29,16.06,238.15,93.45,378.44,163,261.36,121.11,214.8,107.82,332.13,203.35,34.06,27.81,33.25,41.11,104.9,100.62,23.94,20.07,157.16,119.18,158.52,120.09,38.19,26.47,54.57,27.49,100.55,34.4,46.7,7.41,61.08,27.25,79.78,39.77,158.23,110.31,140.21,244.93,358.31,364.68,84.8,46.76,172.72,62.79,186,63.48,1.18-13.82.71-27.7,1-41.53C2590.39,1341.28,2591.63,1337.67,2588.88,1336.79Zm-744-1230.07c-10.15.39-20.26-2-29.7-5.6C1825.26,100.7,1835.43,103.12,1844.85,106.72Z" style="fill:#fff;fill-opacity:0.10000000149011612"/><path d="M2183.72,2219.81c-40-31.69-79.49-56.8-122.41-109.76-113.85-139.71-267.41-231.32-308.22-265.21-89.76-75.69-54.71-143.41-95.32-200.83-38.43-51.89-70.13-68.19-105.87-104.74-62.18-64.62-52.35-87.18-178.1-208.16,84.87,28.49,74.71,22.6,153,69.19,67,40.83,78.09,39.08,182.8,123.26,183.5,146,110.6,105.22,275,167,34.4,12.93,116.55,57.21,182.56,122.91,58.93,59.54,89.74,80.81,130.25,102.65,81.42,43.43,229.46,92.59,293.68,104.89q-.06-70.5,0-141c-29-23.09-69.91-44.44-111.29-46.13-30.72-1-46.68-8.45-77.9-31.7-90.46-68.53-98.92-151.68-140.37-192.9C2215.6,1566.07,2157,1504.33,2096.88,1484c-3.9-1.3-7.84-2.4-11.58-4.06,47.64-4.53,126.22,48,164.23,76.59,58.09,43.26,93.57,71.2,177.22,85.6,78,13.57,130.66,1.45,164.24-.2q0-21.53,0-43c-11.23-3.46-23.14-3.8-34.53-6.63-27.39-6.62-92.93-27-205.14-42.25-52.09-7.47-118.11-7.85-158.43-50.17-26.16-27.59-44.31-73.36-77.77-106.06-35.32-35.69-71.24-53.66-128.27-86.77-31.38-17.76-40.66-41.83-52.32-67.9-55.46-120.53-137.44-132.62-161.76-200.78-8-23.35-21.71-74-47.4-144.6,10.57,9.46,162.61,177.82,188.34,199.79,29.2,25.32,116.47,70.38,183.53,123,93.82,75.85,87.72,166.1,277.06,254.44,27.23,12.74,104.25,45,132.56,35.28-32.63-35.08-85.74-54.77-113.6-66.38-54.64-23.92-99.08-63.27-162.88-139.79-138.55-166.1-106.32-114.67-159.59-171.73-68.59-72.49-126.92-169.52-216-222.13-42.43-25.29-78.23-27.65-120.54-68.63-23.68-21.73-53.29-54.46-113.67-74.3-65.78-22.07-143.46-26.32-240.8-101.39-64.34-48.53-137.17-141.56-232.69-191.64-27.66-14.71-59.45-22.9-136.53-62-84.29-41.94-155.81-47.51-250.37-55.65L447.81,325c-57.16-3.36-114.26,26.68-167.66-16.52-51.55-41-54.24-95.1-135.11-144.7C56.51,107.34-1.5,124.6,0,140.76c1.09,16-1,32,.8,47.92,7.84-1.85,15.64-4.34,23.76-4.42,56.77-2,115.38,58.68,149.19,92.58,58.73,60.24,99.83,78.66,109.71,85.75C263,360.67,244.7,350.1,226,342.16c-40.94-18.3-92.85-16.25-125.08-26.07C67.25,306,30.7,281.83.63,279.67c-.38,3.43-1,71.77.21,89.16,4.67,1.75,9.73,2.17,14.5,3.66,23.54,6.9,81.84,35.93,112.68,74.56,37.53,44.13,72.24,90.58,104.93,138.38a298.3,298.3,0,0,1,39.73,85.47C171.84,497.1,108.78,498.57.78,507.41-.62,517.64,1,528,.2,538.22c-.48,36.29-1.16,27.37,12,36.7C137.35,655.79,292.35,754.6,271.91,916.86c-.81,6.36-1.58,12.8-3.55,18.93-3.67-43.49-17-82.53-54.32-124.7C122,706,33.55,732.06.73,678.21-.57,703.7.63,805.47.12,858.76c.38,2.77-.84,7.41,3.08,7.87,46.94,9.76,89,33.86,130.82,56.18,49.21,26.89,73.1,33.22,145.4,72.83,103.92,54.21,146.18,46.42,206.37,57,64.67,11.41,151.12,39.1,199.12,84,71,69.19,69.57,31.18,227.7,60.16,64.42,13.3,111.47,14.06,151.46,24.23,161.3,43.1,260.41,129.18,270.67,149.2-63.5-39.48-91.87-44-143.31-62.55-63.59-21.5-75.93-30-170.21-49-38.73-8.35-121.9-28-165.34-5.81,14.48,22.93,50.5,14.88,82.78,22.46,46.26,10.48,103.7,36.57,155.18,58.39,60.44,26,107.66,60.09,146.83,84.27C1472.94,1564.15,1514,1549.68,1561,1632.66c-43.85-27.89-225.53-101.63-264.44-110.75-64.87-20-50.65-24.66-70.08-48-34.13-42.57-87-56.32-120.41-66.45-156.15-45.27-239-34.75-327.14-34.86-158.83,3.4-193.64,36.32-330.59-30-74.5-33-127.85,19.52-214.24-83.61-32.35-38.85-59.33-97.73-103.15-137.5C72.24,1070.29,45.76,1080,.65,1078.57,0,1091.75,0,1208,.78,1213.84c10.68.7,21.52-.41,32.07,2,70.59,15.41,201.15,62.26,232,127.91-44.26-31.46-33.17-29.69-129.37-55.94-47.5-12.49-59.27-1.28-110.87-.57-8.16.29-16.25-1.25-24.4-1.09.08,27.78-1.1,32.35,3,33,56.32,13.48,101.09,58.66,148.4,87.31,236.52,141.06,275.88,181.17,274.13,212.15-26-38.61-108.11-55.63-188.6-108.63C185.6,1477.23,2.27,1397,.92,1396.51c-.31,25.19-.15,50.4-.08,75.6,89.32-9.93,110.86,110.73,169.78,197.93,29,43.45,84.85,104.43,103.74,169-78-21.45-89.73-117.17-167.17-151.35-4.41-2.15-9.6-2.61-13.63-5.49-5-5.09-7.81-49.16-45.25-77.55C34.7,1594.51,17,1594.53.78,1594.07c-1.49,22.13-.11,44.33-.69,66.48.25,3.48-.57,8.19,3.06,10.26,80.48,51.65,68.38,129.73,113.56,174.91,31.89,32.53,87.24,43.92,145.08,64.11,117.26,42.5,114,138,281.38,188.28,54.45,16.4,100.72,22.35,171.17,45.91,130.73,44.71,139.87,39.89,169.7,47.74-19.95,7.07-58.45-5.55-90-11.18-113.69-16.11-154.62,15.56-354.5-66.58-72.94-29.84-190.56-76.37-253-22.93,13.7,2.51,41.31-1.07,69.79,36.55,33.8,43.6,27,67.61,91.42,119.35,77.82,61.37,132.11,61.94,144,64.39-25.87,12.11-72.05,7.24-101,4.14-119-13.65-95.17-54.69-194.19-122.36-.54-.37-93.34-57.24-130.06-81-41.27-27.84-40.68-23.94-66-54.35-.73,25.12-.29,127-.08,128.84,0,2.57,2.76,3.53,4.51,4.88,21.81,13.07,38.15,32.92,55.74,50.89,60.69,65.15,76.36,49.22,145.88,70.9,35.63,10.8,47.85,26.81,55.5,47.69H630.9c-7.64-46.19-73.29-76-115.37-93.71-55.52-22.42-191-85.91-202.45-144,218.16,173.32,474.9,50.27,579.48,149.86,26.68,24.77,55.59,53.91,71,86.93,20.87,1.28-62.63.9,468.54.9-1.49-1.82-3-3.72-5.25-4.55-142.14-65.26-186.2,8.13-292.17-6.52-39.55-5.19-58.2-27.33-70.86-60.37-8.75-22.16-11.71-50.92-55.27-83.74-22.25-17.85-47.42-31.57-69.92-49.09-95.29-72.54-191.11-41.06-198.25-85.24,38.86-8.17,123.64-2.51,212.54,36.94,158.86,70.2,65.23,121.35,326.24,138.46,46.07,3.46,105.62,2.56,159.76,30.22,52,26,64.1,54.7,110.94,83.89h169.51c.19-1.75.07-3.43-1.5-4.41-232.11-208.06-357.08-135.21-575-225.93-9.56-4.22-19.55-7.68-28.54-13.06,18.75.48,66.44,15.5,84.48,21.06,161.48,49.29,334-22.9,601,89.23,75.92,31.79,147.23,75.9,206.65,133.11h166.48c-4-7.74-180.49-93.2-204.07-104.16-73.51-34.34-120.19-52.66-266.84-102.49-296.08-98.73-329.24-68.08-447.09-87.22-78-12-104.28-37.5-135.5-54.48-77.65-43.73-100.61-37-131.3-62.34C938,1908.52,980.8,1823,778.42,1701.57c-103.87-61.91-208.73-65.43-299.29-133-83.4-61.65-94.32-49.91-166.21-145.23-4.42-6-8.86-12.23-11.45-19.3,9-1.65,372.77,43.69,374.13,43.86,75.53,10,100.46,27.43,141.31,31.67,113,12.8,244.49,20.13,367.75,62,214.35,72.67,257.48,238.65,402.92,321.51,72.71,41.67,122.05,45.48,206.88,110.88,120.53,90.81,382.52,305.51,417.11,349.57,9.52,11.9,18.16,24.46,27.19,36.74,41-.14,81.95.21,122.91-.18C2358.31,2355.6,2185.07,2220.86,2183.72,2219.81ZM468,340.43c1.49,7.17,2.38,14.44,3.19,21.72A22.45,22.45,0,0,1,468,340.43ZM396.08,487.06c66.71,54.06,83.38,82.26,187.66,137,165,87.39,351,93.35,398,84.08-19.78-58.6-87.06-76.41-136.67-98.1-37.83-17.28-79.31-10.83-108-15.15-6.72-.88-91.62-17.22-124.11-32.5C567.4,540.88,488.2,443.29,473.57,368.59c12.62,10.27,4.16,12.71,70.8,54.24,113.9,68.66,156,65.91,223.09,86.05,212.37,61.22,222.93,84.56,301.82,171.94,71.86,76.84,94.8,107.78,121.85,135,38.68,38.24,63.17,54.55,121.81,108,108.56,95.68,108.37,103.34,134.94,139.47-3.85-1.08-6.74-3.94-9.93-6.13-107.88-76.46-281.09-138.85-363-188.93-136.92-82-317.52-43.57-439.32-101.1C502.82,705.68,371.78,516,314.74,463c-17.75-18.16-41.19-28.83-62.58-41.89l-2.32-2.38C302.59,417.07,356.49,455,396.08,487.06Zm113.57,280c234.08,136,232.9,35.65,341.11,103.17,18.42,11.13,48.16,35.63,99.74,43.16C996,919,1098,943.81,1164.92,986.62c40.78,26.66,72.83,52,121.44,66-42.47,3.86-92.73-32.82-157.45-50.06-101.58-26.72-166.41-16.78-186.44-18.66-79.18-3.57-111.21-79-216.16-73.89-46.68,1.4-87.64,14.83-144.86-20-29.88-18.07-66.25-51.48-79.77-81.24-10.1-22-15.78-45.66-25.89-67.63-1.59-1.52-1.66-3.8-2-5.8,1.08,1.4,1.54,3.44,3.37,4.16l-.3.43C487,749.87,497.23,760,509.65,767.06ZM886.56,1072.5c-24.95-2.38-166.52-4.48-167-4.55-82.07-8.29-106.38-102.1-289.53-127.19-29.92-3-72.14,8.64-91.77-5.25-1.93-.61-.39-2.6.26-3.53C361.37,899.44,357,830.35,361.5,773.59c-.19-52.75-30.74-108.85-54.76-155.4-26.23-52.27-65.16-85.43-94.29-113.66-92.9-88.46-78.54-108.95-127.27-125.47C184,376.8,243,456.94,296.18,520.85,313,541,327.58,562.9,341,585.41c16.06,26,38.16,47.34,58.17,70.19,82.93,90.62,2.07,213.54,193.22,284.08,136.55,50.39,364.32,34.73,482,172.27,15.12,18.2,27.79,39.94,30,63.93C1065.15,1167.66,1014.23,1081.78,886.56,1072.5Zm200.8-43.27c10.9.53,19.55,8.45,26.76,15.91C1104.6,1040.9,1096,1035,1087.36,1029.23Zm104,91.85c-42.57-31.79-15.24-5.73-70.25-70.54,117.37,57.38,159,15.74,222.85,55.88,59,35.85,42.5,76.52,242.16,132.76,97.32,26.74,103.68,37.79,128.24,50.13-4-8.39-10-15.67-14.58-23.74-33.68-53.81-26.67-58.15-95.35-148.56-26.47-35-155.07-193.7-190-225.84-88.73-83.43-138.32-54.32-203-190.24-11.55-22.54-21.3-51.74-58.56-88.95C930,403.43,728.57,436.13,664.93,394.62c18.06-2.56,139.42-8.26,250.9,27.06,144.61,44.74,267.71,167.32,380,247.36,71.48,52.55,95,105.21,173.78,145,34,18.53,97.87,36.24,138.83,80.42,54.8,55.89,82.59,209.94,126.57,258.82,10.87,13.07,31.12,24,54.17,57.69,53.31,82.8,139.37,82.16,203.72,175.37,36.21,51.24,47.59,117.46,107.28,211.33,17.72,27.54,49.77,71.67,76.53,90.32a14.54,14.54,0,0,1-3.76-1.67c-91.38-55.66-126.44-83-210.28-125.34-199.62-98.06-361.47-263.81-487.3-285.1-23.21-4.61-67.92.86-125.25-34.92C1315.8,1219.39,1239,1155.31,1191.32,1121.08ZM778.5,1782.94c106.25,72.55,77.33,173.59,169.28,227.84,31.8,18.61,116,53.52,117.72,94.83-5.69,0-14.19,2.24-16.7-4.74C993,1964.53,694,2035,627.7,2038.49c-233.54,19.92-304.28-164.7-355.66-283.12-21.94-49.07-59.23-88.56-89.93-132-19.52-27.43-27.19-61.44-47.74-88.24,29.5,4.81,56.24,19,82,33.4C339.1,1642.09,592.29,1650.73,778.5,1782.94Zm791.66-140.35c4.47,2.46,7.88,6.46,10.6,10.74A26.35,26.35,0,0,1,1570.16,1642.59Z" style="fill:#fff;fill-opacity:0.10000000149011612"/></g></mask></defs><g id="Layer_2" data-name="Layer 2"><g id="Layer_1-2" data-name="Layer 1"><g style="mask:url(#mask)"><g style="opacity:0.3"><rect width="2421" height="831" style="fill:#d9d9d9"/></g></g></g></g></svg>