<svg width="132" height="40" viewBox="0 0 132 40" fill="none" xmlns="http://www.w3.org/2000/svg">
<path d="M4.75586 7.11914C4.75586 6.91081 4.67773 6.75781 4.52148 6.66016C4.37174 6.55599 4.20573 6.50391 4.02344 6.50391C3.65885 6.50391 3.30404 6.55924 2.95898 6.66992C2.61393 6.77409 2.30469 6.92057 2.03125 7.10938C1.75781 7.29167 1.53646 7.51302 1.36719 7.77344C1.20443 8.02734 1.12305 8.30404 1.12305 8.60352C1.12305 8.81185 1.14909 8.97786 1.20117 9.10156C1.25977 9.22526 1.32487 9.31966 1.39648 9.38477C1.4681 9.44336 1.53971 9.48242 1.61133 9.50195C1.68945 9.51497 1.74479 9.52148 1.77734 9.52148C1.9401 9.52148 2.07357 9.49544 2.17773 9.44336C2.2819 9.38477 2.3763 9.32617 2.46094 9.26758C2.54557 9.20247 2.6237 9.14388 2.69531 9.0918C2.77344 9.0332 2.86133 9.00391 2.95898 9.00391C3.03711 9.00391 3.11849 9.02344 3.20312 9.0625C3.29427 9.09505 3.37565 9.15039 3.44727 9.22852C3.52539 9.30664 3.59049 9.41081 3.64258 9.54102C3.69466 9.66471 3.7207 9.81771 3.7207 10C3.7207 10.2604 3.66862 10.485 3.56445 10.6738C3.4668 10.8626 3.33659 11.0221 3.17383 11.1523C3.01758 11.276 2.83529 11.3704 2.62695 11.4355C2.42513 11.4941 2.22331 11.5234 2.02148 11.5234C1.70898 11.5234 1.42578 11.4714 1.17188 11.3672C0.924479 11.2565 0.712891 11.1068 0.537109 10.918C0.361328 10.7292 0.227865 10.5078 0.136719 10.2539C0.0455729 10 0 9.72982 0 9.44336C0 8.62956 0.205078 7.96224 0.615234 7.44141C1.02539 6.91406 1.58203 6.50065 2.28516 6.20117C2.99479 5.89518 3.81836 5.68685 4.75586 5.57617C5.69987 5.45898 6.70247 5.40039 7.76367 5.40039C8.97461 5.40039 10.0684 5.52409 11.0449 5.77148C12.028 6.01237 12.8678 6.40625 13.5645 6.95312C14.2611 7.5 14.7982 8.21615 15.1758 9.10156C15.5534 9.98047 15.7422 11.0547 15.7422 12.3242C15.7422 13.5938 15.5404 14.7201 15.1367 15.7031C14.7396 16.6862 14.1927 17.513 13.4961 18.1836C12.806 18.8477 11.9922 19.3555 11.0547 19.707C10.1237 20.0521 9.12435 20.2246 8.05664 20.2246C7.34701 20.2246 6.77409 20.1888 6.33789 20.1172C5.9082 20.0521 5.57617 19.9382 5.3418 19.7754C5.10742 19.6061 4.95117 19.3848 4.87305 19.1113C4.79492 18.8314 4.75586 18.4798 4.75586 18.0566V7.11914ZM7.97852 18.1445C7.97852 18.5156 8.0599 18.7826 8.22266 18.9453C8.39193 19.1016 8.63932 19.1797 8.96484 19.1797C9.45312 19.1797 9.90234 19.0723 10.3125 18.8574C10.7292 18.6426 11.0872 18.2747 11.3867 17.7539C11.6862 17.2266 11.9206 16.5267 12.0898 15.6543C12.2591 14.7819 12.3438 13.6849 12.3438 12.3633C12.3438 11.4779 12.2884 10.7129 12.1777 10.0684C12.0736 9.41732 11.9336 8.86719 11.7578 8.41797C11.582 7.96224 11.3802 7.5944 11.1523 7.31445C10.931 7.02799 10.7031 6.80664 10.4688 6.65039C10.2344 6.48763 10.0033 6.38021 9.77539 6.32812C9.55404 6.26953 9.35547 6.24023 9.17969 6.24023C8.75651 6.24023 8.45052 6.33464 8.26172 6.52344C8.07292 6.71224 7.97852 7.05078 7.97852 7.53906V18.1445ZM19.4789 11.9238C19.7263 11.5462 19.99 11.2044 20.2699 10.8984C20.3871 10.7682 20.5141 10.6413 20.6508 10.5176C20.7875 10.3939 20.9275 10.2832 21.0707 10.1855C21.2204 10.0879 21.3734 10.0098 21.5297 9.95117C21.6859 9.89258 21.8422 9.86328 21.9984 9.86328C22.3305 9.86328 22.5909 9.96419 22.7797 10.166C22.9685 10.3613 23.0629 10.638 23.0629 10.9961C23.0629 11.2174 23.0434 11.4323 23.0043 11.6406C22.9717 11.8424 22.9034 12.0898 22.7992 12.3828H22.5258C22.4867 12.181 22.3956 12.015 22.2523 11.8848C22.1091 11.748 21.9008 11.6797 21.6273 11.6797C21.4255 11.6797 21.227 11.7188 21.0316 11.7969C20.8363 11.8685 20.6443 11.9596 20.4555 12.0703C20.2732 12.181 20.0974 12.3014 19.9281 12.4316C19.7654 12.5618 19.6156 12.6855 19.4789 12.8027V19.1406C19.4789 19.2253 19.4659 19.3262 19.4398 19.4434C19.4138 19.5605 19.3487 19.6712 19.2445 19.7754C19.1469 19.8796 18.9971 19.9674 18.7953 20.0391C18.6 20.1172 18.3298 20.1562 17.9848 20.1562C17.6397 20.1562 17.3663 20.1139 17.1645 20.0293C16.9691 19.9512 16.8194 19.8568 16.7152 19.7461C16.6111 19.6354 16.546 19.5215 16.5199 19.4043C16.4939 19.2871 16.4809 19.1927 16.4809 19.1211V11.582C16.4809 11.3932 16.4353 11.2305 16.3441 11.0938C16.2595 10.9505 16.113 10.8789 15.9047 10.8789C15.794 10.8789 15.6996 10.8984 15.6215 10.9375C15.5434 10.9766 15.4587 11.0319 15.3676 11.1035L15.1625 10.8594C15.3122 10.7357 15.4783 10.6152 15.6605 10.498C15.8493 10.3743 16.0512 10.2669 16.266 10.1758C16.4809 10.0846 16.712 10.0098 16.9594 9.95117C17.2068 9.89258 17.4672 9.86328 17.7406 9.86328C18.0206 9.86328 18.2582 9.90234 18.4535 9.98047C18.6553 10.0521 18.8181 10.1497 18.9418 10.2734C19.072 10.3906 19.1729 10.5241 19.2445 10.6738C19.3161 10.8236 19.3682 10.9766 19.4008 11.1328C19.4398 11.2826 19.4626 11.429 19.4691 11.5723C19.4757 11.709 19.4789 11.8262 19.4789 11.9238ZM25.0223 15.5176C25.0223 15.7259 25.0516 15.9538 25.1102 16.2012C25.1753 16.4421 25.2664 16.6862 25.3836 16.9336C25.5008 17.181 25.644 17.4186 25.8133 17.6465C25.9891 17.8678 26.1876 18.0664 26.409 18.2422C26.6368 18.418 26.8875 18.5579 27.1609 18.6621C27.4344 18.7663 27.7339 18.8184 28.0594 18.8184C28.2872 18.8184 28.4988 18.7923 28.6941 18.7402C28.8895 18.6882 29.0717 18.6165 29.241 18.5254C29.4103 18.4342 29.573 18.3301 29.7293 18.2129C29.8855 18.0892 30.0418 17.959 30.198 17.8223L30.4422 18.0566C30.2924 18.2585 30.1004 18.4798 29.866 18.7207C29.6316 18.9616 29.3484 19.1895 29.0164 19.4043C28.6844 19.6126 28.297 19.7884 27.8543 19.9316C27.4116 20.0684 26.907 20.1367 26.3406 20.1367C25.7742 20.1367 25.2208 20.0358 24.6805 19.834C24.1466 19.6257 23.6714 19.3164 23.2547 18.9062C22.838 18.4961 22.5027 17.985 22.2488 17.373C22.0014 16.7611 21.8777 16.0449 21.8777 15.2246C21.8777 14.6322 21.9526 14.0885 22.1023 13.5938C22.2521 13.099 22.4539 12.653 22.7078 12.2559C22.9682 11.8587 23.2677 11.5104 23.6063 11.2109C23.9513 10.9115 24.3126 10.6641 24.6902 10.4688C25.0678 10.2669 25.452 10.1172 25.8426 10.0195C26.2397 9.91536 26.6206 9.86328 26.9852 9.86328C27.4669 9.86328 27.8868 9.91536 28.2449 10.0195C28.603 10.1237 28.8992 10.2637 29.1336 10.4395C29.3745 10.6152 29.5535 10.8203 29.6707 11.0547C29.7879 11.2826 29.8465 11.5234 29.8465 11.7773C29.8465 12.0833 29.7586 12.36 29.5828 12.6074C29.407 12.8483 29.1727 13.0599 28.8797 13.2422L25.0223 15.5176ZM26.9852 13.5352C27.0698 13.4831 27.1382 13.4342 27.1902 13.3887C27.2488 13.3366 27.2944 13.278 27.327 13.2129C27.3595 13.1413 27.3823 13.0566 27.3953 12.959C27.4148 12.8548 27.4246 12.7279 27.4246 12.5781C27.4246 12.4154 27.4051 12.2363 27.366 12.041C27.3335 11.8392 27.2749 11.6504 27.1902 11.4746C27.1056 11.2988 26.9982 11.1523 26.868 11.0352C26.7378 10.918 26.5815 10.8594 26.3992 10.8594C26.1648 10.8594 25.963 10.931 25.7938 11.0742C25.631 11.2109 25.4943 11.39 25.3836 11.6113C25.2794 11.8327 25.1948 12.0866 25.1297 12.373C25.0711 12.653 25.0255 12.9362 24.993 13.2227C24.9604 13.5091 24.9409 13.7858 24.9344 14.0527C24.9279 14.3132 24.9246 14.5345 24.9246 14.7168L26.9852 13.5352ZM34.7551 14.9414C34.7551 14.7786 34.703 14.6549 34.5988 14.5703C34.4947 14.4857 34.3612 14.4434 34.1984 14.4434C33.9706 14.4434 33.7525 14.4954 33.5441 14.5996C33.3423 14.7038 33.1633 14.8568 33.007 15.0586C32.8508 15.2604 32.7271 15.5111 32.6359 15.8105C32.5448 16.1035 32.4992 16.4453 32.4992 16.8359C32.4992 17.2135 32.5253 17.526 32.5773 17.7734C32.6359 18.0208 32.7108 18.2194 32.802 18.3691C32.8996 18.5124 33.0103 18.6133 33.134 18.6719C33.2577 18.7305 33.3879 18.7598 33.5246 18.7598C33.6939 18.7598 33.8534 18.7174 34.0031 18.6328C34.1529 18.5417 34.2831 18.4277 34.3937 18.291C34.5044 18.1543 34.5923 18.0013 34.6574 17.832C34.7225 17.6628 34.7551 17.4935 34.7551 17.3242V14.9414ZM33.2023 10.6641C32.981 10.6641 32.7759 10.6901 32.5871 10.7422C32.3983 10.7943 32.2355 10.8594 32.0988 10.9375C31.9621 11.0156 31.8547 11.1035 31.7766 11.2012C31.6984 11.2923 31.6594 11.3802 31.6594 11.4648C31.6594 11.5625 31.7082 11.6341 31.8059 11.6797C31.91 11.7188 32.024 11.7676 32.1477 11.8262C32.2714 11.8783 32.382 11.9564 32.4797 12.0605C32.5839 12.1582 32.6359 12.3112 32.6359 12.5195C32.6359 12.6562 32.6066 12.7832 32.548 12.9004C32.496 13.0111 32.4211 13.112 32.3234 13.2031C32.2323 13.2878 32.1216 13.3561 31.9914 13.4082C31.8677 13.4538 31.7375 13.4766 31.6008 13.4766C31.2362 13.4766 30.94 13.3529 30.7121 13.1055C30.4908 12.8581 30.3801 12.5293 30.3801 12.1191C30.3801 11.722 30.4842 11.3835 30.6926 11.1035C30.9009 10.8171 31.1711 10.5827 31.5031 10.4004C31.8417 10.2181 32.2225 10.0846 32.6457 10C33.0689 9.90885 33.4921 9.86328 33.9152 9.86328C34.423 9.86328 34.9081 9.91862 35.3703 10.0293C35.8326 10.14 36.2395 10.3158 36.591 10.5566C36.9491 10.7975 37.2323 11.1035 37.4406 11.4746C37.6555 11.8457 37.7629 12.2949 37.7629 12.8223V18.3398C37.7629 18.3984 37.7661 18.4635 37.7727 18.5352C37.7792 18.6068 37.7954 18.6719 37.8215 18.7305C37.8475 18.7891 37.8866 18.8379 37.9387 18.877C37.9908 18.916 38.0656 18.9355 38.1633 18.9355C38.2805 18.9355 38.3879 18.8932 38.4855 18.8086C38.5897 18.7174 38.6809 18.6263 38.759 18.5352L39.0031 18.7402C38.9055 18.877 38.7883 19.0267 38.6516 19.1895C38.5148 19.3522 38.3488 19.5052 38.1535 19.6484C37.9582 19.7917 37.7303 19.9121 37.4699 20.0098C37.2095 20.1074 36.9133 20.1562 36.5812 20.1562C36.1711 20.1562 35.8065 20.0358 35.4875 19.7949C35.1685 19.5475 34.9602 19.1699 34.8625 18.6621C34.6542 18.9421 34.4361 19.1764 34.2082 19.3652C33.9868 19.554 33.759 19.707 33.5246 19.8242C33.2902 19.9414 33.0526 20.026 32.8117 20.0781C32.5773 20.1302 32.3397 20.1562 32.0988 20.1562C31.7863 20.1562 31.4836 20.1074 31.1906 20.0098C30.8977 19.9121 30.634 19.7591 30.3996 19.5508C30.1717 19.3359 29.9862 19.0592 29.843 18.7207C29.7062 18.3822 29.6379 17.9688 29.6379 17.4805C29.6379 16.888 29.7551 16.403 29.9895 16.0254C30.2238 15.6478 30.5298 15.332 30.9074 15.0781C31.2915 14.8177 31.7245 14.5964 32.2062 14.4141C32.6945 14.2318 33.1926 14.0397 33.7004 13.8379C34.078 13.6882 34.3514 13.4668 34.5207 13.1738C34.6965 12.8743 34.7844 12.5684 34.7844 12.2559C34.7844 11.7741 34.6411 11.39 34.3547 11.1035C34.0747 10.8105 33.6906 10.6641 33.2023 10.6641ZM47.2613 19.1406C47.2613 19.2253 47.2483 19.3262 47.2223 19.4434C47.1962 19.5605 47.1311 19.6712 47.027 19.7754C46.9293 19.8796 46.7796 19.9674 46.5777 20.0391C46.3759 20.1172 46.1025 20.1562 45.7574 20.1562C45.4124 20.1562 45.1389 20.1139 44.9371 20.0293C44.7418 19.9512 44.5921 19.8568 44.4879 19.7461C44.3902 19.6354 44.3284 19.5215 44.3023 19.4043C44.2763 19.2871 44.2633 19.1927 44.2633 19.1211V12.2168C44.2633 12.1257 44.2503 12.0345 44.2242 11.9434C44.1982 11.8457 44.1591 11.7578 44.107 11.6797C44.0549 11.6016 43.9898 11.5397 43.9117 11.4941C43.8336 11.4421 43.7424 11.416 43.6383 11.416C43.4625 11.416 43.29 11.4681 43.1207 11.5723C42.9514 11.6699 42.7919 11.7839 42.6422 11.9141C42.499 12.0443 42.372 12.1745 42.2613 12.3047C42.1572 12.4349 42.0823 12.5326 42.0367 12.5977V19.1406C42.0367 19.2253 42.0237 19.3262 41.9977 19.4434C41.9716 19.5605 41.9065 19.6712 41.8023 19.7754C41.7047 19.8796 41.5549 19.9674 41.3531 20.0391C41.1578 20.1172 40.8876 20.1562 40.5426 20.1562C40.1975 20.1562 39.9241 20.1139 39.7223 20.0293C39.527 19.9512 39.3772 19.8568 39.273 19.7461C39.1689 19.6354 39.1038 19.5215 39.0777 19.4043C39.0517 19.2871 39.0387 19.1927 39.0387 19.1211V11.582C39.0387 11.3932 38.9931 11.2305 38.902 11.0938C38.8173 10.9505 38.6708 10.8789 38.4625 10.8789C38.3518 10.8789 38.2574 10.8984 38.1793 10.9375C38.1012 10.9766 38.0165 11.0319 37.9254 11.1035L37.7203 10.8594C37.8701 10.7357 38.0361 10.6152 38.2184 10.498C38.4072 10.3743 38.609 10.2669 38.8238 10.1758C39.0387 10.0846 39.2698 10.0098 39.5172 9.95117C39.7646 9.89258 40.025 9.86328 40.2984 9.86328C40.7216 9.86328 41.0504 9.9349 41.2848 10.0781C41.5191 10.2148 41.6917 10.3809 41.8023 10.5762C41.913 10.7715 41.9781 10.9766 41.9977 11.1914C42.0237 11.3997 42.0367 11.5755 42.0367 11.7188C42.3427 11.3737 42.6715 11.0645 43.023 10.791C43.1663 10.6738 43.3225 10.5599 43.4918 10.4492C43.6676 10.3385 43.8466 10.2409 44.0289 10.1562C44.2112 10.0651 44.4 9.99349 44.5953 9.94141C44.7906 9.88932 44.9859 9.86328 45.1813 9.86328C45.5589 9.86328 45.8811 9.93164 46.148 10.0684C46.415 10.2051 46.6298 10.3711 46.7926 10.5664C46.9553 10.7552 47.0725 10.957 47.1441 11.1719C47.2223 11.3802 47.2613 11.5625 47.2613 11.7188C47.5738 11.3737 47.9026 11.0645 48.2477 10.791C48.3909 10.6738 48.5471 10.5599 48.7164 10.4492C48.8857 10.3385 49.0615 10.2409 49.2438 10.1562C49.4326 10.0651 49.6214 9.99349 49.8102 9.94141C50.0055 9.88932 50.2008 9.86328 50.3961 9.86328C50.7737 9.86328 51.096 9.9349 51.3629 10.0781C51.6298 10.2148 51.8447 10.3971 52.0074 10.625C52.1702 10.8529 52.2874 11.11 52.359 11.3965C52.4371 11.6829 52.4762 11.9694 52.4762 12.2559V18.3008C52.4762 18.3594 52.4794 18.4245 52.4859 18.4961C52.4924 18.5612 52.5087 18.6263 52.5348 18.6914C52.5608 18.75 52.5999 18.7988 52.652 18.8379C52.7105 18.877 52.7854 18.8965 52.8766 18.8965C53.0003 18.8965 53.1109 18.8542 53.2086 18.7695C53.3063 18.6784 53.3974 18.5872 53.482 18.4961L53.7164 18.7012C53.6253 18.8379 53.5048 18.9909 53.3551 19.1602C53.2053 19.3229 53.0263 19.4792 52.818 19.6289C52.6161 19.7786 52.3785 19.9023 52.1051 20C51.8382 20.1042 51.5354 20.1562 51.1969 20.1562C50.9104 20.1562 50.6598 20.1172 50.4449 20.0391C50.2366 19.9674 50.0576 19.8698 49.9078 19.7461C49.7646 19.6159 49.6572 19.4661 49.5855 19.2969C49.5139 19.1211 49.4781 18.9355 49.4781 18.7402V12.2168C49.4781 12.1257 49.4651 12.0345 49.4391 11.9434C49.413 11.8457 49.374 11.7578 49.3219 11.6797C49.2763 11.6016 49.2145 11.5397 49.1363 11.4941C49.0582 11.4421 48.9671 11.416 48.8629 11.416C48.6871 11.416 48.5113 11.4681 48.3355 11.5723C48.1663 11.6699 48.0068 11.7839 47.857 11.9141C47.7138 12.0443 47.5901 12.1745 47.4859 12.3047C47.3818 12.4349 47.3069 12.5326 47.2613 12.5977V19.1406ZM67.8758 15.8789H64.1941C63.9207 16.7383 63.6245 17.4837 63.3055 18.1152C62.993 18.7467 62.6447 19.2708 62.2605 19.6875C61.8764 20.1042 61.4533 20.4134 60.991 20.6152C60.5353 20.8171 60.0242 20.918 59.4578 20.918C59.1453 20.918 58.8458 20.8887 58.5594 20.8301C58.2664 20.778 58.0092 20.7031 57.7879 20.6055C57.5665 20.5078 57.3908 20.3906 57.2605 20.2539C57.1238 20.1237 57.0555 19.9805 57.0555 19.8242C57.0555 19.707 57.075 19.5898 57.1141 19.4727C57.1466 19.349 57.1954 19.2383 57.2605 19.1406C57.3257 19.0365 57.407 18.9551 57.5047 18.8965C57.5958 18.8314 57.7 18.7988 57.8172 18.7988C57.9214 18.7988 58.0125 18.8704 58.0906 19.0137C58.1688 19.1569 58.2697 19.3164 58.3934 19.4922C58.5105 19.6615 58.6635 19.8177 58.8523 19.9609C59.0411 20.1042 59.3016 20.1758 59.6336 20.1758C59.9721 20.1758 60.2944 20.0944 60.6004 19.9316C60.9064 19.7689 61.1993 19.515 61.4793 19.1699C61.7658 18.8184 62.0392 18.3724 62.2996 17.832C62.56 17.2917 62.8139 16.6406 63.0613 15.8789H60.7566V15.0195H63.3152C63.5301 14.2904 63.7384 13.5547 63.9402 12.8125C64.1486 12.0703 64.3439 11.3574 64.5262 10.6738C64.7085 9.99023 64.8712 9.35221 65.0145 8.75977C65.1577 8.16081 65.2781 7.63997 65.3758 7.19727C65.2456 6.83268 65.0665 6.58854 64.8387 6.46484C64.6173 6.34115 64.3178 6.2793 63.9402 6.2793C63.5887 6.2793 63.2241 6.33464 62.8465 6.44531C62.4754 6.54948 62.1368 6.70247 61.8309 6.9043C61.5249 7.09961 61.271 7.34375 61.0691 7.63672C60.8738 7.92318 60.7762 8.24544 60.7762 8.60352C60.7762 8.81185 60.8022 8.97786 60.8543 9.10156C60.9129 9.22526 60.978 9.31966 61.0496 9.38477C61.1277 9.44336 61.2026 9.48242 61.2742 9.50195C61.3458 9.51497 61.4012 9.52148 61.4402 9.52148C61.5965 9.52148 61.7267 9.49544 61.8309 9.44336C61.9415 9.38477 62.0359 9.32617 62.1141 9.26758C62.1987 9.20247 62.2801 9.14388 62.3582 9.0918C62.4363 9.0332 62.5242 9.00391 62.6219 9.00391C62.6935 9.00391 62.7716 9.02344 62.8563 9.0625C62.9474 9.09505 63.0288 9.15039 63.1004 9.22852C63.1785 9.30664 63.2436 9.41081 63.2957 9.54102C63.3478 9.66471 63.3738 9.81771 63.3738 10C63.3738 10.2604 63.3217 10.485 63.2176 10.6738C63.1199 10.8626 62.9897 11.0221 62.827 11.1523C62.6707 11.276 62.4884 11.3704 62.2801 11.4355C62.0783 11.4941 61.8764 11.5234 61.6746 11.5234C61.3621 11.5234 61.0789 11.4681 60.825 11.3574C60.5776 11.2402 60.366 11.084 60.1902 10.8887C60.0145 10.6934 59.881 10.4655 59.7898 10.2051C59.6987 9.94466 59.6531 9.67122 59.6531 9.38477C59.6531 8.95508 59.7247 8.5612 59.868 8.20312C60.0112 7.83854 60.2098 7.50977 60.4637 7.2168C60.7176 6.91732 61.0171 6.6569 61.3621 6.43555C61.7072 6.20768 62.0783 6.01888 62.4754 5.86914C62.879 5.71289 63.299 5.5957 63.7352 5.51758C64.1714 5.43945 64.6108 5.40039 65.0535 5.40039C65.6785 5.40039 66.2059 5.45247 66.6355 5.55664C67.0717 5.6543 67.4363 5.80404 67.7293 6.00586C68.0223 6.20117 68.2566 6.45182 68.4324 6.75781C68.6147 7.05729 68.7645 7.4056 68.8816 7.80273L70.9813 15.0195H73.1004V15.8789H71.2156L71.9773 18.4375C72.0034 18.5352 72.0294 18.6263 72.0555 18.7109C72.0815 18.7956 72.1108 18.8704 72.1434 18.9355C72.1824 18.9941 72.228 19.043 72.2801 19.082C72.3387 19.1211 72.4103 19.1406 72.4949 19.1406C72.6772 19.1406 72.8465 19.1113 73.0027 19.0527C73.159 18.9876 73.2957 18.9225 73.4129 18.8574L73.5789 19.2188C73.4617 19.3034 73.312 19.401 73.1297 19.5117C72.9539 19.6159 72.7488 19.7168 72.5145 19.8145C72.2866 19.9121 72.0327 19.9935 71.7527 20.0586C71.4728 20.1237 71.1733 20.1562 70.8543 20.1562C70.4116 20.1562 70.0535 20.1009 69.7801 19.9902C69.5132 19.8796 69.3016 19.7428 69.1453 19.5801C68.9956 19.4173 68.8849 19.2448 68.8133 19.0625C68.7482 18.8802 68.6961 18.7207 68.657 18.584L67.8758 15.8789ZM65.9813 9.27734C65.7143 10.3646 65.4539 11.3867 65.2 12.3438C64.9526 13.3008 64.7052 14.1927 64.4578 15.0195H67.6414L65.9813 9.27734ZM79.6008 13.2422C79.399 13.2422 79.2297 13.2129 79.093 13.1543C78.9563 13.0892 78.8456 13.0046 78.7609 12.9004C78.6763 12.7962 78.6145 12.6823 78.5754 12.5586C78.5363 12.4284 78.5168 12.2949 78.5168 12.1582C78.5168 11.9824 78.5266 11.8132 78.5461 11.6504C78.5721 11.4876 78.5754 11.3411 78.5559 11.2109C78.5428 11.0807 78.494 10.9766 78.4094 10.8984C78.3247 10.8203 78.175 10.7812 77.9602 10.7812C77.7323 10.7812 77.4914 10.8464 77.2375 10.9766C76.9836 11.1068 76.7525 11.3118 76.5441 11.5918C76.3358 11.8717 76.1633 12.2331 76.0266 12.6758C75.8898 13.112 75.8215 13.6393 75.8215 14.2578C75.8215 14.9414 75.8833 15.5664 76.007 16.1328C76.1372 16.6927 76.3293 17.1712 76.5832 17.5684C76.8371 17.9655 77.1529 18.2747 77.5305 18.4961C77.9081 18.7109 78.3508 18.8184 78.8586 18.8184C79.0865 18.8184 79.3013 18.7923 79.5031 18.7402C79.7115 18.6882 79.9068 18.6165 80.0891 18.5254C80.2714 18.4342 80.4439 18.3301 80.6066 18.2129C80.7759 18.0892 80.9387 17.959 81.0949 17.8223L81.3391 18.0566C81.1893 18.2585 80.9973 18.4798 80.7629 18.7207C80.5285 18.9616 80.2453 19.1895 79.9133 19.4043C79.5813 19.6126 79.1939 19.7884 78.7512 19.9316C78.3085 20.0684 77.8039 20.1367 77.2375 20.1367C76.6711 20.1367 76.1177 20.0293 75.5773 19.8145C75.0435 19.5931 74.5682 19.2741 74.1516 18.8574C73.7349 18.4408 73.3996 17.9362 73.1457 17.3438C72.8983 16.7448 72.7746 16.0645 72.7746 15.3027C72.7746 14.7103 72.8495 14.1667 72.9992 13.6719C73.149 13.1706 73.3508 12.7181 73.6047 12.3145C73.8651 11.9108 74.1646 11.556 74.5031 11.25C74.8482 10.944 75.2095 10.6901 75.5871 10.4883C75.9647 10.2799 76.3488 10.1237 76.7395 10.0195C77.1366 9.91536 77.5175 9.86328 77.882 9.86328C78.3638 9.86328 78.7837 9.91862 79.1418 10.0293C79.4999 10.14 79.7961 10.2865 80.0305 10.4688C80.2714 10.651 80.4504 10.8626 80.5676 11.1035C80.6848 11.3379 80.7434 11.582 80.7434 11.8359C80.7434 12.0247 80.7173 12.207 80.6652 12.3828C80.6197 12.5521 80.548 12.7018 80.4504 12.832C80.3592 12.9557 80.2421 13.0566 80.0988 13.1348C79.9556 13.2064 79.7896 13.2422 79.6008 13.2422ZM84.275 11.7188C84.5159 11.3737 84.7893 11.0645 85.0953 10.791C85.219 10.6738 85.3557 10.5599 85.5055 10.4492C85.6617 10.3385 85.8245 10.2409 85.9938 10.1562C86.1695 10.0651 86.3518 9.99349 86.5406 9.94141C86.7359 9.88932 86.9345 9.86328 87.1363 9.86328C87.5725 9.86328 87.9632 9.94792 88.3082 10.1172C88.6533 10.2865 88.943 10.5697 89.1773 10.9668C89.4117 11.3639 89.5908 11.8913 89.7145 12.5488C89.8382 13.1999 89.9 14.0104 89.9 14.9805C89.9 15.9245 89.8154 16.7448 89.6461 17.4414C89.4768 18.138 89.2555 18.7305 88.982 19.2188C88.7086 19.707 88.3994 20.1042 88.0543 20.4102C87.7092 20.7227 87.3609 20.9668 87.0094 21.1426C86.6578 21.3184 86.3193 21.4388 85.9938 21.5039C85.6682 21.5755 85.3883 21.6146 85.1539 21.6211L85.0563 21.2207C85.3492 21.1491 85.6096 21.0156 85.8375 20.8203C86.0654 20.625 86.2574 20.306 86.4137 19.8633C86.5699 19.4141 86.6871 18.8118 86.7652 18.0566C86.8499 17.3014 86.8922 16.3281 86.8922 15.1367C86.8922 14.3164 86.8531 13.6621 86.775 13.1738C86.7034 12.679 86.6057 12.3047 86.482 12.0508C86.3648 11.7904 86.2281 11.6211 86.0719 11.543C85.9221 11.4583 85.7691 11.416 85.6129 11.416C85.4241 11.416 85.2581 11.4681 85.1148 11.5723C84.9716 11.6699 84.8447 11.7839 84.734 11.9141C84.6298 12.0443 84.5387 12.1745 84.4605 12.3047C84.3889 12.4349 84.3271 12.5326 84.275 12.5977V19.1211C84.275 19.2057 84.262 19.3099 84.2359 19.4336C84.2099 19.5508 84.1448 19.6647 84.0406 19.7754C83.943 19.8796 83.7932 19.9674 83.5914 20.0391C83.3961 20.1172 83.1259 20.1562 82.7809 20.1562C82.4358 20.1562 82.1624 20.1139 81.9605 20.0293C81.7587 19.9512 81.6057 19.8568 81.5016 19.7461C81.4039 19.6354 81.3421 19.5215 81.316 19.4043C81.29 19.2871 81.277 19.1927 81.277 19.1211V6.52344C81.277 6.33464 81.2314 6.17188 81.1402 6.03516C81.0556 5.89193 80.9091 5.82031 80.7008 5.82031C80.5901 5.82031 80.4924 5.83984 80.4078 5.87891C80.3297 5.91146 80.2451 5.96354 80.1539 6.03516L79.9586 5.80078C80.1083 5.67708 80.2744 5.55664 80.4566 5.43945C80.6389 5.31576 80.8375 5.20833 81.0523 5.11719C81.2737 5.02604 81.5081 4.95117 81.7555 4.89258C82.0029 4.83398 82.2633 4.80469 82.5367 4.80469C82.9599 4.80469 83.2887 4.86328 83.523 4.98047C83.7574 5.09115 83.9299 5.23112 84.0406 5.40039C84.1513 5.56315 84.2164 5.73893 84.2359 5.92773C84.262 6.11003 84.275 6.27279 84.275 6.41602V11.7188ZM93.6367 19.1211C93.6367 19.2057 93.6204 19.3099 93.5879 19.4336C93.5618 19.5508 93.4935 19.6647 93.3828 19.7754C93.2786 19.8796 93.1257 19.9674 92.9238 20.0391C92.722 20.1172 92.4486 20.1562 92.1035 20.1562C91.7585 20.1562 91.4883 20.1139 91.293 20.0293C91.0977 19.9512 90.9512 19.8568 90.8535 19.7461C90.7559 19.6354 90.694 19.5215 90.668 19.4043C90.6484 19.2871 90.6387 19.1927 90.6387 19.1211V11.582C90.6387 11.3932 90.5931 11.2305 90.502 11.0938C90.4173 10.9505 90.2708 10.8789 90.0625 10.8789C89.9518 10.8789 89.8574 10.8984 89.7793 10.9375C89.7012 10.9766 89.6165 11.0319 89.5254 11.1035L89.3203 10.8594C89.4701 10.7357 89.6361 10.6152 89.8184 10.498C90.0072 10.3743 90.209 10.2669 90.4238 10.1758C90.6387 10.0846 90.8698 10.0098 91.1172 9.95117C91.3646 9.89258 91.625 9.86328 91.8984 9.86328C92.3216 9.86328 92.6504 9.92188 92.8848 10.0391C93.1191 10.1497 93.2917 10.2897 93.4023 10.459C93.513 10.6217 93.5781 10.7975 93.5977 10.9863C93.6237 11.1751 93.6367 11.3411 93.6367 11.4844V19.1211ZM90.3359 7.63672C90.3359 7.45443 90.375 7.2819 90.4531 7.11914C90.5378 6.94987 90.6517 6.80339 90.7949 6.67969C90.9447 6.55599 91.1139 6.45833 91.3027 6.38672C91.498 6.3151 91.7096 6.2793 91.9375 6.2793C92.1589 6.2793 92.3639 6.3151 92.5527 6.38672C92.748 6.45833 92.9173 6.55599 93.0605 6.67969C93.2038 6.80339 93.3145 6.94987 93.3926 7.11914C93.4772 7.2819 93.5195 7.45443 93.5195 7.63672C93.5195 7.82552 93.4772 8.0013 93.3926 8.16406C93.3145 8.32682 93.2038 8.47005 93.0605 8.59375C92.9173 8.71094 92.748 8.80534 92.5527 8.87695C92.3639 8.94857 92.1589 8.98438 91.9375 8.98438C91.7096 8.98438 91.498 8.94857 91.3027 8.87695C91.1139 8.80534 90.9447 8.71094 90.7949 8.59375C90.6517 8.47005 90.5378 8.32682 90.4531 8.16406C90.375 8.0013 90.3359 7.82552 90.3359 7.63672ZM97.227 15.5176C97.227 15.7259 97.2562 15.9538 97.3148 16.2012C97.3799 16.4421 97.4711 16.6862 97.5883 16.9336C97.7055 17.181 97.8487 17.4186 98.018 17.6465C98.1937 17.8678 98.3923 18.0664 98.6137 18.2422C98.8415 18.418 99.0922 18.5579 99.3656 18.6621C99.6391 18.7663 99.9385 18.8184 100.264 18.8184C100.492 18.8184 100.704 18.7923 100.899 18.7402C101.094 18.6882 101.276 18.6165 101.446 18.5254C101.615 18.4342 101.778 18.3301 101.934 18.2129C102.09 18.0892 102.246 17.959 102.403 17.8223L102.647 18.0566C102.497 18.2585 102.305 18.4798 102.071 18.7207C101.836 18.9616 101.553 19.1895 101.221 19.4043C100.889 19.6126 100.502 19.7884 100.059 19.9316C99.6163 20.0684 99.1117 20.1367 98.5453 20.1367C97.9789 20.1367 97.4255 20.0358 96.8852 19.834C96.3513 19.6257 95.876 19.3164 95.4594 18.9062C95.0427 18.4961 94.7074 17.985 94.4535 17.373C94.2061 16.7611 94.0824 16.0449 94.0824 15.2246C94.0824 14.6322 94.1573 14.0885 94.307 13.5938C94.4568 13.099 94.6586 12.653 94.9125 12.2559C95.1729 11.8587 95.4724 11.5104 95.8109 11.2109C96.156 10.9115 96.5173 10.6641 96.8949 10.4688C97.2725 10.2669 97.6566 10.1172 98.0473 10.0195C98.4444 9.91536 98.8253 9.86328 99.1898 9.86328C99.6716 9.86328 100.092 9.91536 100.45 10.0195C100.808 10.1237 101.104 10.2637 101.338 10.4395C101.579 10.6152 101.758 10.8203 101.875 11.0547C101.993 11.2826 102.051 11.5234 102.051 11.7773C102.051 12.0833 101.963 12.36 101.787 12.6074C101.612 12.8483 101.377 13.0599 101.084 13.2422L97.227 15.5176ZM99.1898 13.5352C99.2745 13.4831 99.3428 13.4342 99.3949 13.3887C99.4535 13.3366 99.4991 13.278 99.5316 13.2129C99.5642 13.1413 99.587 13.0566 99.6 12.959C99.6195 12.8548 99.6293 12.7279 99.6293 12.5781C99.6293 12.4154 99.6098 12.2363 99.5707 12.041C99.5381 11.8392 99.4796 11.6504 99.3949 11.4746C99.3103 11.2988 99.2029 11.1523 99.0727 11.0352C98.9424 10.918 98.7862 10.8594 98.6039 10.8594C98.3695 10.8594 98.1677 10.931 97.9984 11.0742C97.8357 11.2109 97.699 11.39 97.5883 11.6113C97.4841 11.8327 97.3995 12.0866 97.3344 12.373C97.2758 12.653 97.2302 12.9362 97.1977 13.2227C97.1651 13.5091 97.1456 13.7858 97.1391 14.0527C97.1326 14.3132 97.1293 14.5345 97.1293 14.7168L99.1898 13.5352ZM102.302 11.6992C102.262 11.4388 102.197 11.237 102.106 11.0938C102.022 10.9505 101.875 10.8789 101.667 10.8789C101.556 10.8789 101.458 10.8984 101.374 10.9375C101.296 10.9766 101.211 11.0319 101.12 11.1035L100.925 10.8594C101.074 10.7357 101.24 10.6152 101.423 10.498C101.611 10.3743 101.813 10.2669 102.028 10.1758C102.243 10.0846 102.474 10.0098 102.721 9.95117C102.969 9.89258 103.229 9.86328 103.503 9.86328C103.893 9.86328 104.209 9.93164 104.45 10.0684C104.691 10.1986 104.88 10.3646 105.016 10.5664C105.16 10.7617 105.261 10.9733 105.319 11.2012C105.378 11.429 105.42 11.6341 105.446 11.8164C105.687 13.7891 105.957 15.2832 106.257 16.2988C106.556 17.3145 106.911 17.8223 107.321 17.8223C107.549 17.8223 107.767 17.6986 107.975 17.4512C108.19 17.2038 108.376 16.8652 108.532 16.4355C108.695 16.0059 108.825 15.5046 108.923 14.9316C109.02 14.3587 109.069 13.7467 109.069 13.0957C109.069 12.666 109.04 12.3047 108.981 12.0117C108.923 11.7122 108.858 11.4616 108.786 11.2598C108.714 11.0579 108.649 10.8919 108.591 10.7617C108.532 10.625 108.503 10.5046 108.503 10.4004C108.503 10.3027 108.542 10.2214 108.62 10.1562C108.698 10.0911 108.789 10.0358 108.893 9.99023C109.004 9.94466 109.115 9.91211 109.225 9.89258C109.343 9.87305 109.437 9.86328 109.509 9.86328C109.697 9.86328 109.834 9.88932 109.919 9.94141C110.003 9.99349 110.072 10.0944 110.124 10.2441C110.182 10.4329 110.221 10.6836 110.241 10.9961C110.267 11.3021 110.28 11.6309 110.28 11.9824C110.28 12.4837 110.244 13.0339 110.173 13.6328C110.108 14.2318 110.003 14.834 109.86 15.4395C109.723 16.0449 109.548 16.6309 109.333 17.1973C109.118 17.7637 108.861 18.2682 108.561 18.7109C108.268 19.1471 107.933 19.4987 107.555 19.7656C107.184 20.026 106.768 20.1562 106.305 20.1562C105.765 20.1562 105.296 20 104.899 19.6875C104.502 19.375 104.164 18.9681 103.884 18.4668C103.61 17.9655 103.382 17.4023 103.2 16.7773C103.018 16.1523 102.868 15.5273 102.751 14.9023C102.64 14.2708 102.549 13.6751 102.477 13.1152C102.412 12.5488 102.354 12.0768 102.302 11.6992ZM113.04 15.5176C113.04 15.7259 113.07 15.9538 113.128 16.2012C113.193 16.4421 113.284 16.6862 113.402 16.9336C113.519 17.181 113.662 17.4186 113.831 17.6465C114.007 17.8678 114.206 18.0664 114.427 18.2422C114.655 18.418 114.905 18.5579 115.179 18.6621C115.452 18.7663 115.752 18.8184 116.077 18.8184C116.305 18.8184 116.517 18.7923 116.712 18.7402C116.907 18.6882 117.09 18.6165 117.259 18.5254C117.428 18.4342 117.591 18.3301 117.747 18.2129C117.904 18.0892 118.06 17.959 118.216 17.8223L118.46 18.0566C118.31 18.2585 118.118 18.4798 117.884 18.7207C117.65 18.9616 117.366 19.1895 117.034 19.4043C116.702 19.6126 116.315 19.7884 115.872 19.9316C115.43 20.0684 114.925 20.1367 114.359 20.1367C113.792 20.1367 113.239 20.0358 112.698 19.834C112.165 19.6257 111.689 19.3164 111.273 18.9062C110.856 18.4961 110.521 17.985 110.267 17.373C110.019 16.7611 109.896 16.0449 109.896 15.2246C109.896 14.6322 109.971 14.0885 110.12 13.5938C110.27 13.099 110.472 12.653 110.726 12.2559C110.986 11.8587 111.286 11.5104 111.624 11.2109C111.969 10.9115 112.331 10.6641 112.708 10.4688C113.086 10.2669 113.47 10.1172 113.861 10.0195C114.258 9.91536 114.639 9.86328 115.003 9.86328C115.485 9.86328 115.905 9.91536 116.263 10.0195C116.621 10.1237 116.917 10.2637 117.152 10.4395C117.392 10.6152 117.571 10.8203 117.689 11.0547C117.806 11.2826 117.864 11.5234 117.864 11.7773C117.864 12.0833 117.777 12.36 117.601 12.6074C117.425 12.8483 117.191 13.0599 116.898 13.2422L113.04 15.5176ZM115.003 13.5352C115.088 13.4831 115.156 13.4342 115.208 13.3887C115.267 13.3366 115.312 13.278 115.345 13.2129C115.377 13.1413 115.4 13.0566 115.413 12.959C115.433 12.8548 115.443 12.7279 115.443 12.5781C115.443 12.4154 115.423 12.2363 115.384 12.041C115.351 11.8392 115.293 11.6504 115.208 11.4746C115.124 11.2988 115.016 11.1523 114.886 11.0352C114.756 10.918 114.599 10.8594 114.417 10.8594C114.183 10.8594 113.981 10.931 113.812 11.0742C113.649 11.2109 113.512 11.39 113.402 11.6113C113.297 11.8327 113.213 12.0866 113.148 12.373C113.089 12.653 113.043 12.9362 113.011 13.2227C112.978 13.5091 112.959 13.7858 112.952 14.0527C112.946 14.3132 112.943 14.5345 112.943 14.7168L115.003 13.5352ZM121.494 11.9238C121.741 11.5462 122.005 11.2044 122.285 10.8984C122.402 10.7682 122.529 10.6413 122.666 10.5176C122.802 10.3939 122.942 10.2832 123.086 10.1855C123.235 10.0879 123.388 10.0098 123.545 9.95117C123.701 9.89258 123.857 9.86328 124.013 9.86328C124.345 9.86328 124.606 9.96419 124.795 10.166C124.983 10.3613 125.078 10.638 125.078 10.9961C125.078 11.2174 125.058 11.4323 125.019 11.6406C124.987 11.8424 124.918 12.0898 124.814 12.3828H124.541C124.502 12.181 124.41 12.015 124.267 11.8848C124.124 11.748 123.916 11.6797 123.642 11.6797C123.44 11.6797 123.242 11.7188 123.046 11.7969C122.851 11.8685 122.659 11.9596 122.47 12.0703C122.288 12.181 122.112 12.3014 121.943 12.4316C121.78 12.5618 121.63 12.6855 121.494 12.8027V19.1406C121.494 19.2253 121.481 19.3262 121.455 19.4434C121.429 19.5605 121.364 19.6712 121.259 19.7754C121.162 19.8796 121.012 19.9674 120.81 20.0391C120.615 20.1172 120.345 20.1562 120 20.1562C119.655 20.1562 119.381 20.1139 119.179 20.0293C118.984 19.9512 118.834 19.8568 118.73 19.7461C118.626 19.6354 118.561 19.5215 118.535 19.4043C118.509 19.2871 118.496 19.1927 118.496 19.1211V11.582C118.496 11.3932 118.45 11.2305 118.359 11.0938C118.274 10.9505 118.128 10.8789 117.92 10.8789C117.809 10.8789 117.714 10.8984 117.636 10.9375C117.558 10.9766 117.474 11.0319 117.382 11.1035L117.177 10.8594C117.327 10.7357 117.493 10.6152 117.675 10.498C117.864 10.3743 118.066 10.2669 118.281 10.1758C118.496 10.0846 118.727 10.0098 118.974 9.95117C119.222 9.89258 119.482 9.86328 119.755 9.86328C120.035 9.86328 120.273 9.90234 120.468 9.98047C120.67 10.0521 120.833 10.1497 120.957 10.2734C121.087 10.3906 121.188 10.5241 121.259 10.6738C121.331 10.8236 121.383 10.9766 121.416 11.1328C121.455 11.2826 121.477 11.429 121.484 11.5723C121.49 11.709 121.494 11.8262 121.494 11.9238ZM128.062 10.6445C127.913 10.6445 127.77 10.6641 127.633 10.7031C127.503 10.7422 127.385 10.8073 127.281 10.8984C127.177 10.9831 127.096 11.0938 127.037 11.2305C126.979 11.3607 126.949 11.5169 126.949 11.6992C126.949 11.9531 127.04 12.207 127.223 12.4609C127.411 12.7083 127.643 12.9688 127.916 13.2422C128.196 13.5091 128.495 13.7891 128.814 14.082C129.14 14.3685 129.439 14.6745 129.713 15C129.993 15.319 130.224 15.6608 130.406 16.0254C130.595 16.39 130.689 16.7806 130.689 17.1973C130.689 17.666 130.608 18.0827 130.445 18.4473C130.289 18.8118 130.061 19.1211 129.762 19.375C129.469 19.6289 129.111 19.8242 128.688 19.9609C128.271 20.0911 127.805 20.1562 127.291 20.1562C126.842 20.1562 126.435 20.0944 126.07 19.9707C125.706 19.8405 125.38 19.6842 125.094 19.502C124.814 19.3132 124.573 19.1146 124.371 18.9062C124.169 18.6979 124.013 18.5091 123.902 18.3398L124.244 18.0957C124.329 18.1934 124.436 18.3008 124.566 18.418C124.697 18.5286 124.84 18.6328 124.996 18.7305C125.159 18.8281 125.331 18.9095 125.514 18.9746C125.696 19.0332 125.882 19.0625 126.07 19.0625C126.539 19.0625 126.923 18.9518 127.223 18.7305C127.522 18.5026 127.672 18.1673 127.672 17.7246C127.672 17.4772 127.59 17.2233 127.428 16.9629C127.265 16.696 127.06 16.4225 126.812 16.1426C126.565 15.8626 126.298 15.5729 126.012 15.2734C125.725 14.974 125.458 14.6647 125.211 14.3457C124.964 14.0267 124.758 13.6979 124.596 13.3594C124.433 13.0208 124.352 12.6693 124.352 12.3047C124.352 11.8945 124.433 11.5365 124.596 11.2305C124.765 10.9245 124.986 10.6706 125.26 10.4688C125.54 10.2669 125.855 10.1172 126.207 10.0195C126.565 9.91536 126.933 9.86328 127.311 9.86328C127.747 9.86328 128.144 9.90234 128.502 9.98047C128.86 10.0586 129.166 10.179 129.42 10.3418C129.68 10.498 129.879 10.6966 130.016 10.9375C130.159 11.1784 130.23 11.4583 130.23 11.7773C130.23 12.0247 130.149 12.2396 129.986 12.4219C129.824 12.6042 129.596 12.6953 129.303 12.6953C129.023 12.6953 128.808 12.6367 128.658 12.5195C128.515 12.3958 128.443 12.2298 128.443 12.0215C128.443 11.8848 128.476 11.7773 128.541 11.6992C128.613 11.6211 128.691 11.5592 128.775 11.5137C128.86 11.4616 128.935 11.4193 129 11.3867C129.072 11.3477 129.107 11.2988 129.107 11.2402C129.107 11.0579 129.01 10.9147 128.814 10.8105C128.619 10.6999 128.368 10.6445 128.062 10.6445Z" fill="#BAC6C9"/>
<path d="M5.15057 36V27.8182H6.40767V36H5.15057ZM5.78977 26.4545C5.54474 26.4545 5.33345 26.3711 5.15589 26.2042C4.98189 26.0373 4.89489 25.8366 4.89489 25.6023C4.89489 25.3679 4.98189 25.1673 5.15589 25.0004C5.33345 24.8335 5.54474 24.75 5.78977 24.75C6.0348 24.75 6.24432 24.8335 6.41832 25.0004C6.59588 25.1673 6.68466 25.3679 6.68466 25.6023C6.68466 25.8366 6.59588 26.0373 6.41832 26.2042C6.24432 26.3711 6.0348 26.4545 5.78977 26.4545ZM13.2672 31.0781V36H12.0101V27.8182H13.2246V29.0966H13.3312C13.5229 28.6811 13.8141 28.3473 14.2047 28.0952C14.5954 27.8395 15.0996 27.7116 15.7175 27.7116C16.2715 27.7116 16.7562 27.8253 17.1717 28.0526C17.5872 28.2763 17.9104 28.6172 18.1412 29.0753C18.372 29.5298 18.4874 30.1051 18.4874 30.8011V36H17.2303V30.8864C17.2303 30.2436 17.0634 29.7429 16.7296 29.3842C16.3958 29.022 15.9377 28.8409 15.3553 28.8409C14.954 28.8409 14.5954 28.9279 14.2793 29.1019C13.9668 29.2759 13.72 29.5298 13.5389 29.8636C13.3578 30.1974 13.2672 30.6023 13.2672 31.0781ZM27.4084 36.1705C26.6414 36.1705 25.9809 35.9893 25.4269 35.6271C24.8729 35.2649 24.4468 34.766 24.1485 34.1303C23.8502 33.4947 23.701 32.7685 23.701 31.9517C23.701 31.1207 23.8537 30.3874 24.1591 29.7518C24.4681 29.1126 24.8978 28.6136 25.4482 28.255C26.0022 27.8928 26.6485 27.7116 27.3871 27.7116C27.9624 27.7116 28.4809 27.8182 28.9425 28.0312C29.4042 28.2443 29.7824 28.5426 30.0771 28.9261C30.3718 29.3097 30.5547 29.7571 30.6257 30.2685H29.3686C29.2728 29.8956 29.0597 29.5653 28.7294 29.2777C28.4027 28.9865 27.9624 28.8409 27.4084 28.8409C26.9184 28.8409 26.4887 28.9687 26.1194 29.2244C25.7536 29.4766 25.4677 29.8335 25.2618 30.2951C25.0593 30.7532 24.9581 31.2912 24.9581 31.9091C24.9581 32.5412 25.0576 33.0916 25.2564 33.5604C25.4588 34.0291 25.7429 34.3931 26.1087 34.6523C26.478 34.9116 26.9113 35.0412 27.4084 35.0412C27.7351 35.0412 28.0316 34.9844 28.298 34.8707C28.5643 34.7571 28.7898 34.5938 28.9745 34.3807C29.1591 34.1676 29.2905 33.9119 29.3686 33.6136H30.6257C30.5547 34.0966 30.3789 34.5316 30.0984 34.9187C29.8214 35.3022 29.4539 35.6076 28.9958 35.8349C28.5412 36.0586 28.0121 36.1705 27.4084 36.1705ZM39.0873 36.1705C38.3487 36.1705 37.7006 35.9947 37.1431 35.6431C36.5891 35.2915 36.1559 34.7997 35.8434 34.1676C35.5344 33.5355 35.3799 32.7969 35.3799 31.9517C35.3799 31.0994 35.5344 30.3555 35.8434 29.7198C36.1559 29.0842 36.5891 28.5906 37.1431 28.239C37.7006 27.8874 38.3487 27.7116 39.0873 27.7116C39.826 27.7116 40.4723 27.8874 41.0262 28.239C41.5838 28.5906 42.017 29.0842 42.326 29.7198C42.6385 30.3555 42.7947 31.0994 42.7947 31.9517C42.7947 32.7969 42.6385 33.5355 42.326 34.1676C42.017 34.7997 41.5838 35.2915 41.0262 35.6431C40.4723 35.9947 39.826 36.1705 39.0873 36.1705ZM39.0873 35.0412C39.6484 35.0412 40.11 34.8974 40.4723 34.6097C40.8345 34.3221 41.1026 33.9439 41.2766 33.4751C41.4506 33.0064 41.5376 32.4986 41.5376 31.9517C41.5376 31.4048 41.4506 30.8952 41.2766 30.4229C41.1026 29.9506 40.8345 29.5689 40.4723 29.2777C40.11 28.9865 39.6484 28.8409 39.0873 28.8409C38.5262 28.8409 38.0646 28.9865 37.7024 29.2777C37.3402 29.5689 37.0721 29.9506 36.898 30.4229C36.724 30.8952 36.637 31.4048 36.637 31.9517C36.637 32.4986 36.724 33.0064 36.898 33.4751C37.0721 33.9439 37.3402 34.3221 37.7024 34.6097C38.0646 34.8974 38.5262 35.0412 39.0873 35.0412ZM48.0137 36V27.8182H49.2281V29.054H49.3134C49.4625 28.6491 49.7324 28.3207 50.123 28.0685C50.5137 27.8164 50.954 27.6903 51.4441 27.6903C51.5364 27.6903 51.6518 27.6921 51.7903 27.6957C51.9288 27.6992 52.0335 27.7045 52.1046 27.7116V28.9901C52.062 28.9794 51.9643 28.9634 51.8116 28.9421C51.6624 28.9173 51.5044 28.9048 51.3375 28.9048C50.9398 28.9048 50.5847 28.9883 50.2722 29.1552C49.9632 29.3185 49.7182 29.5458 49.5371 29.837C49.3595 30.1246 49.2708 30.4531 49.2708 30.8224V36H48.0137ZM56.8947 39.0682V27.8182H58.1092V29.1179H58.2583C58.3507 28.9759 58.4785 28.7947 58.6419 28.5746C58.8088 28.3509 59.0467 28.152 59.3556 27.978C59.6681 27.8004 60.0907 27.7116 60.6234 27.7116C61.3123 27.7116 61.9196 27.8839 62.4451 28.2283C62.9707 28.5728 63.3809 29.0611 63.6756 29.6932C63.9703 30.3253 64.1177 31.071 64.1177 31.9304C64.1177 32.7969 63.9703 33.5479 63.6756 34.1836C63.3809 34.8157 62.9725 35.3058 62.4505 35.6538C61.9284 35.9982 61.3265 36.1705 60.6447 36.1705C60.1191 36.1705 59.6983 36.0835 59.3823 35.9094C59.0662 35.7319 58.823 35.5312 58.6525 35.3075C58.4821 35.0803 58.3507 34.892 58.2583 34.7429H58.1518V39.0682H56.8947ZM58.1305 31.9091C58.1305 32.527 58.2211 33.0721 58.4022 33.5444C58.5833 34.0131 58.8478 34.3807 59.1958 34.647C59.5439 34.9098 59.97 35.0412 60.4743 35.0412C60.9998 35.0412 61.4384 34.9027 61.79 34.6257C62.1451 34.3452 62.4114 33.9687 62.589 33.4964C62.7701 33.0206 62.8606 32.4915 62.8606 31.9091C62.8606 31.3338 62.7718 30.8153 62.5943 30.3537C62.4203 29.8885 62.1557 29.521 61.8006 29.2511C61.449 28.9776 61.0069 28.8409 60.4743 28.8409C59.9629 28.8409 59.5332 28.9705 59.1852 29.2298C58.8372 29.4854 58.5744 29.8441 58.3968 30.3058C58.2193 30.7638 58.1305 31.2983 58.1305 31.9091ZM72.6592 36.1705C71.9206 36.1705 71.2725 35.9947 70.715 35.6431C70.161 35.2915 69.7277 34.7997 69.4152 34.1676C69.1063 33.5355 68.9518 32.7969 68.9518 31.9517C68.9518 31.0994 69.1063 30.3555 69.4152 29.7198C69.7277 29.0842 70.161 28.5906 70.715 28.239C71.2725 27.8874 71.9206 27.7116 72.6592 27.7116C73.3978 27.7116 74.0441 27.8874 74.5981 28.239C75.1556 28.5906 75.5889 29.0842 75.8978 29.7198C76.2103 30.3555 76.3666 31.0994 76.3666 31.9517C76.3666 32.7969 76.2103 33.5355 75.8978 34.1676C75.5889 34.7997 75.1556 35.2915 74.5981 35.6431C74.0441 35.9947 73.3978 36.1705 72.6592 36.1705ZM72.6592 35.0412C73.2203 35.0412 73.6819 34.8974 74.0441 34.6097C74.4064 34.3221 74.6745 33.9439 74.8485 33.4751C75.0225 33.0064 75.1095 32.4986 75.1095 31.9517C75.1095 31.4048 75.0225 30.8952 74.8485 30.4229C74.6745 29.9506 74.4064 29.5689 74.0441 29.2777C73.6819 28.9865 73.2203 28.8409 72.6592 28.8409C72.0981 28.8409 71.6365 28.9865 71.2743 29.2777C70.912 29.5689 70.6439 29.9506 70.4699 30.4229C70.2959 30.8952 70.2089 31.4048 70.2089 31.9517C70.2089 32.4986 70.2959 33.0064 70.4699 33.4751C70.6439 33.9439 70.912 34.3221 71.2743 34.6097C71.6365 34.8974 72.0981 35.0412 72.6592 35.0412ZM81.5855 36V27.8182H82.8V29.054H82.8852C83.0344 28.6491 83.3043 28.3207 83.6949 28.0685C84.0855 27.8164 84.5259 27.6903 85.0159 27.6903C85.1083 27.6903 85.2237 27.6921 85.3622 27.6957C85.5007 27.6992 85.6054 27.7045 85.6764 27.7116V28.9901C85.6338 28.9794 85.5362 28.9634 85.3835 28.9421C85.2343 28.9173 85.0763 28.9048 84.9094 28.9048C84.5117 28.9048 84.1566 28.9883 83.8441 29.1552C83.5351 29.3185 83.2901 29.5458 83.109 29.837C82.9314 30.1246 82.8426 30.4531 82.8426 30.8224V36H81.5855ZM92.8743 36.1918C92.3558 36.1918 91.8853 36.0941 91.4627 35.8988C91.0401 35.6999 90.7045 35.4141 90.4559 35.0412C90.2074 34.6648 90.0831 34.2102 90.0831 33.6776C90.0831 33.2088 90.1754 32.8288 90.3601 32.5376C90.5447 32.2429 90.7915 32.0121 91.1005 31.8452C91.4094 31.6783 91.7503 31.554 92.1232 31.4723C92.4996 31.3871 92.8778 31.3196 93.2578 31.2699C93.7549 31.206 94.158 31.158 94.4669 31.1261C94.7794 31.0906 95.0067 31.032 95.1488 30.9503C95.2944 30.8686 95.3672 30.7266 95.3672 30.5241V30.4815C95.3672 29.956 95.2233 29.5476 94.9357 29.2564C94.6516 28.9652 94.2201 28.8196 93.6413 28.8196C93.0412 28.8196 92.5706 28.951 92.2297 29.2138C91.8888 29.4766 91.6491 29.7571 91.5106 30.0554L90.3174 29.6293C90.5305 29.1321 90.8146 28.745 91.1697 28.468C91.5284 28.1875 91.919 27.9922 92.3416 27.8821C92.7677 27.7685 93.1868 27.7116 93.5987 27.7116C93.8615 27.7116 94.1633 27.7436 94.5042 27.8075C94.8487 27.8679 95.1807 27.994 95.5003 28.1857C95.8235 28.3775 96.0916 28.6669 96.3047 29.054C96.5177 29.4411 96.6243 29.9595 96.6243 30.6094V36H95.3672V34.892H95.3032C95.218 35.0696 95.076 35.2596 94.8771 35.462C94.6782 35.6644 94.4137 35.8366 94.0834 35.9787C93.7532 36.1207 93.3501 36.1918 92.8743 36.1918ZM93.066 35.0625C93.5632 35.0625 93.9822 34.9648 94.3231 34.7695C94.6676 34.5742 94.9268 34.3221 95.1008 34.0131C95.2784 33.7042 95.3672 33.3793 95.3672 33.0384V31.8878C95.3139 31.9517 95.1967 32.0103 95.0156 32.0636C94.838 32.1133 94.6321 32.1577 94.3977 32.1967C94.1669 32.2322 93.9414 32.2642 93.7212 32.2926C93.5046 32.3175 93.3288 32.3388 93.1939 32.3565C92.8672 32.3991 92.5618 32.4684 92.2777 32.5643C91.9971 32.6566 91.7699 32.7969 91.5958 32.9851C91.4254 33.1697 91.3402 33.4219 91.3402 33.7415C91.3402 34.1783 91.5017 34.5085 91.8249 34.7322C92.1516 34.9524 92.5653 35.0625 93.066 35.0625ZM105.777 27.8182V28.8835H101.537V27.8182H105.777ZM102.773 25.858H104.03V33.6562C104.03 34.0114 104.081 34.2777 104.184 34.4553C104.291 34.6293 104.426 34.7464 104.589 34.8068C104.756 34.8636 104.932 34.892 105.116 34.892C105.255 34.892 105.369 34.8849 105.457 34.8707C105.546 34.853 105.617 34.8388 105.67 34.8281L105.926 35.9574C105.841 35.9893 105.722 36.0213 105.569 36.0533C105.417 36.0888 105.223 36.1065 104.989 36.1065C104.634 36.1065 104.285 36.0302 103.945 35.8775C103.607 35.7248 103.327 35.4922 103.103 35.1797C102.883 34.8672 102.773 34.473 102.773 33.9972V25.858ZM114.31 36.1705C113.522 36.1705 112.842 35.9964 112.27 35.6484C111.702 35.2969 111.264 34.8068 110.955 34.1783C110.649 33.5462 110.497 32.8111 110.497 31.973C110.497 31.1349 110.649 30.3963 110.955 29.7571C111.264 29.1143 111.693 28.6136 112.244 28.255C112.798 27.8928 113.444 27.7116 114.183 27.7116C114.609 27.7116 115.03 27.7827 115.445 27.9247C115.861 28.0668 116.239 28.2976 116.58 28.6172C116.921 28.9332 117.192 29.3523 117.395 29.8743C117.597 30.3963 117.698 31.0391 117.698 31.8026V32.3352H111.391V31.2486H116.42C116.42 30.7869 116.328 30.375 116.143 30.0128C115.962 29.6506 115.703 29.3647 115.365 29.1552C115.031 28.9457 114.637 28.8409 114.183 28.8409C113.682 28.8409 113.249 28.9652 112.883 29.2138C112.521 29.4588 112.242 29.7784 112.047 30.1726C111.851 30.5668 111.754 30.9893 111.754 31.4403V32.1648C111.754 32.7827 111.86 33.3065 112.073 33.7362C112.29 34.1623 112.59 34.4872 112.973 34.7109C113.357 34.9311 113.803 35.0412 114.31 35.0412C114.641 35.0412 114.939 34.995 115.205 34.9027C115.475 34.8068 115.708 34.6648 115.903 34.4766C116.098 34.2848 116.249 34.0469 116.356 33.7628L117.57 34.1037C117.443 34.5156 117.228 34.8778 116.926 35.1903C116.624 35.4993 116.251 35.7408 115.807 35.9148C115.363 36.0852 114.864 36.1705 114.31 36.1705ZM126 36.1705C125.318 36.1705 124.716 35.9982 124.194 35.6538C123.672 35.3058 123.264 34.8157 122.969 34.1836C122.674 33.5479 122.527 32.7969 122.527 31.9304C122.527 31.071 122.674 30.3253 122.969 29.6932C123.264 29.0611 123.674 28.5728 124.2 28.2283C124.725 27.8839 125.332 27.7116 126.021 27.7116C126.554 27.7116 126.975 27.8004 127.284 27.978C127.596 28.152 127.834 28.3509 127.998 28.5746C128.164 28.7947 128.294 28.9759 128.386 29.1179H128.493V25.0909H129.75V36H128.536V34.7429H128.386C128.294 34.892 128.163 35.0803 127.992 35.3075C127.822 35.5312 127.579 35.7319 127.262 35.9094C126.946 36.0835 126.526 36.1705 126 36.1705ZM126.17 35.0412C126.675 35.0412 127.101 34.9098 127.449 34.647C127.797 34.3807 128.061 34.0131 128.243 33.5444C128.424 33.0721 128.514 32.527 128.514 31.9091C128.514 31.2983 128.425 30.7638 128.248 30.3058C128.07 29.8441 127.808 29.4854 127.46 29.2298C127.112 28.9705 126.682 28.8409 126.17 28.8409C125.638 28.8409 125.194 28.9776 124.839 29.2511C124.487 29.521 124.223 29.8885 124.045 30.3537C123.871 30.8153 123.784 31.3338 123.784 31.9091C123.784 32.4915 123.873 33.0206 124.05 33.4964C124.232 33.9687 124.498 34.3452 124.849 34.6257C125.205 34.9027 125.645 35.0412 126.17 35.0412Z" fill="#BAC6C9"/>
</svg>
