<svg width="148" height="28" viewBox="0 0 148 28" fill="none" xmlns="http://www.w3.org/2000/svg">
<path d="M38.36 21V7H47.4V9.06H40.92V12.98H46.16V15H40.92V21H38.36ZM52.1483 21.24C51.1883 21.24 50.3216 21.02 49.5483 20.58C48.7883 20.14 48.1816 19.5333 47.7283 18.76C47.2883 17.9733 47.0683 17.0667 47.0683 16.04C47.0683 15.0133 47.2949 14.1133 47.7483 13.34C48.2016 12.5533 48.8083 11.94 49.5683 11.5C50.3416 11.06 51.2083 10.84 52.1683 10.84C53.1149 10.84 53.9683 11.06 54.7283 11.5C55.5016 11.94 56.1083 12.5533 56.5483 13.34C57.0016 14.1133 57.2283 15.0133 57.2283 16.04C57.2283 17.0667 57.0016 17.9733 56.5483 18.76C56.1083 19.5333 55.5016 20.14 54.7283 20.58C53.9549 21.02 53.0949 21.24 52.1483 21.24ZM52.1483 19.02C52.8149 19.02 53.3949 18.7733 53.8883 18.28C54.3816 17.7733 54.6283 17.0267 54.6283 16.04C54.6283 15.0533 54.3816 14.3133 53.8883 13.82C53.3949 13.3133 52.8216 13.06 52.1683 13.06C51.4883 13.06 50.9016 13.3133 50.4083 13.82C49.9283 14.3133 49.6883 15.0533 49.6883 16.04C49.6883 17.0267 49.9283 17.7733 50.4083 18.28C50.9016 18.7733 51.4816 19.02 52.1483 19.02ZM62.9772 21.24C61.9639 21.24 61.0705 21.02 60.2972 20.58C59.5239 20.14 58.9105 19.5267 58.4572 18.74C58.0172 17.9533 57.7972 17.0533 57.7972 16.04C57.7972 15.0267 58.0172 14.1267 58.4572 13.34C58.9105 12.5533 59.5239 11.94 60.2972 11.5C61.0705 11.06 61.9639 10.84 62.9772 10.84C64.2439 10.84 65.3105 11.1733 66.1772 11.84C67.0439 12.4933 67.5972 13.4 67.8372 14.56H65.1372C65.0039 14.08 64.7372 13.7067 64.3372 13.44C63.9505 13.16 63.4905 13.02 62.9572 13.02C62.2505 13.02 61.6505 13.2867 61.1572 13.82C60.6639 14.3533 60.4172 15.0933 60.4172 16.04C60.4172 16.9867 60.6639 17.7267 61.1572 18.26C61.6505 18.7933 62.2505 19.06 62.9572 19.06C63.4905 19.06 63.9505 18.9267 64.3372 18.66C64.7372 18.3933 65.0039 18.0133 65.1372 17.52H67.8372C67.5972 18.64 67.0439 19.54 66.1772 20.22C65.3105 20.9 64.2439 21.24 62.9772 21.24ZM72.4294 21.24C71.1894 21.24 70.2294 20.8533 69.5494 20.08C68.8827 19.3067 68.5494 18.1733 68.5494 16.68V11.08H71.0894V16.44C71.0894 17.2933 71.2627 17.9467 71.6094 18.4C71.956 18.8533 72.5027 19.08 73.2494 19.08C73.956 19.08 74.536 18.8267 74.9894 18.32C75.456 17.8133 75.6894 17.1067 75.6894 16.2V11.08H78.2494V21H75.9894L75.7894 19.32C75.4827 19.9067 75.036 20.3733 74.4494 20.72C73.876 21.0667 73.2027 21.24 72.4294 21.24ZM83.5773 21.24C82.6973 21.24 81.924 21.1 81.2573 20.82C80.5907 20.5267 80.0573 20.1267 79.6573 19.62C79.2573 19.1133 79.0173 18.5267 78.9373 17.86H81.5173C81.5973 18.2467 81.8107 18.58 82.1573 18.86C82.5173 19.1267 82.9773 19.26 83.5373 19.26C84.0973 19.26 84.504 19.1467 84.7573 18.92C85.024 18.6933 85.1573 18.4333 85.1573 18.14C85.1573 17.7133 84.9707 17.4267 84.5973 17.28C84.224 17.12 83.704 16.9667 83.0373 16.82C82.6107 16.7267 82.1773 16.6133 81.7373 16.48C81.2973 16.3467 80.8907 16.18 80.5173 15.98C80.1573 15.7667 79.864 15.5 79.6373 15.18C79.4107 14.8467 79.2973 14.44 79.2973 13.96C79.2973 13.08 79.644 12.34 80.3373 11.74C81.044 11.14 82.0307 10.84 83.2973 10.84C84.4707 10.84 85.404 11.1133 86.0973 11.66C86.804 12.2067 87.224 12.96 87.3573 13.92H84.9373C84.7907 13.1867 84.2373 12.82 83.2773 12.82C82.7973 12.82 82.424 12.9133 82.1573 13.1C81.904 13.2867 81.7773 13.52 81.7773 13.8C81.7773 14.0933 81.9707 14.3267 82.3573 14.5C82.744 14.6733 83.2573 14.8333 83.8973 14.98C84.5907 15.14 85.224 15.32 85.7973 15.52C86.384 15.7067 86.8507 15.9933 87.1973 16.38C87.544 16.7533 87.7173 17.2933 87.7173 18C87.7307 18.6133 87.5707 19.1667 87.2373 19.66C86.904 20.1533 86.424 20.54 85.7973 20.82C85.1707 21.1 84.4307 21.24 83.5773 21.24ZM92.0108 21V7H101.051V9.06H94.5708V12.98H99.8108V15H94.5708V21H92.0108ZM101.566 21V11.08H103.846L104.086 12.94C104.446 12.3 104.933 11.7933 105.546 11.42C106.173 11.0333 106.906 10.84 107.746 10.84V13.54H107.026C106.466 13.54 105.966 13.6267 105.526 13.8C105.086 13.9733 104.74 14.2733 104.486 14.7C104.246 15.1267 104.126 15.72 104.126 16.48V21H101.566ZM112.74 21.24C111.74 21.24 110.854 21.0267 110.08 20.6C109.307 20.1733 108.7 19.5733 108.26 18.8C107.82 18.0267 107.6 17.1333 107.6 16.12C107.6 15.0933 107.814 14.18 108.24 13.38C108.68 12.58 109.28 11.96 110.04 11.52C110.814 11.0667 111.72 10.84 112.76 10.84C113.734 10.84 114.594 11.0533 115.34 11.48C116.087 11.9067 116.667 12.4933 117.08 13.24C117.507 13.9733 117.72 14.7933 117.72 15.7C117.72 15.8467 117.714 16 117.7 16.16C117.7 16.32 117.694 16.4867 117.68 16.66H110.14C110.194 17.4333 110.46 18.04 110.94 18.48C111.434 18.92 112.027 19.14 112.72 19.14C113.24 19.14 113.674 19.0267 114.02 18.8C114.38 18.56 114.647 18.2533 114.82 17.88H117.42C117.234 18.5067 116.92 19.08 116.48 19.6C116.054 20.1067 115.52 20.5067 114.88 20.8C114.254 21.0933 113.54 21.24 112.74 21.24ZM112.76 12.92C112.134 12.92 111.58 13.1 111.1 13.46C110.62 13.8067 110.314 14.34 110.18 15.06H115.12C115.08 14.4067 114.84 13.8867 114.4 13.5C113.96 13.1133 113.414 12.92 112.76 12.92ZM121.893 21.24C121.04 21.24 120.34 21.1067 119.793 20.84C119.247 20.56 118.84 20.1933 118.573 19.74C118.307 19.2867 118.173 18.7867 118.173 18.24C118.173 17.32 118.533 16.5733 119.253 16C119.973 15.4267 121.053 15.14 122.493 15.14H125.013V14.9C125.013 14.22 124.82 13.72 124.433 13.4C124.047 13.08 123.567 12.92 122.993 12.92C122.473 12.92 122.02 13.0467 121.633 13.3C121.247 13.54 121.007 13.9 120.913 14.38H118.413C118.48 13.66 118.72 13.0333 119.133 12.5C119.56 11.9667 120.107 11.56 120.773 11.28C121.44 10.9867 122.187 10.84 123.013 10.84C124.427 10.84 125.54 11.1933 126.353 11.9C127.167 12.6067 127.573 13.6067 127.573 14.9V21H125.393L125.153 19.4C124.86 19.9333 124.447 20.3733 123.913 20.72C123.393 21.0667 122.72 21.24 121.893 21.24ZM122.473 19.24C123.207 19.24 123.773 19 124.173 18.52C124.587 18.04 124.847 17.4467 124.953 16.74H122.773C122.093 16.74 121.607 16.8667 121.313 17.12C121.02 17.36 120.873 17.66 120.873 18.02C120.873 18.4067 121.02 18.7067 121.313 18.92C121.607 19.1333 121.993 19.24 122.473 19.24ZM128.616 21V6.6H131.176V15.1L134.696 11.08H137.736L133.676 15.6L138.396 21H135.196L131.176 16.02V21H128.616ZM142.195 21.24C141.315 21.24 140.542 21.1 139.875 20.82C139.209 20.5267 138.675 20.1267 138.275 19.62C137.875 19.1133 137.635 18.5267 137.555 17.86H140.135C140.215 18.2467 140.429 18.58 140.775 18.86C141.135 19.1267 141.595 19.26 142.155 19.26C142.715 19.26 143.122 19.1467 143.375 18.92C143.642 18.6933 143.775 18.4333 143.775 18.14C143.775 17.7133 143.589 17.4267 143.215 17.28C142.842 17.12 142.322 16.9667 141.655 16.82C141.229 16.7267 140.795 16.6133 140.355 16.48C139.915 16.3467 139.509 16.18 139.135 15.98C138.775 15.7667 138.482 15.5 138.255 15.18C138.029 14.8467 137.915 14.44 137.915 13.96C137.915 13.08 138.262 12.34 138.955 11.74C139.662 11.14 140.649 10.84 141.915 10.84C143.089 10.84 144.022 11.1133 144.715 11.66C145.422 12.2067 145.842 12.96 145.975 13.92H143.555C143.409 13.1867 142.855 12.82 141.895 12.82C141.415 12.82 141.042 12.9133 140.775 13.1C140.522 13.2867 140.395 13.52 140.395 13.8C140.395 14.0933 140.589 14.3267 140.975 14.5C141.362 14.6733 141.875 14.8333 142.515 14.98C143.209 15.14 143.842 15.32 144.415 15.52C145.002 15.7067 145.469 15.9933 145.815 16.38C146.162 16.7533 146.335 17.2933 146.335 18C146.349 18.6133 146.189 19.1667 145.855 19.66C145.522 20.1533 145.042 20.54 144.415 20.82C143.789 21.1 143.049 21.24 142.195 21.24Z" fill="#FFF"/>
<path d="M25.375 13.125H24.4628C24.2528 10.6525 23.1753 8.33394 21.4207 6.57934C19.6661 4.82473 17.3475 3.74716 14.875 3.53719V2.625C14.875 2.39294 14.7828 2.17038 14.6187 2.00628C14.4546 1.84219 14.2321 1.75 14 1.75C13.7679 1.75 13.5454 1.84219 13.3813 2.00628C13.2172 2.17038 13.125 2.39294 13.125 2.625V3.53719C10.6525 3.74716 8.33394 4.82473 6.57934 6.57934C4.82473 8.33394 3.74716 10.6525 3.53719 13.125H2.625C2.39294 13.125 2.17038 13.2172 2.00628 13.3813C1.84219 13.5454 1.75 13.7679 1.75 14C1.75 14.2321 1.84219 14.4546 2.00628 14.6187C2.17038 14.7828 2.39294 14.875 2.625 14.875H3.53719C3.74716 17.3475 4.82473 19.6661 6.57934 21.4207C8.33394 23.1753 10.6525 24.2528 13.125 24.4628V25.375C13.125 25.6071 13.2172 25.8296 13.3813 25.9937C13.5454 26.1578 13.7679 26.25 14 26.25C14.2321 26.25 14.4546 26.1578 14.6187 25.9937C14.7828 25.8296 14.875 25.6071 14.875 25.375V24.4628C17.3475 24.2528 19.6661 23.1753 21.4207 21.4207C23.1753 19.6661 24.2528 17.3475 24.4628 14.875H25.375C25.6071 14.875 25.8296 14.7828 25.9937 14.6187C26.1578 14.4546 26.25 14.2321 26.25 14C26.25 13.7679 26.1578 13.5454 25.9937 13.3813C25.8296 13.2172 25.6071 13.125 25.375 13.125ZM21.875 14.875H22.7063C22.5014 16.8822 21.6106 18.7573 20.1839 20.1839C18.7573 21.6106 16.8822 22.5014 14.875 22.7063V21.875C14.875 21.6429 14.7828 21.4204 14.6187 21.2563C14.4546 21.0922 14.2321 21 14 21C13.7679 21 13.5454 21.0922 13.3813 21.2563C13.2172 21.4204 13.125 21.6429 13.125 21.875V22.7063C11.1178 22.5014 9.24274 21.6106 7.81609 20.1839C6.38944 18.7573 5.49855 16.8822 5.29375 14.875H6.125C6.35706 14.875 6.57962 14.7828 6.74372 14.6187C6.90781 14.4546 7 14.2321 7 14C7 13.7679 6.90781 13.5454 6.74372 13.3813C6.57962 13.2172 6.35706 13.125 6.125 13.125H5.29375C5.49855 11.1178 6.38944 9.24274 7.81609 7.81609C9.24274 6.38944 11.1178 5.49855 13.125 5.29375V6.125C13.125 6.35706 13.2172 6.57962 13.3813 6.74372C13.5454 6.90781 13.7679 7 14 7C14.2321 7 14.4546 6.90781 14.6187 6.74372C14.7828 6.57962 14.875 6.35706 14.875 6.125V5.29375C16.8822 5.49855 18.7573 6.38944 20.1839 7.81609C21.6106 9.24274 22.5014 11.1178 22.7063 13.125H21.875C21.6429 13.125 21.4204 13.2172 21.2563 13.3813C21.0922 13.5454 21 13.7679 21 14C21 14.2321 21.0922 14.4546 21.2563 14.6187C21.4204 14.7828 21.6429 14.875 21.875 14.875ZM18.375 14C18.375 14.8653 18.1184 15.7112 17.6377 16.4306C17.1569 17.1501 16.4737 17.7108 15.6742 18.042C14.8748 18.3731 13.9951 18.4597 13.1465 18.2909C12.2978 18.1221 11.5183 17.7054 10.9064 17.0936C10.2946 16.4817 9.87787 15.7022 9.70906 14.8535C9.54025 14.0049 9.62689 13.1252 9.95803 12.3258C10.2892 11.5263 10.8499 10.8431 11.5694 10.3623C12.2888 9.88159 13.1347 9.625 14 9.625C15.1603 9.625 16.2731 10.0859 17.0936 10.9064C17.9141 11.7269 18.375 12.8397 18.375 14Z" fill="#FFF"/>
</svg>
