<svg width="107" height="45" viewBox="0 0 107 45" fill="none" xmlns="http://www.w3.org/2000/svg">
<path d="M4.088 16V4.8H8.232C9.128 4.8 9.86933 4.94933 10.456 5.248C11.0427 5.54667 11.48 5.95733 11.768 6.48C12.056 7.00267 12.2 7.58933 12.2 8.24C12.2 8.85867 12.0613 9.42933 11.784 9.952C11.5067 10.464 11.0747 10.88 10.488 11.2C9.90133 11.5093 9.14933 11.664 8.232 11.664H6.136V16H4.088ZM6.136 10H8.104C8.81867 10 9.33067 9.84533 9.64 9.536C9.96 9.216 10.12 8.784 10.12 8.24C10.12 7.68533 9.96 7.25333 9.64 6.944C9.33067 6.624 8.81867 6.464 8.104 6.464H6.136V10ZM12.6388 16V8.064H14.4628L14.6548 9.552C14.9428 9.04 15.3321 8.63467 15.8228 8.336C16.3241 8.02667 16.9108 7.872 17.5828 7.872V10.032H17.0068C16.5588 10.032 16.1588 10.1013 15.8068 10.24C15.4548 10.3787 15.1774 10.6187 14.9748 10.96C14.7828 11.3013 14.6868 11.776 14.6868 12.384V16H12.6388ZM21.5299 16.192C20.7619 16.192 20.0685 16.016 19.4499 15.664C18.8419 15.312 18.3565 14.8267 17.9939 14.208C17.6419 13.5787 17.4659 12.8533 17.4659 12.032C17.4659 11.2107 17.6472 10.4907 18.0099 9.872C18.3725 9.24267 18.8579 8.752 19.4659 8.4C20.0845 8.048 20.7779 7.872 21.5459 7.872C22.3032 7.872 22.9859 8.048 23.5939 8.4C24.2125 8.752 24.6979 9.24267 25.0499 9.872C25.4125 10.4907 25.5939 11.2107 25.5939 12.032C25.5939 12.8533 25.4125 13.5787 25.0499 14.208C24.6979 14.8267 24.2125 15.312 23.5939 15.664C22.9752 16.016 22.2872 16.192 21.5299 16.192ZM21.5299 14.416C22.0632 14.416 22.5272 14.2187 22.9219 13.824C23.3165 13.4187 23.5139 12.8213 23.5139 12.032C23.5139 11.2427 23.3165 10.6507 22.9219 10.256C22.5272 9.85067 22.0685 9.648 21.5459 9.648C21.0019 9.648 20.5325 9.85067 20.1379 10.256C19.7539 10.6507 19.5619 11.2427 19.5619 12.032C19.5619 12.8213 19.7539 13.4187 20.1379 13.824C20.5325 14.2187 20.9965 14.416 21.5299 14.416ZM30.193 16.192C29.3823 16.192 28.6677 16.016 28.049 15.664C27.4303 15.312 26.9397 14.8213 26.577 14.192C26.225 13.5627 26.049 12.8427 26.049 12.032C26.049 11.2213 26.225 10.5013 26.577 9.872C26.9397 9.24267 27.4303 8.752 28.049 8.4C28.6677 8.048 29.3823 7.872 30.193 7.872C31.2063 7.872 32.0597 8.13867 32.753 8.672C33.4463 9.19467 33.889 9.92 34.081 10.848H31.921C31.8143 10.464 31.601 10.1653 31.281 9.952C30.9717 9.728 30.6037 9.616 30.177 9.616C29.6117 9.616 29.1317 9.82933 28.737 10.256C28.3423 10.6827 28.145 11.2747 28.145 12.032C28.145 12.7893 28.3423 13.3813 28.737 13.808C29.1317 14.2347 29.6117 14.448 30.177 14.448C30.6037 14.448 30.9717 14.3413 31.281 14.128C31.601 13.9147 31.8143 13.6107 31.921 13.216H34.081C33.889 14.112 33.4463 14.832 32.753 15.376C32.0597 15.92 31.2063 16.192 30.193 16.192ZM34.7788 16V8.064H36.6028L36.7948 9.552C37.0828 9.04 37.4721 8.63467 37.9628 8.336C38.4641 8.02667 39.0508 7.872 39.7228 7.872V10.032H39.1468C38.6988 10.032 38.2988 10.1013 37.9468 10.24C37.5948 10.3787 37.3174 10.6187 37.1148 10.96C36.9228 11.3013 36.8268 11.776 36.8268 12.384V16H34.7788ZM42.7385 16.192C42.0558 16.192 41.4958 16.0853 41.0585 15.872C40.6212 15.648 40.2958 15.3547 40.0825 14.992C39.8692 14.6293 39.7625 14.2293 39.7625 13.792C39.7625 13.056 40.0505 12.4587 40.6265 12C41.2025 11.5413 42.0665 11.312 43.2185 11.312H45.2345V11.12C45.2345 10.576 45.0798 10.176 44.7705 9.92C44.4612 9.664 44.0772 9.536 43.6185 9.536C43.2025 9.536 42.8398 9.63733 42.5305 9.84C42.2212 10.032 42.0292 10.32 41.9545 10.704H39.9545C40.0078 10.128 40.1998 9.62667 40.5305 9.2C40.8718 8.77333 41.3092 8.448 41.8425 8.224C42.3758 7.98933 42.9732 7.872 43.6345 7.872C44.7652 7.872 45.6558 8.15467 46.3065 8.72C46.9572 9.28533 47.2825 10.0853 47.2825 11.12V16H45.5385L45.3465 14.72C45.1118 15.1467 44.7812 15.4987 44.3545 15.776C43.9385 16.0533 43.3998 16.192 42.7385 16.192ZM43.2025 14.592C43.7892 14.592 44.2425 14.4 44.5625 14.016C44.8932 13.632 45.1012 13.1573 45.1865 12.592H43.4425C42.8985 12.592 42.5092 12.6933 42.2745 12.896C42.0398 13.088 41.9225 13.328 41.9225 13.616C41.9225 13.9253 42.0398 14.1653 42.2745 14.336C42.5092 14.5067 42.8185 14.592 43.2025 14.592ZM51.3969 16.192C50.6929 16.192 50.0742 16.08 49.5409 15.856C49.0075 15.6213 48.5809 15.3013 48.2609 14.896C47.9409 14.4907 47.7489 14.0213 47.6849 13.488H49.7489C49.8129 13.7973 49.9835 14.064 50.2609 14.288C50.5489 14.5013 50.9169 14.608 51.3649 14.608C51.8129 14.608 52.1382 14.5173 52.3409 14.336C52.5542 14.1547 52.6609 13.9467 52.6609 13.712C52.6609 13.3707 52.5115 13.1413 52.2129 13.024C51.9142 12.896 51.4982 12.7733 50.9649 12.656C50.6235 12.5813 50.2769 12.4907 49.9249 12.384C49.5729 12.2773 49.2475 12.144 48.9489 11.984C48.6609 11.8133 48.4262 11.6 48.2449 11.344C48.0635 11.0773 47.9729 10.752 47.9729 10.368C47.9729 9.664 48.2502 9.072 48.8049 8.592C49.3702 8.112 50.1595 7.872 51.1729 7.872C52.1115 7.872 52.8582 8.09067 53.4129 8.528C53.9782 8.96533 54.3142 9.568 54.4209 10.336H52.4849C52.3675 9.74933 51.9249 9.456 51.1569 9.456C50.7729 9.456 50.4742 9.53067 50.2609 9.68C50.0582 9.82933 49.9569 10.016 49.9569 10.24C49.9569 10.4747 50.1115 10.6613 50.4209 10.8C50.7302 10.9387 51.1409 11.0667 51.6529 11.184C52.2075 11.312 52.7142 11.456 53.1729 11.616C53.6422 11.7653 54.0155 11.9947 54.2929 12.304C54.5702 12.6027 54.7089 13.0347 54.7089 13.6C54.7195 14.0907 54.5915 14.5333 54.3249 14.928C54.0582 15.3227 53.6742 15.632 53.1729 15.856C52.6715 16.08 52.0795 16.192 51.3969 16.192ZM58.6891 16C57.8571 16 57.1905 15.7973 56.6891 15.392C56.1878 14.9867 55.9371 14.2667 55.9371 13.232V9.776H54.5771V8.064H55.9371L56.1771 5.936H57.9851V8.064H60.1291V9.776H57.9851V13.248C57.9851 13.632 58.0651 13.8987 58.2251 14.048C58.3958 14.1867 58.6838 14.256 59.0891 14.256H60.0811V16H58.6891ZM61.8715 6.832C61.4982 6.832 61.1888 6.72 60.9435 6.496C60.7088 6.272 60.5915 5.98933 60.5915 5.648C60.5915 5.30667 60.7088 5.02933 60.9435 4.816C61.1888 4.592 61.4982 4.48 61.8715 4.48C62.2448 4.48 62.5488 4.592 62.7835 4.816C63.0288 5.02933 63.1515 5.30667 63.1515 5.648C63.1515 5.98933 63.0288 6.272 62.7835 6.496C62.5488 6.72 62.2448 6.832 61.8715 6.832ZM60.8475 16V8.064H62.8955V16H60.8475ZM63.9131 16V8.064H65.7211L65.8811 9.408C66.1265 8.93867 66.4785 8.56533 66.9371 8.288C67.4065 8.01067 67.9558 7.872 68.5851 7.872C69.5665 7.872 70.3291 8.18133 70.8731 8.8C71.4171 9.41867 71.6891 10.3253 71.6891 11.52V16H69.6411V11.712C69.6411 11.0293 69.5025 10.5067 69.2251 10.144C68.9478 9.78133 68.5158 9.6 67.9291 9.6C67.3531 9.6 66.8785 9.80267 66.5051 10.208C66.1425 10.6133 65.9611 11.1787 65.9611 11.904V16H63.9131ZM75.2635 16.192C74.5808 16.192 74.0208 16.0853 73.5835 15.872C73.1462 15.648 72.8208 15.3547 72.6075 14.992C72.3942 14.6293 72.2875 14.2293 72.2875 13.792C72.2875 13.056 72.5755 12.4587 73.1515 12C73.7275 11.5413 74.5915 11.312 75.7435 11.312H77.7595V11.12C77.7595 10.576 77.6048 10.176 77.2955 9.92C76.9862 9.664 76.6022 9.536 76.1435 9.536C75.7275 9.536 75.3648 9.63733 75.0555 9.84C74.7462 10.032 74.5542 10.32 74.4795 10.704H72.4795C72.5328 10.128 72.7248 9.62667 73.0555 9.2C73.3968 8.77333 73.8342 8.448 74.3675 8.224C74.9008 7.98933 75.4982 7.872 76.1595 7.872C77.2902 7.872 78.1808 8.15467 78.8315 8.72C79.4822 9.28533 79.8075 10.0853 79.8075 11.12V16H78.0635L77.8715 14.72C77.6368 15.1467 77.3062 15.4987 76.8795 15.776C76.4635 16.0533 75.9248 16.192 75.2635 16.192ZM75.7275 14.592C76.3142 14.592 76.7675 14.4 77.0875 14.016C77.4182 13.632 77.6262 13.1573 77.7115 12.592H75.9675C75.4235 12.592 75.0342 12.6933 74.7995 12.896C74.5648 13.088 74.4475 13.328 74.4475 13.616C74.4475 13.9253 74.5648 14.1653 74.7995 14.336C75.0342 14.5067 75.3435 14.592 75.7275 14.592ZM84.0685 16C83.2365 16 82.5698 15.7973 82.0685 15.392C81.5672 14.9867 81.3165 14.2667 81.3165 13.232V9.776H79.9565V8.064H81.3165L81.5565 5.936H83.3645V8.064H85.5085V9.776H83.3645V13.248C83.3645 13.632 83.4445 13.8987 83.6045 14.048C83.7752 14.1867 84.0632 14.256 84.4685 14.256H85.4605V16H84.0685ZM87.2509 6.832C86.8775 6.832 86.5682 6.72 86.3229 6.496C86.0882 6.272 85.9709 5.98933 85.9709 5.648C85.9709 5.30667 86.0882 5.02933 86.3229 4.816C86.5682 4.592 86.8775 4.48 87.2509 4.48C87.6242 4.48 87.9282 4.592 88.1629 4.816C88.4082 5.02933 88.5309 5.30667 88.5309 5.648C88.5309 5.98933 88.4082 6.272 88.1629 6.496C87.9282 6.72 87.6242 6.832 87.2509 6.832ZM86.2269 16V8.064H88.2749V16H86.2269ZM93.1005 16.192C92.3325 16.192 91.6392 16.016 91.0205 15.664C90.4125 15.312 89.9272 14.8267 89.5645 14.208C89.2125 13.5787 89.0365 12.8533 89.0365 12.032C89.0365 11.2107 89.2178 10.4907 89.5805 9.872C89.9432 9.24267 90.4285 8.752 91.0365 8.4C91.6552 8.048 92.3485 7.872 93.1165 7.872C93.8738 7.872 94.5565 8.048 95.1645 8.4C95.7832 8.752 96.2685 9.24267 96.6205 9.872C96.9832 10.4907 97.1645 11.2107 97.1645 12.032C97.1645 12.8533 96.9832 13.5787 96.6205 14.208C96.2685 14.8267 95.7832 15.312 95.1645 15.664C94.5458 16.016 93.8578 16.192 93.1005 16.192ZM93.1005 14.416C93.6338 14.416 94.0978 14.2187 94.4925 13.824C94.8872 13.4187 95.0845 12.8213 95.0845 12.032C95.0845 11.2427 94.8872 10.6507 94.4925 10.256C94.0978 9.85067 93.6392 9.648 93.1165 9.648C92.5725 9.648 92.1032 9.85067 91.7085 10.256C91.3245 10.6507 91.1325 11.2427 91.1325 12.032C91.1325 12.8213 91.3245 13.4187 91.7085 13.824C92.1032 14.2187 92.5672 14.416 93.1005 14.416ZM97.8756 16V8.064H99.6836L99.8436 9.408C100.089 8.93867 100.441 8.56533 100.9 8.288C101.369 8.01067 101.918 7.872 102.548 7.872C103.529 7.872 104.292 8.18133 104.836 8.8C105.38 9.41867 105.652 10.3253 105.652 11.52V16H103.604V11.712C103.604 11.0293 103.465 10.5067 103.188 10.144C102.91 9.78133 102.478 9.6 101.892 9.6C101.316 9.6 100.841 9.80267 100.468 10.208C100.105 10.6133 99.9236 11.1787 99.9236 11.904V16H97.8756Z" fill="#BAC6C9"/>
<path d="M89.748 39V31.3H91.156V37.9H94.566V39H89.748ZM96.8867 39C96.3147 39 95.8564 38.8607 95.5117 38.582C95.1671 38.3033 94.9947 37.8083 94.9947 37.097V34.721H94.0597V33.544H94.9947L95.1597 32.081H96.4027V33.544H97.8767V34.721H96.4027V37.108C96.4027 37.372 96.4577 37.5553 96.5677 37.658C96.6851 37.7533 96.8831 37.801 97.1617 37.801H97.8437V39H96.8867ZM100.684 39.132C100.171 39.132 99.7123 39.0073 99.309 38.758C98.9056 38.5087 98.5866 38.1677 98.352 37.735C98.1173 37.3023 98 36.811 98 36.261C98 35.711 98.1173 35.2233 98.352 34.798C98.5866 34.3653 98.9056 34.028 99.309 33.786C99.7123 33.5367 100.171 33.412 100.684 33.412C101.095 33.412 101.454 33.489 101.762 33.643C102.07 33.797 102.319 34.0133 102.51 34.292V31.08H103.918V39H102.664L102.51 38.219C102.334 38.461 102.099 38.6737 101.806 38.857C101.52 39.0403 101.146 39.132 100.684 39.132ZM100.981 37.9C101.436 37.9 101.806 37.7497 102.092 37.449C102.385 37.141 102.532 36.7487 102.532 36.272C102.532 35.7953 102.385 35.4067 102.092 35.106C101.806 34.798 101.436 34.644 100.981 34.644C100.534 34.644 100.163 34.7943 99.87 35.095C99.5766 35.3957 99.43 35.7843 99.43 36.261C99.43 36.7377 99.5766 37.13 99.87 37.438C100.163 37.746 100.534 37.9 100.981 37.9Z" fill="#BAC6C9"/>
<path d="M0.928 40.024C1.408 37.864 1.864 35.752 2.296 33.688C2.472 32.824 2.656 31.912 2.848 30.952C3.04 29.992 3.224 29.048 3.4 28.12C3.576 27.192 3.744 26.296 3.904 25.432C4.064 24.568 4.2 23.776 4.312 23.056C4.776 22.912 5.232 22.792 5.68 22.696C6.128 22.584 6.584 22.488 7.048 22.408C7.528 22.328 7.976 22.288 8.392 22.288C9.112 22.288 9.712 22.408 10.192 22.648C10.688 22.888 11.088 23.216 11.392 23.632C11.696 24.032 11.912 24.504 12.04 25.048C12.168 25.592 12.232 26.176 12.232 26.8C12.232 27.696 12.064 28.56 11.728 29.392C11.408 30.224 10.968 30.968 10.408 31.624C9.864 32.264 9.232 32.776 8.512 33.16C7.808 33.544 7.072 33.736 6.304 33.736H6.04C5.912 34.28 5.792 34.872 5.68 35.512C5.568 36.152 5.472 36.744 5.392 37.288C5.28 37.928 5.176 38.568 5.08 39.208L0.928 40.024ZM7.624 25.192C7.448 26.248 7.272 27.248 7.096 28.192C6.92 29.136 6.728 30.144 6.52 31.216C6.776 31.152 7.04 31.008 7.312 30.784C7.6 30.544 7.864 30.24 8.104 29.872C8.344 29.488 8.536 29.048 8.68 28.552C8.824 28.056 8.896 27.536 8.896 26.992C8.896 26.4 8.76 25.952 8.488 25.648C8.232 25.344 7.944 25.192 7.624 25.192ZM20.0778 35.32C19.8538 36.232 19.5338 37.008 19.1178 37.648C18.7178 38.288 18.2378 38.816 17.6778 39.232C17.1338 39.648 16.5498 39.952 15.9258 40.144C15.3018 40.336 14.6778 40.432 14.0538 40.432C13.6858 40.432 13.3098 40.368 12.9258 40.24C12.5418 40.128 12.1978 39.952 11.8938 39.712C11.5898 39.472 11.3338 39.168 11.1258 38.8C10.9338 38.432 10.8378 38 10.8378 37.504C10.8378 37.44 10.8378 37.376 10.8378 37.312C10.8378 37.248 10.8458 37.184 10.8618 37.12C10.9258 36.464 11.0298 35.672 11.1738 34.744C11.3178 33.816 11.4698 32.848 11.6298 31.84C11.7898 30.832 11.9658 29.824 12.1578 28.816C12.3498 27.792 12.5178 26.864 12.6618 26.032C12.8218 25.2 12.9578 24.512 13.0698 23.968C13.1818 23.408 13.2538 23.064 13.2858 22.936C13.6218 22.904 14.0218 22.864 14.4858 22.816C14.9498 22.768 15.3818 22.728 15.7818 22.696C16.2778 22.648 16.7658 22.6 17.2458 22.552C16.8298 24.488 16.4618 26.24 16.1418 27.808C15.9978 28.48 15.8538 29.152 15.7098 29.824C15.5818 30.496 15.4538 31.112 15.3258 31.672C15.2138 32.232 15.1098 32.72 15.0138 33.136C14.9338 33.536 14.8618 33.864 14.7978 34.12C14.7498 34.376 14.6858 34.704 14.6058 35.104C14.5418 35.488 14.5098 35.84 14.5098 36.16C14.5098 36.416 14.5738 36.632 14.7018 36.808C14.8298 36.968 14.9898 37.048 15.1818 37.048C15.4538 37.048 15.6778 36.944 15.8538 36.736C16.0298 36.512 16.1738 36.248 16.2858 35.944C16.4138 35.64 16.5018 35.336 16.5498 35.032C16.6138 34.712 16.6698 34.464 16.7178 34.288C16.8138 33.824 16.9178 33.312 17.0298 32.752C17.1578 32.176 17.2778 31.584 17.3898 30.976C17.5178 30.352 17.6378 29.72 17.7498 29.08C17.8778 28.44 17.9978 27.816 18.1098 27.208C18.3818 25.8 18.6458 24.344 18.9018 22.84L22.5498 22.6C22.5498 22.6 22.5098 22.808 22.4297 23.224C22.3498 23.64 22.2458 24.192 22.1178 24.88C21.9898 25.568 21.8458 26.352 21.6858 27.232C21.5418 28.112 21.3738 29.032 21.1818 29.992C20.9898 30.936 20.7978 31.872 20.6058 32.8C20.4298 33.712 20.2538 34.552 20.0778 35.32ZM20.2684 40.12C20.7484 37.816 21.2044 35.584 21.6364 33.424C21.7964 32.496 21.9644 31.536 22.1404 30.544C22.3324 29.552 22.5084 28.576 22.6684 27.616C22.8284 26.64 22.9724 25.712 23.1004 24.832C23.2284 23.936 23.3244 23.128 23.3884 22.408C23.5964 22.424 23.7724 22.432 23.9164 22.432C24.0604 22.432 24.2284 22.432 24.4204 22.432C24.6444 22.432 24.9164 22.432 25.2364 22.432C25.5564 22.416 25.8764 22.4 26.1964 22.384C26.5164 22.368 26.8604 22.352 27.2284 22.336C27.4524 23.456 27.6524 24.536 27.8284 25.576C28.0044 26.488 28.1804 27.424 28.3564 28.384C28.5484 29.344 28.7164 30.16 28.8604 30.832C28.9244 30.512 28.9964 30.144 29.0764 29.728C29.1564 29.296 29.2444 28.848 29.3404 28.384C29.4364 27.92 29.5244 27.456 29.6044 26.992C29.7004 26.512 29.7964 26.04 29.8924 25.576C30.1164 24.536 30.3484 23.464 30.5884 22.36L33.5164 22C32.9724 24.448 32.4924 26.768 32.0764 28.96C31.8844 29.904 31.6924 30.864 31.5004 31.84C31.3244 32.8 31.1564 33.728 30.9964 34.624C30.8364 35.504 30.7004 36.328 30.5884 37.096C30.4764 37.848 30.3884 38.48 30.3244 38.992C30.2764 38.992 30.0844 39.032 29.7484 39.112C29.4284 39.176 29.0524 39.256 28.6204 39.352C28.2044 39.448 27.7804 39.544 27.3484 39.64C26.9324 39.736 26.6204 39.824 26.4124 39.904C26.3164 38.624 26.2124 37.408 26.1004 36.256C26.0524 35.76 25.9964 35.256 25.9324 34.744C25.8844 34.216 25.8284 33.712 25.7644 33.232C25.7004 32.752 25.6364 32.304 25.5724 31.888C25.5084 31.472 25.4444 31.112 25.3804 30.808C25.3324 31.112 25.2684 31.464 25.1884 31.864C25.1084 32.264 25.0284 32.688 24.9484 33.136C24.8684 33.584 24.7884 34.056 24.7084 34.552C24.6284 35.032 24.5404 35.496 24.4444 35.944C24.2364 37.016 24.0124 38.136 23.7724 39.304L20.2684 40.12ZM35.08 39.52C34.936 39.52 34.648 39.544 34.216 39.592C33.8 39.624 33.368 39.672 32.92 39.736C32.472 39.784 32.064 39.832 31.696 39.88C31.344 39.928 31.152 39.96 31.12 39.976C31.28 39.288 31.44 38.528 31.6 37.696C31.776 36.848 31.952 35.968 32.128 35.056C32.304 34.128 32.472 33.192 32.632 32.248C32.792 31.304 32.944 30.392 33.088 29.512C33.424 27.464 33.76 25.36 34.096 23.2L37.84 22.6C37.472 24.744 37.112 26.848 36.76 28.912C36.616 29.792 36.464 30.704 36.304 31.648C36.16 32.592 36.008 33.528 35.848 34.456C35.704 35.384 35.568 36.288 35.44 37.168C35.312 38.032 35.192 38.816 35.08 39.52ZM46.4836 34.072C46.4836 34.968 46.3076 35.784 45.9556 36.52C45.6196 37.24 45.1556 37.864 44.5636 38.392C43.9876 38.92 43.2996 39.328 42.4996 39.616C41.7156 39.904 40.8676 40.048 39.9556 40.048C39.3156 40.048 38.6756 39.88 38.0356 39.544C37.3956 39.192 36.7796 38.64 36.1876 37.888L37.9636 34.408C38.0756 34.616 38.2436 34.832 38.4676 35.056C38.6916 35.264 38.9396 35.448 39.2116 35.608C39.4996 35.768 39.7796 35.904 40.0516 36.016C40.3396 36.112 40.5956 36.16 40.8196 36.16C41.0116 36.16 41.2116 36.128 41.4196 36.064C41.6276 36 41.8196 35.904 41.9956 35.776C42.1716 35.648 42.3076 35.504 42.4036 35.344C42.5156 35.168 42.5716 34.968 42.5716 34.744C42.5716 34.36 42.4436 34.008 42.1876 33.688C41.9476 33.352 41.6436 33.04 41.2756 32.752C40.9076 32.448 40.5076 32.144 40.0756 31.84C39.6436 31.536 39.2436 31.216 38.8756 30.88C38.5236 30.544 38.2196 30.168 37.9636 29.752C37.7076 29.336 37.5796 28.872 37.5796 28.36C37.5796 27.528 37.8276 26.752 38.3236 26.032C38.8196 25.312 39.4356 24.696 40.1716 24.184C40.9236 23.656 41.7396 23.24 42.6196 22.936C43.4996 22.632 44.3316 22.48 45.1156 22.48C45.5476 22.48 45.9556 22.536 46.3396 22.648C46.7236 22.744 47.0516 22.912 47.3236 23.152C47.6116 23.376 47.8356 23.664 47.9956 24.016C48.1716 24.368 48.2596 24.808 48.2596 25.336C48.2596 25.56 48.2356 25.784 48.1876 26.008C48.1556 26.232 48.1236 26.472 48.0916 26.728L44.6116 27.736C44.6436 27.608 44.6676 27.48 44.6836 27.352C44.7156 27.224 44.7316 27.096 44.7316 26.968C44.7316 26.488 44.6436 26.144 44.4676 25.936C44.3076 25.712 44.0916 25.6 43.8196 25.6C43.6916 25.6 43.5316 25.648 43.3396 25.744C43.1636 25.84 42.9796 25.968 42.7876 26.128C42.6116 26.272 42.4596 26.448 42.3316 26.656C42.2036 26.864 42.1396 27.088 42.1396 27.328C42.1396 27.712 42.2436 28.032 42.4516 28.288C42.6756 28.544 42.9476 28.784 43.2676 29.008C43.5876 29.232 43.9316 29.464 44.2996 29.704C44.6836 29.928 45.0356 30.224 45.3556 30.592C45.6756 30.96 45.9396 31.424 46.1476 31.984C46.3716 32.528 46.4836 33.224 46.4836 34.072ZM46.3561 40.048C46.8041 37.808 47.2361 35.624 47.6521 33.496C47.8121 32.584 47.9801 31.64 48.1561 30.664C48.3321 29.672 48.4921 28.696 48.6361 27.736C48.7961 26.776 48.9401 25.848 49.0681 24.952C49.2121 24.04 49.3241 23.216 49.4041 22.48C49.7721 22.496 50.1081 22.52 50.4121 22.552C50.7321 22.568 51.0441 22.584 51.3481 22.6C51.6521 22.616 51.9561 22.632 52.2601 22.648C52.5801 22.648 52.9241 22.648 53.2921 22.648C53.0201 23.784 52.7481 24.92 52.4761 26.056C52.2201 27.192 51.9801 28.336 51.7561 29.488L54.1321 29.224C54.3561 28.088 54.5561 26.992 54.7321 25.936C54.9081 24.864 55.1401 23.76 55.4281 22.624C55.7961 22.56 56.2041 22.512 56.6521 22.48C57.1001 22.432 57.5161 22.392 57.9001 22.36C58.2841 22.328 58.6041 22.304 58.8601 22.288C59.1321 22.256 59.2681 22.24 59.2681 22.24C59.0441 22.96 58.8281 23.752 58.6201 24.616C58.4281 25.464 58.2361 26.352 58.0441 27.28C57.8521 28.192 57.6681 29.12 57.4921 30.064C57.3161 31.008 57.1561 31.904 57.0121 32.752C56.6601 34.784 56.3321 36.864 56.0281 38.992L52.2841 39.424C52.4921 38.464 52.6761 37.528 52.8361 36.616C52.9961 35.848 53.1561 35.048 53.3161 34.216C53.4921 33.384 53.6281 32.672 53.7241 32.08L51.3961 32.296C51.2841 32.904 51.1481 33.608 50.9881 34.408C50.8441 35.208 50.7081 35.968 50.5801 36.688C50.4041 37.552 50.2281 38.416 50.0521 39.28L46.3561 40.048ZM56.9498 40.024L60.0938 22.96L67.6778 22.312C67.5658 22.664 67.4698 23.024 67.3898 23.392C67.3098 23.696 67.2298 24.016 67.1498 24.352C67.0858 24.672 67.0298 24.96 66.9818 25.216C66.8218 25.232 66.5898 25.248 66.2858 25.264C65.9978 25.264 65.6858 25.272 65.3498 25.288C65.0138 25.288 64.6698 25.288 64.3178 25.288C63.9818 25.288 63.6858 25.288 63.4298 25.288L62.5898 29.584C63.0858 29.552 63.5498 29.528 63.9818 29.512C64.3338 29.496 64.6938 29.488 65.0618 29.488C65.4298 29.488 65.7018 29.48 65.8778 29.464C65.8138 29.912 65.7498 30.352 65.6858 30.784C65.6378 31.216 65.5738 31.656 65.4938 32.104C65.3338 32.12 65.0698 32.136 64.7018 32.152C64.3498 32.152 63.9898 32.16 63.6218 32.176C63.2058 32.192 62.7498 32.208 62.2538 32.224L61.4378 36.64L64.9418 36.088L64.7018 38.824L56.9498 40.024ZM65.0335 40.024C65.4655 37.896 65.8815 35.816 66.2815 33.784C66.4255 32.92 66.5855 32.024 66.7615 31.096C66.9375 30.152 67.0975 29.224 67.2415 28.312C67.4015 27.384 67.5455 26.496 67.6735 25.648C67.8175 24.784 67.9295 24 68.0095 23.296C68.9215 23.008 69.9055 22.8 70.9615 22.672C72.0175 22.528 73.0655 22.456 74.1055 22.456C74.7295 22.456 75.2415 22.528 75.6415 22.672C76.0575 22.816 76.3775 23.024 76.6015 23.296C76.8415 23.552 77.0095 23.856 77.1055 24.208C77.2015 24.56 77.2495 24.952 77.2495 25.384C77.2495 26.024 77.1375 26.656 76.9135 27.28C76.6895 27.888 76.3855 28.472 76.0015 29.032C75.6335 29.576 75.2015 30.08 74.7055 30.544C74.2255 30.992 73.7055 31.36 73.1455 31.648C73.4335 32.288 73.7375 32.992 74.0575 33.76C74.3935 34.512 74.7055 35.232 74.9935 35.92C75.3135 36.72 75.6415 37.52 75.9775 38.32L72.2575 39.616C71.9375 38.592 71.6495 37.632 71.3935 36.736C71.2815 36.368 71.1695 35.992 71.0575 35.608C70.9455 35.208 70.8415 34.832 70.7455 34.48C70.6495 34.128 70.5695 33.816 70.5055 33.544C70.4415 33.256 70.4015 33.024 70.3855 32.848L70.0735 32.944C69.9775 33.456 69.8575 34.056 69.7135 34.744C69.5855 35.432 69.4655 36.096 69.3535 36.736C69.2095 37.488 69.0655 38.248 68.9215 39.016L65.0335 40.024ZM70.6735 29.608C70.9775 29.576 71.3455 29.448 71.7775 29.224C72.2255 29 72.6495 28.736 73.0495 28.432C73.4495 28.112 73.7935 27.784 74.0815 27.448C74.3695 27.112 74.5135 26.816 74.5135 26.56C74.5135 26.384 74.4575 26.248 74.3455 26.152C74.2335 26.04 74.0735 25.96 73.8655 25.912C73.6735 25.848 73.4575 25.808 73.2175 25.792C72.9775 25.776 72.7295 25.768 72.4735 25.768C72.2975 25.768 72.1135 25.776 71.9215 25.792C71.7455 25.792 71.5855 25.792 71.4415 25.792L70.6735 29.608ZM86.2336 34.072C86.2336 34.968 86.0576 35.784 85.7056 36.52C85.3696 37.24 84.9056 37.864 84.3136 38.392C83.7376 38.92 83.0496 39.328 82.2496 39.616C81.4656 39.904 80.6176 40.048 79.7056 40.048C79.0656 40.048 78.4256 39.88 77.7856 39.544C77.1456 39.192 76.5296 38.64 75.9376 37.888L77.7136 34.408C77.8256 34.616 77.9936 34.832 78.2176 35.056C78.4416 35.264 78.6896 35.448 78.9616 35.608C79.2496 35.768 79.5296 35.904 79.8016 36.016C80.0896 36.112 80.3456 36.16 80.5696 36.16C80.7616 36.16 80.9616 36.128 81.1696 36.064C81.3776 36 81.5696 35.904 81.7456 35.776C81.9216 35.648 82.0576 35.504 82.1536 35.344C82.2656 35.168 82.3216 34.968 82.3216 34.744C82.3216 34.36 82.1936 34.008 81.9376 33.688C81.6976 33.352 81.3936 33.04 81.0256 32.752C80.6576 32.448 80.2576 32.144 79.8256 31.84C79.3936 31.536 78.9936 31.216 78.6256 30.88C78.2736 30.544 77.9696 30.168 77.7136 29.752C77.4576 29.336 77.3296 28.872 77.3296 28.36C77.3296 27.528 77.5776 26.752 78.0736 26.032C78.5696 25.312 79.1856 24.696 79.9216 24.184C80.6736 23.656 81.4896 23.24 82.3696 22.936C83.2496 22.632 84.0816 22.48 84.8656 22.48C85.2976 22.48 85.7056 22.536 86.0896 22.648C86.4736 22.744 86.8016 22.912 87.0736 23.152C87.3616 23.376 87.5856 23.664 87.7456 24.016C87.9216 24.368 88.0096 24.808 88.0096 25.336C88.0096 25.56 87.9856 25.784 87.9376 26.008C87.9056 26.232 87.8736 26.472 87.8416 26.728L84.3616 27.736C84.3936 27.608 84.4176 27.48 84.4336 27.352C84.4656 27.224 84.4816 27.096 84.4816 26.968C84.4816 26.488 84.3936 26.144 84.2176 25.936C84.0576 25.712 83.8416 25.6 83.5696 25.6C83.4416 25.6 83.2816 25.648 83.0896 25.744C82.9136 25.84 82.7296 25.968 82.5376 26.128C82.3616 26.272 82.2096 26.448 82.0816 26.656C81.9536 26.864 81.8896 27.088 81.8896 27.328C81.8896 27.712 81.9936 28.032 82.2016 28.288C82.4256 28.544 82.6976 28.784 83.0176 29.008C83.3376 29.232 83.6816 29.464 84.0496 29.704C84.4336 29.928 84.7856 30.224 85.1056 30.592C85.4256 30.96 85.6896 31.424 85.8976 31.984C86.1216 32.528 86.2336 33.224 86.2336 34.072Z" fill="#BAC6C9"/>
</svg>
