<svg width="180" height="32" viewBox="0 0 180 32" fill="none" xmlns="http://www.w3.org/2000/svg">
<path d="M45.62 23V11.06H41.54V9H52.28V11.06H48.18V23H45.62ZM54.0964 11.54C53.6297 11.54 53.2431 11.4 52.9364 11.12C52.6431 10.84 52.4964 10.4867 52.4964 10.06C52.4964 9.63333 52.6431 9.28667 52.9364 9.02C53.2431 8.74 53.6297 8.6 54.0964 8.6C54.5631 8.6 54.9431 8.74 55.2364 9.02C55.5431 9.28667 55.6964 9.63333 55.6964 10.06C55.6964 10.4867 55.5431 10.84 55.2364 11.12C54.9431 11.4 54.5631 11.54 54.0964 11.54ZM52.8164 23V13.08H55.3764V23H52.8164ZM56.6484 23V13.08H58.9084L59.1284 14.42C59.4484 13.94 59.8684 13.56 60.3884 13.28C60.9218 12.9867 61.5351 12.84 62.2284 12.84C63.7618 12.84 64.8484 13.4333 65.4884 14.62C65.8484 14.0733 66.3284 13.64 66.9284 13.32C67.5418 13 68.2084 12.84 68.9284 12.84C70.2218 12.84 71.2151 13.2267 71.9084 14C72.6018 14.7733 72.9484 15.9067 72.9484 17.4V23H70.3884V17.64C70.3884 16.7867 70.2218 16.1333 69.8884 15.68C69.5684 15.2267 69.0684 15 68.3884 15C67.6951 15 67.1351 15.2533 66.7084 15.76C66.2951 16.2667 66.0884 16.9733 66.0884 17.88V23H63.5284V17.64C63.5284 16.7867 63.3618 16.1333 63.0284 15.68C62.6951 15.2267 62.1818 15 61.4884 15C60.8084 15 60.2551 15.2533 59.8284 15.76C59.4151 16.2667 59.2084 16.9733 59.2084 17.88V23H56.6484ZM78.7989 23.24C77.7989 23.24 76.9122 23.0267 76.1389 22.6C75.3656 22.1733 74.7589 21.5733 74.3189 20.8C73.8789 20.0267 73.6589 19.1333 73.6589 18.12C73.6589 17.0933 73.8722 16.18 74.2989 15.38C74.7389 14.58 75.3389 13.96 76.0989 13.52C76.8722 13.0667 77.7789 12.84 78.8189 12.84C79.7922 12.84 80.6522 13.0533 81.3989 13.48C82.1456 13.9067 82.7256 14.4933 83.1389 15.24C83.5656 15.9733 83.7789 16.7933 83.7789 17.7C83.7789 17.8467 83.7722 18 83.7589 18.16C83.7589 18.32 83.7522 18.4867 83.7389 18.66H76.1989C76.2522 19.4333 76.5189 20.04 76.9989 20.48C77.4922 20.92 78.0856 21.14 78.7789 21.14C79.2989 21.14 79.7322 21.0267 80.0789 20.8C80.4389 20.56 80.7056 20.2533 80.8789 19.88H83.4789C83.2922 20.5067 82.9789 21.08 82.5389 21.6C82.1122 22.1067 81.5789 22.5067 80.9389 22.8C80.3122 23.0933 79.5989 23.24 78.7989 23.24ZM78.8189 14.92C78.1922 14.92 77.6389 15.1 77.1589 15.46C76.6789 15.8067 76.3722 16.34 76.2389 17.06H81.1789C81.1389 16.4067 80.8989 15.8867 80.4589 15.5C80.0189 15.1133 79.4722 14.92 78.8189 14.92ZM84.592 23V9H90.212C91.6654 9 92.772 9.34 93.532 10.02C94.3054 10.6867 94.692 11.5467 94.692 12.6C94.692 13.48 94.452 14.1867 93.972 14.72C93.5054 15.24 92.932 15.5933 92.252 15.78C93.052 15.94 93.712 16.34 94.232 16.98C94.752 17.6067 95.012 18.34 95.012 19.18C95.012 20.2867 94.612 21.2 93.812 21.92C93.012 22.64 91.8787 23 90.412 23H84.592ZM87.152 14.88H89.832C90.552 14.88 91.1054 14.7133 91.492 14.38C91.8787 14.0467 92.072 13.5733 92.072 12.96C92.072 12.3733 91.8787 11.9133 91.492 11.58C91.1187 11.2333 90.552 11.06 89.792 11.06H87.152V14.88ZM87.152 20.92H90.012C90.772 20.92 91.3587 20.7467 91.772 20.4C92.1987 20.04 92.412 19.54 92.412 18.9C92.412 18.2467 92.192 17.7333 91.752 17.36C91.312 16.9867 90.7187 16.8 89.972 16.8H87.152V20.92ZM99.1692 23.24C98.3159 23.24 97.6159 23.1067 97.0692 22.84C96.5226 22.56 96.1159 22.1933 95.8492 21.74C95.5826 21.2867 95.4492 20.7867 95.4492 20.24C95.4492 19.32 95.8092 18.5733 96.5292 18C97.2492 17.4267 98.3292 17.14 99.7692 17.14H102.289V16.9C102.289 16.22 102.096 15.72 101.709 15.4C101.323 15.08 100.843 14.92 100.269 14.92C99.7492 14.92 99.2959 15.0467 98.9092 15.3C98.5226 15.54 98.2826 15.9 98.1892 16.38H95.6892C95.7559 15.66 95.9959 15.0333 96.4092 14.5C96.8359 13.9667 97.3826 13.56 98.0492 13.28C98.7159 12.9867 99.4626 12.84 100.289 12.84C101.703 12.84 102.816 13.1933 103.629 13.9C104.443 14.6067 104.849 15.6067 104.849 16.9V23H102.669L102.429 21.4C102.136 21.9333 101.723 22.3733 101.189 22.72C100.669 23.0667 99.9959 23.24 99.1692 23.24ZM99.7492 21.24C100.483 21.24 101.049 21 101.449 20.52C101.863 20.04 102.123 19.4467 102.229 18.74H100.049C99.3692 18.74 98.8826 18.8667 98.5892 19.12C98.2959 19.36 98.1492 19.66 98.1492 20.02C98.1492 20.4067 98.2959 20.7067 98.5892 20.92C98.8826 21.1333 99.2692 21.24 99.7492 21.24ZM105.892 23V13.08H108.152L108.352 14.76C108.659 14.1733 109.099 13.7067 109.672 13.36C110.259 13.0133 110.946 12.84 111.732 12.84C112.959 12.84 113.912 13.2267 114.592 14C115.272 14.7733 115.612 15.9067 115.612 17.4V23H113.052V17.64C113.052 16.7867 112.879 16.1333 112.532 15.68C112.186 15.2267 111.646 15 110.912 15C110.192 15 109.599 15.2533 109.132 15.76C108.679 16.2667 108.452 16.9733 108.452 17.88V23H105.892ZM121.22 23.24C120.287 23.24 119.453 23.0133 118.72 22.56C117.987 22.1067 117.407 21.4867 116.98 20.7C116.553 19.9133 116.34 19.02 116.34 18.02C116.34 17.02 116.553 16.1333 116.98 15.36C117.407 14.5733 117.987 13.96 118.72 13.52C119.453 13.0667 120.287 12.84 121.22 12.84C121.967 12.84 122.62 12.98 123.18 13.26C123.74 13.54 124.193 13.9333 124.54 14.44V8.6H127.1V23H124.82L124.54 21.58C124.22 22.02 123.793 22.4067 123.26 22.74C122.74 23.0733 122.06 23.24 121.22 23.24ZM121.76 21C122.587 21 123.26 20.7267 123.78 20.18C124.313 19.62 124.58 18.9067 124.58 18.04C124.58 17.1733 124.313 16.4667 123.78 15.92C123.26 15.36 122.587 15.08 121.76 15.08C120.947 15.08 120.273 15.3533 119.74 15.9C119.207 16.4467 118.94 17.1533 118.94 18.02C118.94 18.8867 119.207 19.6 119.74 20.16C120.273 20.72 120.947 21 121.76 21ZM129.687 11.54C129.22 11.54 128.834 11.4 128.527 11.12C128.234 10.84 128.087 10.4867 128.087 10.06C128.087 9.63333 128.234 9.28667 128.527 9.02C128.834 8.74 129.22 8.6 129.687 8.6C130.154 8.6 130.534 8.74 130.827 9.02C131.134 9.28667 131.287 9.63333 131.287 10.06C131.287 10.4867 131.134 10.84 130.827 11.12C130.534 11.4 130.154 11.54 129.687 11.54ZM128.407 23V13.08H130.967V23H128.407ZM136.659 23C135.619 23 134.786 22.7467 134.159 22.24C133.532 21.7333 133.219 20.8333 133.219 19.54V15.22H131.519V13.08H133.219L133.519 10.42H135.779V13.08H138.459V15.22H135.779V19.56C135.779 20.04 135.879 20.3733 136.079 20.56C136.292 20.7333 136.652 20.82 137.159 20.82H138.399V23H136.659ZM143.357 23.24C142.477 23.24 141.704 23.1 141.037 22.82C140.37 22.5267 139.837 22.1267 139.437 21.62C139.037 21.1133 138.797 20.5267 138.717 19.86H141.297C141.377 20.2467 141.59 20.58 141.937 20.86C142.297 21.1267 142.757 21.26 143.317 21.26C143.877 21.26 144.284 21.1467 144.537 20.92C144.804 20.6933 144.937 20.4333 144.937 20.14C144.937 19.7133 144.75 19.4267 144.377 19.28C144.004 19.12 143.484 18.9667 142.817 18.82C142.39 18.7267 141.957 18.6133 141.517 18.48C141.077 18.3467 140.67 18.18 140.297 17.98C139.937 17.7667 139.644 17.5 139.417 17.18C139.19 16.8467 139.077 16.44 139.077 15.96C139.077 15.08 139.424 14.34 140.117 13.74C140.824 13.14 141.81 12.84 143.077 12.84C144.25 12.84 145.184 13.1133 145.877 13.66C146.584 14.2067 147.004 14.96 147.137 15.92H144.717C144.57 15.1867 144.017 14.82 143.057 14.82C142.577 14.82 142.204 14.9133 141.937 15.1C141.684 15.2867 141.557 15.52 141.557 15.8C141.557 16.0933 141.75 16.3267 142.137 16.5C142.524 16.6733 143.037 16.8333 143.677 16.98C144.37 17.14 145.004 17.32 145.577 17.52C146.164 17.7067 146.63 17.9933 146.977 18.38C147.324 18.7533 147.497 19.2933 147.497 20C147.51 20.6133 147.35 21.1667 147.017 21.66C146.684 22.1533 146.204 22.54 145.577 22.82C144.95 23.1 144.21 23.24 143.357 23.24ZM158.13 23.24C156.717 23.24 155.504 22.94 154.49 22.34C153.477 21.7267 152.697 20.88 152.15 19.8C151.604 18.7067 151.33 17.4467 151.33 16.02C151.33 14.5933 151.604 13.3333 152.15 12.24C152.697 11.1467 153.477 10.2933 154.49 9.68C155.504 9.06667 156.717 8.76 158.13 8.76C159.81 8.76 161.184 9.18 162.25 10.02C163.33 10.8467 164.004 12.0133 164.27 13.52H161.45C161.277 12.76 160.904 12.1667 160.33 11.74C159.77 11.3 159.024 11.08 158.09 11.08C156.797 11.08 155.784 11.52 155.05 12.4C154.317 13.28 153.95 14.4867 153.95 16.02C153.95 17.5533 154.317 18.76 155.05 19.64C155.784 20.5067 156.797 20.94 158.09 20.94C159.024 20.94 159.77 20.74 160.33 20.34C160.904 19.9267 161.277 19.36 161.45 18.64H164.27C164.004 20.08 163.33 21.2067 162.25 22.02C161.184 22.8333 159.81 23.24 158.13 23.24ZM169.837 23.24C168.877 23.24 168.01 23.02 167.237 22.58C166.477 22.14 165.87 21.5333 165.417 20.76C164.977 19.9733 164.757 19.0667 164.757 18.04C164.757 17.0133 164.983 16.1133 165.437 15.34C165.89 14.5533 166.497 13.94 167.257 13.5C168.03 13.06 168.897 12.84 169.857 12.84C170.803 12.84 171.657 13.06 172.417 13.5C173.19 13.94 173.797 14.5533 174.237 15.34C174.69 16.1133 174.917 17.0133 174.917 18.04C174.917 19.0667 174.69 19.9733 174.237 20.76C173.797 21.5333 173.19 22.14 172.417 22.58C171.643 23.02 170.783 23.24 169.837 23.24ZM169.837 21.02C170.503 21.02 171.083 20.7733 171.577 20.28C172.07 19.7733 172.317 19.0267 172.317 18.04C172.317 17.0533 172.07 16.3133 171.577 15.82C171.083 15.3133 170.51 15.06 169.857 15.06C169.177 15.06 168.59 15.3133 168.097 15.82C167.617 16.3133 167.377 17.0533 167.377 18.04C167.377 19.0267 167.617 19.7733 168.097 20.28C168.59 20.7733 169.17 21.02 169.837 21.02ZM176.905 23.14C176.439 23.14 176.052 22.9933 175.745 22.7C175.452 22.4067 175.305 22.0533 175.305 21.64C175.305 21.2133 175.452 20.8533 175.745 20.56C176.052 20.2667 176.439 20.12 176.905 20.12C177.372 20.12 177.752 20.2667 178.045 20.56C178.352 20.8533 178.505 21.2133 178.505 21.64C178.505 22.0533 178.352 22.4067 178.045 22.7C177.752 22.9933 177.372 23.14 176.905 23.14Z" fill="#FFF"/>
<path d="M22 18.5C22 18.7967 21.912 19.0867 21.7472 19.3333C21.5824 19.58 21.3481 19.7723 21.074 19.8858C20.7999 19.9993 20.4983 20.0291 20.2074 19.9712C19.9164 19.9133 19.6491 19.7704 19.4393 19.5607C19.2296 19.3509 19.0867 19.0836 19.0288 18.7926C18.971 18.5017 19.0007 18.2001 19.1142 17.926C19.2277 17.6519 19.42 17.4176 19.6667 17.2528C19.9133 17.088 20.2033 17 20.5 17C20.8978 17 21.2794 17.158 21.5607 17.4393C21.842 17.7206 22 18.1022 22 18.5ZM11.5 17C11.2033 17 10.9133 17.088 10.6667 17.2528C10.42 17.4176 10.2277 17.6519 10.1142 17.926C10.0007 18.2001 9.97095 18.5017 10.0288 18.7926C10.0867 19.0836 10.2296 19.3509 10.4393 19.5607C10.6491 19.7704 10.9164 19.9133 11.2074 19.9712C11.4983 20.0291 11.7999 19.9993 12.074 19.8858C12.3481 19.7723 12.5824 19.58 12.7472 19.3333C12.912 19.0867 13 18.7967 13 18.5C13 18.1022 12.842 17.7206 12.5607 17.4393C12.2794 17.158 11.8978 17 11.5 17ZM30 8.99999V19C29.9974 21.3861 29.0483 23.6738 27.361 25.361C25.6738 27.0483 23.3861 27.9973 21 28H11C8.61387 27.9973 6.32622 27.0483 4.63897 25.361C2.95172 23.6738 2.00265 21.3861 2.00001 19V8.99999C1.99809 8.02504 2.35231 7.08296 2.9961 6.3508C3.63989 5.61863 4.52893 5.1468 5.49611 5.02399C6.4633 4.90117 7.44204 5.13582 8.24839 5.68384C9.05475 6.23186 9.63319 7.05551 9.87501 7.99999H22.125C22.3668 7.05551 22.9453 6.23186 23.7516 5.68384C24.558 5.13582 25.5367 4.90117 26.5039 5.02399C27.4711 5.1468 28.3601 5.61863 29.0039 6.3508C29.6477 7.08296 30.0019 8.02504 30 8.99999ZM25 18C25 16.9391 24.5786 15.9217 23.8284 15.1716C23.0783 14.4214 22.0609 14 21 14H11C9.93914 14 8.92173 14.4214 8.17158 15.1716C7.42143 15.9217 7.00001 16.9391 7.00001 18V19C7.00001 20.0609 7.42143 21.0783 8.17158 21.8284C8.92173 22.5786 9.93914 23 11 23H21C22.0609 23 23.0783 22.5786 23.8284 21.8284C24.5786 21.0783 25 20.0609 25 19V18Z" fill="#FFF"/>
</svg>
