<svg width="1129" height="1019" viewBox="0 0 1129 1019" fill="none" xmlns="http://www.w3.org/2000/svg">
<path d="M48.5819 697.001C53.612 711.492 66.9272 720.364 81.426 720.955C83.4972 715.928 84.3849 710.605 84.089 704.986C84.089 704.69 83.7931 699.958 82.0178 695.227C76.6917 679.849 60.4176 671.569 59.5299 671.273C56.8669 670.09 53.0203 668.316 47.9901 667.429C46.8065 672.16 45.6229 678.962 46.5106 687.538C47.1024 689.904 47.3983 693.157 48.5819 697.001Z" fill="#E4E4E4"/>
<path d="M228.166 709.717C243.257 711.196 257.164 703.211 263.97 690.495C260.419 686.651 255.98 683.398 250.654 681.328C250.358 681.328 245.92 679.553 240.89 678.962C224.912 677.188 210.117 688.425 209.525 689.017C207.158 690.791 204.199 693.453 200.944 697.593C204.791 700.55 210.413 704.69 218.402 707.647C221.065 708.239 224.024 709.126 228.166 709.717Z" fill="#E4E4E4"/>
<path d="M16.6253 859.65C3.90186 867.93 -1.72011 883.012 1.23882 897.207C6.56489 898.094 12.1868 897.503 17.217 896.024C17.5129 896.024 21.9513 894.546 26.3897 891.588C40.0008 882.717 44.1433 864.973 44.4392 863.79C45.031 860.833 45.6227 856.693 45.6227 851.666C40.8885 851.666 33.787 852.257 25.7979 855.214C22.839 856.101 19.8801 857.284 16.6253 859.65Z" fill="#E4E4E4"/>
<path d="M78.1713 870.001C63.0807 870.888 50.3573 880.942 45.9189 894.841C50.0614 898.094 55.0916 900.756 60.4177 901.939C60.7136 901.939 65.4479 903.122 70.478 902.826C86.4563 901.939 99.1797 888.631 99.7714 888.04C101.843 885.97 104.506 882.717 106.873 878.281C102.73 875.915 96.2207 872.662 87.9357 871.183C85.2727 870.296 82.3138 869.705 78.1713 870.001Z" fill="#E4E4E4"/>
<path d="M69.2943 772.411C54.2038 773.298 41.4804 783.353 37.042 797.252C41.1845 800.505 46.2147 803.167 51.5407 804.349C51.8366 804.349 56.5709 805.532 61.6011 805.237C77.5793 804.349 90.3027 791.042 90.8945 790.45C92.9657 788.38 95.6288 785.127 97.9959 780.691C93.8534 778.326 87.3438 775.073 79.0588 773.594C76.3957 772.707 73.4368 772.115 69.2943 772.411Z" fill="#E4E4E4"/>
<path d="M206.292 868.226C213.986 881.534 228.484 888.04 242.687 885.97C243.871 880.647 243.871 875.324 242.391 870.001C242.391 869.705 241.208 865.269 238.545 860.833C230.556 846.638 213.098 841.315 212.21 841.019C209.547 840.132 205.405 839.245 200.375 839.245C200.079 843.977 200.079 851.074 202.446 859.354C203.334 861.72 204.221 864.677 206.292 868.226Z" fill="#E4E4E4"/>
<path d="M185.58 968.773C193.273 982.08 207.772 988.586 221.975 986.516C223.158 981.193 223.158 975.87 221.679 970.547C221.679 970.251 220.495 965.816 217.832 961.38C209.843 947.185 192.386 941.862 191.498 941.566C188.835 940.679 184.692 939.792 179.662 939.792C179.366 944.523 179.366 951.621 181.733 959.901C182.621 962.267 183.509 965.224 185.58 968.773Z" fill="#E4E4E4"/>
<path d="M145.043 945.706C160.134 948.664 174.632 941.566 182.03 929.441C178.775 925.301 174.632 921.753 169.602 919.091C169.306 919.091 165.164 916.725 160.133 915.838C144.155 912.881 128.769 922.64 127.881 923.231C125.514 924.71 122.259 927.371 118.708 931.216C122.259 934.469 127.585 939.2 135.278 942.453C138.237 943.932 140.9 945.115 145.043 945.706Z" fill="#E4E4E4"/>
<path d="M169.898 797.844C157.47 806.715 152.44 822.093 155.991 835.992C161.317 836.584 166.939 835.992 171.969 834.218C172.265 834.218 176.703 832.444 180.846 829.486C193.865 820.023 197.416 801.984 197.711 801.097C198.303 798.139 198.599 793.999 198.303 788.972C193.569 789.268 186.468 789.859 178.774 793.112C176.111 794.295 173.152 795.478 169.898 797.844Z" fill="#E4E4E4"/>
<path d="M105.689 1000.12C114.27 1012.54 131.728 1019.64 148.593 1018.75C150.073 1014.02 150.073 1008.99 148.593 1004.26C148.593 1003.96 147.114 999.824 144.451 995.684C135.278 982.376 114.566 976.166 113.382 975.87C110.127 974.983 105.393 973.8 99.1793 973.208C98.5875 977.644 98.5875 983.855 101.251 991.543C102.434 993.909 103.322 996.867 105.689 1000.12Z" fill="#E4E4E4"/>
<path d="M36.4499 953.099C29.9402 966.703 32.0115 985.333 41.1842 999.528C45.9185 998.641 50.3568 995.979 53.9076 992.431C54.2035 992.135 57.1624 989.178 59.5295 984.446C66.631 969.956 61.8967 948.959 61.6008 947.776C60.7131 944.523 59.5295 939.792 56.8665 934.173C52.724 935.947 47.3979 938.904 42.0718 945.115C40.0006 947.185 38.2252 949.255 36.4499 953.099Z" fill="#E4E4E4"/>
<path d="M35.5626 680.441C30.5324 694.931 17.2173 703.803 2.71852 704.394C0.64727 699.367 -0.240413 694.044 0.0554797 688.425C0.0554797 688.13 0.351375 683.398 2.12673 678.666C7.4528 663.289 23.7269 655.008 24.6146 654.713C27.2776 653.53 31.1242 651.755 36.1544 650.868C37.338 655.6 38.5216 662.401 37.6339 670.977C37.338 673.639 36.7462 676.596 35.5626 680.441Z" fill="#E4E4E4"/>
<path d="M38.5216 789.859C33.4914 804.349 20.1763 813.221 5.6775 813.813C3.60625 808.785 2.71857 803.462 3.01446 797.844C3.01446 797.548 3.31036 792.816 5.08572 788.085C10.4118 772.707 26.6859 764.427 27.5736 764.131C30.2366 762.948 34.0832 761.174 39.1134 760.286C40.297 765.018 41.4805 771.82 40.5929 780.396C40.297 783.057 39.7052 786.014 38.5216 789.859Z" fill="#E4E4E4"/>
<path d="M185.284 745.205C173.153 753.189 157.47 751.71 145.931 743.134C147.114 738.107 149.481 733.375 153.032 729.235C153.328 728.94 156.287 725.687 160.134 723.025C173.153 714.745 190.61 718.294 191.498 718.589C194.161 719.181 198.304 720.364 202.742 722.729C200.967 727.165 197.712 733.08 192.386 738.994C190.611 741.064 188.539 743.134 185.284 745.205Z" fill="#E4E4E4"/>
<path d="M201.854 621V867.635C201.854 924.414 166.051 970.547 121.963 970.547C77.8748 970.547 42.0718 924.414 42.0718 867.635V621" stroke="#E4E4E4" stroke-width="6.77" stroke-miterlimit="10"/>
<path d="M326.971 765.952C342.203 767.142 354.341 777.608 358.387 791.404C354.103 794.734 349.105 796.875 343.631 798.064C343.393 798.064 338.633 799.016 333.635 798.778C317.45 797.589 305.074 784.03 304.598 783.317C302.694 781.176 300.076 777.846 297.696 773.326C301.98 770.947 308.406 768.093 316.736 766.666C320.068 765.952 322.924 765.477 326.971 765.952Z" fill="#D2D2D2"/>
<path d="M308.882 811.623C307.692 826.846 297.22 838.977 283.416 843.021C280.084 838.739 277.942 833.744 276.752 828.273C276.752 828.035 275.8 823.278 276.038 818.283C277.228 802.108 290.794 789.739 291.508 789.263C293.65 787.36 296.982 784.744 301.504 782.365C303.884 786.647 306.74 793.069 308.168 801.394C308.644 804.487 309.12 807.579 308.882 811.623Z" fill="#D2D2D2"/>
<path d="M362.671 834.933C374.333 828.749 388.375 830.89 397.895 839.215C396.229 843.497 393.611 847.54 390.279 850.871C390.041 851.108 387.185 853.963 383.139 855.866C370.763 862.526 355.293 858.007 354.341 857.769C351.961 857.055 348.391 855.866 344.583 853.487C346.725 849.681 350.057 844.686 355.531 839.929C357.435 838.264 359.577 836.599 362.671 834.933Z" fill="#D2D2D2"/>
<path d="M371.477 886.788C376.237 899.158 372.667 912.716 363.385 921.279C359.101 919.138 355.531 916.046 352.675 912.24C352.437 912.002 350.057 908.672 348.391 904.628C343.155 891.546 349.343 876.56 349.581 875.847C350.533 873.468 352.199 870.376 354.817 866.808C358.149 869.186 362.909 873.23 367.193 879.177C368.859 881.08 370.287 883.458 371.477 886.788Z" fill="#D2D2D2"/>
<path d="M458.347 865.618C460.489 878.701 454.301 891.308 443.591 897.73C440.021 894.876 436.927 891.07 434.785 886.789C434.785 886.551 432.881 882.745 432.167 878.463C429.787 864.667 438.593 851.109 439.069 850.633C440.497 848.492 442.639 845.638 446.209 842.783C449.065 845.875 452.873 850.633 455.729 857.531C456.681 859.434 457.871 862.05 458.347 865.618Z" fill="#D2D2D2"/>
<path d="M450.494 905.818C460.252 914.857 462.87 928.653 458.11 940.308C453.35 940.308 448.828 939.119 444.544 936.978C444.306 936.978 440.736 935.075 437.403 931.983C427.169 922.468 425.979 906.294 425.979 905.58C425.741 902.963 425.979 899.395 426.693 895.114C430.739 895.827 436.927 897.255 443.116 901.06C445.496 902.012 447.876 903.439 450.494 905.818Z" fill="#D2D2D2"/>
<path d="M529.51 843.021C542.362 839.453 555.452 844.21 563.068 854.201C560.688 858.244 557.118 861.574 553.072 864.191C552.834 864.191 549.264 866.57 544.98 867.759C531.414 871.565 517.134 864.191 516.42 863.953C514.278 862.764 511.184 860.861 507.852 857.769C510.708 854.676 514.992 850.157 521.418 846.589C523.56 845.162 525.94 843.972 529.51 843.021Z" fill="#D2D2D2"/>
<path d="M556.642 894.162C556.642 907.483 548.312 918.663 536.412 923.182C533.318 919.614 530.938 915.57 529.748 910.813C529.748 910.575 528.558 906.531 528.558 902.25C528.558 888.216 539.744 876.56 540.22 875.847C541.886 873.944 544.742 871.565 548.55 869.186C550.93 872.754 553.786 878.225 555.452 885.361C555.928 887.978 556.642 890.594 556.642 894.162Z" fill="#D2D2D2"/>
<path d="M629.947 797.113C636.373 808.768 634.707 822.564 626.615 832.317C622.093 830.89 618.047 828.273 614.715 824.943C614.477 824.705 611.621 821.851 609.479 818.045C602.577 805.676 606.623 790.214 606.861 789.501C607.575 787.122 608.765 783.554 610.907 779.748C614.715 781.651 619.951 784.981 624.949 790.452C626.377 792.117 628.281 794.02 629.947 797.113Z" fill="#D2D2D2"/>
<path d="M616.142 733.364C624.71 743.593 625.425 757.627 619.474 768.569C614.952 767.855 610.43 766.19 606.384 763.573C606.146 763.336 602.814 761.195 599.958 757.627C590.914 746.923 591.866 730.748 592.104 730.034C592.342 727.418 592.818 723.85 594.246 719.806C598.292 720.995 604.004 723.374 609.954 727.656C611.858 729.083 614 730.51 616.142 733.364Z" fill="#D2D2D2"/>
<path d="M594.723 815.904C594.247 829.225 585.679 840.167 573.778 844.448C570.684 840.88 568.542 836.599 567.352 832.079C567.352 831.841 566.4 827.798 566.4 823.278C566.638 809.244 578.062 797.826 578.776 797.351C580.68 795.686 583.299 793.307 587.107 790.928C589.249 794.496 592.105 799.967 593.771 807.103C594.247 809.72 594.723 812.336 594.723 815.904Z" fill="#D2D2D2"/>
<path d="M290.318 734.316C295.078 806.389 338.395 867.759 400.037 889.881C467.154 913.905 526.654 880.842 537.364 874.657C622.807 824.705 625.901 721.947 625.901 716" stroke="#D2D2D2" stroke-width="3.7738" stroke-miterlimit="10" stroke-linecap="round"/>
<path d="M1015.51 253.881C1020.84 268.499 1034.16 277.449 1048.36 278.046C1050.43 272.974 1051.32 267.604 1051.02 261.936C1051.02 261.638 1050.73 256.864 1048.95 252.091C1043.63 236.578 1027.35 228.225 1026.46 227.926C1023.8 226.733 1019.95 224.943 1014.92 224.048C1013.74 228.821 1012.55 235.683 1013.44 244.334C1014.03 247.019 1014.33 250.003 1015.51 253.881Z" fill="#E4E4E4"/>
<path d="M1011.37 282.223C1006.34 296.841 993.024 305.791 978.524 306.388C976.453 301.316 975.565 295.946 975.861 290.278C975.861 289.979 976.157 285.206 977.933 280.433C983.259 264.919 999.534 256.566 1000.42 256.268C1003.09 255.074 1006.93 253.284 1011.96 252.389C1013.15 257.163 1014.33 264.024 1013.44 272.676C1013.15 275.063 1012.85 278.344 1011.37 282.223Z" fill="#E4E4E4"/>
<path d="M1017.88 161.398C1022.91 176.016 1036.23 184.966 1050.73 185.563C1052.8 180.491 1053.69 175.122 1053.39 169.453C1053.39 169.155 1053.09 164.382 1051.32 159.608C1045.99 144.095 1029.72 135.742 1028.83 135.443C1026.17 134.25 1022.32 132.46 1017.29 131.565C1016.1 136.338 1014.92 143.2 1015.81 151.852C1016.1 154.537 1016.4 157.52 1017.88 161.398Z" fill="#E4E4E4"/>
<path d="M1010.48 147.973C1005.45 162.591 992.136 171.541 977.636 172.138C975.565 167.066 974.677 161.696 974.973 156.028C974.973 155.73 975.269 150.956 977.044 146.183C982.371 130.67 998.646 122.317 999.534 122.018C1002.2 120.825 1006.04 119.035 1011.07 118.14C1012.26 122.913 1013.44 129.775 1012.55 138.427C1012.26 140.813 1011.96 144.095 1010.48 147.973Z" fill="#E4E4E4"/>
<path d="M1016.11 71.3017C1021.73 87.1133 1036.23 97.2566 1052.21 97.8533C1054.57 92.4833 1055.46 86.2183 1055.17 80.2517C1055.17 79.9533 1054.87 74.5834 1053.09 69.5117C1047.18 52.5067 1029.13 43.2584 1028.24 42.9601C1025.28 41.4684 1021.14 39.6784 1015.81 38.4851C1014.63 43.5568 1013.15 51.3134 1014.33 60.5617C1014.03 63.8434 1014.63 67.125 1016.11 71.3017Z" fill="#E4E4E4"/>
<path d="M1008.12 56.3849C1002.49 72.1966 987.993 82.3399 972.014 82.9365C969.647 77.5666 968.759 71.3016 969.055 65.3349C969.055 65.0366 969.351 59.6666 971.126 54.5949C977.045 37.59 995.095 28.3417 995.983 28.0433C998.942 26.5517 1003.08 24.7617 1008.41 23.5684C1009.6 28.64 1011.07 36.3967 1009.89 45.645C1009.89 48.9266 1009.6 52.2083 1008.12 56.3849Z" fill="#E4E4E4"/>
<path d="M1012.05 4C1012.05 118.667 1012.05 233.333 1012.05 348" stroke="#E4E4E4" stroke-width="6.94" stroke-miterlimit="10" stroke-linecap="round"/>
<path d="M828.523 261.936V261.949L828.524 261.962C828.81 267.438 827.977 272.625 826.029 277.53C812.156 276.81 799.202 268.015 793.988 253.722C793.199 251.133 792.815 248.981 792.465 247.012C792.295 246.059 792.133 245.15 791.937 244.255C791.09 235.963 792.161 229.333 793.295 224.625C797.822 225.492 801.35 227.076 803.908 228.225C804.027 228.279 804.143 228.331 804.258 228.382L804.28 228.392L804.303 228.4C804.303 228.4 804.304 228.4 804.305 228.401L804.31 228.403L804.328 228.41C804.344 228.416 804.364 228.424 804.389 228.436C804.439 228.458 804.505 228.488 804.586 228.527C804.748 228.605 804.965 228.714 805.231 228.855C805.761 229.138 806.482 229.544 807.34 230.072C809.056 231.129 811.32 232.672 813.721 234.686C818.529 238.719 823.856 244.615 826.479 252.253L826.479 252.254L826.483 252.265C827.356 254.612 827.867 256.965 828.16 258.772C828.306 259.674 828.397 260.437 828.452 260.992C828.479 261.27 828.497 261.494 828.508 261.657C828.514 261.739 828.518 261.805 828.52 261.854C828.521 261.878 828.522 261.897 828.523 261.912L828.523 261.93C828.523 261.933 828.523 261.935 828.523 261.935L828.523 261.936Z" fill="#E4E4E4" stroke="#E2E2E2"/>
<path d="M788.904 282.044L788.901 282.052L788.898 282.06C783.98 296.352 771.027 305.154 756.856 305.872C754.907 300.967 754.075 295.78 754.36 290.304L754.361 290.291V290.278C754.361 290.278 754.361 290.276 754.361 290.271L754.362 290.254C754.362 290.239 754.363 290.22 754.364 290.195C754.367 290.146 754.371 290.081 754.376 289.999C754.387 289.836 754.405 289.611 754.433 289.334C754.487 288.779 754.578 288.016 754.725 287.113C755.017 285.307 755.528 282.954 756.401 280.607L756.401 280.607L756.405 280.595C759.028 272.957 764.355 267.061 769.163 263.028C771.564 261.013 773.828 259.47 775.545 258.414C776.403 257.885 777.123 257.479 777.654 257.197C777.919 257.056 778.136 256.946 778.298 256.868C778.379 256.83 778.445 256.799 778.495 256.777C778.521 256.766 778.541 256.758 778.556 256.751L778.575 256.744L778.58 256.742C778.581 256.742 778.581 256.742 778.581 256.742L778.604 256.734L778.626 256.724C778.741 256.673 778.858 256.62 778.976 256.567C781.535 255.418 785.062 253.834 789.589 252.967C790.724 257.679 791.796 264.317 790.945 272.62C790.919 272.829 790.893 273.044 790.867 273.266C790.588 275.583 790.23 278.568 788.904 282.044Z" fill="#E4E4E4" stroke="#E2E2E2"/>
<path d="M796.353 161.236L796.35 161.228L796.348 161.22C794.934 157.516 794.619 154.648 794.331 152.027C794.323 151.951 794.315 151.875 794.306 151.799C793.454 143.494 794.527 136.855 795.662 132.142C800.189 133.009 803.716 134.594 806.275 135.743C806.394 135.796 806.51 135.848 806.625 135.9L806.647 135.909L806.67 135.917L806.67 135.917C806.67 135.917 806.671 135.918 806.672 135.918L806.677 135.92L806.695 135.927C806.71 135.933 806.73 135.942 806.756 135.953C806.806 135.975 806.872 136.005 806.953 136.044C807.115 136.122 807.332 136.231 807.597 136.372C808.128 136.655 808.848 137.061 809.706 137.589C811.423 138.646 813.687 140.189 816.088 142.203C820.896 146.236 826.223 152.132 828.846 159.771L828.845 159.771L828.85 159.783C829.723 162.129 830.234 164.482 830.526 166.289C830.673 167.191 830.764 167.954 830.818 168.509C830.846 168.787 830.864 169.011 830.875 169.175C830.881 169.256 830.884 169.322 830.887 169.371C830.888 169.395 830.889 169.415 830.889 169.429L830.89 169.447C830.89 169.451 830.89 169.453 830.89 169.453V169.466L830.891 169.479C831.176 174.955 830.344 180.143 828.395 185.047C814.224 184.33 801.271 175.527 796.353 161.236Z" fill="#E4E4E4" stroke="#E2E2E2"/>
<path d="M788.015 147.795L788.012 147.803L788.01 147.81C783.092 162.102 770.139 170.905 755.967 171.622C754.019 166.718 753.186 161.53 753.472 156.054L753.473 156.041V156.028C753.473 156.028 753.473 156.026 753.473 156.022L753.474 156.004C753.474 155.99 753.475 155.97 753.476 155.946C753.479 155.897 753.482 155.831 753.488 155.749C753.499 155.586 753.517 155.362 753.545 155.084C753.599 154.529 753.69 153.766 753.836 152.864C754.129 151.057 754.64 148.704 755.513 146.357L755.513 146.358L755.517 146.346C758.14 138.707 763.467 132.811 768.275 128.778C770.676 126.764 772.94 125.221 774.656 124.164C775.515 123.636 776.235 123.23 776.766 122.947C777.031 122.806 777.248 122.697 777.41 122.619C777.491 122.58 777.557 122.55 777.607 122.528C777.632 122.517 777.653 122.508 777.668 122.502L777.686 122.495L777.691 122.493C777.693 122.492 777.693 122.492 777.693 122.492L777.716 122.484L777.738 122.475C777.853 122.423 777.969 122.371 778.088 122.318C780.647 121.168 784.174 119.584 788.701 118.717C789.836 123.429 790.908 130.068 790.057 138.37C790.031 138.579 790.005 138.795 789.979 139.016C789.7 141.334 789.342 144.318 788.015 147.795Z" fill="#E4E4E4" stroke="#E2E2E2"/>
<path d="M832.666 80.2517V80.2641L832.666 80.2764C832.953 86.066 832.113 92.1239 829.885 97.3394C814.24 96.6199 800.089 86.6363 794.576 71.1347C793.11 66.9964 792.541 63.7908 792.828 60.6066L792.833 60.5523L792.826 60.4982C791.69 51.6256 793.028 44.1341 794.184 39.0839C799.227 40.2638 803.169 41.9732 806.013 43.4066L806.044 43.4227L806.078 43.434C806.078 43.434 806.086 43.4366 806.103 43.4436C806.119 43.4503 806.141 43.4594 806.168 43.4713C806.221 43.4952 806.292 43.5282 806.38 43.5707C806.556 43.6556 806.792 43.7755 807.083 43.9304C807.663 44.2401 808.455 44.6871 809.402 45.2692C811.295 46.4335 813.799 48.1352 816.459 50.3548C821.786 54.799 827.704 61.292 830.622 69.676L830.622 69.6769C831.496 72.1724 832.008 74.7491 832.301 76.7444C832.448 77.7407 832.539 78.5888 832.594 79.2051C832.621 79.5133 832.639 79.7629 832.65 79.9437C832.656 80.0341 832.66 80.1067 832.662 80.1604C832.664 80.1873 832.665 80.2088 832.665 80.2251L832.666 80.2445C832.666 80.2495 832.666 80.2517 832.666 80.2517Z" fill="#E4E4E4" stroke="#E2E2E2"/>
<path d="M747.554 65.3597L747.555 65.3473V65.3349L747.555 65.3337C747.555 65.3326 747.555 65.3306 747.555 65.3277L747.556 65.3084C747.556 65.2921 747.557 65.2705 747.558 65.2437C747.561 65.19 747.564 65.1174 747.57 65.0269C747.581 64.8462 747.6 64.5965 747.627 64.2884C747.682 63.6721 747.773 62.8239 747.919 61.8276C748.213 59.8324 748.725 57.2557 749.598 54.7602L749.599 54.7593C752.516 46.3753 758.435 39.8823 763.761 35.4381C766.422 33.2185 768.926 31.5168 770.819 30.3524C771.765 29.7703 772.557 29.3233 773.138 29.0136C773.429 28.8587 773.665 28.7388 773.84 28.6539C773.928 28.6115 773.999 28.5785 774.053 28.5546C774.08 28.5426 774.101 28.5335 774.118 28.5269C774.135 28.5198 774.142 28.5173 774.142 28.5173L774.176 28.5059L774.208 28.4898C777.052 27.0565 780.994 25.3471 786.037 24.1671C787.193 29.2174 788.531 36.7088 787.395 45.5815L787.391 45.6131V45.645C787.391 48.8868 787.1 52.1089 785.644 56.218C780.132 71.7195 765.98 81.7031 750.336 82.4227C748.108 77.2072 747.267 71.1493 747.554 65.3597Z" fill="#E4E4E4" stroke="#E2E2E2"/>
<path d="M790.055 4C790.055 118.667 790.055 233.333 790.055 348Z" fill="#E4E4E4"/>
<path d="M790.055 4C790.055 118.667 790.055 233.333 790.055 348" stroke="#E2E2E2" stroke-width="6.94" stroke-miterlimit="10" stroke-linecap="round"/>
<path d="M897.486 98.1189C892.16 83.5006 878.844 74.5506 864.64 73.954C862.569 79.0256 861.681 84.3956 861.977 90.0639C861.977 90.3622 862.273 95.1356 864.048 99.9089C869.375 115.422 885.65 123.775 886.538 124.074C889.201 125.267 893.048 127.057 898.078 127.952C899.262 123.179 900.445 116.317 899.558 107.666C898.966 104.981 898.67 101.997 897.486 98.1189Z" fill="#D2D2D2"/>
<path d="M901.629 69.7773C906.66 55.159 919.976 46.2091 934.476 45.6124C936.547 50.6841 937.435 56.054 937.139 61.7223C937.139 62.0207 936.843 66.794 935.067 71.5673C929.741 87.0806 913.466 95.4339 912.578 95.7323C909.915 96.9256 906.068 98.7156 901.037 99.6106C899.854 94.8373 898.67 87.9756 899.558 79.324C899.854 76.9373 900.15 73.6557 901.629 69.7773Z" fill="#D2D2D2"/>
<path d="M895.12 190.602C890.089 175.984 876.773 167.034 862.273 166.437C860.202 171.509 859.314 176.878 859.61 182.547C859.61 182.845 859.906 187.618 861.681 192.392C867.008 207.905 883.283 216.258 884.171 216.557C886.834 217.75 890.681 219.54 895.711 220.435C896.895 215.662 898.079 208.8 897.191 200.148C896.895 197.463 896.599 194.48 895.12 190.602Z" fill="#D2D2D2"/>
<path d="M902.517 204.027C907.548 189.409 920.864 180.459 935.364 179.862C937.435 184.934 938.323 190.304 938.027 195.972C938.027 196.27 937.731 201.044 935.956 205.817C930.629 221.33 914.354 229.683 913.466 229.982C910.803 231.175 906.956 232.965 901.926 233.86C900.742 229.087 899.558 222.225 900.446 213.573C900.742 211.187 901.038 207.905 902.517 204.027Z" fill="#D2D2D2"/>
<path d="M896.895 280.698C891.272 264.887 876.773 254.743 860.793 254.147C858.426 259.517 857.538 265.782 857.834 271.748C857.834 272.047 858.13 277.417 859.906 282.488C865.824 299.493 883.875 308.742 884.762 309.04C887.722 310.532 891.864 312.322 897.191 313.515C898.374 308.443 899.854 300.687 898.67 291.438C898.966 288.157 898.374 284.875 896.895 280.698Z" fill="#D2D2D2"/>
<path d="M904.885 295.615C910.507 279.803 925.007 269.66 940.986 269.063C943.353 274.433 944.241 280.698 943.945 286.665C943.945 286.963 943.649 292.333 941.874 297.405C935.955 314.41 917.905 323.658 917.017 323.957C914.058 325.448 909.915 327.238 904.589 328.432C903.405 323.36 901.925 315.603 903.109 306.355C903.109 303.073 903.405 299.792 904.885 295.615Z" fill="#D2D2D2"/>
<path d="M900.945 348C900.945 233.333 900.945 118.667 900.945 4.00001" stroke="#D2D2D2" stroke-width="6.94" stroke-miterlimit="10" stroke-linecap="round"/>
<rect x="1.00098" y="565.394" width="1127" height="177" rx="13" fill="white" stroke="#CECECE" stroke-width="2"/>
<path d="M65.326 642.742C63.7793 642.742 62.3486 642.461 61.034 641.901C59.7193 641.34 58.569 640.557 57.583 639.552C56.597 638.546 55.8236 637.367 55.263 636.014C54.7216 634.66 54.451 633.181 54.451 631.577C54.451 629.972 54.712 628.493 55.234 627.14C55.7753 625.767 56.5293 624.588 57.496 623.602C58.482 622.596 59.6323 621.823 60.947 621.282C62.2616 620.721 63.6923 620.441 65.239 620.441C66.7856 620.441 68.168 620.702 69.386 621.224C70.6233 621.746 71.6673 622.442 72.518 623.312C73.3686 624.162 73.9776 625.1 74.345 626.125L70.836 627.807C70.43 626.685 69.7436 625.777 68.777 625.081C67.8103 624.385 66.631 624.037 65.239 624.037C63.8856 624.037 62.687 624.356 61.643 624.994C60.6183 625.632 59.816 626.511 59.236 627.633C58.6753 628.754 58.395 630.069 58.395 631.577C58.395 633.085 58.685 634.409 59.265 635.55C59.8643 636.671 60.686 637.551 61.73 638.189C62.774 638.827 63.9726 639.146 65.326 639.146C66.428 639.146 67.443 638.933 68.371 638.508C69.299 638.063 70.0433 637.444 70.604 636.652C71.1646 635.84 71.445 634.883 71.445 633.781V632.128L73.243 633.694H65.239V630.359H75.389V632.534C75.389 634.196 75.1086 635.666 74.548 636.942C73.9873 638.218 73.2236 639.291 72.257 640.161C71.3096 641.011 70.2366 641.659 69.038 642.104C67.8393 642.529 66.602 642.742 65.326 642.742ZM85.9049 642.742C84.3582 642.742 82.9469 642.384 81.6709 641.669C80.4142 640.953 79.4089 639.977 78.6549 638.74C77.9202 637.502 77.5529 636.091 77.5529 634.506C77.5529 632.92 77.9202 631.509 78.6549 630.272C79.4089 629.034 80.4142 628.058 81.6709 627.343C82.9275 626.627 84.3389 626.27 85.9049 626.27C87.4515 626.27 88.8532 626.627 90.1099 627.343C91.3665 628.058 92.3622 629.034 93.0969 630.272C93.8509 631.49 94.2279 632.901 94.2279 634.506C94.2279 636.091 93.8509 637.502 93.0969 638.74C92.3429 639.977 91.3375 640.953 90.0809 641.669C88.8242 642.384 87.4322 642.742 85.9049 642.742ZM85.9049 639.262C86.7555 639.262 87.4999 639.059 88.1379 638.653C88.7952 638.247 89.3075 637.686 89.6749 636.971C90.0615 636.236 90.2549 635.414 90.2549 634.506C90.2549 633.578 90.0615 632.766 89.6749 632.07C89.3075 631.354 88.7952 630.794 88.1379 630.388C87.4999 629.962 86.7555 629.75 85.9049 629.75C85.0349 629.75 84.2712 629.962 83.6139 630.388C82.9565 630.794 82.4345 631.354 82.0479 632.07C81.6805 632.766 81.4969 633.578 81.4969 634.506C81.4969 635.414 81.6805 636.236 82.0479 636.971C82.4345 637.686 82.9565 638.247 83.6139 638.653C84.2712 639.059 85.0349 639.262 85.9049 639.262ZM101.894 642.742C100.792 642.742 99.8348 642.558 99.0228 642.191C98.2108 641.823 97.5825 641.301 97.1378 640.625C96.6932 639.929 96.4708 639.126 96.4708 638.218C96.4708 637.348 96.6642 636.574 97.0508 635.898C97.4375 635.202 98.0368 634.622 98.8488 634.158C99.6608 633.694 100.686 633.365 101.923 633.172L107.085 632.331V635.231L102.648 635.985C101.894 636.12 101.333 636.362 100.966 636.71C100.599 637.058 100.415 637.512 100.415 638.073C100.415 638.614 100.618 639.049 101.024 639.378C101.449 639.687 101.971 639.842 102.59 639.842C103.383 639.842 104.079 639.677 104.678 639.349C105.297 639.001 105.77 638.527 106.099 637.928C106.447 637.328 106.621 636.671 106.621 635.956V631.896C106.621 631.219 106.35 630.658 105.809 630.214C105.287 629.75 104.591 629.518 103.721 629.518C102.909 629.518 102.184 629.74 101.546 630.185C100.927 630.61 100.473 631.18 100.183 631.896L97.0798 630.388C97.3892 629.556 97.8725 628.841 98.5298 628.242C99.2065 627.623 99.9992 627.14 100.908 626.792C101.817 626.444 102.803 626.27 103.866 626.27C105.161 626.27 106.302 626.511 107.288 626.995C108.274 627.459 109.038 628.116 109.579 628.967C110.14 629.798 110.42 630.774 110.42 631.896V642.394H106.824V639.697L107.636 639.639C107.23 640.315 106.747 640.886 106.186 641.35C105.625 641.794 104.987 642.142 104.272 642.394C103.557 642.626 102.764 642.742 101.894 642.742ZM113.931 642.394V620.441H117.73V642.394H113.931ZM134.106 642.742C132.559 642.742 131.148 642.384 129.872 641.669C128.615 640.953 127.61 639.977 126.856 638.74C126.121 637.502 125.754 636.091 125.754 634.506C125.754 632.92 126.121 631.509 126.856 630.272C127.61 629.034 128.615 628.058 129.872 627.343C131.129 626.627 132.54 626.27 134.106 626.27C135.653 626.27 137.054 626.627 138.311 627.343C139.568 628.058 140.563 629.034 141.298 630.272C142.052 631.49 142.429 632.901 142.429 634.506C142.429 636.091 142.052 637.502 141.298 638.74C140.544 639.977 139.539 640.953 138.282 641.669C137.025 642.384 135.633 642.742 134.106 642.742ZM134.106 639.262C134.957 639.262 135.701 639.059 136.339 638.653C136.996 638.247 137.509 637.686 137.876 636.971C138.263 636.236 138.456 635.414 138.456 634.506C138.456 633.578 138.263 632.766 137.876 632.07C137.509 631.354 136.996 630.794 136.339 630.388C135.701 629.962 134.957 629.75 134.106 629.75C133.236 629.75 132.472 629.962 131.815 630.388C131.158 630.794 130.636 631.354 130.249 632.07C129.882 632.766 129.698 633.578 129.698 634.506C129.698 635.414 129.882 636.236 130.249 636.971C130.636 637.686 131.158 638.247 131.815 638.653C132.472 639.059 133.236 639.262 134.106 639.262ZM146.797 642.394V630.011H144.013V626.618H146.797V626.096C146.797 624.897 147.039 623.882 147.522 623.051C148.025 622.2 148.721 621.552 149.61 621.108C150.5 620.663 151.553 620.441 152.771 620.441C153.003 620.441 153.255 620.46 153.525 620.499C153.815 620.518 154.057 620.547 154.25 620.586V623.863C154.057 623.824 153.873 623.805 153.699 623.805C153.545 623.785 153.4 623.776 153.264 623.776C152.414 623.776 151.756 623.969 151.292 624.356C150.828 624.723 150.596 625.303 150.596 626.096V626.618H154.105V630.011H150.596V642.394H146.797ZM169.098 642.568C167.319 642.568 165.937 642.084 164.951 641.118C163.984 640.132 163.501 638.749 163.501 636.971V630.011H160.775V626.618H161.065C161.838 626.618 162.437 626.415 162.863 626.009C163.288 625.603 163.501 625.013 163.501 624.24V623.022H167.3V626.618H170.925V630.011H167.3V636.768C167.3 637.29 167.387 637.734 167.561 638.102C167.754 638.469 168.044 638.749 168.431 638.943C168.837 639.136 169.349 639.233 169.968 639.233C170.103 639.233 170.258 639.223 170.432 639.204C170.625 639.184 170.809 639.165 170.983 639.146V642.394C170.712 642.432 170.403 642.471 170.055 642.51C169.707 642.548 169.388 642.568 169.098 642.568ZM173.885 642.394V620.441H177.684V629.721L177.162 629.17C177.53 628.222 178.129 627.507 178.96 627.024C179.811 626.521 180.797 626.27 181.918 626.27C183.078 626.27 184.103 626.521 184.992 627.024C185.901 627.526 186.607 628.232 187.109 629.141C187.612 630.03 187.863 631.064 187.863 632.244V642.394H184.064V633.143C184.064 632.447 183.929 631.847 183.658 631.345C183.388 630.842 183.011 630.455 182.527 630.185C182.063 629.895 181.512 629.75 180.874 629.75C180.256 629.75 179.705 629.895 179.221 630.185C178.738 630.455 178.361 630.842 178.09 631.345C177.82 631.847 177.684 632.447 177.684 633.143V642.394H173.885ZM198.558 642.742C196.934 642.742 195.513 642.374 194.295 641.64C193.077 640.905 192.129 639.909 191.453 638.653C190.776 637.396 190.438 636.004 190.438 634.477C190.438 632.891 190.776 631.49 191.453 630.272C192.149 629.034 193.086 628.058 194.266 627.343C195.464 626.627 196.798 626.27 198.268 626.27C199.505 626.27 200.588 626.473 201.516 626.879C202.463 627.285 203.265 627.845 203.923 628.561C204.58 629.276 205.083 630.098 205.431 631.026C205.779 631.934 205.953 632.92 205.953 633.984C205.953 634.254 205.933 634.535 205.895 634.825C205.875 635.115 205.827 635.366 205.75 635.579H193.57V632.679H203.604L201.806 634.042C201.98 633.152 201.931 632.36 201.661 631.664C201.409 630.968 200.984 630.417 200.385 630.011C199.805 629.605 199.099 629.402 198.268 629.402C197.475 629.402 196.769 629.605 196.151 630.011C195.532 630.397 195.058 630.977 194.73 631.751C194.42 632.505 194.304 633.423 194.382 634.506C194.304 635.472 194.43 636.333 194.759 637.087C195.107 637.821 195.609 638.392 196.267 638.798C196.943 639.204 197.717 639.407 198.587 639.407C199.457 639.407 200.191 639.223 200.791 638.856C201.409 638.488 201.893 637.995 202.241 637.377L205.315 638.885C205.005 639.639 204.522 640.306 203.865 640.886C203.207 641.466 202.424 641.92 201.516 642.249C200.626 642.577 199.64 642.742 198.558 642.742ZM214.306 642.394V620.789H221.353C223.634 620.789 225.616 621.253 227.298 622.181C228.999 623.089 230.314 624.356 231.242 625.98C232.17 627.584 232.634 629.45 232.634 631.577C232.634 633.684 232.17 635.559 231.242 637.203C230.314 638.827 228.999 640.103 227.298 641.031C225.616 641.939 223.634 642.394 221.353 642.394H214.306ZM218.25 638.914H221.44C222.909 638.914 224.175 638.614 225.239 638.015C226.321 637.396 227.162 636.545 227.762 635.463C228.361 634.361 228.661 633.065 228.661 631.577C228.661 630.069 228.361 628.773 227.762 627.691C227.162 626.608 226.321 625.767 225.239 625.168C224.175 624.568 222.909 624.269 221.44 624.269H218.25V638.914ZM240.182 642.742C239.08 642.742 238.123 642.558 237.311 642.191C236.499 641.823 235.871 641.301 235.426 640.625C234.981 639.929 234.759 639.126 234.759 638.218C234.759 637.348 234.952 636.574 235.339 635.898C235.726 635.202 236.325 634.622 237.137 634.158C237.949 633.694 238.974 633.365 240.211 633.172L245.373 632.331V635.231L240.936 635.985C240.182 636.12 239.621 636.362 239.254 636.71C238.887 637.058 238.703 637.512 238.703 638.073C238.703 638.614 238.906 639.049 239.312 639.378C239.737 639.687 240.259 639.842 240.878 639.842C241.671 639.842 242.367 639.677 242.966 639.349C243.585 639.001 244.058 638.527 244.387 637.928C244.735 637.328 244.909 636.671 244.909 635.956V631.896C244.909 631.219 244.638 630.658 244.097 630.214C243.575 629.75 242.879 629.518 242.009 629.518C241.197 629.518 240.472 629.74 239.834 630.185C239.215 630.61 238.761 631.18 238.471 631.896L235.368 630.388C235.677 629.556 236.161 628.841 236.818 628.242C237.495 627.623 238.287 627.14 239.196 626.792C240.105 626.444 241.091 626.27 242.154 626.27C243.449 626.27 244.59 626.511 245.576 626.995C246.562 627.459 247.326 628.116 247.867 628.967C248.428 629.798 248.708 630.774 248.708 631.896V642.394H245.112V639.697L245.924 639.639C245.518 640.315 245.035 640.886 244.474 641.35C243.913 641.794 243.275 642.142 242.56 642.394C241.845 642.626 241.052 642.742 240.182 642.742ZM254.133 648.803C253.708 648.803 253.292 648.764 252.886 648.687C252.48 648.629 252.113 648.522 251.784 648.368V645.178C252.036 645.236 252.335 645.294 252.683 645.352C253.051 645.41 253.389 645.439 253.698 645.439C254.568 645.439 255.197 645.236 255.583 644.83C255.989 644.424 256.347 643.892 256.656 643.235L257.7 640.799L257.642 643.989L250.769 626.618H254.858L259.672 639.436H258.222L263.007 626.618H267.125L260.252 643.989C259.846 645.013 259.353 645.883 258.773 646.599C258.193 647.314 257.517 647.855 256.743 648.223C255.989 648.609 255.119 648.803 254.133 648.803Z" fill="#0C0C0C"/>
<path d="M876.369 638.394V635.407L882.227 629.288C883.387 628.07 884.276 627.103 884.895 626.388C885.533 625.653 885.978 625.025 886.229 624.503C886.48 623.981 886.606 623.449 886.606 622.908C886.606 621.999 886.316 621.284 885.736 620.762C885.175 620.24 884.45 619.979 883.561 619.979C882.633 619.979 881.831 620.249 881.154 620.791C880.477 621.313 879.984 622.086 879.675 623.111L876.224 622.038C876.456 620.897 876.93 619.911 877.645 619.08C878.36 618.229 879.23 617.581 880.255 617.137C881.299 616.673 882.401 616.441 883.561 616.441C884.953 616.441 886.171 616.692 887.215 617.195C888.278 617.697 889.1 618.403 889.68 619.312C890.279 620.22 890.579 621.284 890.579 622.502C890.579 623.275 890.434 624.039 890.144 624.793C889.854 625.547 889.419 626.32 888.839 627.113C888.259 627.886 887.505 628.756 886.577 629.723L881.502 635.059H890.869V638.394H876.369ZM899.262 638.394V616.441H903.061V625.721L902.539 625.17C902.906 624.222 903.506 623.507 904.337 623.024C905.188 622.521 906.174 622.27 907.295 622.27C908.455 622.27 909.48 622.521 910.369 623.024C911.278 623.526 911.983 624.232 912.486 625.141C912.989 626.03 913.24 627.064 913.24 628.244V638.394H909.441V629.143C909.441 628.447 909.306 627.847 909.035 627.345C908.764 626.842 908.387 626.455 907.904 626.185C907.44 625.895 906.889 625.75 906.251 625.75C905.632 625.75 905.081 625.895 904.598 626.185C904.115 626.455 903.738 626.842 903.467 627.345C903.196 627.847 903.061 628.447 903.061 629.143V638.394H899.262ZM924.166 638.742C922.62 638.742 921.208 638.384 919.932 637.669C918.676 636.953 917.67 635.977 916.916 634.74C916.182 633.502 915.814 632.091 915.814 630.506C915.814 628.92 916.182 627.509 916.916 626.272C917.67 625.034 918.676 624.058 919.932 623.343C921.189 622.627 922.6 622.27 924.166 622.27C925.713 622.27 927.115 622.627 928.371 623.343C929.628 624.058 930.624 625.034 931.358 626.272C932.112 627.49 932.489 628.901 932.489 630.506C932.489 632.091 932.112 633.502 931.358 634.74C930.604 635.977 929.599 636.953 928.342 637.669C927.086 638.384 925.694 638.742 924.166 638.742ZM924.166 635.262C925.017 635.262 925.761 635.059 926.399 634.653C927.057 634.247 927.569 633.686 927.936 632.971C928.323 632.236 928.516 631.414 928.516 630.506C928.516 629.578 928.323 628.766 927.936 628.07C927.569 627.354 927.057 626.794 926.399 626.388C925.761 625.962 925.017 625.75 924.166 625.75C923.296 625.75 922.533 625.962 921.875 626.388C921.218 626.794 920.696 627.354 920.309 628.07C919.942 628.766 919.758 629.578 919.758 630.506C919.758 631.414 919.942 632.236 920.309 632.971C920.696 633.686 921.218 634.247 921.875 634.653C922.533 635.059 923.296 635.262 924.166 635.262ZM940.996 638.742C939.778 638.742 938.715 638.471 937.806 637.93C936.917 637.388 936.231 636.634 935.747 635.668C935.283 634.701 935.051 633.57 935.051 632.275V622.618H938.85V631.956C938.85 632.613 938.976 633.193 939.227 633.696C939.498 634.179 939.875 634.566 940.358 634.856C940.861 635.126 941.422 635.262 942.04 635.262C942.659 635.262 943.21 635.126 943.693 634.856C944.177 634.566 944.554 634.169 944.824 633.667C945.095 633.164 945.23 632.565 945.23 631.869V622.618H949.029V638.394H945.433V635.291L945.752 635.842C945.385 636.808 944.776 637.533 943.925 638.017C943.094 638.5 942.118 638.742 940.996 638.742ZM952.561 638.394V622.618H956.128V626.127L955.838 625.605C956.205 624.425 956.775 623.604 957.549 623.14C958.341 622.676 959.289 622.444 960.391 622.444H961.319V625.808H959.956C958.873 625.808 958.003 626.146 957.346 626.823C956.688 627.48 956.36 628.408 956.36 629.607V638.394H952.561ZM969.41 638.742C967.728 638.742 966.259 638.345 965.002 637.553C963.765 636.741 962.914 635.648 962.45 634.276L965.292 632.913C965.698 633.802 966.259 634.498 966.974 635.001C967.709 635.503 968.521 635.755 969.41 635.755C970.106 635.755 970.657 635.6 971.063 635.291C971.469 634.981 971.672 634.575 971.672 634.073C971.672 633.763 971.585 633.512 971.411 633.319C971.257 633.106 971.034 632.932 970.744 632.797C970.474 632.642 970.174 632.516 969.845 632.42L967.264 631.695C965.93 631.308 964.915 630.718 964.219 629.926C963.543 629.133 963.204 628.195 963.204 627.113C963.204 626.146 963.446 625.305 963.929 624.59C964.432 623.855 965.118 623.285 965.988 622.879C966.878 622.473 967.893 622.27 969.033 622.27C970.522 622.27 971.837 622.627 972.977 623.343C974.118 624.058 974.93 625.063 975.413 626.359L972.513 627.722C972.243 627.006 971.788 626.436 971.15 626.011C970.512 625.585 969.797 625.373 969.004 625.373C968.366 625.373 967.864 625.518 967.496 625.808C967.129 626.098 966.945 626.475 966.945 626.939C966.945 627.229 967.023 627.48 967.177 627.693C967.332 627.905 967.545 628.079 967.815 628.215C968.105 628.35 968.434 628.476 968.801 628.592L971.324 629.346C972.62 629.732 973.615 630.312 974.311 631.086C975.027 631.859 975.384 632.806 975.384 633.928C975.384 634.875 975.133 635.716 974.63 636.451C974.128 637.166 973.432 637.727 972.542 638.133C971.653 638.539 970.609 638.742 969.41 638.742ZM983.458 638.394V622.618H987.257V638.394H983.458ZM983.458 620.849V616.789H987.257V620.849H983.458ZM990.765 638.394V622.618H994.332V625.721L994.042 625.17C994.409 624.222 995.009 623.507 995.84 623.024C996.691 622.521 997.677 622.27 998.798 622.27C999.958 622.27 1000.98 622.521 1001.87 623.024C1002.78 623.526 1003.49 624.232 1003.99 625.141C1004.49 626.03 1004.74 627.064 1004.74 628.244V638.394H1000.94V629.143C1000.94 628.447 1000.81 627.847 1000.54 627.345C1000.27 626.842 999.89 626.455 999.407 626.185C998.943 625.895 998.392 625.75 997.754 625.75C997.135 625.75 996.584 625.895 996.101 626.185C995.618 626.455 995.241 626.842 994.97 627.345C994.699 627.847 994.564 628.447 994.564 629.143V638.394H990.765ZM1017.26 638.394V620.269H1011.66V616.789H1026.74V620.269H1021.23V638.394H1017.26ZM1031.88 638.742C1030.78 638.742 1029.83 638.558 1029.01 638.191C1028.2 637.823 1027.57 637.301 1027.13 636.625C1026.68 635.929 1026.46 635.126 1026.46 634.218C1026.46 633.348 1026.66 632.574 1027.04 631.898C1027.43 631.202 1028.03 630.622 1028.84 630.158C1029.65 629.694 1030.68 629.365 1031.91 629.172L1037.08 628.331V631.231L1032.64 631.985C1031.88 632.12 1031.32 632.362 1030.96 632.71C1030.59 633.058 1030.41 633.512 1030.41 634.073C1030.41 634.614 1030.61 635.049 1031.01 635.378C1031.44 635.687 1031.96 635.842 1032.58 635.842C1033.37 635.842 1034.07 635.677 1034.67 635.349C1035.29 635.001 1035.76 634.527 1036.09 633.928C1036.44 633.328 1036.61 632.671 1036.61 631.956V627.896C1036.61 627.219 1036.34 626.658 1035.8 626.214C1035.28 625.75 1034.58 625.518 1033.71 625.518C1032.9 625.518 1032.17 625.74 1031.54 626.185C1030.92 626.61 1030.46 627.18 1030.17 627.896L1027.07 626.388C1027.38 625.556 1027.86 624.841 1028.52 624.242C1029.2 623.623 1029.99 623.14 1030.9 622.792C1031.81 622.444 1032.79 622.27 1033.86 622.27C1035.15 622.27 1036.29 622.511 1037.28 622.995C1038.26 623.459 1039.03 624.116 1039.57 624.967C1040.13 625.798 1040.41 626.774 1040.41 627.896V638.394H1036.81V635.697L1037.63 635.639C1037.22 636.315 1036.74 636.886 1036.18 637.35C1035.62 637.794 1034.98 638.142 1034.26 638.394C1033.55 638.626 1032.75 638.742 1031.88 638.742ZM1049.93 638.742C1048.24 638.742 1046.77 638.345 1045.52 637.553C1044.28 636.741 1043.43 635.648 1042.97 634.276L1045.81 632.913C1046.21 633.802 1046.77 634.498 1047.49 635.001C1048.22 635.503 1049.04 635.755 1049.93 635.755C1050.62 635.755 1051.17 635.6 1051.58 635.291C1051.98 634.981 1052.19 634.575 1052.19 634.073C1052.19 633.763 1052.1 633.512 1051.93 633.319C1051.77 633.106 1051.55 632.932 1051.26 632.797C1050.99 632.642 1050.69 632.516 1050.36 632.42L1047.78 631.695C1046.45 631.308 1045.43 630.718 1044.73 629.926C1044.06 629.133 1043.72 628.195 1043.72 627.113C1043.72 626.146 1043.96 625.305 1044.44 624.59C1044.95 623.855 1045.63 623.285 1046.5 622.879C1047.39 622.473 1048.41 622.27 1049.55 622.27C1051.04 622.27 1052.35 622.627 1053.49 623.343C1054.63 624.058 1055.44 625.063 1055.93 626.359L1053.03 627.722C1052.76 627.006 1052.3 626.436 1051.67 626.011C1051.03 625.585 1050.31 625.373 1049.52 625.373C1048.88 625.373 1048.38 625.518 1048.01 625.808C1047.64 626.098 1047.46 626.475 1047.46 626.939C1047.46 627.229 1047.54 627.48 1047.69 627.693C1047.85 627.905 1048.06 628.079 1048.33 628.215C1048.62 628.35 1048.95 628.476 1049.32 628.592L1051.84 629.346C1053.13 629.732 1054.13 630.312 1054.83 631.086C1055.54 631.859 1055.9 632.806 1055.9 633.928C1055.9 634.875 1055.65 635.716 1055.15 636.451C1054.64 637.166 1053.95 637.727 1053.06 638.133C1052.17 638.539 1051.12 638.742 1049.93 638.742ZM1058.82 638.394V616.441H1062.62V630.825L1061.17 630.39L1068.59 622.618H1073.32L1067.49 628.969L1073.43 638.394H1069.08L1063.92 630.216L1066.18 629.752L1061.43 634.856L1062.62 632.536V638.394H1058.82ZM1081.56 638.742C1079.88 638.742 1078.41 638.345 1077.15 637.553C1075.91 636.741 1075.06 635.648 1074.6 634.276L1077.44 632.913C1077.85 633.802 1078.41 634.498 1079.12 635.001C1079.86 635.503 1080.67 635.755 1081.56 635.755C1082.25 635.755 1082.81 635.6 1083.21 635.291C1083.62 634.981 1083.82 634.575 1083.82 634.073C1083.82 633.763 1083.73 633.512 1083.56 633.319C1083.41 633.106 1083.18 632.932 1082.89 632.797C1082.62 632.642 1082.32 632.516 1081.99 632.42L1079.41 631.695C1078.08 631.308 1077.06 630.718 1076.37 629.926C1075.69 629.133 1075.35 628.195 1075.35 627.113C1075.35 626.146 1075.59 625.305 1076.08 624.59C1076.58 623.855 1077.27 623.285 1078.14 622.879C1079.03 622.473 1080.04 622.27 1081.18 622.27C1082.67 622.27 1083.99 622.627 1085.13 623.343C1086.27 624.058 1087.08 625.063 1087.56 626.359L1084.66 627.722C1084.39 627.006 1083.94 626.436 1083.3 626.011C1082.66 625.585 1081.95 625.373 1081.15 625.373C1080.51 625.373 1080.01 625.518 1079.64 625.808C1079.28 626.098 1079.09 626.475 1079.09 626.939C1079.09 627.229 1079.17 627.48 1079.33 627.693C1079.48 627.905 1079.69 628.079 1079.96 628.215C1080.25 628.35 1080.58 628.476 1080.95 628.592L1083.47 629.346C1084.77 629.732 1085.76 630.312 1086.46 631.086C1087.18 631.859 1087.53 632.806 1087.53 633.928C1087.53 634.875 1087.28 635.716 1086.78 636.451C1086.28 637.166 1085.58 637.727 1084.69 638.133C1083.8 638.539 1082.76 638.742 1081.56 638.742Z" fill="#B6B6B6"/>
<path d="M63.001 683.478C63.001 677.955 67.4781 673.394 73.001 673.394H1071C1076.52 673.394 1081 677.955 1081 683.478V683.478C1081 689.001 1076.52 693.563 1071 693.563H73.001C67.4781 693.563 63.001 689.001 63.001 683.478V683.478Z" fill="#E7E7E7"/>
<path d="M64.6567 683.478C64.6567 677.909 69.1717 673.394 74.7412 673.394H617.369C622.938 673.394 627.453 677.909 627.453 683.478V683.478C627.453 689.048 622.938 693.563 617.369 693.563H74.7413C69.1717 693.563 64.6567 689.048 64.6567 683.478V683.478Z" fill="url(#paint0_linear_866_1535)"/>
<path d="M65.001 683.394C65.001 677.871 69.4781 673.394 75.001 673.394H833.001C838.524 673.394 843.001 677.871 843.001 683.394V683.394C843.001 688.917 838.524 693.394 833.001 693.394H75.001C69.4781 693.394 65.001 688.917 65.001 683.394V683.394Z" fill="url(#paint1_linear_866_1535)"/>
<mask id="path-56-inside-1_866_1535" fill="white">
<path d="M275.001 329.394H1129V513.394C1129 521.126 1122.73 527.394 1115 527.394H289.001C281.269 527.394 275.001 521.126 275.001 513.394V329.394Z"/>
</mask>
<path d="M275.001 329.394H1129V513.394C1129 521.126 1122.73 527.394 1115 527.394H289.001C281.269 527.394 275.001 521.126 275.001 513.394V329.394Z" fill="white"/>
<path d="M275.001 329.394H1129H275.001ZM1131 513.394C1131 522.23 1123.84 529.394 1115 529.394H289.001C280.164 529.394 273.001 522.23 273.001 513.394H277.001C277.001 520.021 282.374 525.394 289.001 525.394H1115C1121.63 525.394 1127 520.021 1127 513.394H1131ZM289.001 529.394C280.164 529.394 273.001 522.23 273.001 513.394V329.394H277.001V513.394C277.001 520.021 282.374 525.394 289.001 525.394V529.394ZM1131 329.394V513.394C1131 522.23 1123.84 529.394 1115 529.394V525.394C1121.63 525.394 1127 520.021 1127 513.394V329.394H1131Z" fill="#CECECE" mask="url(#path-56-inside-1_866_1535)"/>
<path d="M1128 328.394L276.001 328.394L276.001 255.394C276.001 248.214 281.821 242.394 289.001 242.394L1115 242.394C1122.18 242.394 1128 248.214 1128 255.394L1128 328.394Z" fill="#F8F8F8" stroke="#CECECE" stroke-width="2"/>
<path d="M978.051 297.394L972.251 275.789H976.485L981.038 294.204H979.936L984.692 275.789H988.781L993.508 294.204H992.406L996.959 275.789H1001.19L995.393 297.394H990.869L986.084 279.472H987.36L982.575 297.394H978.051ZM1009.81 297.742C1008.19 297.742 1006.77 297.374 1005.55 296.64C1004.33 295.905 1003.39 294.909 1002.71 293.653C1002.03 292.396 1001.69 291.004 1001.69 289.477C1001.69 287.891 1002.03 286.49 1002.71 285.272C1003.41 284.034 1004.34 283.058 1005.52 282.343C1006.72 281.627 1008.06 281.27 1009.52 281.27C1010.76 281.27 1011.84 281.473 1012.77 281.879C1013.72 282.285 1014.52 282.845 1015.18 283.561C1015.84 284.276 1016.34 285.098 1016.69 286.026C1017.04 286.934 1017.21 287.92 1017.21 288.984C1017.21 289.254 1017.19 289.535 1017.15 289.825C1017.13 290.115 1017.08 290.366 1017.01 290.579H1004.83V287.679H1014.86L1013.06 289.042C1013.24 288.152 1013.19 287.36 1012.92 286.664C1012.67 285.968 1012.24 285.417 1011.64 285.011C1011.06 284.605 1010.36 284.402 1009.52 284.402C1008.73 284.402 1008.03 284.605 1007.41 285.011C1006.79 285.397 1006.32 285.977 1005.99 286.751C1005.68 287.505 1005.56 288.423 1005.64 289.506C1005.56 290.472 1005.69 291.333 1006.02 292.087C1006.36 292.821 1006.87 293.392 1007.52 293.798C1008.2 294.204 1008.97 294.407 1009.84 294.407C1010.71 294.407 1011.45 294.223 1012.05 293.856C1012.67 293.488 1013.15 292.995 1013.5 292.377L1016.57 293.885C1016.26 294.639 1015.78 295.306 1015.12 295.886C1014.46 296.466 1013.68 296.92 1012.77 297.249C1011.88 297.577 1010.9 297.742 1009.81 297.742ZM1027.57 297.742C1025.95 297.742 1024.53 297.374 1023.31 296.64C1022.09 295.905 1021.14 294.909 1020.47 293.653C1019.79 292.396 1019.45 291.004 1019.45 289.477C1019.45 287.891 1019.79 286.49 1020.47 285.272C1021.16 284.034 1022.1 283.058 1023.28 282.343C1024.48 281.627 1025.81 281.27 1027.28 281.27C1028.52 281.27 1029.6 281.473 1030.53 281.879C1031.48 282.285 1032.28 282.845 1032.94 283.561C1033.59 284.276 1034.1 285.098 1034.44 286.026C1034.79 286.934 1034.97 287.92 1034.97 288.984C1034.97 289.254 1034.95 289.535 1034.91 289.825C1034.89 290.115 1034.84 290.366 1034.76 290.579H1022.58V287.679H1032.62L1030.82 289.042C1030.99 288.152 1030.94 287.36 1030.67 286.664C1030.42 285.968 1030 285.417 1029.4 285.011C1028.82 284.605 1028.11 284.402 1027.28 284.402C1026.49 284.402 1025.78 284.605 1025.16 285.011C1024.55 285.397 1024.07 285.977 1023.74 286.751C1023.43 287.505 1023.32 288.423 1023.4 289.506C1023.32 290.472 1023.44 291.333 1023.77 292.087C1024.12 292.821 1024.62 293.392 1025.28 293.798C1025.96 294.204 1026.73 294.407 1027.6 294.407C1028.47 294.407 1029.2 294.223 1029.8 293.856C1030.42 293.488 1030.91 292.995 1031.25 292.377L1034.33 293.885C1034.02 294.639 1033.54 295.306 1032.88 295.886C1032.22 296.466 1031.44 296.92 1030.53 297.249C1029.64 297.577 1028.65 297.742 1027.57 297.742ZM1037.85 297.394V275.441H1041.65V289.825L1040.2 289.39L1047.62 281.618H1052.35L1046.52 287.969L1052.46 297.394H1048.11L1042.95 289.216L1045.21 288.752L1040.46 293.856L1041.65 291.536V297.394H1037.85ZM1059.3 297.394V294.407L1065.16 288.288C1066.32 287.07 1067.21 286.103 1067.83 285.388C1068.47 284.653 1068.91 284.025 1069.16 283.503C1069.41 282.981 1069.54 282.449 1069.54 281.908C1069.54 280.999 1069.25 280.284 1068.67 279.762C1068.11 279.24 1067.38 278.979 1066.49 278.979C1065.57 278.979 1064.76 279.249 1064.09 279.791C1063.41 280.313 1062.92 281.086 1062.61 282.111L1059.16 281.038C1059.39 279.897 1059.86 278.911 1060.58 278.08C1061.29 277.229 1062.16 276.581 1063.19 276.137C1064.23 275.673 1065.33 275.441 1066.49 275.441C1067.89 275.441 1069.1 275.692 1070.15 276.195C1071.21 276.697 1072.03 277.403 1072.61 278.312C1073.21 279.22 1073.51 280.284 1073.51 281.502C1073.51 282.275 1073.37 283.039 1073.08 283.793C1072.79 284.547 1072.35 285.32 1071.77 286.113C1071.19 286.886 1070.44 287.756 1069.51 288.723L1064.44 294.059H1073.8V297.394H1059.3ZM1083.77 297.742C1082.59 297.742 1081.47 297.529 1080.41 297.104C1079.36 296.659 1078.46 296.04 1077.71 295.248C1076.97 294.436 1076.47 293.479 1076.2 292.377L1079.65 291.159C1080 292.145 1080.53 292.899 1081.25 293.421C1081.96 293.923 1082.8 294.175 1083.77 294.175C1084.54 294.175 1085.21 294.03 1085.77 293.74C1086.35 293.45 1086.8 293.034 1087.13 292.493C1087.46 291.932 1087.63 291.275 1087.63 290.521C1087.63 289.767 1087.46 289.129 1087.13 288.607C1086.82 288.065 1086.38 287.65 1085.8 287.36C1085.22 287.07 1084.53 286.925 1083.74 286.925C1083.37 286.925 1082.99 286.963 1082.58 287.041C1082.19 287.118 1081.85 287.234 1081.54 287.389L1080.64 285.504L1086.23 279.124H1077.42V275.789H1090.67V278.892L1085.05 285.475L1085.1 283.996C1086.4 284.015 1087.53 284.295 1088.5 284.837C1089.46 285.378 1090.22 286.122 1090.76 287.07C1091.3 288.017 1091.57 289.129 1091.57 290.405C1091.57 291.797 1091.23 293.053 1090.56 294.175C1089.88 295.277 1088.95 296.147 1087.77 296.785C1086.59 297.423 1085.26 297.742 1083.77 297.742Z" fill="#0C0C0C"/>
<mask id="path-60-inside-2_866_1535" fill="white">
<path d="M0.000976562 329.394H232.001V513.394C232.001 521.126 225.733 527.394 218.001 527.394H14.001C6.26899 527.394 0.000976562 521.126 0.000976562 513.394V329.394Z"/>
</mask>
<path d="M0.000976562 329.394H232.001V513.394C232.001 521.126 225.733 527.394 218.001 527.394H14.001C6.26899 527.394 0.000976562 521.126 0.000976562 513.394V329.394Z" fill="white"/>
<path d="M0.000976562 329.394H232.001H0.000976562ZM234.001 513.394C234.001 522.23 226.838 529.394 218.001 529.394H14.001C5.16442 529.394 -1.99902 522.23 -1.99902 513.394H2.00098C2.00098 520.021 7.37356 525.394 14.001 525.394H218.001C224.628 525.394 230.001 520.021 230.001 513.394H234.001ZM14.001 529.394C5.16442 529.394 -1.99902 522.23 -1.99902 513.394V329.394H2.00098V513.394C2.00098 520.021 7.37356 525.394 14.001 525.394V529.394ZM234.001 329.394V513.394C234.001 522.23 226.838 529.394 218.001 529.394V525.394C224.628 525.394 230.001 520.021 230.001 513.394V329.394H234.001Z" fill="#CECECE" mask="url(#path-60-inside-2_866_1535)"/>
<path d="M231.001 328.394L1.00098 328.394L1.00097 255.394C1.00097 248.214 6.82127 242.394 14.001 242.394L218.001 242.394C225.181 242.394 231.001 248.214 231.001 255.394L231.001 328.394Z" fill="#F8F8F8" stroke="#CECECE" stroke-width="2"/>
<path d="M77.4194 297.394V294.407L83.2774 288.288C84.4374 287.07 85.3268 286.103 85.9454 285.388C86.5834 284.653 87.0281 284.025 87.2794 283.503C87.5308 282.981 87.6564 282.449 87.6564 281.908C87.6564 280.999 87.3664 280.284 86.7864 279.762C86.2258 279.24 85.5008 278.979 84.6114 278.979C83.6834 278.979 82.8811 279.249 82.2044 279.791C81.5278 280.313 81.0348 281.086 80.7254 282.111L77.2744 281.038C77.5064 279.897 77.9801 278.911 78.6954 278.08C79.4108 277.229 80.2808 276.581 81.3054 276.137C82.3494 275.673 83.4514 275.441 84.6114 275.441C86.0034 275.441 87.2214 275.692 88.2654 276.195C89.3288 276.697 90.1504 277.403 90.7304 278.312C91.3298 279.22 91.6294 280.284 91.6294 281.502C91.6294 282.275 91.4844 283.039 91.1945 283.793C90.9045 284.547 90.4695 285.32 89.8894 286.113C89.3094 286.886 88.5554 287.756 87.6275 288.723L82.5524 294.059H91.9194V297.394H77.4194ZM103.655 297.742C101.934 297.742 100.426 297.278 99.1312 296.35C97.8358 295.422 96.8208 294.117 96.0862 292.435C95.3708 290.753 95.0132 288.8 95.0132 286.577C95.0132 284.334 95.3708 282.381 96.0862 280.719C96.8015 279.056 97.8068 277.761 99.1022 276.833C100.397 275.905 101.905 275.441 103.626 275.441C105.385 275.441 106.903 275.905 108.179 276.833C109.474 277.761 110.489 279.066 111.224 280.748C111.959 282.41 112.326 284.353 112.326 286.577C112.326 288.8 111.959 290.753 111.224 292.435C110.509 294.097 109.503 295.402 108.208 296.35C106.913 297.278 105.395 297.742 103.655 297.742ZM103.684 294.146C104.67 294.146 105.511 293.846 106.207 293.247C106.903 292.628 107.435 291.758 107.802 290.637C108.189 289.496 108.382 288.143 108.382 286.577C108.382 285.011 108.189 283.667 107.802 282.546C107.435 281.405 106.893 280.535 106.178 279.936C105.482 279.336 104.631 279.037 103.626 279.037C102.659 279.037 101.828 279.336 101.132 279.936C100.436 280.535 99.8948 281.405 99.5082 282.546C99.1408 283.667 98.9572 285.011 98.9572 286.577C98.9572 288.123 99.1408 289.467 99.5082 290.608C99.8948 291.729 100.436 292.599 101.132 293.218C101.847 293.836 102.698 294.146 103.684 294.146ZM115.255 297.394V294.407L121.113 288.288C122.273 287.07 123.163 286.103 123.781 285.388C124.419 284.653 124.864 284.025 125.115 283.503C125.367 282.981 125.492 282.449 125.492 281.908C125.492 280.999 125.202 280.284 124.622 279.762C124.062 279.24 123.337 278.979 122.447 278.979C121.519 278.979 120.717 279.249 120.04 279.791C119.364 280.313 118.871 281.086 118.561 282.111L115.11 281.038C115.342 279.897 115.816 278.911 116.531 278.08C117.247 277.229 118.117 276.581 119.141 276.137C120.185 275.673 121.287 275.441 122.447 275.441C123.839 275.441 125.057 275.692 126.101 276.195C127.165 276.697 127.986 277.403 128.566 278.312C129.166 279.22 129.465 280.284 129.465 281.502C129.465 282.275 129.32 283.039 129.03 283.793C128.74 284.547 128.305 285.32 127.725 286.113C127.145 286.886 126.391 287.756 125.463 288.723L120.388 294.059H129.755V297.394H115.255ZM141.904 297.394V292.638H131.986V289.332L141.672 275.789H145.79V289.332H148.951V292.638H145.79V297.394H141.904ZM134.886 290.753L134.19 289.332H141.904V278.892L142.919 279.211L134.886 290.753Z" fill="#0C0C0C"/>
<path d="M79.394 485.626C78.0986 485.626 76.958 485.374 75.972 484.872C75.0053 484.369 74.2513 483.663 73.71 482.755C73.1686 481.846 72.898 480.792 72.898 479.594V477.68C72.898 477.583 72.927 477.506 72.985 477.448C73.0623 477.37 73.1493 477.332 73.246 477.332H76.639C76.7356 477.332 76.813 477.37 76.871 477.448C76.9483 477.506 76.987 477.583 76.987 477.68V479.623C76.987 480.377 77.1996 480.986 77.625 481.45C78.0696 481.894 78.6593 482.117 79.394 482.117C80.1093 482.117 80.6893 481.885 81.134 481.421C81.598 480.957 81.83 480.357 81.83 479.623V465.442C81.83 465.345 81.859 465.268 81.917 465.21C81.9943 465.132 82.0813 465.094 82.178 465.094H85.571C85.6676 465.094 85.745 465.132 85.803 465.21C85.8803 465.268 85.919 465.345 85.919 465.442V479.594C85.919 480.792 85.6483 481.846 85.107 482.755C84.5656 483.663 83.7923 484.369 82.787 484.872C81.801 485.374 80.67 485.626 79.394 485.626ZM102.147 485.626C100.832 485.626 99.6721 485.355 98.6667 484.814C97.6614 484.272 96.8784 483.518 96.3177 482.552C95.7764 481.566 95.5057 480.435 95.5057 479.159V465.442C95.5057 465.345 95.5347 465.268 95.5927 465.21C95.6701 465.132 95.7571 465.094 95.8537 465.094H99.2467C99.3434 465.094 99.4207 465.132 99.4787 465.21C99.5561 465.268 99.5947 465.345 99.5947 465.442V479.362C99.5947 480.193 99.8267 480.86 100.291 481.363C100.755 481.865 101.373 482.117 102.147 482.117C102.92 482.117 103.539 481.865 104.003 481.363C104.467 480.86 104.699 480.193 104.699 479.362V465.442C104.699 465.345 104.728 465.268 104.786 465.21C104.863 465.132 104.95 465.094 105.047 465.094H108.44C108.536 465.094 108.614 465.132 108.672 465.21C108.749 465.268 108.788 465.345 108.788 465.442V479.159C108.788 480.435 108.507 481.566 107.947 482.552C107.405 483.518 106.632 484.272 105.627 484.814C104.621 485.355 103.461 485.626 102.147 485.626ZM118.726 485.394C118.63 485.394 118.543 485.365 118.465 485.307C118.407 485.229 118.378 485.142 118.378 485.046V465.442C118.378 465.345 118.407 465.268 118.465 465.21C118.543 465.132 118.63 465.094 118.726 465.094H122.119C122.216 465.094 122.293 465.132 122.351 465.21C122.429 465.268 122.467 465.345 122.467 465.442V481.74C122.467 481.836 122.516 481.885 122.612 481.885H130.384C130.481 481.885 130.558 481.923 130.616 482.001C130.694 482.059 130.732 482.136 130.732 482.233V485.046C130.732 485.142 130.694 485.229 130.616 485.307C130.558 485.365 130.481 485.394 130.384 485.394H118.726ZM142.943 485.365C142.846 485.365 142.759 485.336 142.682 485.278C142.624 485.2 142.595 485.113 142.595 485.017V477.593L142.566 477.419L137.549 465.5C137.53 465.461 137.52 465.403 137.52 465.326C137.52 465.171 137.617 465.094 137.81 465.094H141.464C141.677 465.094 141.812 465.19 141.87 465.384L144.567 472.721C144.586 472.779 144.615 472.808 144.654 472.808C144.693 472.808 144.722 472.779 144.741 472.721L147.438 465.384C147.496 465.19 147.631 465.094 147.844 465.094H151.498C151.633 465.094 151.72 465.132 151.759 465.21C151.798 465.287 151.798 465.384 151.759 465.5L146.713 477.419L146.684 477.593V485.017C146.684 485.113 146.645 485.2 146.568 485.278C146.51 485.336 146.433 485.365 146.336 485.365H142.943Z" fill="#0C0C0C"/>
<path d="M92.2275 444.394C91.7475 444.394 91.3875 444.274 91.1475 444.034C90.9075 443.714 90.8675 443.274 91.0275 442.714L113.348 378.154C113.508 377.674 113.348 377.434 112.868 377.434H98.3475C97.9475 377.434 97.7475 377.634 97.7475 378.034V382.834C97.7475 383.234 97.5875 383.594 97.2675 383.914C97.0275 384.154 96.7075 384.274 96.3075 384.274H83.1075C82.7075 384.274 82.3475 384.154 82.0275 383.914C81.7875 383.594 81.6675 383.234 81.6675 382.834L81.7875 361.834C81.7875 361.434 81.9075 361.114 82.1475 360.874C82.4675 360.554 82.8275 360.394 83.2275 360.394H133.148C133.548 360.394 133.868 360.554 134.108 360.874C134.428 361.114 134.588 361.434 134.588 361.834V376.474C134.588 377.194 134.508 377.794 134.348 378.274L111.788 443.194C111.548 443.994 111.028 444.394 110.228 444.394H92.2275Z" fill="#232222"/>
<path d="M155.125 363.494C155.125 363.627 155.059 363.694 154.925 363.694H153.145C153.092 363.694 153.065 363.72 153.065 363.774V369.254C153.065 369.8 153.172 370.187 153.385 370.414C153.612 370.627 153.959 370.734 154.425 370.734H154.805C154.939 370.734 155.005 370.8 155.005 370.934V372.194C155.005 372.327 154.939 372.394 154.805 372.394L154.025 372.414C153.092 372.414 152.385 372.24 151.905 371.894C151.439 371.534 151.205 370.874 151.205 369.914V363.774C151.205 363.72 151.179 363.694 151.125 363.694H150.145C150.012 363.694 149.945 363.627 149.945 363.494V362.414C149.945 362.28 150.012 362.214 150.145 362.214H151.125C151.179 362.214 151.205 362.187 151.205 362.134V359.834C151.205 359.7 151.272 359.634 151.405 359.634H152.865C152.999 359.634 153.065 359.7 153.065 359.834V362.134C153.065 362.187 153.092 362.214 153.145 362.214H154.925C155.059 362.214 155.125 362.28 155.125 362.414V363.494ZM161.371 362.074C162.344 362.074 163.097 362.374 163.631 362.974C164.177 363.574 164.451 364.4 164.451 365.454V372.194C164.451 372.327 164.384 372.394 164.251 372.394H162.731C162.597 372.394 162.531 372.327 162.531 372.194V365.734C162.531 365.12 162.371 364.634 162.051 364.274C161.744 363.914 161.324 363.734 160.791 363.734C160.244 363.734 159.804 363.92 159.471 364.294C159.151 364.654 158.991 365.14 158.991 365.754V372.194C158.991 372.327 158.924 372.394 158.791 372.394H157.271C157.137 372.394 157.071 372.327 157.071 372.194V358.594C157.071 358.46 157.137 358.394 157.271 358.394H158.791C158.924 358.394 158.991 358.46 158.991 358.594V363.034C158.991 363.074 158.997 363.1 159.011 363.114C159.037 363.114 159.064 363.094 159.091 363.054C159.611 362.4 160.371 362.074 161.371 362.074Z" fill="#0C0C0C"/>
<path d="M375.632 364.394H317.552C313.382 364.394 310.001 367.77 310.001 371.934V429.932C310.001 434.097 313.382 437.472 317.552 437.472H375.632C379.802 437.472 383.183 434.097 383.183 429.932V371.934C383.183 367.77 379.802 364.394 375.632 364.394Z" fill="#FADE7E" stroke="#F3C833" stroke-width="4"/>
<path d="M334.073 465.404C334.15 465.25 334.286 465.172 334.479 465.172H337.843C337.94 465.172 338.017 465.211 338.075 465.288C338.152 465.346 338.191 465.424 338.191 465.52V485.124C338.191 485.221 338.152 485.308 338.075 485.385C338.017 485.443 337.94 485.472 337.843 485.472H334.45C334.353 485.472 334.266 485.443 334.189 485.385C334.131 485.308 334.102 485.221 334.102 485.124V472.248C334.102 472.171 334.083 472.132 334.044 472.132C334.005 472.113 333.967 472.132 333.928 472.19L331.26 476.598C331.183 476.753 331.047 476.83 330.854 476.83H330.187C329.994 476.83 329.858 476.753 329.781 476.598L327.113 472.19C327.074 472.132 327.036 472.113 326.997 472.132C326.958 472.132 326.939 472.171 326.939 472.248V485.124C326.939 485.221 326.9 485.308 326.823 485.385C326.765 485.443 326.688 485.472 326.591 485.472H323.198C323.101 485.472 323.014 485.443 322.937 485.385C322.879 485.308 322.85 485.221 322.85 485.124V465.52C322.85 465.424 322.879 465.346 322.937 465.288C323.014 465.211 323.101 465.172 323.198 465.172H326.562C326.755 465.172 326.891 465.25 326.968 465.404L330.448 471.117C330.506 471.233 330.564 471.233 330.622 471.117L334.073 465.404ZM347.583 485.733C346.249 485.733 345.07 485.463 344.045 484.921C343.04 484.38 342.257 483.616 341.696 482.63C341.135 481.644 340.855 480.494 340.855 479.179V471.465C340.855 470.17 341.135 469.029 341.696 468.043C342.257 467.057 343.04 466.294 344.045 465.752C345.07 465.211 346.249 464.94 347.583 464.94C348.917 464.94 350.096 465.211 351.121 465.752C352.146 466.294 352.938 467.057 353.499 468.043C354.06 469.029 354.34 470.17 354.34 471.465V479.179C354.34 480.494 354.06 481.644 353.499 482.63C352.938 483.616 352.146 484.38 351.121 484.921C350.096 485.463 348.917 485.733 347.583 485.733ZM347.583 482.224C348.395 482.224 349.043 481.963 349.526 481.441C350.009 480.9 350.251 480.204 350.251 479.353V471.349C350.251 470.479 350.009 469.783 349.526 469.261C349.043 468.72 348.395 468.449 347.583 468.449C346.79 468.449 346.152 468.72 345.669 469.261C345.186 469.783 344.944 470.479 344.944 471.349V479.353C344.944 480.204 345.186 480.9 345.669 481.441C346.152 481.963 346.79 482.224 347.583 482.224ZM367.038 465.52C367.038 465.424 367.067 465.346 367.125 465.288C367.203 465.211 367.29 465.172 367.386 465.172H370.75C370.847 465.172 370.924 465.211 370.982 465.288C371.06 465.346 371.098 465.424 371.098 465.52V485.124C371.098 485.221 371.06 485.308 370.982 485.385C370.924 485.443 370.847 485.472 370.75 485.472H367.212C367.019 485.472 366.884 485.385 366.806 485.211L361.267 473.408C361.229 473.35 361.19 473.321 361.151 473.321C361.113 473.321 361.093 473.36 361.093 473.437L361.122 485.124C361.122 485.221 361.084 485.308 361.006 485.385C360.948 485.443 360.871 485.472 360.774 485.472H357.41C357.314 485.472 357.227 485.443 357.149 485.385C357.091 485.308 357.062 485.221 357.062 485.124V465.52C357.062 465.424 357.091 465.346 357.149 465.288C357.227 465.211 357.314 465.172 357.41 465.172H360.919C361.113 465.172 361.248 465.259 361.325 465.433L366.864 477.236C366.903 477.294 366.942 477.323 366.98 477.323C367.019 477.323 367.038 477.285 367.038 477.207V465.52Z" fill="#0C0C0C"/>
<path d="M493.814 364.394H435.733C431.563 364.394 428.183 367.77 428.183 371.934V429.932C428.183 434.097 431.563 437.472 435.733 437.472H493.814C497.984 437.472 501.364 434.097 501.364 429.932V371.934C501.364 367.77 497.984 364.394 493.814 364.394Z" fill="#FADE7E" stroke="#F3C833" stroke-width="4"/>
<path d="M456.81 465.172C456.907 465.172 456.984 465.211 457.042 465.288C457.12 465.346 457.158 465.424 457.158 465.52V468.362C457.158 468.459 457.12 468.546 457.042 468.623C456.984 468.681 456.907 468.71 456.81 468.71H452.402C452.306 468.71 452.257 468.759 452.257 468.855V485.124C452.257 485.221 452.219 485.308 452.141 485.385C452.083 485.443 452.006 485.472 451.909 485.472H448.516C448.42 485.472 448.333 485.443 448.255 485.385C448.197 485.308 448.168 485.221 448.168 485.124V468.855C448.168 468.759 448.12 468.71 448.023 468.71H443.76C443.664 468.71 443.577 468.681 443.499 468.623C443.441 468.546 443.412 468.459 443.412 468.362V465.52C443.412 465.424 443.441 465.346 443.499 465.288C443.577 465.211 443.664 465.172 443.76 465.172H456.81ZM465.956 485.704C464.641 485.704 463.481 485.434 462.476 484.892C461.471 484.351 460.688 483.597 460.127 482.63C459.586 481.644 459.315 480.513 459.315 479.237V465.52C459.315 465.424 459.344 465.346 459.402 465.288C459.479 465.211 459.566 465.172 459.663 465.172H463.056C463.153 465.172 463.23 465.211 463.288 465.288C463.365 465.346 463.404 465.424 463.404 465.52V479.44C463.404 480.272 463.636 480.939 464.1 481.441C464.564 481.944 465.183 482.195 465.956 482.195C466.729 482.195 467.348 481.944 467.812 481.441C468.276 480.939 468.508 480.272 468.508 479.44V465.52C468.508 465.424 468.537 465.346 468.595 465.288C468.672 465.211 468.759 465.172 468.856 465.172H472.249C472.346 465.172 472.423 465.211 472.481 465.288C472.558 465.346 472.597 465.424 472.597 465.52V479.237C472.597 480.513 472.317 481.644 471.756 482.63C471.215 483.597 470.441 484.351 469.436 484.892C468.431 485.434 467.271 485.704 465.956 485.704ZM487.787 468.333C487.787 468.43 487.748 468.517 487.671 468.594C487.613 468.652 487.535 468.681 487.439 468.681H479.667C479.57 468.681 479.522 468.73 479.522 468.826V473.35C479.522 473.447 479.57 473.495 479.667 473.495H484.51C484.606 473.495 484.684 473.534 484.742 473.611C484.819 473.669 484.858 473.747 484.858 473.843V476.656C484.858 476.753 484.819 476.84 484.742 476.917C484.684 476.975 484.606 477.004 484.51 477.004H479.667C479.57 477.004 479.522 477.053 479.522 477.149V481.818C479.522 481.915 479.57 481.963 479.667 481.963H487.439C487.535 481.963 487.613 482.002 487.671 482.079C487.748 482.137 487.787 482.215 487.787 482.311V485.124C487.787 485.221 487.748 485.308 487.671 485.385C487.613 485.443 487.535 485.472 487.439 485.472H475.781C475.684 485.472 475.597 485.443 475.52 485.385C475.462 485.308 475.433 485.221 475.433 485.124V465.52C475.433 465.424 475.462 465.346 475.52 465.288C475.597 465.211 475.684 465.172 475.781 465.172H487.439C487.535 465.172 487.613 465.211 487.671 465.288C487.748 465.346 487.787 465.424 487.787 465.52V468.333Z" fill="#0C0C0C"/>
<path d="M611.995 364.394H553.915C549.745 364.394 546.364 367.77 546.364 371.934V429.932C546.364 434.097 549.745 437.472 553.915 437.472H611.995C616.165 437.472 619.546 434.097 619.546 429.932V371.934C619.546 367.77 616.165 364.394 611.995 364.394Z" fill="#FADE7E" stroke="#F3C833" stroke-width="4"/>
<path d="M562.283 485.472C562.09 485.472 561.964 485.376 561.906 485.182L557.353 465.549V465.433C557.353 465.259 557.459 465.172 557.672 465.172H561.239C561.471 465.172 561.597 465.279 561.616 465.491L563.82 476.627C563.839 476.685 563.868 476.714 563.907 476.714C563.946 476.714 563.975 476.685 563.994 476.627L566.111 465.491C566.13 465.279 566.256 465.172 566.488 465.172H569.707C569.92 465.172 570.045 465.279 570.084 465.491L572.404 476.627C572.423 476.685 572.452 476.714 572.491 476.714C572.53 476.714 572.559 476.685 572.578 476.627L574.666 465.491C574.685 465.279 574.811 465.172 575.043 465.172H578.465C578.716 465.172 578.813 465.298 578.755 465.549L574.521 485.153C574.482 485.366 574.357 485.472 574.144 485.472H570.867C570.654 485.472 570.529 485.366 570.49 485.153L568.141 473.495C568.122 473.437 568.093 473.408 568.054 473.408C568.015 473.408 567.986 473.437 567.967 473.495L565.85 485.153C565.831 485.366 565.705 485.472 565.473 485.472H562.283ZM593.234 468.333C593.234 468.43 593.195 468.517 593.118 468.594C593.06 468.652 592.982 468.681 592.886 468.681H585.114C585.017 468.681 584.969 468.73 584.969 468.826V473.35C584.969 473.447 585.017 473.495 585.114 473.495H589.957C590.053 473.495 590.131 473.534 590.189 473.611C590.266 473.669 590.305 473.747 590.305 473.843V476.656C590.305 476.753 590.266 476.84 590.189 476.917C590.131 476.975 590.053 477.004 589.957 477.004H585.114C585.017 477.004 584.969 477.053 584.969 477.149V481.818C584.969 481.915 585.017 481.963 585.114 481.963H592.886C592.982 481.963 593.06 482.002 593.118 482.079C593.195 482.137 593.234 482.215 593.234 482.311V485.124C593.234 485.221 593.195 485.308 593.118 485.385C593.06 485.443 592.982 485.472 592.886 485.472H581.228C581.131 485.472 581.044 485.443 580.967 485.385C580.909 485.308 580.88 485.221 580.88 485.124V465.52C580.88 465.424 580.909 465.346 580.967 465.288C581.044 465.211 581.131 465.172 581.228 465.172H592.886C592.982 465.172 593.06 465.211 593.118 465.288C593.195 465.346 593.234 465.424 593.234 465.52V468.333ZM596.039 485.472C595.943 485.472 595.856 485.443 595.778 485.385C595.72 485.308 595.691 485.221 595.691 485.124V465.52C595.691 465.424 595.72 465.346 595.778 465.288C595.856 465.211 595.943 465.172 596.039 465.172H602.274C603.57 465.172 604.71 465.414 605.696 465.897C606.702 466.381 607.475 467.067 608.016 467.956C608.558 468.846 608.828 469.88 608.828 471.059V479.585C608.828 480.765 608.558 481.799 608.016 482.688C607.475 483.578 606.702 484.264 605.696 484.747C604.71 485.231 603.57 485.472 602.274 485.472H596.039ZM599.78 481.818C599.78 481.915 599.829 481.963 599.925 481.963L602.303 481.934C603.019 481.934 603.599 481.683 604.043 481.18C604.488 480.658 604.72 479.972 604.739 479.121V471.523C604.739 470.653 604.517 469.967 604.072 469.464C603.628 468.942 603.038 468.681 602.303 468.681H599.925C599.829 468.681 599.78 468.73 599.78 468.826V481.818Z" fill="#0C0C0C"/>
<path d="M730.177 364.394H672.097C667.927 364.394 664.546 367.77 664.546 371.934V429.932C664.546 434.097 667.927 437.472 672.097 437.472H730.177C734.348 437.472 737.728 434.097 737.728 429.932V371.934C737.728 367.77 734.348 364.394 730.177 364.394Z" fill="#FADE7E" stroke="#F3C833" stroke-width="4"/>
<path d="M692.008 465.172C692.105 465.172 692.182 465.211 692.24 465.288C692.318 465.346 692.356 465.424 692.356 465.52V468.362C692.356 468.459 692.318 468.546 692.24 468.623C692.182 468.681 692.105 468.71 692.008 468.71H687.6C687.504 468.71 687.455 468.759 687.455 468.855V485.124C687.455 485.221 687.417 485.308 687.339 485.385C687.281 485.443 687.204 485.472 687.107 485.472H683.714C683.618 485.472 683.531 485.443 683.453 485.385C683.395 485.308 683.366 485.221 683.366 485.124V468.855C683.366 468.759 683.318 468.71 683.221 468.71H678.958C678.862 468.71 678.775 468.681 678.697 468.623C678.639 468.546 678.61 468.459 678.61 468.362V465.52C678.61 465.424 678.639 465.346 678.697 465.288C678.775 465.211 678.862 465.172 678.958 465.172H692.008ZM703.677 465.52C703.677 465.424 703.706 465.346 703.764 465.288C703.841 465.211 703.928 465.172 704.025 465.172H707.418C707.515 465.172 707.592 465.211 707.65 465.288C707.727 465.346 707.766 465.424 707.766 465.52V485.124C707.766 485.221 707.727 485.308 707.65 485.385C707.592 485.443 707.515 485.472 707.418 485.472H704.025C703.928 485.472 703.841 485.443 703.764 485.385C703.706 485.308 703.677 485.221 703.677 485.124V477.178C703.677 477.082 703.629 477.033 703.532 477.033H698.892C698.795 477.033 698.747 477.082 698.747 477.178V485.124C698.747 485.221 698.708 485.308 698.631 485.385C698.573 485.443 698.496 485.472 698.399 485.472H695.006C694.909 485.472 694.822 485.443 694.745 485.385C694.687 485.308 694.658 485.221 694.658 485.124V465.52C694.658 465.424 694.687 465.346 694.745 465.288C694.822 465.211 694.909 465.172 695.006 465.172H698.399C698.496 465.172 698.573 465.211 698.631 465.288C698.708 465.346 698.747 465.424 698.747 465.52V473.35C698.747 473.447 698.795 473.495 698.892 473.495H703.532C703.629 473.495 703.677 473.447 703.677 473.35V465.52ZM717.212 485.704C715.897 485.704 714.737 485.434 713.732 484.892C712.726 484.351 711.943 483.597 711.383 482.63C710.841 481.644 710.571 480.513 710.571 479.237V465.52C710.571 465.424 710.6 465.346 710.658 465.288C710.735 465.211 710.822 465.172 710.919 465.172H714.312C714.408 465.172 714.486 465.211 714.544 465.288C714.621 465.346 714.66 465.424 714.66 465.52V479.44C714.66 480.272 714.892 480.939 715.356 481.441C715.82 481.944 716.438 482.195 717.212 482.195C717.985 482.195 718.604 481.944 719.068 481.441C719.532 480.939 719.764 480.272 719.764 479.44V465.52C719.764 465.424 719.793 465.346 719.851 465.288C719.928 465.211 720.015 465.172 720.112 465.172H723.505C723.601 465.172 723.679 465.211 723.737 465.288C723.814 465.346 723.853 465.424 723.853 465.52V479.237C723.853 480.513 723.572 481.644 723.012 482.63C722.47 483.597 721.697 484.351 720.692 484.892C719.686 485.434 718.526 485.704 717.212 485.704Z" fill="#0C0C0C"/>
<path d="M848.359 364.394H790.279C786.109 364.394 782.728 367.77 782.728 371.934V429.932C782.728 434.097 786.109 437.472 790.279 437.472H848.359C852.529 437.472 855.91 434.097 855.91 429.932V371.934C855.91 367.77 852.529 364.394 848.359 364.394Z" fill="white" stroke="black" stroke-width="4"/>
<path d="M811.604 468.333C811.604 468.43 811.565 468.517 811.488 468.594C811.43 468.652 811.352 468.681 811.256 468.681H803.513C803.416 468.681 803.368 468.73 803.368 468.826V473.35C803.368 473.447 803.416 473.495 803.513 473.495H808.327C808.423 473.495 808.501 473.534 808.559 473.611C808.636 473.669 808.675 473.747 808.675 473.843V476.656C808.675 476.753 808.636 476.84 808.559 476.917C808.501 476.975 808.423 477.004 808.327 477.004H803.513C803.416 477.004 803.368 477.053 803.368 477.149V485.124C803.368 485.221 803.329 485.308 803.252 485.385C803.194 485.443 803.116 485.472 803.02 485.472H799.627C799.53 485.472 799.443 485.443 799.366 485.385C799.308 485.308 799.279 485.221 799.279 485.124V465.52C799.279 465.424 799.308 465.346 799.366 465.288C799.443 465.211 799.53 465.172 799.627 465.172H811.256C811.352 465.172 811.43 465.211 811.488 465.288C811.565 465.346 811.604 465.424 811.604 465.52V468.333ZM823.036 485.472C822.824 485.472 822.688 485.376 822.63 485.182L819.701 477.178C819.663 477.101 819.614 477.062 819.556 477.062H817.729C817.633 477.062 817.584 477.111 817.584 477.207V485.124C817.584 485.221 817.546 485.308 817.468 485.385C817.41 485.443 817.333 485.472 817.236 485.472H813.843C813.747 485.472 813.66 485.443 813.582 485.385C813.524 485.308 813.495 485.221 813.495 485.124V465.52C813.495 465.424 813.524 465.346 813.582 465.288C813.66 465.211 813.747 465.172 813.843 465.172H820.919C822.06 465.172 823.075 465.433 823.964 465.955C824.854 466.458 825.54 467.173 826.023 468.101C826.507 469.029 826.748 470.093 826.748 471.291C826.748 472.529 826.478 473.602 825.936 474.51C825.395 475.419 824.631 476.096 823.645 476.54C823.549 476.579 823.52 476.647 823.558 476.743L826.864 485.066C826.884 485.105 826.893 485.153 826.893 485.211C826.893 485.385 826.787 485.472 826.574 485.472H823.036ZM817.729 468.681C817.633 468.681 817.584 468.73 817.584 468.826V473.785C817.584 473.882 817.633 473.93 817.729 473.93H820.252C820.968 473.93 821.548 473.698 821.992 473.234C822.437 472.751 822.659 472.113 822.659 471.32C822.659 470.508 822.437 469.87 821.992 469.406C821.548 468.923 820.968 468.681 820.252 468.681H817.729ZM833.089 485.443C832.993 485.443 832.906 485.414 832.828 485.356C832.77 485.279 832.741 485.192 832.741 485.095V477.671L832.712 477.497L827.695 465.578C827.676 465.54 827.666 465.482 827.666 465.404C827.666 465.25 827.763 465.172 827.956 465.172H831.61C831.823 465.172 831.958 465.269 832.016 465.462L834.713 472.799C834.733 472.857 834.762 472.886 834.8 472.886C834.839 472.886 834.868 472.857 834.887 472.799L837.584 465.462C837.642 465.269 837.778 465.172 837.99 465.172H841.644C841.78 465.172 841.867 465.211 841.905 465.288C841.944 465.366 841.944 465.462 841.905 465.578L836.859 477.497L836.83 477.671V485.095C836.83 485.192 836.792 485.279 836.714 485.356C836.656 485.414 836.579 485.443 836.482 485.443H833.089Z" fill="#0C0C0C"/>
<path d="M966.541 364.394H908.461C904.29 364.394 900.91 367.77 900.91 371.934V429.932C900.91 434.097 904.29 437.472 908.461 437.472H966.541C970.711 437.472 974.091 434.097 974.091 429.932V371.934C974.091 367.77 970.711 364.394 966.541 364.394Z" stroke="#A4A4A4" stroke-width="4"/>
<path d="M923.565 485.704C922.231 485.704 921.061 485.472 920.056 485.008C919.05 484.525 918.267 483.858 917.707 483.007C917.165 482.137 916.894 481.142 916.894 480.02V479.266C916.894 479.17 916.924 479.092 916.982 479.034C917.059 478.957 917.146 478.918 917.243 478.918H920.578C920.674 478.918 920.752 478.957 920.81 479.034C920.887 479.092 920.926 479.17 920.926 479.266V479.817C920.926 480.494 921.177 481.064 921.68 481.528C922.182 481.973 922.859 482.195 923.71 482.195C924.464 482.195 925.034 482.002 925.421 481.615C925.827 481.229 926.03 480.736 926.03 480.136C926.03 479.692 925.904 479.315 925.653 479.005C925.401 478.677 925.044 478.377 924.58 478.106C924.135 477.816 923.439 477.43 922.492 476.946C921.332 476.366 920.384 475.825 919.65 475.322C918.915 474.82 918.287 474.172 917.765 473.379C917.243 472.587 916.982 471.63 916.982 470.508C916.982 469.387 917.243 468.411 917.765 467.579C918.306 466.729 919.06 466.081 920.027 465.636C920.993 465.172 922.095 464.94 923.333 464.94C924.628 464.94 925.778 465.192 926.784 465.694C927.789 466.178 928.572 466.864 929.133 467.753C929.693 468.643 929.974 469.667 929.974 470.827V471.407C929.974 471.504 929.935 471.591 929.858 471.668C929.8 471.726 929.722 471.755 929.626 471.755H926.291C926.194 471.755 926.107 471.726 926.03 471.668C925.972 471.591 925.943 471.504 925.943 471.407V470.885C925.943 470.189 925.701 469.609 925.218 469.145C924.734 468.681 924.077 468.449 923.246 468.449C922.55 468.449 921.999 468.633 921.593 469C921.206 469.348 921.013 469.841 921.013 470.479C921.013 470.924 921.129 471.311 921.361 471.639C921.593 471.968 921.95 472.287 922.434 472.596C922.917 472.886 923.652 473.273 924.638 473.756L925.247 474.104C926.368 474.723 927.238 475.264 927.857 475.728C928.495 476.173 929.026 476.743 929.452 477.439C929.877 478.135 930.09 478.976 930.09 479.962C930.09 481.722 929.49 483.123 928.292 484.167C927.112 485.192 925.537 485.704 923.565 485.704ZM943.271 485.472C943.058 485.472 942.923 485.376 942.865 485.182L942.198 482.34C942.179 482.263 942.13 482.224 942.053 482.224H936.63C936.553 482.224 936.504 482.263 936.485 482.34L935.818 485.182C935.76 485.376 935.634 485.472 935.441 485.472H931.932C931.681 485.472 931.584 485.347 931.642 485.095L936.862 465.462C936.92 465.269 937.055 465.172 937.268 465.172H941.473C941.686 465.172 941.821 465.269 941.879 465.462L947.099 485.095L947.128 485.211C947.128 485.385 947.022 485.472 946.809 485.472H943.271ZM937.268 478.889C937.249 478.947 937.258 478.996 937.297 479.034C937.336 479.054 937.374 479.063 937.413 479.063H941.241C941.28 479.063 941.318 479.054 941.357 479.034C941.396 478.996 941.405 478.947 941.386 478.889L939.385 470.479C939.366 470.402 939.337 470.363 939.298 470.363C939.259 470.363 939.23 470.402 939.211 470.479L937.268 478.889ZM959.769 465.172C959.866 465.172 959.943 465.211 960.001 465.288C960.079 465.346 960.117 465.424 960.117 465.52V468.362C960.117 468.459 960.079 468.546 960.001 468.623C959.943 468.681 959.866 468.71 959.769 468.71H955.361C955.265 468.71 955.216 468.759 955.216 468.855V485.124C955.216 485.221 955.178 485.308 955.1 485.385C955.042 485.443 954.965 485.472 954.868 485.472H951.475C951.379 485.472 951.292 485.443 951.214 485.385C951.156 485.308 951.127 485.221 951.127 485.124V468.855C951.127 468.759 951.079 468.71 950.982 468.71H946.719C946.623 468.71 946.536 468.681 946.458 468.623C946.4 468.546 946.371 468.459 946.371 468.362V465.52C946.371 465.424 946.4 465.346 946.458 465.288C946.536 465.211 946.623 465.172 946.719 465.172H959.769Z" fill="#0C0C0C"/>
<path d="M1084.72 364.394H1026.64C1022.47 364.394 1019.09 367.77 1019.09 371.934V429.932C1019.09 434.097 1022.47 437.472 1026.64 437.472H1084.72C1088.89 437.472 1092.27 434.097 1092.27 429.932V371.934C1092.27 367.77 1088.89 364.394 1084.72 364.394Z" stroke="#A4A4A4" stroke-width="4"/>
<path d="M1040.15 485.704C1038.81 485.704 1037.64 485.472 1036.64 485.008C1035.63 484.525 1034.85 483.858 1034.29 483.007C1033.75 482.137 1033.48 481.142 1033.48 480.02V479.266C1033.48 479.17 1033.51 479.092 1033.56 479.034C1033.64 478.957 1033.73 478.918 1033.82 478.918H1037.16C1037.26 478.918 1037.33 478.957 1037.39 479.034C1037.47 479.092 1037.51 479.17 1037.51 479.266V479.817C1037.51 480.494 1037.76 481.064 1038.26 481.528C1038.76 481.973 1039.44 482.195 1040.29 482.195C1041.05 482.195 1041.62 482.002 1042 481.615C1042.41 481.229 1042.61 480.736 1042.61 480.136C1042.61 479.692 1042.49 479.315 1042.23 479.005C1041.98 478.677 1041.63 478.377 1041.16 478.106C1040.72 477.816 1040.02 477.43 1039.07 476.946C1037.91 476.366 1036.97 475.825 1036.23 475.322C1035.5 474.82 1034.87 474.172 1034.35 473.379C1033.82 472.587 1033.56 471.63 1033.56 470.508C1033.56 469.387 1033.82 468.411 1034.35 467.579C1034.89 466.729 1035.64 466.081 1036.61 465.636C1037.58 465.172 1038.68 464.94 1039.91 464.94C1041.21 464.94 1042.36 465.192 1043.37 465.694C1044.37 466.178 1045.15 466.864 1045.71 467.753C1046.28 468.643 1046.56 469.667 1046.56 470.827V471.407C1046.56 471.504 1046.52 471.591 1046.44 471.668C1046.38 471.726 1046.3 471.755 1046.21 471.755H1042.87C1042.78 471.755 1042.69 471.726 1042.61 471.668C1042.55 471.591 1042.52 471.504 1042.52 471.407V470.885C1042.52 470.189 1042.28 469.609 1041.8 469.145C1041.32 468.681 1040.66 468.449 1039.83 468.449C1039.13 468.449 1038.58 468.633 1038.17 469C1037.79 469.348 1037.59 469.841 1037.59 470.479C1037.59 470.924 1037.71 471.311 1037.94 471.639C1038.17 471.968 1038.53 472.287 1039.02 472.596C1039.5 472.886 1040.23 473.273 1041.22 473.756L1041.83 474.104C1042.95 474.723 1043.82 475.264 1044.44 475.728C1045.08 476.173 1045.61 476.743 1046.03 477.439C1046.46 478.135 1046.67 478.976 1046.67 479.962C1046.67 481.722 1046.07 483.123 1044.87 484.167C1043.69 485.192 1042.12 485.704 1040.15 485.704ZM1055.62 485.704C1054.3 485.704 1053.14 485.434 1052.14 484.892C1051.13 484.351 1050.35 483.597 1049.79 482.63C1049.25 481.644 1048.98 480.513 1048.98 479.237V465.52C1048.98 465.424 1049.01 465.346 1049.06 465.288C1049.14 465.211 1049.23 465.172 1049.33 465.172H1052.72C1052.82 465.172 1052.89 465.211 1052.95 465.288C1053.03 465.346 1053.07 465.424 1053.07 465.52V479.44C1053.07 480.272 1053.3 480.939 1053.76 481.441C1054.23 481.944 1054.85 482.195 1055.62 482.195C1056.39 482.195 1057.01 481.944 1057.47 481.441C1057.94 480.939 1058.17 480.272 1058.17 479.44V465.52C1058.17 465.424 1058.2 465.346 1058.26 465.288C1058.34 465.211 1058.42 465.172 1058.52 465.172H1061.91C1062.01 465.172 1062.09 465.211 1062.14 465.288C1062.22 465.346 1062.26 465.424 1062.26 465.52V479.237C1062.26 480.513 1061.98 481.644 1061.42 482.63C1060.88 483.597 1060.1 484.351 1059.1 484.892C1058.09 485.434 1056.93 485.704 1055.62 485.704ZM1075.07 465.52C1075.07 465.424 1075.1 465.346 1075.16 465.288C1075.24 465.211 1075.32 465.172 1075.42 465.172H1078.78C1078.88 465.172 1078.96 465.211 1079.02 465.288C1079.09 465.346 1079.13 465.424 1079.13 465.52V485.124C1079.13 485.221 1079.09 485.308 1079.02 485.385C1078.96 485.443 1078.88 485.472 1078.78 485.472H1075.25C1075.05 485.472 1074.92 485.385 1074.84 485.211L1069.3 473.408C1069.26 473.35 1069.22 473.321 1069.18 473.321C1069.15 473.321 1069.13 473.36 1069.13 473.437L1069.16 485.124C1069.16 485.221 1069.12 485.308 1069.04 485.385C1068.98 485.443 1068.9 485.472 1068.81 485.472H1065.44C1065.35 485.472 1065.26 485.443 1065.18 485.385C1065.12 485.308 1065.1 485.221 1065.1 485.124V465.52C1065.1 465.424 1065.12 465.346 1065.18 465.288C1065.26 465.211 1065.35 465.172 1065.44 465.172H1068.95C1069.15 465.172 1069.28 465.259 1069.36 465.433L1074.9 477.236C1074.94 477.294 1074.97 477.323 1075.01 477.323C1075.05 477.323 1075.07 477.285 1075.07 477.207V465.52Z" fill="#0C0C0C"/>
<defs>
<linearGradient id="paint0_linear_866_1535" x1="64.6567" y1="683.478" x2="627.453" y2="683.478" gradientUnits="userSpaceOnUse">
<stop stop-color="#65A3FF"/>
<stop offset="1" stop-color="#86B6FF"/>
</linearGradient>
<linearGradient id="paint1_linear_866_1535" x1="65.001" y1="683.394" x2="843.001" y2="683.394" gradientUnits="userSpaceOnUse">
<stop offset="0.83" stop-color="#65A3FF"/>
<stop offset="1" stop-color="#86DBFF"/>
</linearGradient>
</defs>
</svg>
