<svg width="598" height="308" viewBox="0 0 598 308" fill="none" xmlns="http://www.w3.org/2000/svg">
<path d="M1 14C1 6.8203 6.8203 1 14 1H584C591.18 1 597 6.8203 597 14V307H1V14Z" fill="white" stroke="#CECECE" stroke-width="2"/>
<path d="M42.856 244V235.25H40.154V233.57H47.434V235.25H44.774V244H42.856ZM51.1815 244.168C50.4348 244.168 49.7535 243.995 49.1375 243.65C48.5308 243.305 48.0455 242.833 47.6815 242.236C47.3268 241.639 47.1495 240.957 47.1495 240.192C47.1495 239.427 47.3268 238.745 47.6815 238.148C48.0455 237.551 48.5308 237.079 49.1375 236.734C49.7442 236.389 50.4255 236.216 51.1815 236.216C51.9282 236.216 52.6048 236.389 53.2115 236.734C53.8182 237.079 54.2988 237.551 54.6535 238.148C55.0175 238.736 55.1995 239.417 55.1995 240.192C55.1995 240.957 55.0175 241.639 54.6535 242.236C54.2895 242.833 53.8042 243.305 53.1975 243.65C52.5908 243.995 51.9188 244.168 51.1815 244.168ZM51.1815 242.488C51.5922 242.488 51.9515 242.39 52.2595 242.194C52.5768 241.998 52.8242 241.727 53.0015 241.382C53.1882 241.027 53.2815 240.631 53.2815 240.192C53.2815 239.744 53.1882 239.352 53.0015 239.016C52.8242 238.671 52.5768 238.4 52.2595 238.204C51.9515 237.999 51.5922 237.896 51.1815 237.896C50.7615 237.896 50.3928 237.999 50.0755 238.204C49.7582 238.4 49.5062 238.671 49.3195 239.016C49.1422 239.352 49.0535 239.744 49.0535 240.192C49.0535 240.631 49.1422 241.027 49.3195 241.382C49.5062 241.727 49.7582 241.998 50.0755 242.194C50.3928 242.39 50.7615 242.488 51.1815 242.488ZM60.1323 244.168C59.395 244.168 58.737 243.995 58.1583 243.65C57.5797 243.295 57.1223 242.815 56.7863 242.208C56.4503 241.601 56.2823 240.929 56.2823 240.192C56.2823 239.445 56.4503 238.773 56.7863 238.176C57.1223 237.579 57.5797 237.103 58.1583 236.748C58.7463 236.393 59.3997 236.216 60.1183 236.216C60.697 236.216 61.2103 236.333 61.6583 236.566C62.1157 236.79 62.475 237.107 62.7363 237.518L62.4563 237.896V233.402H64.2903V244H62.5543V242.53L62.7503 242.894C62.489 243.305 62.125 243.622 61.6583 243.846C61.1917 244.061 60.683 244.168 60.1323 244.168ZM60.3283 242.488C60.7483 242.488 61.117 242.39 61.4343 242.194C61.7517 241.998 61.999 241.727 62.1763 241.382C62.363 241.037 62.4563 240.64 62.4563 240.192C62.4563 239.753 62.363 239.361 62.1763 239.016C61.999 238.661 61.7517 238.386 61.4343 238.19C61.117 237.994 60.7483 237.896 60.3283 237.896C59.9177 237.896 59.549 237.999 59.2223 238.204C58.8957 238.4 58.639 238.671 58.4523 239.016C58.275 239.352 58.1863 239.744 58.1863 240.192C58.1863 240.64 58.275 241.037 58.4523 241.382C58.639 241.727 58.8957 241.998 59.2223 242.194C59.549 242.39 59.9177 242.488 60.3283 242.488ZM68.3066 244.168C67.7746 244.168 67.3126 244.079 66.9206 243.902C66.5286 243.725 66.2252 243.473 66.0106 243.146C65.7959 242.81 65.6886 242.423 65.6886 241.984C65.6886 241.564 65.7819 241.191 65.9686 240.864C66.1552 240.528 66.4446 240.248 66.8366 240.024C67.2286 239.8 67.7232 239.641 68.3206 239.548L70.8126 239.142V240.542L68.6706 240.906C68.3066 240.971 68.0359 241.088 67.8586 241.256C67.6812 241.424 67.5926 241.643 67.5926 241.914C67.5926 242.175 67.6906 242.385 67.8866 242.544C68.0919 242.693 68.3439 242.768 68.6426 242.768C69.0252 242.768 69.3612 242.689 69.6506 242.53C69.9492 242.362 70.1779 242.133 70.3366 241.844C70.5046 241.555 70.5886 241.237 70.5886 240.892V238.932C70.5886 238.605 70.4579 238.335 70.1966 238.12C69.9446 237.896 69.6086 237.784 69.1886 237.784C68.7966 237.784 68.4466 237.891 68.1386 238.106C67.8399 238.311 67.6206 238.587 67.4806 238.932L65.9826 238.204C66.1319 237.803 66.3652 237.457 66.6826 237.168C67.0092 236.869 67.3919 236.636 67.8306 236.468C68.2692 236.3 68.7452 236.216 69.2586 236.216C69.8839 236.216 70.4346 236.333 70.9106 236.566C71.3866 236.79 71.7552 237.107 72.0166 237.518C72.2872 237.919 72.4226 238.391 72.4226 238.932V244H70.6866V242.698L71.0786 242.67C70.8826 242.997 70.6492 243.272 70.3786 243.496C70.1079 243.711 69.7999 243.879 69.4546 244C69.1092 244.112 68.7266 244.168 68.3066 244.168ZM75.0417 247.08C74.8363 247.08 74.6357 247.061 74.4397 247.024C74.2437 246.996 74.0663 246.94 73.9077 246.856V245.33C74.029 245.358 74.1737 245.386 74.3417 245.414C74.519 245.442 74.6823 245.456 74.8317 245.456C75.2517 245.456 75.555 245.358 75.7417 245.162C75.9377 244.975 76.1103 244.723 76.2597 244.406L76.7637 243.23L76.7357 244.77L73.4177 236.384H75.3917L77.7157 242.572H77.0157L79.3257 236.384H81.3137L77.9957 244.77C77.7997 245.255 77.5617 245.671 77.2817 246.016C77.0017 246.361 76.675 246.623 76.3017 246.8C75.9377 246.987 75.5177 247.08 75.0417 247.08ZM83.0488 237.532L82.8108 233.57H84.4628L84.2388 237.532H83.0488ZM89.5665 244.168C88.7545 244.168 88.0451 243.977 87.4385 243.594C86.8411 243.202 86.4305 242.675 86.2065 242.012L87.5785 241.354C87.7745 241.783 88.0451 242.119 88.3905 242.362C88.7451 242.605 89.1371 242.726 89.5665 242.726C89.9025 242.726 90.1685 242.651 90.3645 242.502C90.5605 242.353 90.6585 242.157 90.6585 241.914C90.6585 241.765 90.6165 241.643 90.5325 241.55C90.4578 241.447 90.3505 241.363 90.2105 241.298C90.0798 241.223 89.9351 241.163 89.7765 241.116L88.5305 240.766C87.8865 240.579 87.3965 240.295 87.0605 239.912C86.7338 239.529 86.5705 239.077 86.5705 238.554C86.5705 238.087 86.6871 237.681 86.9205 237.336C87.1631 236.981 87.4945 236.706 87.9145 236.51C88.3438 236.314 88.8338 236.216 89.3845 236.216C90.1031 236.216 90.7378 236.389 91.2885 236.734C91.8391 237.079 92.2311 237.565 92.4645 238.19L91.0645 238.848C90.9338 238.503 90.7145 238.227 90.4065 238.022C90.0985 237.817 89.7531 237.714 89.3705 237.714C89.0625 237.714 88.8198 237.784 88.6425 237.924C88.4651 238.064 88.3765 238.246 88.3765 238.47C88.3765 238.61 88.4138 238.731 88.4885 238.834C88.5631 238.937 88.6658 239.021 88.7965 239.086C88.9365 239.151 89.0951 239.212 89.2725 239.268L90.4905 239.632C91.1158 239.819 91.5965 240.099 91.9325 240.472C92.2778 240.845 92.4505 241.303 92.4505 241.844C92.4505 242.301 92.3291 242.707 92.0865 243.062C91.8438 243.407 91.5078 243.678 91.0785 243.874C90.6491 244.07 90.1451 244.168 89.5665 244.168ZM101.444 244.168C100.697 244.168 100.007 244.033 99.3721 243.762C98.7375 243.491 98.1821 243.113 97.7061 242.628C97.2301 242.143 96.8568 241.573 96.5861 240.92C96.3248 240.267 96.1941 239.553 96.1941 238.778C96.1941 238.003 96.3201 237.289 96.5721 236.636C96.8335 235.973 97.1975 235.404 97.6641 234.928C98.1401 234.443 98.6955 234.069 99.3301 233.808C99.9648 233.537 100.655 233.402 101.402 233.402C102.149 233.402 102.816 233.528 103.404 233.78C104.001 234.032 104.505 234.368 104.916 234.788C105.327 235.199 105.621 235.651 105.798 236.146L104.104 236.958C103.908 236.417 103.577 235.978 103.11 235.642C102.643 235.306 102.074 235.138 101.402 235.138C100.749 235.138 100.17 235.292 99.6661 235.6C99.1715 235.908 98.7841 236.333 98.5041 236.874C98.2335 237.415 98.0981 238.05 98.0981 238.778C98.0981 239.506 98.2381 240.145 98.5181 240.696C98.8075 241.237 99.2041 241.662 99.7081 241.97C100.212 242.278 100.791 242.432 101.444 242.432C101.976 242.432 102.466 242.329 102.914 242.124C103.362 241.909 103.721 241.611 103.992 241.228C104.263 240.836 104.398 240.374 104.398 239.842V239.044L105.266 239.8H101.402V238.19H106.302V239.24C106.302 240.043 106.167 240.752 105.896 241.368C105.625 241.984 105.257 242.502 104.79 242.922C104.333 243.333 103.815 243.645 103.236 243.86C102.657 244.065 102.06 244.168 101.444 244.168ZM111.379 244.168C110.632 244.168 109.951 243.995 109.335 243.65C108.728 243.305 108.243 242.833 107.879 242.236C107.524 241.639 107.347 240.957 107.347 240.192C107.347 239.427 107.524 238.745 107.879 238.148C108.243 237.551 108.728 237.079 109.335 236.734C109.941 236.389 110.623 236.216 111.379 236.216C112.125 236.216 112.802 236.389 113.409 236.734C114.015 237.079 114.496 237.551 114.851 238.148C115.215 238.736 115.397 239.417 115.397 240.192C115.397 240.957 115.215 241.639 114.851 242.236C114.487 242.833 114.001 243.305 113.395 243.65C112.788 243.995 112.116 244.168 111.379 244.168ZM111.379 242.488C111.789 242.488 112.149 242.39 112.457 242.194C112.774 241.998 113.021 241.727 113.199 241.382C113.385 241.027 113.479 240.631 113.479 240.192C113.479 239.744 113.385 239.352 113.199 239.016C113.021 238.671 112.774 238.4 112.457 238.204C112.149 237.999 111.789 237.896 111.379 237.896C110.959 237.896 110.59 237.999 110.273 238.204C109.955 238.4 109.703 238.671 109.517 239.016C109.339 239.352 109.251 239.744 109.251 240.192C109.251 240.631 109.339 241.027 109.517 241.382C109.703 241.727 109.955 241.998 110.273 242.194C110.59 242.39 110.959 242.488 111.379 242.488ZM119.098 244.168C118.566 244.168 118.104 244.079 117.712 243.902C117.32 243.725 117.016 243.473 116.802 243.146C116.587 242.81 116.48 242.423 116.48 241.984C116.48 241.564 116.573 241.191 116.76 240.864C116.946 240.528 117.236 240.248 117.628 240.024C118.02 239.8 118.514 239.641 119.112 239.548L121.604 239.142V240.542L119.462 240.906C119.098 240.971 118.827 241.088 118.65 241.256C118.472 241.424 118.384 241.643 118.384 241.914C118.384 242.175 118.482 242.385 118.678 242.544C118.883 242.693 119.135 242.768 119.434 242.768C119.816 242.768 120.152 242.689 120.442 242.53C120.74 242.362 120.969 242.133 121.128 241.844C121.296 241.555 121.38 241.237 121.38 240.892V238.932C121.38 238.605 121.249 238.335 120.988 238.12C120.736 237.896 120.4 237.784 119.98 237.784C119.588 237.784 119.238 237.891 118.93 238.106C118.631 238.311 118.412 238.587 118.272 238.932L116.774 238.204C116.923 237.803 117.156 237.457 117.474 237.168C117.8 236.869 118.183 236.636 118.622 236.468C119.06 236.3 119.536 236.216 120.05 236.216C120.675 236.216 121.226 236.333 121.702 236.566C122.178 236.79 122.546 237.107 122.808 237.518C123.078 237.919 123.214 238.391 123.214 238.932V244H121.478V242.698L121.87 242.67C121.674 242.997 121.44 243.272 121.17 243.496C120.899 243.711 120.591 243.879 120.246 244C119.9 244.112 119.518 244.168 119.098 244.168ZM124.909 244V233.402H126.743V244H124.909Z" fill="#302D27"/>
<path d="M447.727 244V236.452H445.999V235.06H449.359V244H447.727ZM451.223 244V234.916H452.795V238.756L452.579 238.528C452.731 238.136 452.979 237.84 453.323 237.64C453.675 237.432 454.083 237.328 454.547 237.328C455.027 237.328 455.451 237.432 455.819 237.64C456.195 237.848 456.487 238.14 456.695 238.516C456.903 238.884 457.007 239.312 457.007 239.8V244H455.435V240.172C455.435 239.884 455.379 239.636 455.267 239.428C455.155 239.22 454.999 239.06 454.799 238.948C454.607 238.828 454.379 238.768 454.115 238.768C453.859 238.768 453.631 238.828 453.431 238.948C453.231 239.06 453.075 239.22 452.963 239.428C452.851 239.636 452.795 239.884 452.795 240.172V244H451.223ZM461.813 244V236.452H460.085V235.06H463.445V244H461.813ZM468.141 244.144C467.669 244.144 467.217 244.056 466.785 243.88C466.361 243.704 465.993 243.456 465.681 243.136C465.377 242.808 465.169 242.42 465.057 241.972L466.473 241.468C466.609 241.876 466.829 242.18 467.133 242.38C467.437 242.572 467.773 242.668 468.141 242.668C468.445 242.668 468.713 242.604 468.945 242.476C469.185 242.34 469.369 242.156 469.497 241.924C469.625 241.684 469.689 241.408 469.689 241.096C469.689 240.784 469.621 240.512 469.485 240.28C469.357 240.048 469.177 239.868 468.945 239.74C468.713 239.604 468.445 239.536 468.141 239.536C467.829 239.536 467.545 239.604 467.289 239.74C467.041 239.876 466.861 240.072 466.749 240.328L465.417 240.028L466.125 235.06H470.997V236.44H466.773L467.385 235.732L466.881 239.476L466.413 239.092C466.637 238.764 466.909 238.524 467.229 238.372C467.557 238.22 467.953 238.144 468.417 238.144C469.009 238.144 469.521 238.272 469.953 238.528C470.393 238.784 470.733 239.132 470.973 239.572C471.213 240.012 471.333 240.52 471.333 241.096C471.333 241.672 471.193 242.192 470.913 242.656C470.633 243.12 470.253 243.484 469.773 243.748C469.293 244.012 468.749 244.144 468.141 244.144ZM474.824 244V237.472H476.3V238.984L476.132 238.732C476.252 238.26 476.492 237.908 476.852 237.676C477.212 237.444 477.636 237.328 478.124 237.328C478.66 237.328 479.132 237.468 479.54 237.748C479.948 238.028 480.212 238.396 480.332 238.852L479.888 238.888C480.088 238.368 480.388 237.98 480.788 237.724C481.188 237.46 481.648 237.328 482.168 237.328C482.632 237.328 483.044 237.432 483.404 237.64C483.772 237.848 484.06 238.14 484.268 238.516C484.476 238.884 484.58 239.312 484.58 239.8V244H483.008V240.172C483.008 239.884 482.956 239.636 482.852 239.428C482.748 239.22 482.604 239.06 482.42 238.948C482.236 238.828 482.012 238.768 481.748 238.768C481.5 238.768 481.28 238.828 481.088 238.948C480.896 239.06 480.748 239.22 480.644 239.428C480.54 239.636 480.488 239.884 480.488 240.172V244H478.916V240.172C478.916 239.884 478.864 239.636 478.76 239.428C478.656 239.22 478.508 239.06 478.316 238.948C478.132 238.828 477.912 238.768 477.656 238.768C477.408 238.768 477.188 238.828 476.996 238.948C476.804 239.06 476.656 239.22 476.552 239.428C476.448 239.636 476.396 239.884 476.396 240.172V244H474.824ZM485.91 244V237.472H487.482V244H485.91ZM485.91 236.74V235.06H487.482V236.74H485.91ZM488.934 244V237.472H490.41V238.756L490.29 238.528C490.442 238.136 490.69 237.84 491.034 237.64C491.386 237.432 491.794 237.328 492.258 237.328C492.738 237.328 493.162 237.432 493.53 237.64C493.906 237.848 494.198 238.14 494.406 238.516C494.614 238.884 494.718 239.312 494.718 239.8V244H493.146V240.172C493.146 239.884 493.09 239.636 492.978 239.428C492.866 239.22 492.71 239.06 492.51 238.948C492.318 238.828 492.09 238.768 491.826 238.768C491.57 238.768 491.342 238.828 491.142 238.948C490.942 239.06 490.786 239.22 490.674 239.428C490.562 239.636 490.506 239.884 490.506 240.172V244H488.934ZM495.507 245.44L499.491 235.54H501.207L497.223 245.44H495.507ZM504.07 244V242.764L506.494 240.232C506.974 239.728 507.342 239.328 507.598 239.032C507.862 238.728 508.046 238.468 508.15 238.252C508.254 238.036 508.306 237.816 508.306 237.592C508.306 237.216 508.186 236.92 507.946 236.704C507.714 236.488 507.414 236.38 507.046 236.38C506.662 236.38 506.33 236.492 506.05 236.716C505.77 236.932 505.566 237.252 505.438 237.676L504.01 237.232C504.106 236.76 504.302 236.352 504.598 236.008C504.894 235.656 505.254 235.388 505.678 235.204C506.11 235.012 506.566 234.916 507.046 234.916C507.622 234.916 508.126 235.02 508.558 235.228C508.998 235.436 509.338 235.728 509.578 236.104C509.826 236.48 509.95 236.92 509.95 237.424C509.95 237.744 509.89 238.06 509.77 238.372C509.65 238.684 509.47 239.004 509.23 239.332C508.99 239.652 508.678 240.012 508.294 240.412L506.194 242.62H510.07V244H504.07ZM511.41 244V234.916H512.982V238.756L512.766 238.528C512.918 238.136 513.166 237.84 513.51 237.64C513.862 237.432 514.27 237.328 514.734 237.328C515.214 237.328 515.638 237.432 516.006 237.64C516.382 237.848 516.674 238.14 516.882 238.516C517.09 238.884 517.194 239.312 517.194 239.8V244H515.622V240.172C515.622 239.884 515.566 239.636 515.454 239.428C515.342 239.22 515.186 239.06 514.986 238.948C514.794 238.828 514.566 238.768 514.302 238.768C514.046 238.768 513.818 238.828 513.618 238.948C513.418 239.06 513.262 239.22 513.15 239.428C513.038 239.636 512.982 239.884 512.982 240.172V244H511.41ZM523.44 244.144C522.952 244.144 522.488 244.056 522.048 243.88C521.616 243.696 521.244 243.44 520.932 243.112C520.628 242.776 520.42 242.38 520.308 241.924L521.736 241.42C521.88 241.828 522.1 242.14 522.396 242.356C522.692 242.564 523.04 242.668 523.44 242.668C523.76 242.668 524.036 242.608 524.268 242.488C524.508 242.368 524.696 242.196 524.832 241.972C524.968 241.74 525.036 241.468 525.036 241.156C525.036 240.844 524.968 240.58 524.832 240.364C524.704 240.14 524.52 239.968 524.28 239.848C524.04 239.728 523.756 239.668 523.428 239.668C523.276 239.668 523.116 239.684 522.948 239.716C522.788 239.748 522.644 239.796 522.516 239.86L522.144 239.08L524.46 236.44H520.812V235.06H526.296V236.344L523.968 239.068L523.992 238.456C524.528 238.464 524.996 238.58 525.396 238.804C525.796 239.028 526.108 239.336 526.332 239.728C526.556 240.12 526.668 240.58 526.668 241.108C526.668 241.684 526.528 242.204 526.248 242.668C525.968 243.124 525.584 243.484 525.096 243.748C524.608 244.012 524.056 244.144 523.44 244.144ZM531.508 244.144C530.796 244.144 530.172 243.952 529.636 243.568C529.1 243.184 528.68 242.644 528.376 241.948C528.08 241.252 527.932 240.444 527.932 239.524C527.932 238.596 528.08 237.788 528.376 237.1C528.672 236.412 529.088 235.876 529.624 235.492C530.16 235.108 530.784 234.916 531.496 234.916C532.224 234.916 532.852 235.108 533.38 235.492C533.916 235.876 534.336 236.416 534.64 237.112C534.944 237.8 535.096 238.604 535.096 239.524C535.096 240.444 534.944 241.252 534.64 241.948C534.344 242.636 533.928 243.176 533.392 243.568C532.856 243.952 532.228 244.144 531.508 244.144ZM531.52 242.656C531.928 242.656 532.276 242.532 532.564 242.284C532.852 242.028 533.072 241.668 533.224 241.204C533.384 240.732 533.464 240.172 533.464 239.524C533.464 238.876 533.384 238.32 533.224 237.856C533.072 237.384 532.848 237.024 532.552 236.776C532.264 236.528 531.912 236.404 531.496 236.404C531.096 236.404 530.752 236.528 530.464 236.776C530.176 237.024 529.952 237.384 529.792 237.856C529.64 238.32 529.564 238.876 529.564 239.524C529.564 240.164 529.64 240.72 529.792 241.192C529.952 241.656 530.176 242.016 530.464 242.272C530.76 242.528 531.112 242.656 531.52 242.656ZM536.488 244V237.472H537.964V238.984L537.796 238.732C537.916 238.26 538.156 237.908 538.516 237.676C538.876 237.444 539.3 237.328 539.788 237.328C540.324 237.328 540.796 237.468 541.204 237.748C541.612 238.028 541.876 238.396 541.996 238.852L541.552 238.888C541.752 238.368 542.052 237.98 542.452 237.724C542.852 237.46 543.312 237.328 543.832 237.328C544.296 237.328 544.708 237.432 545.068 237.64C545.436 237.848 545.724 238.14 545.932 238.516C546.14 238.884 546.244 239.312 546.244 239.8V244H544.672V240.172C544.672 239.884 544.62 239.636 544.516 239.428C544.412 239.22 544.268 239.06 544.084 238.948C543.9 238.828 543.676 238.768 543.412 238.768C543.164 238.768 542.944 238.828 542.752 238.948C542.56 239.06 542.412 239.22 542.308 239.428C542.204 239.636 542.152 239.884 542.152 240.172V244H540.58V240.172C540.58 239.884 540.528 239.636 540.424 239.428C540.32 239.22 540.172 239.06 539.98 238.948C539.796 238.828 539.576 238.768 539.32 238.768C539.072 238.768 538.852 238.828 538.66 238.948C538.468 239.06 538.32 239.22 538.216 239.428C538.112 239.636 538.06 239.884 538.06 240.172V244H536.488ZM547.574 244V237.472H549.146V244H547.574ZM547.574 236.74V235.06H549.146V236.74H547.574ZM550.598 244V237.472H552.074V238.756L551.954 238.528C552.106 238.136 552.354 237.84 552.698 237.64C553.05 237.432 553.458 237.328 553.922 237.328C554.402 237.328 554.826 237.432 555.194 237.64C555.57 237.848 555.862 238.14 556.07 238.516C556.278 238.884 556.382 239.312 556.382 239.8V244H554.81V240.172C554.81 239.884 554.754 239.636 554.642 239.428C554.53 239.22 554.374 239.06 554.174 238.948C553.982 238.828 553.754 238.768 553.49 238.768C553.234 238.768 553.006 238.828 552.806 238.948C552.606 239.06 552.45 239.22 552.338 239.428C552.226 239.636 552.17 239.884 552.17 240.172V244H550.598Z" fill="#ABABAB"/>
<path d="M205.069 45L202.669 36.06H204.421L206.305 43.68H205.849L207.817 36.06H209.509L211.465 43.68H211.009L212.893 36.06H214.645L212.245 45H210.373L208.393 37.584H208.921L206.941 45H205.069ZM218.213 45.144C217.541 45.144 216.953 44.992 216.449 44.688C215.945 44.384 215.553 43.972 215.273 43.452C214.993 42.932 214.853 42.356 214.853 41.724C214.853 41.068 214.993 40.488 215.273 39.984C215.561 39.472 215.949 39.068 216.437 38.772C216.933 38.476 217.485 38.328 218.093 38.328C218.605 38.328 219.053 38.412 219.437 38.58C219.829 38.748 220.161 38.98 220.433 39.276C220.705 39.572 220.913 39.912 221.057 40.296C221.201 40.672 221.273 41.08 221.273 41.52C221.273 41.632 221.265 41.748 221.249 41.868C221.241 41.988 221.221 42.092 221.189 42.18H216.149V40.98H220.301L219.557 41.544C219.629 41.176 219.609 40.848 219.497 40.56C219.393 40.272 219.217 40.044 218.969 39.876C218.729 39.708 218.437 39.624 218.093 39.624C217.765 39.624 217.473 39.708 217.217 39.876C216.961 40.036 216.765 40.276 216.629 40.596C216.501 40.908 216.453 41.288 216.485 41.736C216.453 42.136 216.505 42.492 216.641 42.804C216.785 43.108 216.993 43.344 217.265 43.512C217.545 43.68 217.865 43.764 218.225 43.764C218.585 43.764 218.889 43.688 219.137 43.536C219.393 43.384 219.593 43.18 219.737 42.924L221.009 43.548C220.881 43.86 220.681 44.136 220.409 44.376C220.137 44.616 219.813 44.804 219.437 44.94C219.069 45.076 218.661 45.144 218.213 45.144ZM225.56 45.144C224.888 45.144 224.3 44.992 223.796 44.688C223.292 44.384 222.9 43.972 222.62 43.452C222.34 42.932 222.2 42.356 222.2 41.724C222.2 41.068 222.34 40.488 222.62 39.984C222.908 39.472 223.296 39.068 223.784 38.772C224.28 38.476 224.832 38.328 225.44 38.328C225.952 38.328 226.4 38.412 226.784 38.58C227.176 38.748 227.508 38.98 227.78 39.276C228.052 39.572 228.26 39.912 228.404 40.296C228.548 40.672 228.62 41.08 228.62 41.52C228.62 41.632 228.612 41.748 228.596 41.868C228.588 41.988 228.568 42.092 228.536 42.18H223.496V40.98H227.648L226.904 41.544C226.976 41.176 226.956 40.848 226.844 40.56C226.74 40.272 226.564 40.044 226.316 39.876C226.076 39.708 225.784 39.624 225.44 39.624C225.112 39.624 224.82 39.708 224.564 39.876C224.308 40.036 224.112 40.276 223.976 40.596C223.848 40.908 223.8 41.288 223.832 41.736C223.8 42.136 223.852 42.492 223.988 42.804C224.132 43.108 224.34 43.344 224.612 43.512C224.892 43.68 225.212 43.764 225.572 43.764C225.932 43.764 226.236 43.688 226.484 43.536C226.74 43.384 226.94 43.18 227.084 42.924L228.356 43.548C228.228 43.86 228.028 44.136 227.756 44.376C227.484 44.616 227.16 44.804 226.784 44.94C226.416 45.076 226.008 45.144 225.56 45.144ZM229.812 45V35.916H231.384V41.868L230.784 41.688L233.856 38.472H235.812L233.4 41.1L235.86 45H234.06L231.924 41.616L232.86 41.424L230.892 43.536L231.384 42.576V45H229.812ZM242.675 45V43.032H238.571V41.664L242.579 36.06H244.283V41.664H245.591V43.032H244.283V45H242.675ZM239.771 42.252L239.483 41.664H242.675V37.344L243.095 37.476L239.771 42.252ZM249.554 45.144C249.082 45.144 248.63 45.056 248.198 44.88C247.774 44.704 247.406 44.456 247.094 44.136C246.79 43.808 246.582 43.42 246.47 42.972L247.886 42.468C248.022 42.876 248.242 43.18 248.546 43.38C248.85 43.572 249.186 43.668 249.554 43.668C249.858 43.668 250.126 43.604 250.358 43.476C250.598 43.34 250.782 43.156 250.91 42.924C251.038 42.684 251.102 42.408 251.102 42.096C251.102 41.784 251.034 41.512 250.898 41.28C250.77 41.048 250.59 40.868 250.358 40.74C250.126 40.604 249.858 40.536 249.554 40.536C249.242 40.536 248.958 40.604 248.702 40.74C248.454 40.876 248.274 41.072 248.162 41.328L246.83 41.028L247.538 36.06H252.41V37.44H248.186L248.798 36.732L248.294 40.476L247.826 40.092C248.05 39.764 248.322 39.524 248.642 39.372C248.97 39.22 249.366 39.144 249.83 39.144C250.422 39.144 250.934 39.272 251.366 39.528C251.806 39.784 252.146 40.132 252.386 40.572C252.626 41.012 252.746 41.52 252.746 42.096C252.746 42.672 252.606 43.192 252.326 43.656C252.046 44.12 251.666 44.484 251.186 44.748C250.706 45.012 250.162 45.144 249.554 45.144ZM269.875 47.28V34.86H271.471V47.28H269.875ZM288.831 45V36.06H290.103L295.023 42.684L294.363 42.816V36.06H295.995V45H294.711L289.863 38.328L290.463 38.196V45H288.831ZM300.785 45.144C300.145 45.144 299.561 44.996 299.033 44.7C298.513 44.404 298.097 44 297.785 43.488C297.481 42.976 297.329 42.392 297.329 41.736C297.329 41.08 297.481 40.496 297.785 39.984C298.097 39.472 298.513 39.068 299.033 38.772C299.553 38.476 300.137 38.328 300.785 38.328C301.425 38.328 302.005 38.476 302.525 38.772C303.045 39.068 303.457 39.472 303.761 39.984C304.073 40.488 304.229 41.072 304.229 41.736C304.229 42.392 304.073 42.976 303.761 43.488C303.449 44 303.033 44.404 302.513 44.7C301.993 44.996 301.417 45.144 300.785 45.144ZM300.785 43.704C301.137 43.704 301.445 43.62 301.709 43.452C301.981 43.284 302.193 43.052 302.345 42.756C302.505 42.452 302.585 42.112 302.585 41.736C302.585 41.352 302.505 41.016 302.345 40.728C302.193 40.432 301.981 40.2 301.709 40.032C301.445 39.856 301.137 39.768 300.785 39.768C300.425 39.768 300.109 39.856 299.837 40.032C299.565 40.2 299.349 40.432 299.189 40.728C299.037 41.016 298.961 41.352 298.961 41.736C298.961 42.112 299.037 42.452 299.189 42.756C299.349 43.052 299.565 43.284 299.837 43.452C300.109 43.62 300.425 43.704 300.785 43.704ZM307.272 45L304.704 38.472H306.42L308.28 43.608H307.644L309.516 38.472H311.232L308.664 45H307.272ZM315.08 45.144C314.408 45.144 313.82 44.992 313.316 44.688C312.812 44.384 312.42 43.972 312.14 43.452C311.86 42.932 311.72 42.356 311.72 41.724C311.72 41.068 311.86 40.488 312.14 39.984C312.428 39.472 312.816 39.068 313.304 38.772C313.8 38.476 314.352 38.328 314.96 38.328C315.472 38.328 315.92 38.412 316.304 38.58C316.696 38.748 317.028 38.98 317.3 39.276C317.572 39.572 317.78 39.912 317.924 40.296C318.068 40.672 318.14 41.08 318.14 41.52C318.14 41.632 318.132 41.748 318.116 41.868C318.108 41.988 318.088 42.092 318.056 42.18H313.016V40.98H317.168L316.424 41.544C316.496 41.176 316.476 40.848 316.364 40.56C316.26 40.272 316.084 40.044 315.836 39.876C315.596 39.708 315.304 39.624 314.96 39.624C314.632 39.624 314.34 39.708 314.084 39.876C313.828 40.036 313.632 40.276 313.496 40.596C313.368 40.908 313.32 41.288 313.352 41.736C313.32 42.136 313.372 42.492 313.508 42.804C313.652 43.108 313.86 43.344 314.132 43.512C314.412 43.68 314.732 43.764 315.092 43.764C315.452 43.764 315.756 43.688 316.004 43.536C316.26 43.384 316.46 43.18 316.604 42.924L317.876 43.548C317.748 43.86 317.548 44.136 317.276 44.376C317.004 44.616 316.68 44.804 316.304 44.94C315.936 45.076 315.528 45.144 315.08 45.144ZM319.332 45V38.472H320.808V39.984L320.64 39.732C320.76 39.26 321 38.908 321.36 38.676C321.72 38.444 322.144 38.328 322.632 38.328C323.168 38.328 323.64 38.468 324.048 38.748C324.456 39.028 324.72 39.396 324.84 39.852L324.396 39.888C324.596 39.368 324.896 38.98 325.296 38.724C325.696 38.46 326.156 38.328 326.676 38.328C327.14 38.328 327.552 38.432 327.912 38.64C328.28 38.848 328.568 39.14 328.776 39.516C328.984 39.884 329.088 40.312 329.088 40.8V45H327.516V41.172C327.516 40.884 327.464 40.636 327.36 40.428C327.256 40.22 327.112 40.06 326.928 39.948C326.744 39.828 326.52 39.768 326.256 39.768C326.008 39.768 325.788 39.828 325.596 39.948C325.404 40.06 325.256 40.22 325.152 40.428C325.048 40.636 324.996 40.884 324.996 41.172V45H323.424V41.172C323.424 40.884 323.372 40.636 323.268 40.428C323.164 40.22 323.016 40.06 322.824 39.948C322.64 39.828 322.42 39.768 322.164 39.768C321.916 39.768 321.696 39.828 321.504 39.948C321.312 40.06 321.164 40.22 321.06 40.428C320.956 40.636 320.904 40.884 320.904 41.172V45H319.332ZM333.982 45.144C333.51 45.144 333.074 45.052 332.674 44.868C332.282 44.676 331.97 44.404 331.738 44.052L331.894 43.74V45H330.418V35.916H331.99V39.768L331.75 39.444C331.974 39.092 332.278 38.82 332.662 38.628C333.046 38.428 333.49 38.328 333.994 38.328C334.61 38.328 335.166 38.48 335.662 38.784C336.158 39.088 336.55 39.496 336.838 40.008C337.134 40.52 337.282 41.096 337.282 41.736C337.282 42.368 337.138 42.944 336.85 43.464C336.562 43.984 336.17 44.396 335.674 44.7C335.178 44.996 334.614 45.144 333.982 45.144ZM333.802 43.704C334.162 43.704 334.482 43.62 334.762 43.452C335.042 43.284 335.258 43.052 335.41 42.756C335.57 42.46 335.65 42.12 335.65 41.736C335.65 41.352 335.57 41.016 335.41 40.728C335.258 40.432 335.042 40.2 334.762 40.032C334.482 39.856 334.162 39.768 333.802 39.768C333.458 39.768 333.146 39.852 332.866 40.02C332.594 40.188 332.378 40.424 332.218 40.728C332.066 41.024 331.99 41.36 331.99 41.736C331.99 42.12 332.066 42.46 332.218 42.756C332.378 43.052 332.594 43.284 332.866 43.452C333.146 43.62 333.458 43.704 333.802 43.704ZM341.576 45.144C340.904 45.144 340.316 44.992 339.812 44.688C339.308 44.384 338.916 43.972 338.636 43.452C338.356 42.932 338.216 42.356 338.216 41.724C338.216 41.068 338.356 40.488 338.636 39.984C338.924 39.472 339.312 39.068 339.8 38.772C340.296 38.476 340.848 38.328 341.456 38.328C341.968 38.328 342.416 38.412 342.8 38.58C343.192 38.748 343.524 38.98 343.796 39.276C344.068 39.572 344.276 39.912 344.42 40.296C344.564 40.672 344.636 41.08 344.636 41.52C344.636 41.632 344.628 41.748 344.612 41.868C344.604 41.988 344.584 42.092 344.552 42.18H339.512V40.98H343.664L342.92 41.544C342.992 41.176 342.972 40.848 342.86 40.56C342.756 40.272 342.58 40.044 342.332 39.876C342.092 39.708 341.8 39.624 341.456 39.624C341.128 39.624 340.836 39.708 340.58 39.876C340.324 40.036 340.128 40.276 339.992 40.596C339.864 40.908 339.816 41.288 339.848 41.736C339.816 42.136 339.868 42.492 340.004 42.804C340.148 43.108 340.356 43.344 340.628 43.512C340.908 43.68 341.228 43.764 341.588 43.764C341.948 43.764 342.252 43.688 342.5 43.536C342.756 43.384 342.956 43.18 343.1 42.924L344.372 43.548C344.244 43.86 344.044 44.136 343.772 44.376C343.5 44.616 343.176 44.804 342.8 44.94C342.432 45.076 342.024 45.144 341.576 45.144ZM345.828 45V38.472H347.304V39.924L347.184 39.708C347.336 39.22 347.572 38.88 347.892 38.688C348.22 38.496 348.612 38.4 349.068 38.4H349.452V39.792H348.888C348.44 39.792 348.08 39.932 347.808 40.212C347.536 40.484 347.4 40.868 347.4 41.364V45H345.828ZM352.581 45L356.301 37.44H352.089V36.06H358.017V37.44L354.381 45H352.581ZM362.128 45.072C361.392 45.072 360.82 44.872 360.412 44.472C360.012 44.064 359.812 43.492 359.812 42.756V39.876H358.684V38.472H358.804C359.124 38.472 359.372 38.388 359.548 38.22C359.724 38.052 359.812 37.808 359.812 37.488V36.984H361.384V38.472H362.884V39.876H361.384V42.672C361.384 42.888 361.42 43.072 361.492 43.224C361.572 43.376 361.692 43.492 361.852 43.572C362.02 43.652 362.232 43.692 362.488 43.692C362.544 43.692 362.608 43.688 362.68 43.68C362.76 43.672 362.836 43.664 362.908 43.656V45C362.796 45.016 362.668 45.032 362.524 45.048C362.38 45.064 362.248 45.072 362.128 45.072ZM364.109 45V35.916H365.681V39.756L365.465 39.528C365.617 39.136 365.865 38.84 366.209 38.64C366.561 38.432 366.969 38.328 367.433 38.328C367.913 38.328 368.337 38.432 368.705 38.64C369.081 38.848 369.373 39.14 369.581 39.516C369.789 39.884 369.893 40.312 369.893 40.8V45H368.321V41.172C368.321 40.884 368.265 40.636 368.153 40.428C368.041 40.22 367.885 40.06 367.685 39.948C367.493 39.828 367.265 39.768 367.001 39.768C366.745 39.768 366.517 39.828 366.317 39.948C366.117 40.06 365.961 40.22 365.849 40.428C365.737 40.636 365.681 40.884 365.681 41.172V45H364.109ZM371.726 46.872V46.092C371.99 46.028 372.202 45.904 372.362 45.72C372.53 45.544 372.634 45.304 372.674 45H371.966V43.32H373.55V44.352C373.55 45.056 373.394 45.62 373.082 46.044C372.778 46.468 372.326 46.744 371.726 46.872ZM377.464 45V43.764L379.888 41.232C380.368 40.728 380.736 40.328 380.992 40.032C381.256 39.728 381.44 39.468 381.544 39.252C381.648 39.036 381.7 38.816 381.7 38.592C381.7 38.216 381.58 37.92 381.34 37.704C381.108 37.488 380.808 37.38 380.44 37.38C380.056 37.38 379.724 37.492 379.444 37.716C379.164 37.932 378.96 38.252 378.832 38.676L377.404 38.232C377.5 37.76 377.696 37.352 377.992 37.008C378.288 36.656 378.648 36.388 379.072 36.204C379.504 36.012 379.96 35.916 380.44 35.916C381.016 35.916 381.52 36.02 381.952 36.228C382.392 36.436 382.732 36.728 382.972 37.104C383.22 37.48 383.344 37.92 383.344 38.424C383.344 38.744 383.284 39.06 383.164 39.372C383.044 39.684 382.864 40.004 382.624 40.332C382.384 40.652 382.072 41.012 381.688 41.412L379.588 43.62H383.464V45H377.464ZM388.32 45.144C387.608 45.144 386.984 44.952 386.448 44.568C385.912 44.184 385.492 43.644 385.188 42.948C384.892 42.252 384.744 41.444 384.744 40.524C384.744 39.596 384.892 38.788 385.188 38.1C385.484 37.412 385.9 36.876 386.436 36.492C386.972 36.108 387.596 35.916 388.308 35.916C389.036 35.916 389.664 36.108 390.192 36.492C390.728 36.876 391.148 37.416 391.452 38.112C391.756 38.8 391.908 39.604 391.908 40.524C391.908 41.444 391.756 42.252 391.452 42.948C391.156 43.636 390.74 44.176 390.204 44.568C389.668 44.952 389.04 45.144 388.32 45.144ZM388.332 43.656C388.74 43.656 389.088 43.532 389.376 43.284C389.664 43.028 389.884 42.668 390.036 42.204C390.196 41.732 390.276 41.172 390.276 40.524C390.276 39.876 390.196 39.32 390.036 38.856C389.884 38.384 389.66 38.024 389.364 37.776C389.076 37.528 388.724 37.404 388.308 37.404C387.908 37.404 387.564 37.528 387.276 37.776C386.988 38.024 386.764 38.384 386.604 38.856C386.452 39.32 386.376 39.876 386.376 40.524C386.376 41.164 386.452 41.72 386.604 42.192C386.764 42.656 386.988 43.016 387.276 43.272C387.572 43.528 387.924 43.656 388.332 43.656ZM393.12 45V43.764L395.544 41.232C396.024 40.728 396.392 40.328 396.648 40.032C396.912 39.728 397.096 39.468 397.2 39.252C397.304 39.036 397.356 38.816 397.356 38.592C397.356 38.216 397.236 37.92 396.996 37.704C396.764 37.488 396.464 37.38 396.096 37.38C395.712 37.38 395.38 37.492 395.1 37.716C394.82 37.932 394.616 38.252 394.488 38.676L393.06 38.232C393.156 37.76 393.352 37.352 393.648 37.008C393.944 36.656 394.304 36.388 394.728 36.204C395.16 36.012 395.616 35.916 396.096 35.916C396.672 35.916 397.176 36.02 397.608 36.228C398.048 36.436 398.388 36.728 398.628 37.104C398.876 37.48 399 37.92 399 38.424C399 38.744 398.94 39.06 398.82 39.372C398.7 39.684 398.52 40.004 398.28 40.332C398.04 40.652 397.728 41.012 397.344 41.412L395.244 43.62H399.12V45H393.12ZM404.147 45V43.032H400.043V41.664L404.051 36.06H405.755V41.664H407.063V43.032H405.755V45H404.147ZM401.243 42.252L400.955 41.664H404.147V37.344L404.567 37.476L401.243 42.252Z" fill="#ABABAB"/>
<rect x="39" y="256.864" width="518" height="10.5427" rx="5.27136" fill="#E7E7E7"/>
<rect x="40" y="257" width="253" height="11" rx="5.5" fill="url(#paint0_linear_1022_541)"/>
<rect x="44" y="80" width="66" height="110" rx="5" fill="white" stroke="#CECECE" stroke-width="2"/>
<path d="M65.0378 165V156.06H66.5978L69.9458 160.608H69.2018L72.4778 156.06H74.0378V165H72.3938V157.92L73.0298 158.076L69.6338 162.6H69.4418L66.1298 158.076L66.6698 157.92V165H65.0378ZM78.8088 165.144C78.1688 165.144 77.5848 164.996 77.0568 164.7C76.5368 164.404 76.1208 164 75.8088 163.488C75.5048 162.976 75.3528 162.392 75.3528 161.736C75.3528 161.08 75.5048 160.496 75.8088 159.984C76.1208 159.472 76.5368 159.068 77.0568 158.772C77.5768 158.476 78.1608 158.328 78.8088 158.328C79.4488 158.328 80.0288 158.476 80.5488 158.772C81.0688 159.068 81.4808 159.472 81.7848 159.984C82.0968 160.488 82.2528 161.072 82.2528 161.736C82.2528 162.392 82.0968 162.976 81.7848 163.488C81.4728 164 81.0568 164.404 80.5368 164.7C80.0168 164.996 79.4408 165.144 78.8088 165.144ZM78.8088 163.704C79.1608 163.704 79.4688 163.62 79.7328 163.452C80.0048 163.284 80.2168 163.052 80.3688 162.756C80.5288 162.452 80.6088 162.112 80.6088 161.736C80.6088 161.352 80.5288 161.016 80.3688 160.728C80.2168 160.432 80.0048 160.2 79.7328 160.032C79.4688 159.856 79.1608 159.768 78.8088 159.768C78.4488 159.768 78.1328 159.856 77.8608 160.032C77.5888 160.2 77.3728 160.432 77.2128 160.728C77.0608 161.016 76.9848 161.352 76.9848 161.736C76.9848 162.112 77.0608 162.452 77.2128 162.756C77.3728 163.052 77.5888 163.284 77.8608 163.452C78.1328 163.62 78.4488 163.704 78.8088 163.704ZM83.4449 165V158.472H84.9209V159.756L84.8009 159.528C84.9529 159.136 85.2009 158.84 85.5449 158.64C85.8969 158.432 86.3049 158.328 86.7689 158.328C87.2489 158.328 87.6729 158.432 88.0409 158.64C88.4169 158.848 88.7089 159.14 88.9169 159.516C89.1249 159.884 89.2289 160.312 89.2289 160.8V165H87.6569V161.172C87.6569 160.884 87.6009 160.636 87.4889 160.428C87.3769 160.22 87.2209 160.06 87.0209 159.948C86.8289 159.828 86.6009 159.768 86.3369 159.768C86.0809 159.768 85.8529 159.828 85.6529 159.948C85.4529 160.06 85.2969 160.22 85.1849 160.428C85.0729 160.636 85.0169 160.884 85.0169 161.172V165H83.4449Z" fill="black"/>
<path d="M79.1273 138V132.752H68.1833V129.104L78.8713 114.16H83.4153V129.104H86.9033V132.752H83.4153V138H79.1273ZM71.3833 130.672L70.6153 129.104H79.1273V117.584L80.2473 117.936L71.3833 130.672Z" fill="black"/>
<rect x="119" y="80" width="66" height="110" rx="5" fill="white" stroke="#CECECE" stroke-width="2"/>
<path d="M144.706 165V157.5H142.39V156.06H148.63V157.5H146.35V165H144.706ZM151.341 165.144C150.837 165.144 150.397 165.032 150.021 164.808C149.653 164.584 149.369 164.272 149.169 163.872C148.977 163.472 148.881 163.004 148.881 162.468V158.472H150.453V162.336C150.453 162.608 150.505 162.848 150.609 163.056C150.721 163.256 150.877 163.416 151.077 163.536C151.285 163.648 151.517 163.704 151.773 163.704C152.029 163.704 152.257 163.648 152.457 163.536C152.657 163.416 152.813 163.252 152.925 163.044C153.037 162.836 153.093 162.588 153.093 162.3V158.472H154.665V165H153.177V163.716L153.309 163.944C153.157 164.344 152.905 164.644 152.553 164.844C152.209 165.044 151.805 165.144 151.341 165.144ZM159.223 165.144C158.551 165.144 157.963 164.992 157.459 164.688C156.955 164.384 156.563 163.972 156.283 163.452C156.003 162.932 155.863 162.356 155.863 161.724C155.863 161.068 156.003 160.488 156.283 159.984C156.571 159.472 156.959 159.068 157.447 158.772C157.943 158.476 158.495 158.328 159.103 158.328C159.615 158.328 160.063 158.412 160.447 158.58C160.839 158.748 161.171 158.98 161.443 159.276C161.715 159.572 161.923 159.912 162.067 160.296C162.211 160.672 162.283 161.08 162.283 161.52C162.283 161.632 162.275 161.748 162.259 161.868C162.251 161.988 162.231 162.092 162.199 162.18H157.159V160.98H161.311L160.567 161.544C160.639 161.176 160.619 160.848 160.507 160.56C160.403 160.272 160.227 160.044 159.979 159.876C159.739 159.708 159.447 159.624 159.103 159.624C158.775 159.624 158.483 159.708 158.227 159.876C157.971 160.036 157.775 160.276 157.639 160.596C157.511 160.908 157.463 161.288 157.495 161.736C157.463 162.136 157.515 162.492 157.651 162.804C157.795 163.108 158.003 163.344 158.275 163.512C158.555 163.68 158.875 163.764 159.235 163.764C159.595 163.764 159.899 163.688 160.147 163.536C160.403 163.384 160.603 163.18 160.747 162.924L162.019 163.548C161.891 163.86 161.691 164.136 161.419 164.376C161.147 164.616 160.823 164.804 160.447 164.94C160.079 165.076 159.671 165.144 159.223 165.144Z" fill="black"/>
<path d="M151.66 138.384C150.402 138.384 149.196 138.149 148.044 137.68C146.914 137.211 145.932 136.549 145.1 135.696C144.29 134.821 143.735 133.787 143.436 132.592L147.212 131.248C147.575 132.336 148.162 133.147 148.972 133.68C149.783 134.192 150.679 134.448 151.66 134.448C152.471 134.448 153.186 134.277 153.804 133.936C154.444 133.573 154.935 133.083 155.276 132.464C155.618 131.824 155.788 131.088 155.788 130.256C155.788 129.424 155.607 128.699 155.244 128.08C154.903 127.461 154.423 126.981 153.804 126.64C153.186 126.277 152.471 126.096 151.66 126.096C150.828 126.096 150.071 126.277 149.388 126.64C148.727 127.003 148.247 127.525 147.948 128.208L144.396 127.408L146.284 114.16H159.276V117.84H148.012L149.644 115.952L148.3 125.936L147.052 124.912C147.65 124.037 148.375 123.397 149.228 122.992C150.103 122.587 151.159 122.384 152.396 122.384C153.975 122.384 155.34 122.725 156.492 123.408C157.666 124.091 158.572 125.019 159.212 126.192C159.852 127.365 160.172 128.72 160.172 130.256C160.172 131.792 159.799 133.179 159.052 134.416C158.306 135.653 157.292 136.624 156.012 137.328C154.732 138.032 153.282 138.384 151.66 138.384Z" fill="black"/>
<rect x="193" y="79" width="68" height="112" rx="6" fill="white" stroke="#CECECE" stroke-width="2"/>
<path d="M215.903 165L213.503 156.06H215.255L217.139 163.68H216.683L218.651 156.06H220.343L222.299 163.68H221.843L223.727 156.06H225.479L223.079 165H221.207L219.227 157.584H219.755L217.775 165H215.903ZM229.047 165.144C228.375 165.144 227.787 164.992 227.283 164.688C226.779 164.384 226.387 163.972 226.107 163.452C225.827 162.932 225.687 162.356 225.687 161.724C225.687 161.068 225.827 160.488 226.107 159.984C226.395 159.472 226.783 159.068 227.271 158.772C227.767 158.476 228.319 158.328 228.927 158.328C229.439 158.328 229.887 158.412 230.271 158.58C230.663 158.748 230.995 158.98 231.267 159.276C231.539 159.572 231.747 159.912 231.891 160.296C232.035 160.672 232.107 161.08 232.107 161.52C232.107 161.632 232.099 161.748 232.083 161.868C232.075 161.988 232.055 162.092 232.023 162.18H226.983V160.98H231.135L230.391 161.544C230.463 161.176 230.443 160.848 230.331 160.56C230.227 160.272 230.051 160.044 229.803 159.876C229.563 159.708 229.271 159.624 228.927 159.624C228.599 159.624 228.307 159.708 228.051 159.876C227.795 160.036 227.599 160.276 227.463 160.596C227.335 160.908 227.287 161.288 227.319 161.736C227.287 162.136 227.339 162.492 227.475 162.804C227.619 163.108 227.827 163.344 228.099 163.512C228.379 163.68 228.699 163.764 229.059 163.764C229.419 163.764 229.723 163.688 229.971 163.536C230.227 163.384 230.427 163.18 230.571 162.924L231.843 163.548C231.715 163.86 231.515 164.136 231.243 164.376C230.971 164.616 230.647 164.804 230.271 164.94C229.903 165.076 229.495 165.144 229.047 165.144ZM236.334 165.144C235.702 165.144 235.138 164.996 234.642 164.7C234.146 164.396 233.754 163.984 233.466 163.464C233.178 162.944 233.034 162.368 233.034 161.736C233.034 161.096 233.178 160.52 233.466 160.008C233.754 159.496 234.146 159.088 234.642 158.784C235.146 158.48 235.706 158.328 236.322 158.328C236.818 158.328 237.258 158.428 237.642 158.628C238.034 158.82 238.342 159.092 238.566 159.444L238.326 159.768V155.916H239.898V165H238.41V163.74L238.578 164.052C238.354 164.404 238.042 164.676 237.642 164.868C237.242 165.052 236.806 165.144 236.334 165.144ZM236.502 163.704C236.862 163.704 237.178 163.62 237.45 163.452C237.722 163.284 237.934 163.052 238.086 162.756C238.246 162.46 238.326 162.12 238.326 161.736C238.326 161.36 238.246 161.024 238.086 160.728C237.934 160.424 237.722 160.188 237.45 160.02C237.178 159.852 236.862 159.768 236.502 159.768C236.15 159.768 235.834 159.856 235.554 160.032C235.274 160.2 235.054 160.432 234.894 160.728C234.742 161.016 234.666 161.352 234.666 161.736C234.666 162.12 234.742 162.46 234.894 162.756C235.054 163.052 235.274 163.284 235.554 163.452C235.834 163.62 236.15 163.704 236.502 163.704Z" fill="black"/>
<path d="M227.039 138.384C225.418 138.384 223.978 138.043 222.719 137.36C221.482 136.656 220.511 135.717 219.807 134.544C219.103 133.349 218.751 131.995 218.751 130.48C218.751 129.712 218.826 128.944 218.975 128.176C219.146 127.408 219.444 126.587 219.871 125.712C220.319 124.837 220.959 123.867 221.791 122.8L228.447 114.16H233.631L225.535 124.56L224.831 123.792C225.13 123.557 225.439 123.376 225.759 123.248C226.079 123.099 226.399 122.992 226.719 122.928C227.06 122.864 227.412 122.832 227.775 122.832C229.226 122.832 230.516 123.163 231.647 123.824C232.778 124.485 233.663 125.392 234.303 126.544C234.964 127.675 235.295 128.955 235.295 130.384C235.295 131.92 234.943 133.296 234.239 134.512C233.535 135.707 232.554 136.656 231.295 137.36C230.058 138.043 228.639 138.384 227.039 138.384ZM227.039 134.448C227.764 134.448 228.415 134.288 228.991 133.968C229.588 133.627 230.058 133.147 230.399 132.528C230.762 131.909 230.943 131.216 230.943 130.448C230.943 129.637 230.762 128.944 230.399 128.368C230.058 127.771 229.599 127.301 229.023 126.96C228.447 126.619 227.786 126.448 227.039 126.448C226.314 126.448 225.652 126.619 225.055 126.96C224.458 127.301 223.978 127.771 223.615 128.368C223.274 128.944 223.103 129.637 223.103 130.448C223.103 131.216 223.274 131.909 223.615 132.528C223.978 133.147 224.458 133.627 225.055 133.968C225.652 134.288 226.314 134.448 227.039 134.448Z" fill="black"/>
<g filter="url(#filter0_d_1022_541)">
<rect x="268" y="79" width="68" height="112" rx="6" fill="white"/>
<rect x="269" y="80" width="66" height="110" rx="5" stroke="black" stroke-width="2"/>
</g>
<path d="M294.583 165V157.5H292.267V156.06H298.507V157.5H296.227V165H294.583ZM299.371 165V155.916H300.943V159.756L300.727 159.528C300.879 159.136 301.127 158.84 301.471 158.64C301.823 158.432 302.231 158.328 302.695 158.328C303.175 158.328 303.599 158.432 303.967 158.64C304.343 158.848 304.635 159.14 304.843 159.516C305.051 159.884 305.155 160.312 305.155 160.8V165H303.583V161.172C303.583 160.884 303.527 160.636 303.415 160.428C303.303 160.22 303.147 160.06 302.947 159.948C302.755 159.828 302.527 159.768 302.263 159.768C302.007 159.768 301.779 159.828 301.579 159.948C301.379 160.06 301.223 160.22 301.111 160.428C300.999 160.636 300.943 160.884 300.943 161.172V165H299.371ZM308.812 165.144C308.308 165.144 307.868 165.032 307.492 164.808C307.124 164.584 306.84 164.272 306.64 163.872C306.448 163.472 306.352 163.004 306.352 162.468V158.472H307.924V162.336C307.924 162.608 307.976 162.848 308.08 163.056C308.192 163.256 308.348 163.416 308.548 163.536C308.756 163.648 308.988 163.704 309.244 163.704C309.5 163.704 309.728 163.648 309.928 163.536C310.128 163.416 310.284 163.252 310.396 163.044C310.508 162.836 310.564 162.588 310.564 162.3V158.472H312.136V165H310.648V163.716L310.78 163.944C310.628 164.344 310.376 164.644 310.024 164.844C309.68 165.044 309.276 165.144 308.812 165.144Z" fill="black"/>
<path d="M295.367 138L305.287 117.84H294.055V114.16H309.863V117.84L300.167 138H295.367Z" fill="black"/>
<rect x="343" y="79" width="68" height="112" rx="6" fill="white" stroke="#CECECE" stroke-width="2"/>
<path d="M371.274 165V156.06H377.238V157.5H372.906V159.972H376.698V161.412H372.906V165H371.274ZM377.81 165V158.472H379.286V159.924L379.166 159.708C379.318 159.22 379.554 158.88 379.874 158.688C380.202 158.496 380.594 158.4 381.05 158.4H381.434V159.792H380.87C380.422 159.792 380.062 159.932 379.79 160.212C379.518 160.484 379.382 160.868 379.382 161.364V165H377.81ZM382.298 165V158.472H383.87V165H382.298ZM382.298 157.74V156.06H383.87V157.74H382.298Z" fill="black"/>
<path d="M377.503 138.384C375.775 138.384 374.271 138.064 372.991 137.424C371.732 136.763 370.751 135.877 370.047 134.768C369.364 133.659 369.023 132.443 369.023 131.12C369.023 129.563 369.439 128.251 370.271 127.184C371.103 126.096 372.308 125.296 373.887 124.784L373.631 125.84C372.5 125.477 371.604 124.773 370.943 123.728C370.303 122.683 369.983 121.531 369.983 120.272C369.983 119.013 370.303 117.893 370.943 116.912C371.583 115.931 372.468 115.163 373.599 114.608C374.729 114.053 376.031 113.776 377.503 113.776C378.953 113.776 380.233 114.053 381.343 114.608C382.473 115.163 383.359 115.931 383.999 116.912C384.66 117.893 384.991 119.013 384.991 120.272C384.991 121.552 384.66 122.715 383.999 123.76C383.359 124.784 382.473 125.488 381.343 125.872L381.119 124.752C382.697 125.307 383.903 126.128 384.735 127.216C385.567 128.283 385.983 129.595 385.983 131.152C385.983 132.475 385.631 133.691 384.927 134.8C384.244 135.888 383.263 136.763 381.983 137.424C380.724 138.064 379.231 138.384 377.503 138.384ZM377.503 134.704C378.335 134.704 379.06 134.555 379.679 134.256C380.297 133.936 380.777 133.499 381.119 132.944C381.46 132.368 381.631 131.717 381.631 130.992C381.631 130.245 381.46 129.605 381.119 129.072C380.777 128.517 380.297 128.091 379.679 127.792C379.06 127.472 378.335 127.312 377.503 127.312C376.671 127.312 375.945 127.472 375.327 127.792C374.729 128.091 374.26 128.517 373.919 129.072C373.577 129.605 373.407 130.245 373.407 130.992C373.407 131.717 373.577 132.368 373.919 132.944C374.26 133.499 374.729 133.936 375.327 134.256C375.945 134.555 376.671 134.704 377.503 134.704ZM377.503 123.632C378.121 123.632 378.665 123.493 379.135 123.216C379.604 122.939 379.967 122.576 380.223 122.128C380.5 121.659 380.639 121.125 380.639 120.528C380.639 119.931 380.5 119.408 380.223 118.96C379.967 118.491 379.604 118.128 379.135 117.872C378.665 117.595 378.121 117.456 377.503 117.456C376.884 117.456 376.329 117.595 375.839 117.872C375.369 118.128 374.996 118.491 374.719 118.96C374.463 119.408 374.335 119.931 374.335 120.528C374.335 121.125 374.463 121.659 374.719 122.128C374.996 122.576 375.369 122.939 375.839 123.216C376.329 123.493 376.884 123.632 377.503 123.632Z" fill="black"/>
<rect x="418" y="79" width="68" height="112" rx="6" fill="white" stroke="#CECECE" stroke-width="2"/>
<path d="M446.3 165.144C445.732 165.144 445.204 165.04 444.716 164.832C444.236 164.624 443.82 164.336 443.468 163.968C443.124 163.592 442.872 163.156 442.712 162.66L444.068 162.072C444.284 162.584 444.596 162.988 445.004 163.284C445.412 163.572 445.872 163.716 446.384 163.716C446.672 163.716 446.92 163.672 447.128 163.584C447.344 163.488 447.508 163.36 447.62 163.2C447.74 163.04 447.8 162.848 447.8 162.624C447.8 162.36 447.72 162.144 447.56 161.976C447.408 161.8 447.176 161.664 446.864 161.568L445.148 161.016C444.452 160.8 443.928 160.476 443.576 160.044C443.224 159.612 443.048 159.104 443.048 158.52C443.048 158.008 443.172 157.556 443.42 157.164C443.676 156.772 444.028 156.468 444.476 156.252C444.932 156.028 445.452 155.916 446.036 155.916C446.572 155.916 447.064 156.012 447.512 156.204C447.96 156.388 448.344 156.648 448.664 156.984C448.992 157.312 449.236 157.7 449.396 158.148L448.052 158.748C447.876 158.3 447.612 157.956 447.26 157.716C446.908 157.468 446.5 157.344 446.036 157.344C445.764 157.344 445.524 157.392 445.316 157.488C445.108 157.576 444.944 157.704 444.824 157.872C444.712 158.032 444.656 158.224 444.656 158.448C444.656 158.696 444.736 158.916 444.896 159.108C445.056 159.292 445.3 159.436 445.628 159.54L447.272 160.056C447.984 160.288 448.516 160.608 448.868 161.016C449.228 161.424 449.408 161.928 449.408 162.528C449.408 163.04 449.276 163.492 449.012 163.884C448.748 164.276 448.384 164.584 447.92 164.808C447.456 165.032 446.916 165.144 446.3 165.144ZM452.667 165.144C452.211 165.144 451.815 165.068 451.479 164.916C451.143 164.764 450.883 164.548 450.699 164.268C450.515 163.98 450.423 163.648 450.423 163.272C450.423 162.912 450.503 162.592 450.663 162.312C450.823 162.024 451.071 161.784 451.407 161.592C451.743 161.4 452.167 161.264 452.679 161.184L454.815 160.836V162.036L452.979 162.348C452.667 162.404 452.435 162.504 452.283 162.648C452.131 162.792 452.055 162.98 452.055 163.212C452.055 163.436 452.139 163.616 452.307 163.752C452.483 163.88 452.699 163.944 452.955 163.944C453.283 163.944 453.571 163.876 453.819 163.74C454.075 163.596 454.271 163.4 454.407 163.152C454.551 162.904 454.623 162.632 454.623 162.336V160.656C454.623 160.376 454.511 160.144 454.287 159.96C454.071 159.768 453.783 159.672 453.423 159.672C453.087 159.672 452.787 159.764 452.523 159.948C452.267 160.124 452.079 160.36 451.959 160.656L450.675 160.032C450.803 159.688 451.003 159.392 451.275 159.144C451.555 158.888 451.883 158.688 452.259 158.544C452.635 158.4 453.043 158.328 453.483 158.328C454.019 158.328 454.491 158.428 454.899 158.628C455.307 158.82 455.623 159.092 455.847 159.444C456.079 159.788 456.195 160.192 456.195 160.656V165H454.707V163.884L455.043 163.86C454.875 164.14 454.675 164.376 454.443 164.568C454.211 164.752 453.947 164.896 453.651 165C453.355 165.096 453.027 165.144 452.667 165.144ZM460.507 165.072C459.771 165.072 459.199 164.872 458.791 164.472C458.391 164.064 458.191 163.492 458.191 162.756V159.876H457.063V158.472H457.183C457.503 158.472 457.751 158.388 457.927 158.22C458.103 158.052 458.191 157.808 458.191 157.488V156.984H459.763V158.472H461.263V159.876H459.763V162.672C459.763 162.888 459.799 163.072 459.871 163.224C459.951 163.376 460.071 163.492 460.231 163.572C460.399 163.652 460.611 163.692 460.867 163.692C460.923 163.692 460.987 163.688 461.059 163.68C461.139 163.672 461.215 163.664 461.287 163.656V165C461.175 165.016 461.047 165.032 460.903 165.048C460.759 165.064 460.627 165.072 460.507 165.072Z" fill="black"/>
<path d="M445.383 138L453.479 127.568L454.215 128.336C453.895 128.571 453.586 128.763 453.287 128.912C452.988 129.061 452.668 129.168 452.327 129.232C451.986 129.296 451.623 129.328 451.239 129.328C449.788 129.328 448.498 128.997 447.367 128.336C446.236 127.675 445.34 126.779 444.679 125.648C444.039 124.496 443.719 123.195 443.719 121.744C443.719 120.208 444.071 118.843 444.775 117.648C445.5 116.453 446.482 115.515 447.719 114.832C448.978 114.128 450.407 113.776 452.007 113.776C453.628 113.776 455.058 114.117 456.295 114.8C457.532 115.483 458.503 116.421 459.207 117.616C459.932 118.789 460.295 120.144 460.295 121.68C460.295 122.448 460.21 123.216 460.039 123.984C459.868 124.752 459.559 125.573 459.111 126.448C458.684 127.301 458.066 128.272 457.255 129.36L450.599 138H445.383ZM452.007 125.68C452.754 125.68 453.415 125.52 453.991 125.2C454.588 124.859 455.058 124.389 455.399 123.792C455.74 123.173 455.911 122.48 455.911 121.712C455.911 120.901 455.73 120.197 455.367 119.6C455.026 119.003 454.567 118.533 453.991 118.192C453.415 117.851 452.754 117.68 452.007 117.68C451.282 117.68 450.62 117.851 450.023 118.192C449.426 118.533 448.946 119.003 448.583 119.6C448.242 120.197 448.071 120.901 448.071 121.712C448.071 122.48 448.242 123.173 448.583 123.792C448.946 124.389 449.426 124.859 450.023 125.2C450.62 125.52 451.282 125.68 452.007 125.68Z" fill="black"/>
<rect x="493" y="79" width="68" height="112" rx="6" fill="white" stroke="#CECECE" stroke-width="2"/>
<path d="M520.058 165.144C519.49 165.144 518.962 165.04 518.474 164.832C517.994 164.624 517.578 164.336 517.226 163.968C516.882 163.592 516.63 163.156 516.47 162.66L517.826 162.072C518.042 162.584 518.354 162.988 518.762 163.284C519.17 163.572 519.63 163.716 520.142 163.716C520.43 163.716 520.678 163.672 520.886 163.584C521.102 163.488 521.266 163.36 521.378 163.2C521.498 163.04 521.558 162.848 521.558 162.624C521.558 162.36 521.478 162.144 521.318 161.976C521.166 161.8 520.934 161.664 520.622 161.568L518.906 161.016C518.21 160.8 517.686 160.476 517.334 160.044C516.982 159.612 516.806 159.104 516.806 158.52C516.806 158.008 516.93 157.556 517.178 157.164C517.434 156.772 517.786 156.468 518.234 156.252C518.69 156.028 519.21 155.916 519.794 155.916C520.33 155.916 520.822 156.012 521.27 156.204C521.718 156.388 522.102 156.648 522.422 156.984C522.75 157.312 522.994 157.7 523.154 158.148L521.81 158.748C521.634 158.3 521.37 157.956 521.018 157.716C520.666 157.468 520.258 157.344 519.794 157.344C519.522 157.344 519.282 157.392 519.074 157.488C518.866 157.576 518.702 157.704 518.582 157.872C518.47 158.032 518.414 158.224 518.414 158.448C518.414 158.696 518.494 158.916 518.654 159.108C518.814 159.292 519.058 159.436 519.386 159.54L521.03 160.056C521.742 160.288 522.274 160.608 522.626 161.016C522.986 161.424 523.166 161.928 523.166 162.528C523.166 163.04 523.034 163.492 522.77 163.884C522.506 164.276 522.142 164.584 521.678 164.808C521.214 165.032 520.674 165.144 520.058 165.144ZM526.831 165.144C526.327 165.144 525.887 165.032 525.511 164.808C525.143 164.584 524.859 164.272 524.659 163.872C524.467 163.472 524.371 163.004 524.371 162.468V158.472H525.943V162.336C525.943 162.608 525.995 162.848 526.099 163.056C526.211 163.256 526.367 163.416 526.567 163.536C526.775 163.648 527.007 163.704 527.263 163.704C527.519 163.704 527.747 163.648 527.947 163.536C528.147 163.416 528.303 163.252 528.415 163.044C528.527 162.836 528.583 162.588 528.583 162.3V158.472H530.155V165H528.667V163.716L528.799 163.944C528.647 164.344 528.395 164.644 528.043 164.844C527.699 165.044 527.295 165.144 526.831 165.144ZM531.617 165V158.472H533.093V159.756L532.973 159.528C533.125 159.136 533.373 158.84 533.717 158.64C534.069 158.432 534.477 158.328 534.941 158.328C535.421 158.328 535.845 158.432 536.213 158.64C536.589 158.848 536.881 159.14 537.089 159.516C537.297 159.884 537.401 160.312 537.401 160.8V165H535.829V161.172C535.829 160.884 535.773 160.636 535.661 160.428C535.549 160.22 535.393 160.06 535.193 159.948C535.001 159.828 534.773 159.768 534.509 159.768C534.253 159.768 534.025 159.828 533.825 159.948C533.625 160.06 533.469 160.22 533.357 160.428C533.245 160.636 533.189 160.884 533.189 161.172V165H531.617Z" fill="black"/>
<path d="M514.755 138V117.872H510.147V114.16H519.107V138H514.755ZM533.453 138.384C531.554 138.384 529.89 137.872 528.461 136.848C527.032 135.824 525.912 134.384 525.101 132.528C524.312 130.672 523.917 128.517 523.917 126.064C523.917 123.589 524.312 121.435 525.101 119.6C525.89 117.765 527 116.336 528.429 115.312C529.858 114.288 531.522 113.776 533.421 113.776C535.362 113.776 537.037 114.288 538.445 115.312C539.874 116.336 540.994 117.776 541.805 119.632C542.616 121.467 543.021 123.611 543.021 126.064C543.021 128.517 542.616 130.672 541.805 132.528C541.016 134.363 539.906 135.803 538.477 136.848C537.048 137.872 535.373 138.384 533.453 138.384ZM533.485 134.416C534.573 134.416 535.501 134.085 536.269 133.424C537.037 132.741 537.624 131.781 538.029 130.544C538.456 129.285 538.669 127.792 538.669 126.064C538.669 124.336 538.456 122.853 538.029 121.616C537.624 120.357 537.026 119.397 536.237 118.736C535.469 118.075 534.53 117.744 533.421 117.744C532.354 117.744 531.437 118.075 530.669 118.736C529.901 119.397 529.304 120.357 528.877 121.616C528.472 122.853 528.269 124.336 528.269 126.064C528.269 127.771 528.472 129.253 528.877 130.512C529.304 131.749 529.901 132.709 530.669 133.392C531.458 134.075 532.397 134.416 533.485 134.416Z" fill="black"/>
<path d="M308.022 95.148L302.397 100.773C302.345 100.825 302.283 100.867 302.215 100.895C302.147 100.923 302.073 100.938 301.999 100.938C301.926 100.938 301.852 100.923 301.784 100.895C301.716 100.867 301.654 100.825 301.601 100.773L295.976 95.148C295.898 95.0693 295.844 94.969 295.822 94.8599C295.801 94.7507 295.812 94.6375 295.854 94.5347C295.897 94.4318 295.969 94.344 296.062 94.2822C296.154 94.2204 296.263 94.1874 296.374 94.1875H307.624C307.736 94.1874 307.845 94.2204 307.937 94.2822C308.03 94.344 308.102 94.4318 308.145 94.5347C308.187 94.6375 308.198 94.7507 308.177 94.8599C308.155 94.969 308.101 95.0693 308.022 95.148Z" fill="black"/>
<rect x="56" y="174" width="42" height="6" rx="3" fill="#CECECE"/>
<rect x="131" y="174" width="42" height="6" rx="3" fill="#CECECE"/>
<rect x="206" y="174" width="42" height="6" rx="3" fill="#CECECE"/>
<rect x="56" y="174" width="34" height="6" rx="3" fill="url(#paint1_linear_1022_541)"/>
<rect x="131" y="174" width="42" height="6" rx="3" fill="#65A3FF"/>
<rect x="206" y="174" width="42" height="6" rx="3" fill="#65A3FF"/>
<g clip-path="url(#clip0_1022_541)">
<path d="M234.116 94.4262C233.881 94.18 233.637 93.9262 233.545 93.7031C233.46 93.4988 233.455 93.16 233.45 92.8319C233.441 92.2219 233.431 91.5306 232.95 91.05C232.469 90.5694 231.778 90.5594 231.168 90.55C230.84 90.545 230.501 90.54 230.297 90.455C230.074 90.3631 229.82 90.1194 229.574 89.8837C229.142 89.4694 228.652 89 228 89C227.348 89 226.858 89.4694 226.426 89.8837C226.18 90.1194 225.926 90.3631 225.703 90.455C225.5 90.54 225.16 90.545 224.832 90.55C224.222 90.5594 223.531 90.5694 223.05 91.05C222.569 91.5306 222.562 92.2219 222.55 92.8319C222.545 93.16 222.54 93.4988 222.455 93.7031C222.363 93.9256 222.119 94.18 221.884 94.4262C221.469 94.8575 221 95.3475 221 96C221 96.6525 221.469 97.1419 221.884 97.5737C222.119 97.82 222.363 98.0738 222.455 98.2969C222.54 98.5012 222.545 98.84 222.55 99.1681C222.559 99.7781 222.569 100.469 223.05 100.95C223.531 101.431 224.222 101.441 224.832 101.45C225.16 101.455 225.499 101.46 225.703 101.545C225.926 101.637 226.18 101.881 226.426 102.116C226.857 102.531 227.348 103 228 103C228.652 103 229.142 102.531 229.574 102.116C229.82 101.881 230.074 101.637 230.297 101.545C230.501 101.46 230.84 101.455 231.168 101.45C231.778 101.441 232.469 101.431 232.95 100.95C233.431 100.469 233.441 99.7781 233.45 99.1681C233.455 98.84 233.46 98.5012 233.545 98.2969C233.637 98.0744 233.881 97.82 234.116 97.5737C234.531 97.1425 235 96.6525 235 96C235 95.3475 234.531 94.8581 234.116 94.4262ZM230.854 94.8538L227.354 98.3538C227.307 98.4002 227.252 98.4371 227.191 98.4623C227.131 98.4874 227.066 98.5004 227 98.5004C226.934 98.5004 226.869 98.4874 226.809 98.4623C226.748 98.4371 226.693 98.4002 226.646 98.3538L225.146 96.8538C225.052 96.7599 225 96.6327 225 96.5C225 96.3673 225.052 96.2401 225.146 96.1462C225.24 96.0524 225.367 95.9997 225.5 95.9997C225.633 95.9997 225.76 96.0524 225.854 96.1462L227 97.2931L230.146 94.1462C230.193 94.0998 230.248 94.0629 230.309 94.0378C230.369 94.0127 230.434 93.9997 230.5 93.9997C230.566 93.9997 230.631 94.0127 230.691 94.0378C230.752 94.0629 230.807 94.0998 230.854 94.1462C230.9 94.1927 230.937 94.2479 230.962 94.3086C230.987 94.3692 231 94.4343 231 94.5C231 94.5657 230.987 94.6308 230.962 94.6914C230.937 94.7521 230.9 94.8073 230.854 94.8538Z" fill="#F3C833"/>
</g>
<defs>
<filter id="filter0_d_1022_541" x="264" y="79" width="76" height="120" filterUnits="userSpaceOnUse" color-interpolation-filters="sRGB">
<feFlood flood-opacity="0" result="BackgroundImageFix"/>
<feColorMatrix in="SourceAlpha" type="matrix" values="0 0 0 0 0 0 0 0 0 0 0 0 0 0 0 0 0 0 127 0" result="hardAlpha"/>
<feOffset dy="4"/>
<feGaussianBlur stdDeviation="2"/>
<feComposite in2="hardAlpha" operator="out"/>
<feColorMatrix type="matrix" values="0 0 0 0 0 0 0 0 0 0 0 0 0 0 0 0 0 0 0.25 0"/>
<feBlend mode="normal" in2="BackgroundImageFix" result="effect1_dropShadow_1022_541"/>
<feBlend mode="normal" in="SourceGraphic" in2="effect1_dropShadow_1022_541" result="shape"/>
</filter>
<linearGradient id="paint0_linear_1022_541" x1="40" y1="262.5" x2="293" y2="262.5" gradientUnits="userSpaceOnUse">
<stop offset="0.55" stop-color="#65A3FF"/>
<stop offset="1" stop-color="#86DBFF"/>
</linearGradient>
<linearGradient id="paint1_linear_1022_541" x1="56" y1="177" x2="90" y2="177" gradientUnits="userSpaceOnUse">
<stop offset="0.55" stop-color="#65A3FF"/>
<stop offset="1" stop-color="#86DBFF"/>
</linearGradient>
<clipPath id="clip0_1022_541">
<rect width="14" height="14" fill="white" transform="translate(221 89)"/>
</clipPath>
</defs>
</svg>
