<svg width="215" height="824" viewBox="0 0 215 824" fill="none" xmlns="http://www.w3.org/2000/svg">
<path d="M96.0634 36.9668C98.8785 57.7386 87.9701 77.1022 70.7279 86.96C65.0978 82.0311 60.5233 76.046 57.3564 69.0047C57.3564 68.6526 54.5413 62.6675 53.8376 55.6262C50.6706 33.4461 65.8016 13.0264 66.5053 11.9702C68.9685 8.80162 72.4873 4.22478 78.1174 0C82.34 4.92891 88.322 13.0264 92.5446 23.5883C93.6003 27.461 95.3597 31.3338 96.0634 36.9668Z" fill="#D2D2D2"/>
<path d="M131.956 96.8178C114.713 106.676 93.6005 104.211 79.1733 92.593C81.2846 85.9038 85.1553 79.9187 90.0817 74.6377C90.4336 74.2857 94.6562 70.0609 100.286 66.5402C118.584 55.9783 141.808 61.6113 143.216 61.9634C146.735 63.0196 152.013 64.7799 157.995 67.9485C155.18 73.5815 150.254 81.327 142.16 89.0724C139.345 91.5368 136.53 94.3533 131.956 96.8178Z" fill="#D2D2D2"/>
<path d="M205.147 716.804C209.722 736.167 201.277 755.531 185.794 766.093C180.164 762.22 175.237 756.939 171.718 750.602C171.718 750.25 168.551 744.969 167.144 738.28C162.218 717.86 174.533 697.088 174.885 696.032C176.997 692.863 179.812 688.286 184.738 683.71C189.313 687.934 195.646 694.976 200.573 704.834C201.98 708.002 203.74 711.523 205.147 716.804Z" fill="#D2D2D2"/>
<path d="M102.75 719.268C121.751 713.987 141.457 721.381 152.717 736.167C148.846 742.152 143.92 747.081 137.586 750.954C137.234 750.954 131.956 754.475 125.622 756.235C105.213 761.868 84.0999 750.954 83.0442 750.25C79.5254 748.49 74.9509 745.673 70.3765 741.096C74.5991 736.167 80.9329 729.83 90.7856 724.549C93.9526 722.789 97.4714 721.029 102.75 719.268Z" fill="#D2D2D2"/>
<path d="M144.624 545.348C124.918 543.588 109.083 529.505 103.805 511.55C109.435 507.325 116.121 504.509 123.159 503.1C123.511 503.1 129.493 502.044 136.178 502.396C157.291 504.157 173.126 522.464 173.83 523.168C176.293 525.985 179.46 530.562 182.627 536.195C176.997 539.011 168.551 542.884 157.643 544.292C153.772 544.996 149.902 545.7 144.624 545.348Z" fill="#D2D2D2"/>
<path d="M213.592 504.509C208.666 523.872 192.831 537.251 174.181 539.715C171.014 533.378 168.903 526.689 168.551 519.295C168.551 518.943 168.199 512.606 169.959 506.269C174.885 485.849 195.294 472.823 195.998 472.119C199.165 470.006 204.091 467.542 210.425 465.43C212.536 471.415 215 480.216 215 491.482C215 495.355 215 499.58 213.592 504.509Z" fill="#D2D2D2"/>
<path d="M178.404 420.013C173.478 439.377 157.643 452.755 138.993 455.22C135.826 448.883 133.715 442.193 133.363 434.8C133.363 434.448 133.011 428.111 134.771 421.774C139.697 401.354 160.106 388.327 160.81 387.623C163.977 385.511 168.903 383.046 175.237 380.934C177.348 386.919 179.812 395.721 179.812 406.987C179.812 410.86 179.812 415.084 178.404 420.013Z" fill="#D2D2D2"/>
<path d="M125.622 455.22C120.696 474.583 104.861 487.962 86.2111 490.426C83.0441 484.089 80.9329 477.4 80.581 470.006C80.581 469.654 80.2291 463.317 81.9885 456.98C86.9148 436.56 107.324 423.534 108.028 422.83C111.195 420.717 116.121 418.253 122.455 416.14C124.566 422.126 127.029 430.927 127.029 442.193C127.029 446.066 127.029 450.291 125.622 455.22Z" fill="#D2D2D2"/>
<path d="M174.533 600.622C190.016 612.945 195.646 633.364 190.016 651.32C182.978 651.672 175.941 650.616 169.255 647.799C168.903 647.799 163.273 645.335 157.995 641.11C141.456 628.083 137.938 604.143 137.938 603.087C137.586 599.214 137.234 593.933 137.938 587.244C144.271 587.948 153.42 589.356 163.273 593.933C166.792 595.341 170.663 597.102 174.533 600.622Z" fill="#D2D2D2"/>
<path d="M99.9344 124.631C116.121 136.249 122.807 155.965 118.232 174.272C111.195 174.976 104.157 174.272 97.4713 171.808C97.1194 171.808 91.1374 169.695 85.8592 165.822C68.265 153.852 63.6906 130.264 63.3387 129.208C62.6349 125.335 61.9312 120.054 62.283 113.365C68.6169 113.717 77.7659 114.773 87.9704 118.646C91.8411 120.054 95.36 121.814 99.9344 124.631Z" fill="#D2D2D2"/>
<path d="M49.6152 156.317C38.355 172.864 18.6496 179.905 0.351696 175.68C-0.70395 168.639 -0.000186089 161.598 2.11111 154.556C2.11111 154.204 4.2224 148.219 7.74122 142.938C19.3533 125.335 42.9294 120.406 44.337 120.054C48.2077 119.35 53.4859 118.646 60.1717 118.998C60.1717 125.335 59.116 134.489 55.2453 144.699C54.1897 148.219 52.7821 152.092 49.6152 156.317Z" fill="#D2D2D2"/>
<path d="M62.987 251.374C61.2275 267.217 47.5041 279.187 29.5581 282.708C25.3356 278.131 22.5205 272.85 21.113 267.217C21.113 266.865 20.0573 261.936 20.4092 256.655C22.1686 240.108 40.1146 227.786 40.8184 227.434C43.6334 225.673 47.856 223.209 53.838 221.097C57.005 225.673 60.5238 232.363 62.2832 241.164C62.987 243.981 63.6907 247.149 62.987 251.374Z" fill="#D2D2D2"/>
<path d="M95.008 360.514C93.2485 377.765 78.1176 391.144 58.0603 395.017C53.4859 390.088 49.967 384.103 48.5595 377.765C48.5595 377.413 47.152 372.132 47.8557 366.147C49.6152 347.84 69.3206 334.461 70.3762 333.757C73.5431 331.645 78.1176 328.828 84.8034 326.716C87.9703 331.645 92.1929 339.39 93.9523 348.896C95.008 352.417 95.7117 355.937 95.008 360.514Z" fill="#D2D2D2"/>
<path d="M86.5629 209.831C103.101 212.295 115.417 226.026 118.232 243.277C113.306 246.797 107.676 249.262 101.342 250.318C100.99 250.318 95.7119 251.022 90.4336 250.318C72.8395 247.501 60.8755 230.25 60.1718 229.194C58.4124 226.378 55.9492 222.153 53.8379 216.52C58.7642 214.055 66.1538 210.887 75.3027 209.831C78.8215 209.478 81.9885 209.126 86.5629 209.831Z" fill="#D2D2D2"/>
<path d="M118.232 322.491C134.771 324.956 147.087 338.686 149.902 355.937C144.975 359.458 139.345 361.923 133.011 362.979C132.66 362.979 127.381 363.683 122.103 362.979C104.509 360.162 92.545 342.911 91.8412 341.855C90.0818 339.038 87.6186 334.814 85.5073 329.181C90.4337 326.716 97.8232 323.547 106.972 322.491C110.491 322.139 113.658 321.787 118.232 322.491Z" fill="#D2D2D2"/>
<path d="M155.532 8.80162C125.622 27.8131 84.4514 61.2593 64.0422 114.421C33.4285 194.692 66.5054 279.187 113.306 392.552C164.329 516.831 193.887 529.153 197.757 589.708C203.739 682.301 141.808 763.628 81.6363 822.071" stroke="#D2D2D2" stroke-width="2.8346" stroke-miterlimit="10" stroke-linecap="round"/>
</svg>
