<svg width="351" height="529" viewBox="0 0 351 529" fill="none" xmlns="http://www.w3.org/2000/svg">
<path d="M64.5002 100.904C71.1786 120.142 88.8566 131.921 108.106 132.706C110.856 126.032 112.034 118.964 111.642 111.505C111.642 111.112 111.249 104.83 108.892 98.548C101.82 78.1317 80.214 67.1383 79.0355 66.7457C75.4999 65.1752 70.3929 62.8195 63.7146 61.6416C62.1432 67.9236 60.5718 76.9539 61.7503 88.3399C62.536 91.4809 62.9289 95.7997 64.5002 100.904Z" fill="#D2D2D2"/>
<path d="M302.927 117.787C322.962 119.75 341.426 109.149 350.462 92.2663C345.747 87.1622 339.855 82.8433 332.784 80.095C332.391 80.095 326.498 77.7392 319.82 76.954C298.606 74.5982 278.964 89.5179 278.178 90.3031C275.035 92.6589 271.107 96.1925 266.786 101.689C271.893 105.615 279.357 111.112 289.963 115.038C293.499 115.824 297.427 117.001 302.927 117.787Z" fill="#D2D2D2"/>
<path d="M22.0728 316.846C5.18053 327.839 -2.28352 347.863 1.64493 366.709C8.71613 367.887 16.1802 367.101 22.8585 365.138C23.2514 365.138 29.144 363.175 35.0367 359.249C53.1076 347.47 58.6074 323.913 59.0002 322.343C59.7859 318.416 60.5716 312.92 60.5716 306.245C54.2861 306.245 44.8578 307.03 34.251 310.957C30.3226 312.134 26.3941 313.705 22.0728 316.846Z" fill="#D2D2D2"/>
<path d="M103.785 330.588C83.7498 331.766 66.8575 345.115 60.9648 363.568C66.4647 367.887 73.143 371.42 80.2142 372.991C80.607 372.991 86.8926 374.561 93.5709 374.169C114.785 372.991 131.677 355.323 132.463 354.538C135.212 351.789 138.748 347.47 141.891 341.581C136.391 338.44 127.748 334.121 116.749 332.158C113.213 330.98 109.285 330.195 103.785 330.588Z" fill="#D2D2D2"/>
<path d="M98.82 207.102C78.785 208.28 61.8927 221.629 56 240.082C61.4998 244.401 68.1782 247.935 75.2494 249.505C75.6422 249.505 81.9277 251.076 88.6061 250.683C109.82 249.505 126.712 231.837 127.498 231.052C130.248 228.304 133.783 223.985 136.926 218.096C131.426 214.955 122.784 210.636 111.784 208.673C108.248 207.495 104.32 206.71 98.82 207.102Z" fill="#D2D2D2"/>
<path d="M273.886 328.232C284.1 345.9 303.35 354.538 322.206 351.789C323.778 344.722 323.778 337.655 321.813 330.588C321.813 330.195 320.242 324.306 316.706 318.416C306.1 299.57 282.922 292.503 281.743 292.111C278.208 290.933 272.708 289.755 266.029 289.755C265.637 296.037 265.637 305.46 268.779 316.453C269.958 319.594 271.136 323.52 273.886 328.232Z" fill="#D2D2D2"/>
<path d="M246.387 461.723C256.601 479.391 275.851 488.029 294.707 485.281C296.279 478.214 296.279 471.146 294.314 464.079C294.314 463.687 292.743 457.797 289.207 451.908C278.601 433.062 255.423 425.995 254.244 425.602C250.709 424.424 245.209 423.247 238.53 423.247C238.138 429.528 238.138 438.951 241.28 449.945C242.459 453.086 243.637 457.012 246.387 461.723Z" fill="#D2D2D2"/>
<path d="M192.568 431.099C212.603 435.025 231.852 425.602 241.673 409.505C237.352 404.008 231.852 399.297 225.174 395.763C224.781 395.763 219.281 392.622 212.603 391.444C191.389 387.518 170.961 400.474 169.783 401.26C166.64 403.223 162.319 406.756 157.604 411.86C162.319 416.179 169.39 422.461 179.604 426.78C183.532 428.743 187.068 430.314 192.568 431.099Z" fill="#D2D2D2"/>
<path d="M225.566 234.788C209.067 246.567 202.389 266.983 207.103 285.436C214.174 286.221 221.638 285.436 228.316 283.08C228.709 283.08 234.602 280.725 240.102 276.798C257.387 264.235 262.101 240.285 262.494 239.107C263.279 235.181 263.672 229.684 263.279 223.009C256.994 223.402 247.566 224.187 237.352 228.506C233.816 230.076 229.888 231.647 225.566 234.788Z" fill="#D2D2D2"/>
<path d="M140.319 503.341C151.712 519.831 174.89 529.254 197.282 528.076C199.246 521.794 199.246 515.12 197.282 508.838C197.282 508.445 195.317 502.949 191.782 497.452C179.604 479.784 152.105 471.539 150.533 471.146C146.212 469.968 139.926 468.398 131.677 467.613C130.891 473.502 130.891 481.747 134.427 491.955C135.998 495.096 137.177 499.022 140.319 503.341Z" fill="#D2D2D2"/>
<path d="M48.3934 440.914C39.7509 458.975 42.5008 483.71 54.679 502.556C60.9645 501.378 66.8571 497.844 71.5713 493.133C71.9641 492.74 75.8926 488.814 79.0353 482.532C88.4636 463.294 82.1781 435.418 81.7852 433.847C80.6067 429.528 79.0353 423.246 75.4997 415.786C69.9999 418.142 62.9287 422.068 55.8575 430.313C53.1076 433.062 50.7505 435.81 48.3934 440.914Z" fill="#D2D2D2"/>
<path d="M47.215 78.9169C40.5366 98.1554 22.8586 109.934 3.60926 110.719C0.859353 104.045 -0.319186 96.9776 0.0736581 89.5177C0.0736581 89.1251 0.466506 82.8432 2.82357 76.5612C9.89477 56.1449 31.5012 45.1514 32.6797 44.7588C36.2153 43.1883 41.3223 40.8326 48.0007 39.6547C49.5721 45.9367 51.1434 54.967 49.9649 66.353C49.5721 69.8866 48.7864 73.8128 47.215 78.9169Z" fill="#D2D2D2"/>
<path d="M51.1437 224.187C44.4654 243.426 26.7874 255.204 7.53798 255.989C4.78806 249.315 3.60952 242.248 4.00237 234.788C4.00237 234.395 4.39522 228.113 6.75228 221.831C13.8235 201.415 35.4299 190.422 36.6085 190.029C40.1441 188.458 45.251 186.103 51.9294 184.925C53.5008 191.207 55.0722 200.237 53.8936 211.623C53.5008 215.157 52.7151 219.083 51.1437 224.187Z" fill="#D2D2D2"/>
<path d="M245.994 164.901C229.888 175.502 209.067 173.539 193.746 162.153C195.317 155.478 198.46 149.196 203.174 143.7C203.567 143.307 207.496 138.988 212.603 135.454C229.888 124.461 253.066 129.173 254.244 129.565C257.78 130.35 263.28 131.921 269.172 135.062C266.815 140.951 262.494 148.804 255.423 156.656C253.066 159.404 250.316 162.153 245.994 164.901Z" fill="#D2D2D2"/>
<path d="M267.993 0V327.447C267.993 402.83 220.459 464.079 161.925 464.079C103.392 464.079 55.8574 402.83 55.8574 327.447V0" stroke="#D2D2D2" stroke-width="6.77" stroke-miterlimit="10"/>
</svg>
