<svg width="212" height="826" viewBox="0 0 212 826" fill="none" xmlns="http://www.w3.org/2000/svg">
<g clip-path="url(#clip0_1030_812)">
<path d="M49.4175 456.747C54.448 471.365 67.7641 480.315 82.2638 480.912C84.3352 475.84 85.223 470.47 84.9271 464.802C84.9271 464.504 84.6311 459.731 82.8557 454.957C77.5292 439.444 61.254 431.091 60.3663 430.792C57.703 429.599 53.8562 427.809 48.8256 426.914C47.642 431.687 46.4583 438.549 47.3461 447.201C47.9379 449.587 48.2338 452.869 49.4175 456.747Z" fill="#D2D2D2"/>
<path d="M39.3566 469.874C34.326 484.492 21.01 493.442 6.51021 494.039C4.43881 488.967 3.55107 483.597 3.84699 477.929C3.84699 477.63 4.1429 472.857 5.91838 468.084C11.2448 452.571 27.52 444.217 28.4078 443.919C31.071 442.726 34.9179 440.936 39.9484 440.041C41.132 444.814 42.3157 451.676 41.428 460.327C41.132 463.012 40.8361 465.995 39.3566 469.874Z" fill="#D2D2D2"/>
<path d="M43.4995 580.854C48.53 595.472 61.8461 604.422 76.3459 605.018C78.4173 599.947 79.305 594.577 79.0091 588.908C79.0091 588.61 78.7132 583.837 76.9377 579.064C71.6113 563.55 55.336 555.197 54.4483 554.899C51.7851 553.705 47.9382 551.915 42.9077 551.02C41.724 555.794 40.5404 562.655 41.4281 571.307C42.0199 573.694 42.3159 576.975 43.4995 580.854Z" fill="#D2D2D2"/>
<path d="M39.3566 534.314C34.326 548.932 21.01 557.882 6.51021 558.479C4.43881 553.407 3.55107 548.037 3.84699 542.369C3.84699 542.07 4.1429 537.297 5.91838 532.524C11.2448 517.01 27.52 508.657 28.4078 508.359C31.071 507.165 34.9179 505.375 39.9484 504.48C41.132 509.254 42.3157 516.115 41.428 524.767C41.132 527.452 40.8361 530.435 39.3566 534.314Z" fill="#D2D2D2"/>
<path d="M46.4585 374.706C51.489 389.324 64.8051 398.274 79.3048 398.871C81.3762 393.799 82.264 388.429 81.9681 382.761C81.9681 382.462 81.6722 377.689 79.8967 372.916C74.5702 357.402 58.295 349.049 57.4073 348.751C54.7441 347.557 50.8972 345.767 45.8667 344.872C44.683 349.646 43.4994 356.507 44.3871 365.159C44.9789 367.844 45.2748 370.827 46.4585 374.706Z" fill="#D2D2D2"/>
<path d="M39.3566 361.281C34.326 375.899 21.01 384.849 6.51021 385.446C4.43881 380.374 3.55107 375.004 3.84699 369.336C3.84699 369.037 4.1429 364.264 5.91838 359.491C11.2448 343.977 27.52 335.624 28.4078 335.326C31.071 334.132 34.9179 332.342 39.9484 331.447C41.132 336.221 42.3157 343.082 41.428 351.734C41.132 354.121 40.8361 357.402 39.3566 361.281Z" fill="#D2D2D2"/>
<path d="M46.459 253.881C51.7854 268.499 65.1015 277.449 79.3053 278.046C81.3767 272.974 82.2645 267.604 81.9686 261.936C81.9686 261.638 81.6726 256.864 79.8972 252.091C74.5707 236.578 58.2955 228.224 57.4078 227.926C54.7445 226.733 50.8977 224.943 45.8672 224.048C44.6835 228.821 43.4998 235.683 44.3876 244.334C44.9794 247.019 45.2753 250.003 46.459 253.881Z" fill="#D2D2D2"/>
<path d="M42.316 282.223C37.2855 296.841 23.9694 305.791 9.46968 306.388C7.39829 301.316 6.51055 295.946 6.80646 290.278C6.80646 289.979 7.10237 285.206 8.87785 280.433C14.2043 264.919 30.4795 256.566 31.3673 256.268C34.0305 255.074 37.8773 253.284 42.9079 252.389C44.0915 257.163 45.2752 264.024 44.3874 272.676C44.0915 275.063 43.7956 278.344 42.316 282.223Z" fill="#D2D2D2"/>
<path d="M48.8257 161.398C53.8562 176.016 67.1723 184.966 81.672 185.563C83.7434 180.491 84.6312 175.121 84.3353 169.453C84.3353 169.155 84.0393 164.381 82.2639 159.608C76.9374 144.095 60.6622 135.741 59.7745 135.443C57.1112 134.25 53.2644 132.46 48.2338 131.565C47.0502 136.338 45.8665 143.2 46.7543 151.851C47.0502 154.536 47.3461 157.52 48.8257 161.398Z" fill="#D2D2D2"/>
<path d="M41.4279 147.973C36.3973 162.591 23.0812 171.541 8.5815 172.138C6.5101 167.066 5.62236 161.696 5.91828 156.028C5.91828 155.73 6.21419 150.956 7.98967 146.183C13.3161 130.67 29.5913 122.316 30.4791 122.018C33.1423 120.825 36.9892 119.035 42.0197 118.14C43.2033 122.913 44.387 129.775 43.4992 138.426C43.2033 140.813 42.9074 144.095 41.4279 147.973Z" fill="#D2D2D2"/>
<path d="M47.0505 71.3014C52.6728 87.1131 67.1726 97.2564 83.1519 97.853C85.5192 92.4831 86.4069 86.2181 86.111 80.2514C86.111 79.9531 85.8151 74.5831 84.0396 69.5115C78.1214 52.5065 60.0707 43.2582 59.1829 42.9599C56.2238 41.4682 52.081 39.6782 46.7546 38.4849C45.5709 43.5565 44.0913 51.3132 45.275 60.5615C44.9791 63.8431 45.5709 67.1248 47.0505 71.3014Z" fill="#D2D2D2"/>
<path d="M39.0608 56.3848C33.4384 72.1965 18.9387 82.3398 2.95936 82.9364C0.592058 77.5664 -0.295682 71.3015 0.0002314 65.3348C0.0002314 65.0365 0.296144 59.6665 2.07162 54.5948C7.98989 37.5899 26.0406 28.3416 26.9283 28.0432C29.8875 26.5516 34.0302 24.7616 39.3567 23.5682C40.5403 28.6399 42.0199 36.3965 40.8362 45.6448C40.8362 48.9265 40.5403 52.2082 39.0608 56.3848Z" fill="#D2D2D2"/>
<path d="M43.4995 4.47498C43.4995 222.258 43.4995 440.041 43.4995 657.823" stroke="#D2D2D2" stroke-width="6.94" stroke-miterlimit="10" stroke-linecap="round"/>
</g>
<g clip-path="url(#clip1_1030_812)">
<path d="M110.417 620.747C115.448 635.366 128.764 644.315 143.264 644.912C145.335 639.84 146.223 634.471 145.927 628.802C145.927 628.504 145.631 623.731 143.856 618.957C138.529 603.444 122.254 595.091 121.366 594.792C118.703 593.599 114.856 591.809 109.826 590.914C108.642 595.687 107.458 602.549 108.346 611.201C108.938 613.587 109.234 616.869 110.417 620.747Z" fill="#EBEBEB"/>
<path d="M100.357 633.874C95.326 648.492 82.01 657.442 67.5102 658.039C65.4388 652.967 64.5511 647.597 64.847 641.929C64.847 641.63 65.1429 636.857 66.9184 632.084C72.2448 616.571 88.52 608.217 89.4078 607.919C92.071 606.726 95.9179 604.936 100.948 604.041C102.132 608.814 103.316 615.676 102.428 624.327C102.132 627.012 101.836 629.995 100.357 633.874Z" fill="#EBEBEB"/>
<path d="M104.5 744.854C109.53 759.472 122.846 768.422 137.346 769.018C139.417 763.947 140.305 758.577 140.009 752.909C140.009 752.61 139.713 747.837 137.938 743.064C132.611 727.55 116.336 719.197 115.448 718.899C112.785 717.705 108.938 715.915 103.908 715.02C102.724 719.794 101.54 726.655 102.428 735.307C103.02 737.694 103.316 740.975 104.5 744.854Z" fill="#EBEBEB"/>
<path d="M100.357 698.314C95.326 712.932 82.01 721.882 67.5102 722.479C65.4388 717.407 64.5511 712.037 64.847 706.369C64.847 706.07 65.1429 701.297 66.9184 696.524C72.2448 681.01 88.52 672.657 89.4078 672.359C92.071 671.165 95.9179 669.375 100.948 668.48C102.132 673.254 103.316 680.115 102.428 688.767C102.132 691.452 101.836 694.435 100.357 698.314Z" fill="#EBEBEB"/>
<path d="M107.458 538.706C112.489 553.324 125.805 562.274 140.305 562.871C142.376 557.799 143.264 552.429 142.968 546.761C142.968 546.462 142.672 541.689 140.897 536.916C135.57 521.402 119.295 513.049 118.407 512.751C115.744 511.557 111.897 509.767 106.867 508.872C105.683 513.646 104.499 520.507 105.387 529.159C105.979 531.844 106.275 534.827 107.458 538.706Z" fill="#EBEBEB"/>
<path d="M100.357 525.281C95.326 539.899 82.01 548.849 67.5102 549.446C65.4388 544.374 64.5511 539.004 64.847 533.336C64.847 533.037 65.1429 528.264 66.9184 523.491C72.2448 507.977 88.52 499.624 89.4078 499.326C92.071 498.132 95.9179 496.342 100.948 495.447C102.132 500.221 103.316 507.082 102.428 515.734C102.132 518.121 101.836 521.402 100.357 525.281Z" fill="#EBEBEB"/>
<path d="M107.459 417.881C112.785 432.499 126.102 441.449 140.305 442.046C142.377 436.974 143.264 431.604 142.969 425.936C142.969 425.638 142.673 420.864 140.897 416.091C135.571 400.578 119.296 392.224 118.408 391.926C115.745 390.733 111.898 388.943 106.867 388.048C105.683 392.821 104.5 399.683 105.388 408.334C105.979 411.019 106.275 414.003 107.459 417.881Z" fill="#EBEBEB"/>
<path d="M103.316 446.223C98.2855 460.841 84.9694 469.791 70.4697 470.388C68.3983 465.316 67.5105 459.946 67.8065 454.278C67.8065 453.979 68.1024 449.206 69.8779 444.433C75.2043 428.919 91.4795 420.566 92.3673 420.268C95.0305 419.074 98.8773 417.284 103.908 416.389C105.092 421.163 106.275 428.024 105.387 436.676C105.092 439.063 104.796 442.344 103.316 446.223Z" fill="#EBEBEB"/>
<path d="M109.826 325.398C114.856 340.016 128.172 348.966 142.672 349.563C144.743 344.491 145.631 339.121 145.335 333.453C145.335 333.155 145.039 328.381 143.264 323.608C137.937 308.095 121.662 299.741 120.774 299.443C118.111 298.25 114.264 296.46 109.234 295.565C108.05 300.338 106.867 307.2 107.754 315.851C108.05 318.536 108.346 321.52 109.826 325.398Z" fill="#EBEBEB"/>
<path d="M102.428 311.973C97.3973 326.591 84.0812 335.541 69.5815 336.138C67.5101 331.066 66.6224 325.696 66.9183 320.028C66.9183 319.73 67.2142 314.956 68.9897 310.183C74.3161 294.67 90.5913 286.316 91.4791 286.018C94.1423 284.825 97.9892 283.035 103.02 282.14C104.203 286.913 105.387 293.775 104.499 302.426C104.203 304.813 103.907 308.095 102.428 311.973Z" fill="#EBEBEB"/>
<path d="M108.05 235.301C113.673 251.113 128.173 261.256 144.152 261.853C146.519 256.483 147.407 250.218 147.111 244.251C147.111 243.953 146.815 238.583 145.04 233.511C139.121 216.506 121.071 207.258 120.183 206.96C117.224 205.468 113.081 203.678 107.755 202.485C106.571 207.557 105.091 215.313 106.275 224.561C105.979 227.843 106.571 231.125 108.05 235.301Z" fill="#EBEBEB"/>
<path d="M100.061 220.385C94.4384 236.196 79.9387 246.34 63.9594 246.936C61.5921 241.566 60.7043 235.301 61.0002 229.335C61.0002 229.036 61.2961 223.666 63.0716 218.595C68.9899 201.59 87.0406 192.342 87.9283 192.043C90.8875 190.552 95.0302 188.762 100.357 187.568C101.54 192.64 103.02 200.397 101.836 209.645C101.836 212.927 101.54 216.208 100.061 220.385Z" fill="#EBEBEB"/>
<path d="M104.5 168.475C104.5 386.258 104.5 604.041 104.5 821.823" stroke="#EBEBEB" stroke-width="6.94" stroke-miterlimit="10" stroke-linecap="round"/>
</g>
<g clip-path="url(#clip2_1030_812)">
<path d="M175.417 465.747C180.448 480.365 193.764 489.315 208.264 489.912C210.335 484.84 211.223 479.47 210.927 473.802C210.927 473.504 210.631 468.731 208.856 463.957C203.529 448.444 187.254 440.091 186.366 439.792C183.703 438.599 179.856 436.809 174.826 435.914C173.642 440.687 172.458 447.549 173.346 456.201C173.938 458.587 174.234 461.869 175.417 465.747Z" fill="#D2D2D2"/>
<path d="M165.357 478.874C160.326 493.492 147.01 502.442 132.51 503.039C130.439 497.967 129.551 492.597 129.847 486.929C129.847 486.63 130.143 481.857 131.918 477.084C137.245 461.571 153.52 453.217 154.408 452.919C157.071 451.726 160.918 449.936 165.948 449.041C167.132 453.814 168.316 460.676 167.428 469.327C167.132 472.012 166.836 474.995 165.357 478.874Z" fill="#D2D2D2"/>
<path d="M169.5 589.854C174.53 604.472 187.846 613.422 202.346 614.018C204.417 608.947 205.305 603.577 205.009 597.908C205.009 597.61 204.713 592.837 202.938 588.064C197.611 572.55 181.336 564.197 180.448 563.899C177.785 562.705 173.938 560.915 168.908 560.02C167.724 564.794 166.54 571.655 167.428 580.307C168.02 582.694 168.316 585.975 169.5 589.854Z" fill="#D2D2D2"/>
<path d="M165.357 543.314C160.326 557.932 147.01 566.882 132.51 567.479C130.439 562.407 129.551 557.037 129.847 551.369C129.847 551.07 130.143 546.297 131.918 541.524C137.245 526.01 153.52 517.657 154.408 517.359C157.071 516.165 160.918 514.375 165.948 513.48C167.132 518.254 168.316 525.115 167.428 533.767C167.132 536.452 166.836 539.435 165.357 543.314Z" fill="#D2D2D2"/>
<path d="M172.458 383.706C177.489 398.324 190.805 407.274 205.305 407.871C207.376 402.799 208.264 397.429 207.968 391.761C207.968 391.462 207.672 386.689 205.897 381.916C200.57 366.402 184.295 358.049 183.407 357.751C180.744 356.557 176.897 354.767 171.867 353.872C170.683 358.646 169.499 365.507 170.387 374.159C170.979 376.844 171.275 379.827 172.458 383.706Z" fill="#D2D2D2"/>
<path d="M165.357 370.281C160.326 384.899 147.01 393.849 132.51 394.446C130.439 389.374 129.551 384.004 129.847 378.336C129.847 378.037 130.143 373.264 131.918 368.491C137.245 352.977 153.52 344.624 154.408 344.326C157.071 343.132 160.918 341.342 165.948 340.447C167.132 345.221 168.316 352.082 167.428 360.734C167.132 363.121 166.836 366.402 165.357 370.281Z" fill="#D2D2D2"/>
<path d="M172.459 262.881C177.785 277.499 191.102 286.449 205.305 287.046C207.377 281.974 208.264 276.604 207.969 270.936C207.969 270.638 207.673 265.864 205.897 261.091C200.571 245.578 184.296 237.224 183.408 236.926C180.745 235.733 176.898 233.943 171.867 233.048C170.683 237.821 169.5 244.683 170.388 253.334C170.979 256.019 171.275 259.003 172.459 262.881Z" fill="#D2D2D2"/>
<path d="M168.316 291.223C163.286 305.841 149.969 314.791 135.47 315.388C133.398 310.316 132.511 304.946 132.806 299.278C132.806 298.979 133.102 294.206 134.878 289.433C140.204 273.919 156.48 265.566 157.367 265.268C160.03 264.074 163.877 262.284 168.908 261.389C170.092 266.163 171.275 273.024 170.387 281.676C170.092 284.063 169.796 287.344 168.316 291.223Z" fill="#D2D2D2"/>
<path d="M174.826 170.398C179.856 185.016 193.172 193.966 207.672 194.563C209.743 189.491 210.631 184.121 210.335 178.453C210.335 178.155 210.039 173.381 208.264 168.608C202.937 153.095 186.662 144.741 185.774 144.443C183.111 143.25 179.264 141.46 174.234 140.565C173.05 145.338 171.867 152.2 172.754 160.851C173.05 163.536 173.346 166.52 174.826 170.398Z" fill="#D2D2D2"/>
<path d="M167.428 156.973C162.397 171.591 149.081 180.541 134.581 181.138C132.51 176.066 131.622 170.696 131.918 165.028C131.918 164.73 132.214 159.956 133.99 155.183C139.316 139.67 155.591 131.316 156.479 131.018C159.142 129.825 162.989 128.035 168.02 127.14C169.203 131.913 170.387 138.775 169.499 147.426C169.203 149.813 168.907 153.095 167.428 156.973Z" fill="#D2D2D2"/>
<path d="M173.05 80.3014C178.673 96.1131 193.173 106.256 209.152 106.853C211.519 101.483 212.407 95.2181 212.111 89.2514C212.111 88.9531 211.815 83.5831 210.04 78.5115C204.121 61.5065 186.071 52.2582 185.183 51.9599C182.224 50.4682 178.081 48.6782 172.755 47.4849C171.571 52.5565 170.091 60.3132 171.275 69.5615C170.979 72.8431 171.571 76.1248 173.05 80.3014Z" fill="#D2D2D2"/>
<path d="M165.061 65.3848C159.438 81.1965 144.939 91.3398 128.959 91.9364C126.592 86.5664 125.704 80.3015 126 74.3348C126 74.0365 126.296 68.6665 128.072 63.5948C133.99 46.5899 152.041 37.3416 152.928 37.0432C155.887 35.5516 160.03 33.7616 165.357 32.5682C166.54 37.6399 168.02 45.3965 166.836 54.6448C166.836 57.9265 166.54 61.2082 165.061 65.3848Z" fill="#D2D2D2"/>
<path d="M169.5 13.475C169.5 231.258 169.5 449.041 169.5 666.823" stroke="#D2D2D2" stroke-width="6.94" stroke-miterlimit="10" stroke-linecap="round"/>
</g>
<defs>
<clipPath id="clip0_1030_812">
<rect width="85.8148" height="662" fill="white"/>
</clipPath>
<clipPath id="clip1_1030_812">
<rect width="85.8148" height="662" fill="white" transform="translate(61 164)"/>
</clipPath>
<clipPath id="clip2_1030_812">
<rect width="85.8148" height="662" fill="white" transform="translate(126 9)"/>
</clipPath>
</defs>
</svg>
